<svg version="1.1" viewBox="0.0 0.0 900.0 450.0" fill="none" stroke="none" stroke-linecap="square" stroke-miterlimit="10" xmlns:xlink="http://www.w3.org/1999/xlink" xmlns="http://www.w3.org/2000/svg"><clipPath id="p.0"><path d="m0 0l900.0 0l0 450.0l-900.0 0l0 -450.0z" clip-rule="nonzero"/></clipPath><g clip-path="url(#p.0)"><path fill="#000000" fill-opacity="0.0" d="m0 0l900.0 0l0 450.0l-900.0 0z" fill-rule="evenodd"/><path fill="#000000" d="m560.01965 89.9785l0 0c-0.26965332 -10.349907 7.9020386 -18.958733 18.251953 -19.228348l0 0c4.970215 -0.12947845 9.788269 1.7207565 13.394287 5.1436615c3.606018 3.4229126 5.70459 8.138107 5.8340454 13.108307l0 0c0.26965332 10.349899 -7.9020386 18.958725 -18.251953 19.228348l0 0c-10.349915 0.26961517 -18.95874 -7.902069 -19.228333 -18.251968z" fill-rule="evenodd"/><path stroke="#000000" stroke-width="1.0" stroke-linejoin="round" stroke-linecap="butt" d="m560.01965 89.9785l0 0c-0.26965332 -10.349907 7.9020386 -18.958733 18.251953 -19.228348l0 0c4.970215 -0.12947845 9.788269 1.7207565 13.394287 5.1436615c3.606018 3.4229126 5.70459 8.138107 5.8340454 13.108307l0 0c0.26965332 10.349899 -7.9020386 18.958725 -18.251953 19.228348l0 0c-10.349915 0.26961517 -18.95874 -7.902069 -19.228333 -18.251968z" fill-rule="evenodd"/><path fill="#767373" d="m577.87054 97.533l0 0c-1.5131836 -3.1818848 -0.1616211 -6.990494 3.0187988 -8.506775l23.033875 -10.981514l0 0c1.5272827 -0.7281418 3.2807007 -0.81946564 4.8744507 -0.25388336c1.593811 0.56557465 2.8974 1.7417374 3.6240845 3.2697296l60.410034 127.02856c1.5131836 3.1818848 0.1616211 6.990494 -3.0187988 8.506775l-23.033875 10.981522c-3.18042 1.5162811 -6.9853516 0.16603088 -8.498535 -3.015854z" fill-rule="evenodd"/><path stroke="#767373" stroke-width="1.0" stroke-linejoin="round" stroke-linecap="butt" d="m577.87054 97.533l0 0c-1.5131836 -3.1818848 -0.1616211 -6.990494 3.0187988 -8.506775l23.033875 -10.981514l0 0c1.5272827 -0.7281418 3.2807007 -0.81946564 4.8744507 -0.25388336c1.593811 0.56557465 2.8974 1.7417374 3.6240845 3.2697296l60.410034 127.02856c1.5131836 3.1818848 0.1616211 6.990494 -3.0187988 8.506775l-23.033875 10.981522c-3.18042 1.5162811 -6.9853516 0.16603088 -8.498535 -3.015854z" fill-rule="evenodd"/><path fill="#767373" d="m606.5221 77.235245l-25.684875 -6.130432l1.2675781 29.672333z" fill-rule="evenodd"/><path stroke="#767373" stroke-width="1.0" stroke-linejoin="round" stroke-linecap="butt" d="m606.5221 77.235245l-25.684875 -6.130432l1.2675781 29.672333z" fill-rule="evenodd"/><path fill="#434343" d="m555.12024 83.476364l0 0c-0.26965332 -10.349899 7.9020386 -18.958725 18.251953 -19.228348l0 0c4.970215 -0.12947083 9.788269 1.7207565 13.394287 5.143669c3.606018 3.422905 5.70459 8.1381 5.8340454 13.108299l0 0c0.26965332 10.349907 -7.9020386 18.958733 -18.251953 19.228348l0 0c-10.349915 0.2696228 -18.95874 -7.9020615 -19.228333 -18.251968z" fill-rule="evenodd"/><path stroke="#434343" stroke-width="1.0" stroke-linejoin="round" stroke-linecap="butt" d="m555.12024 83.476364l0 0c-0.26965332 -10.349899 7.9020386 -18.958725 18.251953 -19.228348l0 0c4.970215 -0.12947083 9.788269 1.7207565 13.394287 5.143669c3.606018 3.422905 5.70459 8.1381 5.8340454 13.108299l0 0c0.26965332 10.349907 -7.9020386 18.958733 -18.251953 19.228348l0 0c-10.349915 0.2696228 -18.95874 -7.9020615 -19.228333 -18.251968z" fill-rule="evenodd"/><path fill="#4781de" d="m581.8467 276.9638c12.099304 9.124237 49.191162 -36.494324 80.92651 -44.03151c31.735352 -7.5371857 82.821106 -6.736664 109.485535 -1.1916046c26.66449 5.545059 37.381042 32.277344 50.501343 34.461945c13.1203 2.1846008 39.41382 -5.098419 28.220459 -21.354324c-11.193359 -16.255905 -51.91339 -65.07088 -95.380554 -76.18111c-43.467224 -11.1102295 -136.46368 -8.529739 -165.4226 9.519684c-28.958862 18.049438 -20.429993 89.65268 -8.330688 98.77692z" fill-rule="evenodd"/><path stroke="#4781de" stroke-width="1.0" stroke-linejoin="round" stroke-linecap="butt" d="m581.8467 276.9638c12.099304 9.124237 49.191162 -36.494324 80.92651 -44.03151c31.735352 -7.5371857 82.821106 -6.736664 109.485535 -1.1916046c26.66449 5.545059 37.381042 32.277344 50.501343 34.461945c13.1203 2.1846008 39.41382 -5.098419 28.220459 -21.354324c-11.193359 -16.255905 -51.91339 -65.07088 -95.380554 -76.18111c-43.467224 -11.1102295 -136.46368 -8.529739 -165.4226 9.519684c-28.958862 18.049438 -20.429993 89.65268 -8.330688 98.77692z" fill-rule="evenodd"/><path fill="#b7b7b7" d="m452.94186 324.129l0 0c0 -11.055542 8.96228 -20.017822 20.017792 -20.017822l21.948639 0l0 0c5.3090515 0 10.400665 2.1090393 14.154724 5.863098c3.7540588 3.7540588 5.8630676 8.845673 5.8630676 14.154724l0 28.562805c0 11.055542 -8.96228 20.017822 -20.017792 20.017822l-21.948639 0c-11.055511 0 -20.017792 -8.96228 -20.017792 -20.017822z" fill-rule="evenodd"/><path stroke="#b7b7b7" stroke-width="1.0" stroke-linejoin="round" stroke-linecap="butt" d="m452.94186 324.129l0 0c0 -11.055542 8.96228 -20.017822 20.017792 -20.017822l21.948639 0l0 0c5.3090515 0 10.400665 2.1090393 14.154724 5.863098c3.7540588 3.7540588 5.8630676 8.845673 5.8630676 14.154724l0 28.562805c0 11.055542 -8.96228 20.017822 -20.017792 20.017822l-21.948639 0c-11.055511 0 -20.017792 -8.96228 -20.017792 -20.017822z" fill-rule="evenodd"/><path fill="#999999" d="m469.0521 319.4393l0 0c0 -0.8204651 0.6651306 -1.4855957 1.4855957 -1.4855957l26.792572 0c0.39401245 0 0.7718811 0.15652466 1.0504761 0.43511963c0.2786255 0.27859497 0.43511963 0.6564636 0.43511963 1.0504761l0 5.9421997c0 0.8204651 -0.6651001 1.4855957 -1.4855957 1.4855957l-26.792572 0c-0.8204651 0 -1.4855957 -0.6651306 -1.4855957 -1.4855957z" fill-rule="evenodd"/><path stroke="#999999" stroke-width="1.0" stroke-linejoin="round" stroke-linecap="butt" d="m469.0521 319.4393l0 0c0 -0.8204651 0.6651306 -1.4855957 1.4855957 -1.4855957l26.792572 0c0.39401245 0 0.7718811 0.15652466 1.0504761 0.43511963c0.2786255 0.27859497 0.43511963 0.6564636 0.43511963 1.0504761l0 5.9421997c0 0.8204651 -0.6651001 1.4855957 -1.4855957 1.4855957l-26.792572 0c-0.8204651 0 -1.4855957 -0.6651306 -1.4855957 -1.4855957z" fill-rule="evenodd"/><path fill="#999999" d="m469.0521 335.4393l0 0c0 -0.8204651 0.6651306 -1.4855957 1.4855957 -1.4855957l26.792572 0c0.39401245 0 0.7718811 0.15652466 1.0504761 0.43511963c0.2786255 0.27859497 0.43511963 0.6564636 0.43511963 1.0504761l0 5.9421997c0 0.8204651 -0.6651001 1.4855957 -1.4855957 1.4855957l-26.792572 0c-0.8204651 0 -1.4855957 -0.6651306 -1.4855957 -1.4855957z" fill-rule="evenodd"/><path stroke="#999999" stroke-width="1.0" stroke-linejoin="round" stroke-linecap="butt" d="m469.0521 335.4393l0 0c0 -0.8204651 0.6651306 -1.4855957 1.4855957 -1.4855957l26.792572 0c0.39401245 0 0.7718811 0.15652466 1.0504761 0.43511963c0.2786255 0.27859497 0.43511963 0.6564636 0.43511963 1.0504761l0 5.9421997c0 0.8204651 -0.6651001 1.4855957 -1.4855957 1.4855957l-26.792572 0c-0.8204651 0 -1.4855957 -0.6651306 -1.4855957 -1.4855957z" fill-rule="evenodd"/><path fill="#999999" d="m469.0521 351.4393l0 0c0 -0.8204651 0.6651306 -1.4855957 1.4855957 -1.4855957l26.792572 0c0.39401245 0 0.7718811 0.15652466 1.0504761 0.43511963c0.2786255 0.27859497 0.43511963 0.6564636 0.43511963 1.0504761l0 5.9421997c0 0.8204651 -0.6651001 1.4855957 -1.4855957 1.4855957l-26.792572 0c-0.8204651 0 -1.4855957 -0.6651306 -1.4855957 -1.4855957z" fill-rule="evenodd"/><path stroke="#999999" stroke-width="1.0" stroke-linejoin="round" stroke-linecap="butt" d="m469.0521 351.4393l0 0c0 -0.8204651 0.6651306 -1.4855957 1.4855957 -1.4855957l26.792572 0c0.39401245 0 0.7718811 0.15652466 1.0504761 0.43511963c0.2786255 0.27859497 0.43511963 0.6564636 0.43511963 1.0504761l0 5.9421997c0 0.8204651 -0.6651001 1.4855957 -1.4855957 1.4855957l-26.792572 0c-0.8204651 0 -1.4855957 -0.6651306 -1.4855957 -1.4855957z" fill-rule="evenodd"/><path fill="#b7b7b7" d="m216.2935 280.59076l-81.36221 -25.22049l3.7007904 -20.83464l85.06299 4.3858337z" fill-rule="evenodd"/><path stroke="#b7b7b7" stroke-width="1.0" stroke-linejoin="round" stroke-linecap="butt" d="m216.2935 280.59076l-81.36221 -25.22049l3.7007904 -20.83464l85.06299 4.3858337z" fill-rule="evenodd"/><path fill="#b7b7b7" d="m216.25029 280.57587l7.401581 -41.66928l155.71654 27.716522l-7.401581 41.66931z" fill-rule="evenodd"/><path stroke="#b7b7b7" stroke-width="1.0" stroke-linejoin="round" stroke-linecap="butt" d="m216.25029 280.57587l7.401581 -41.66928l155.71654 27.716522l-7.401581 41.66931z" fill-rule="evenodd"/><path fill="#cccccc" d="m327.0431 324.69794l0 0c0 -16.212555 13.142853 -29.355408 29.355377 -29.355408l74.801025 0l0 0c7.785553 0 15.252197 3.092804 20.757416 8.597992c5.505188 5.5052185 8.597992 12.971863 8.597992 20.757416l0 32.18683c0 16.212555 -13.142853 29.355408 -29.355408 29.355408l-74.801025 0c-16.212524 0 -29.355377 -13.142853 -29.355377 -29.355408z" fill-rule="evenodd"/><path stroke="#cccccc" stroke-width="1.0" stroke-linejoin="round" stroke-linecap="butt" d="m327.0431 324.69794l0 0c0 -16.212555 13.142853 -29.355408 29.355377 -29.355408l74.801025 0l0 0c7.785553 0 15.252197 3.092804 20.757416 8.597992c5.505188 5.5052185 8.597992 12.971863 8.597992 20.757416l0 32.18683c0 16.212555 -13.142853 29.355408 -29.355408 29.355408l-74.801025 0c-16.212524 0 -29.355377 -13.142853 -29.355377 -29.355408z" fill-rule="evenodd"/><path fill="#999999" d="m339.715 340.79135l0 0c0 -12.445984 10.089478 -22.53543 22.53543 -22.53543l0 0c5.976776 0 11.70874 2.3742676 15.934967 6.600464c4.226227 4.226227 6.600464 9.958191 6.600464 15.934967l0 0c0 12.445984 -10.089447 22.53543 -22.53543 22.53543l0 0c-12.445953 0 -22.53543 -10.089447 -22.53543 -22.53543z" fill-rule="evenodd"/><path stroke="#999999" stroke-width="1.0" stroke-linejoin="round" stroke-linecap="butt" d="m339.715 340.79135l0 0c0 -12.445984 10.089478 -22.53543 22.53543 -22.53543l0 0c5.976776 0 11.70874 2.3742676 15.934967 6.600464c4.226227 4.226227 6.600464 9.958191 6.600464 15.934967l0 0c0 12.445984 -10.089447 22.53543 -22.53543 22.53543l0 0c-12.445953 0 -22.53543 -10.089447 -22.53543 -22.53543z" fill-rule="evenodd"/><path fill="#4781de" d="m55.833115 177.85434l-9.522312 13.091873l221.35695 40.46193l4.758545 -64.26247z" fill-rule="evenodd"/><path stroke="#4781de" stroke-width="1.0" stroke-linejoin="round" stroke-linecap="butt" d="m55.833115 177.85434l-9.522312 13.091873l221.35695 40.46193l4.758545 -64.26247z" fill-rule="evenodd"/><path fill="#4781de" d="m223.63364 212.36877l114.24936 86.87402l217.78479 21.422577l54.742737 -63.073486l-2.3805542 -97.58794l-339.17322 -10.711288z" fill-rule="evenodd"/><path stroke="#4781de" stroke-width="1.0" stroke-linejoin="round" stroke-linecap="butt" d="m223.63364 212.36877l114.24936 86.87402l217.78479 21.422577l54.742737 -63.073486l-2.3805542 -97.58794l-339.17322 -10.711288z" fill-rule="evenodd"/><path fill="#434343" d="m274.61526 149.23492l156.95276 3.183731l120.19687 -3.5721893l26.183716 22.611557l-145.19162 36.89238l-145.18896 -27.372696z" fill-rule="evenodd"/><path stroke="#434343" stroke-width="1.0" stroke-linejoin="round" stroke-linecap="butt" d="m274.61526 149.23492l156.95276 3.183731l120.19687 -3.5721893l26.183716 22.611557l-145.19162 36.89238l-145.18896 -27.372696z" fill-rule="evenodd"/><path fill="#434343" d="m616.9475 843.32806l0 0c0 -76.25006 61.812927 -138.06299 138.06299 -138.06299l0 0c36.616577 0 71.73346 14.545898 97.625305 40.437744c25.891785 25.891846 40.437683 61.008667 40.437683 97.625244l0 0c0 76.25012 -61.812927 138.06299 -138.06299 138.06299l0 0c-76.25006 0 -138.06299 -61.812866 -138.06299 -138.06299z" fill-rule="evenodd"/><path fill="#999999" d="m676.04395 843.3379l0 0c0 -43.61743 35.358948 -78.97638 78.97638 -78.97638l0 0c20.9458 0 41.033752 8.32074 55.844727 23.131653c14.810913 14.810974 23.131653 34.898926 23.131653 55.844727l0 0c0 43.61743 -35.358948 78.97638 -78.97638 78.97638l0 0c-43.61743 0 -78.97638 -35.358948 -78.97638 -78.97638z" fill-rule="evenodd"/><path fill="#434343" d="m806.27124 776.57526l15.496033 15.496094l-118.01575 118.01575l-15.496033 -15.496094z" fill-rule="evenodd"/><path fill="#434343" d="m688.2577 792.07263l15.496033 -15.496094l118.01575 118.01575l-15.496033 15.496094z" fill-rule="evenodd"/><path fill="#434343" d="m53.97113 843.31757l0 0c0 -76.25006 61.812904 -138.06299 138.06299 -138.06299l0 0c36.616577 0 71.73346 14.545898 97.625275 40.437744c25.891846 25.891846 40.437714 61.008667 40.437714 97.625244l0 0c0 76.25012 -61.812897 138.06299 -138.06299 138.06299l0 0c-76.250084 0 -138.06299 -61.812866 -138.06299 -138.06299z" fill-rule="evenodd"/><path fill="#999999" d="m113.06756 843.3274l0 0c0 -43.61743 35.358925 -78.97638 78.97639 -78.97638l0 0c20.945831 0 41.033783 8.32074 55.844727 23.131653c14.810944 14.810974 23.131653 34.898926 23.131653 55.844727l0 0c0 43.61743 -35.358932 78.97638 -78.97638 78.97638l0 0c-43.617462 0 -78.97639 -35.358948 -78.97639 -78.97638z" fill-rule="evenodd"/><path fill="#434343" d="m243.29483 776.56476l15.496063 15.496094l-118.01575 118.01575l-15.496063 -15.496094z" fill-rule="evenodd"/><path fill="#434343" d="m125.28131 792.06213l15.496063 -15.496094l118.01575 118.01575l-15.496063 15.496094z" fill-rule="evenodd"/><path fill="#4781de" d="m608.136 160.05481l15.874023 8.874008l-16.874023 5.6246796z" fill-rule="evenodd"/><path stroke="#4781de" stroke-width="1.0" stroke-linejoin="round" stroke-linecap="butt" d="m608.136 160.05481l15.874023 8.874008l-16.874023 5.6246796z" fill-rule="evenodd"/></g></svg>