<svg version="1.1" viewBox="0.0 0.0 900.0 450.0" fill="none" stroke="none" stroke-linecap="square" stroke-miterlimit="10" xmlns:xlink="http://www.w3.org/1999/xlink" xmlns="http://www.w3.org/2000/svg"><clipPath id="p.0"><path d="m0 0l900.0 0l0 450.0l-900.0 0l0 -450.0z" clip-rule="nonzero"/></clipPath><g clip-path="url(#p.0)"><path fill="#000000" fill-opacity="0.0" d="m0 0l900.0 0l0 450.0l-900.0 0z" fill-rule="evenodd"/><path fill="#000000" d="m339.98035 89.9785l0 0c0.2696228 -10.349907 -7.902069 -18.958733 -18.251953 -19.228348l0 0c-4.970215 -0.12947845 -9.788269 1.7207565 -13.394287 5.1436615c-3.606018 3.4229126 -5.70459 8.138107 -5.834076 13.108307l0 0c-0.2696228 10.349899 7.902069 18.958725 18.251984 19.228348l0 0c10.349915 0.26961517 18.95871 -7.902069 19.228333 -18.251968z" fill-rule="evenodd"/><path stroke="#000000" stroke-width="1.0" stroke-linejoin="round" stroke-linecap="butt" d="m339.98035 89.9785l0 0c0.2696228 -10.349907 -7.902069 -18.958733 -18.251953 -19.228348l0 0c-4.970215 -0.12947845 -9.788269 1.7207565 -13.394287 5.1436615c-3.606018 3.4229126 -5.70459 8.138107 -5.834076 13.108307l0 0c-0.2696228 10.349899 7.902069 18.958725 18.251984 19.228348l0 0c10.349915 0.26961517 18.95871 -7.902069 19.228333 -18.251968z" fill-rule="evenodd"/><path fill="#767373" d="m322.12946 97.533l0 0c1.5131836 -3.1818848 0.1616211 -6.990494 -3.0187988 -8.506775l-23.033875 -10.981514l0 0c-1.5272827 -0.7281418 -3.2807007 -0.81946564 -4.874481 -0.25388336c-1.5937805 0.56557465 -2.8973694 1.7417374 -3.6240234 3.2697296l-60.41005 127.02856c-1.5131836 3.1818848 -0.1616211 6.990494 3.0187836 8.506775l23.03389 10.981522c3.1804047 1.5162811 6.9853363 0.16603088 8.49852 -3.015854z" fill-rule="evenodd"/><path stroke="#767373" stroke-width="1.0" stroke-linejoin="round" stroke-linecap="butt" d="m322.12946 97.533l0 0c1.5131836 -3.1818848 0.1616211 -6.990494 -3.0187988 -8.506775l-23.033875 -10.981514l0 0c-1.5272827 -0.7281418 -3.2807007 -0.81946564 -4.874481 -0.25388336c-1.5937805 0.56557465 -2.8973694 1.7417374 -3.6240234 3.2697296l-60.41005 127.02856c-1.5131836 3.1818848 -0.1616211 6.990494 3.0187836 8.506775l23.03389 10.981522c3.1804047 1.5162811 6.9853363 0.16603088 8.49852 -3.015854z" fill-rule="evenodd"/><path fill="#767373" d="m293.47794 77.235245l25.684875 -6.130432l-1.2675781 29.672333z" fill-rule="evenodd"/><path stroke="#767373" stroke-width="1.0" stroke-linejoin="round" stroke-linecap="butt" d="m293.47794 77.235245l25.684875 -6.130432l-1.2675781 29.672333z" fill-rule="evenodd"/><path fill="#434343" d="m344.87976 83.476364l0 0c0.2696228 -10.349899 -7.9020386 -18.958725 -18.251953 -19.228348l0 0c-4.9701843 -0.12947083 -9.788269 1.7207565 -13.394287 5.143669c-3.606018 3.422905 -5.70459 8.1381 -5.8340454 13.108299l0 0c-0.2696228 10.349907 7.9020386 18.958733 18.251953 19.228348l0 0c10.349915 0.2696228 18.95874 -7.9020615 19.228333 -18.251968z" fill-rule="evenodd"/><path stroke="#434343" stroke-width="1.0" stroke-linejoin="round" stroke-linecap="butt" d="m344.87976 83.476364l0 0c0.2696228 -10.349899 -7.9020386 -18.958725 -18.251953 -19.228348l0 0c-4.9701843 -0.12947083 -9.788269 1.7207565 -13.394287 5.143669c-3.606018 3.422905 -5.70459 8.1381 -5.8340454 13.108299l0 0c-0.2696228 10.349907 7.9020386 18.958733 18.251953 19.228348l0 0c10.349915 0.2696228 18.95874 -7.9020615 19.228333 -18.251968z" fill-rule="evenodd"/><path fill="#4781de" d="m318.15332 276.9638c-12.099304 9.124237 -49.191162 -36.494324 -80.92651 -44.03151c-31.735336 -7.5371857 -82.821075 -6.736664 -109.48556 -1.1916046c-26.664482 5.545059 -37.381012 32.277344 -50.501312 34.461945c-13.1203 2.1846008 -39.413822 -5.098419 -28.22047 -21.354324c11.193348 -16.255905 51.913387 -65.07088 95.38057 -76.18111c43.467194 -11.1102295 136.4637 -8.529739 165.42256 9.519684c28.958893 18.049438 20.430023 89.65268 8.330719 98.77692z" fill-rule="evenodd"/><path stroke="#4781de" stroke-width="1.0" stroke-linejoin="round" stroke-linecap="butt" d="m318.15332 276.9638c-12.099304 9.124237 -49.191162 -36.494324 -80.92651 -44.03151c-31.735336 -7.5371857 -82.821075 -6.736664 -109.48556 -1.1916046c-26.664482 5.545059 -37.381012 32.277344 -50.501312 34.461945c-13.1203 2.1846008 -39.413822 -5.098419 -28.22047 -21.354324c11.193348 -16.255905 51.913387 -65.07088 95.38057 -76.18111c43.467194 -11.1102295 136.4637 -8.529739 165.42256 9.519684c28.958893 18.049438 20.430023 89.65268 8.330719 98.77692z" fill-rule="evenodd"/><path fill="#b7b7b7" d="m447.05814 324.129l0 0c0 -11.055542 -8.96228 -20.017822 -20.017792 -20.017822l-21.948639 0l0 0c-5.3090515 0 -10.400665 2.1090393 -14.154724 5.863098c-3.7540588 3.7540588 -5.863098 8.845673 -5.863098 14.154724l0 28.562805c0 11.055542 8.962311 20.017822 20.017822 20.017822l21.948639 0c11.055511 0 20.017792 -8.96228 20.017792 -20.017822z" fill-rule="evenodd"/><path stroke="#b7b7b7" stroke-width="1.0" stroke-linejoin="round" stroke-linecap="butt" d="m447.05814 324.129l0 0c0 -11.055542 -8.96228 -20.017822 -20.017792 -20.017822l-21.948639 0l0 0c-5.3090515 0 -10.400665 2.1090393 -14.154724 5.863098c-3.7540588 3.7540588 -5.863098 8.845673 -5.863098 14.154724l0 28.562805c0 11.055542 8.962311 20.017822 20.017822 20.017822l21.948639 0c11.055511 0 20.017792 -8.96228 20.017792 -20.017822z" fill-rule="evenodd"/><path fill="#999999" d="m430.9479 319.4393l0 0c0 -0.8204651 -0.6651306 -1.4855957 -1.4855957 -1.4855957l-26.792572 0c-0.39401245 0 -0.7718811 0.15652466 -1.0504761 0.43511963c-0.2786255 0.27859497 -0.43511963 0.6564636 -0.43511963 1.0504761l0 5.9421997c0 0.8204651 0.6651001 1.4855957 1.4855957 1.4855957l26.792572 0c0.8204651 0 1.4855957 -0.6651306 1.4855957 -1.4855957z" fill-rule="evenodd"/><path stroke="#999999" stroke-width="1.0" stroke-linejoin="round" stroke-linecap="butt" d="m430.9479 319.4393l0 0c0 -0.8204651 -0.6651306 -1.4855957 -1.4855957 -1.4855957l-26.792572 0c-0.39401245 0 -0.7718811 0.15652466 -1.0504761 0.43511963c-0.2786255 0.27859497 -0.43511963 0.6564636 -0.43511963 1.0504761l0 5.9421997c0 0.8204651 0.6651001 1.4855957 1.4855957 1.4855957l26.792572 0c0.8204651 0 1.4855957 -0.6651306 1.4855957 -1.4855957z" fill-rule="evenodd"/><path fill="#999999" d="m430.9479 335.4393l0 0c0 -0.8204651 -0.6651306 -1.4855957 -1.4855957 -1.4855957l-26.792572 0c-0.39401245 0 -0.7718811 0.15652466 -1.0504761 0.43511963c-0.2786255 0.27859497 -0.43511963 0.6564636 -0.43511963 1.0504761l0 5.9421997c0 0.8204651 0.6651001 1.4855957 1.4855957 1.4855957l26.792572 0c0.8204651 0 1.4855957 -0.6651306 1.4855957 -1.4855957z" fill-rule="evenodd"/><path stroke="#999999" stroke-width="1.0" stroke-linejoin="round" stroke-linecap="butt" d="m430.9479 335.4393l0 0c0 -0.8204651 -0.6651306 -1.4855957 -1.4855957 -1.4855957l-26.792572 0c-0.39401245 0 -0.7718811 0.15652466 -1.0504761 0.43511963c-0.2786255 0.27859497 -0.43511963 0.6564636 -0.43511963 1.0504761l0 5.9421997c0 0.8204651 0.6651001 1.4855957 1.4855957 1.4855957l26.792572 0c0.8204651 0 1.4855957 -0.6651306 1.4855957 -1.4855957z" fill-rule="evenodd"/><path fill="#999999" d="m430.9479 351.4393l0 0c0 -0.8204651 -0.6651306 -1.4855957 -1.4855957 -1.4855957l-26.792572 0c-0.39401245 0 -0.7718811 0.15652466 -1.0504761 0.43511963c-0.2786255 0.27859497 -0.43511963 0.6564636 -0.43511963 1.0504761l0 5.9421997c0 0.8204651 0.6651001 1.4855957 1.4855957 1.4855957l26.792572 0c0.8204651 0 1.4855957 -0.6651306 1.4855957 -1.4855957z" fill-rule="evenodd"/><path stroke="#999999" stroke-width="1.0" stroke-linejoin="round" stroke-linecap="butt" d="m430.9479 351.4393l0 0c0 -0.8204651 -0.6651306 -1.4855957 -1.4855957 -1.4855957l-26.792572 0c-0.39401245 0 -0.7718811 0.15652466 -1.0504761 0.43511963c-0.2786255 0.27859497 -0.43511963 0.6564636 -0.43511963 1.0504761l0 5.9421997c0 0.8204651 0.6651001 1.4855957 1.4855957 1.4855957l26.792572 0c0.8204651 0 1.4855957 -0.6651306 1.4855957 -1.4855957z" fill-rule="evenodd"/><path fill="#b7b7b7" d="m683.7065 280.59076l81.36224 -25.22049l-3.7008057 -20.83464l-85.06299 4.3858337z" fill-rule="evenodd"/><path stroke="#b7b7b7" stroke-width="1.0" stroke-linejoin="round" stroke-linecap="butt" d="m683.7065 280.59076l81.36224 -25.22049l-3.7008057 -20.83464l-85.06299 4.3858337z" fill-rule="evenodd"/><path fill="#b7b7b7" d="m683.7497 280.57587l-7.4015503 -41.66928l-155.71655 27.716522l7.4016113 41.66931z" fill-rule="evenodd"/><path stroke="#b7b7b7" stroke-width="1.0" stroke-linejoin="round" stroke-linecap="butt" d="m683.7497 280.57587l-7.4015503 -41.66928l-155.71655 27.716522l7.4016113 41.66931z" fill-rule="evenodd"/><path fill="#cccccc" d="m572.9569 324.69794l0 0c0 -16.212555 -13.142883 -29.355408 -29.355408 -29.355408l-74.800995 0l0 0c-7.785553 0 -15.252197 3.092804 -20.757416 8.597992c-5.505188 5.5052185 -8.597992 12.971863 -8.597992 20.757416l0 32.18683c0 16.212555 13.142853 29.355408 29.355408 29.355408l74.800995 0c16.212524 0 29.355408 -13.142853 29.355408 -29.355408z" fill-rule="evenodd"/><path stroke="#cccccc" stroke-width="1.0" stroke-linejoin="round" stroke-linecap="butt" d="m572.9569 324.69794l0 0c0 -16.212555 -13.142883 -29.355408 -29.355408 -29.355408l-74.800995 0l0 0c-7.785553 0 -15.252197 3.092804 -20.757416 8.597992c-5.505188 5.5052185 -8.597992 12.971863 -8.597992 20.757416l0 32.18683c0 16.212555 13.142853 29.355408 29.355408 29.355408l74.800995 0c16.212524 0 29.355408 -13.142853 29.355408 -29.355408z" fill-rule="evenodd"/><path fill="#999999" d="m560.285 340.79135l0 0c0 -12.445984 -10.0894165 -22.53543 -22.5354 -22.53543l0 0c-5.9768066 0 -11.70874 2.3742676 -15.934937 6.600464c-4.2262573 4.226227 -6.600525 9.958191 -6.600525 15.934967l0 0c0 12.445984 10.089478 22.53543 22.535461 22.53543l0 0c12.445984 0 22.5354 -10.089447 22.5354 -22.53543z" fill-rule="evenodd"/><path stroke="#999999" stroke-width="1.0" stroke-linejoin="round" stroke-linecap="butt" d="m560.285 340.79135l0 0c0 -12.445984 -10.0894165 -22.53543 -22.5354 -22.53543l0 0c-5.9768066 0 -11.70874 2.3742676 -15.934937 6.600464c-4.2262573 4.226227 -6.600525 9.958191 -6.600525 15.934967l0 0c0 12.445984 10.089478 22.53543 22.535461 22.53543l0 0c12.445984 0 22.5354 -10.089447 22.5354 -22.53543z" fill-rule="evenodd"/><path fill="#4781de" d="m844.1669 177.85434l9.522339 13.091873l-221.357 40.46193l-4.758484 -64.26247z" fill-rule="evenodd"/><path stroke="#4781de" stroke-width="1.0" stroke-linejoin="round" stroke-linecap="butt" d="m844.1669 177.85434l9.522339 13.091873l-221.357 40.46193l-4.758484 -64.26247z" fill-rule="evenodd"/><path fill="#4781de" d="m676.36633 212.36877l-114.24933 86.87402l-217.78476 21.422577l-54.742798 -63.073486l2.3805847 -97.58794l339.17322 -10.711288z" fill-rule="evenodd"/><path stroke="#4781de" stroke-width="1.0" stroke-linejoin="round" stroke-linecap="butt" d="m676.36633 212.36877l-114.24933 86.87402l-217.78476 21.422577l-54.742798 -63.073486l2.3805847 -97.58794l339.17322 -10.711288z" fill-rule="evenodd"/><path fill="#434343" d="m625.3847 149.23492l-156.95273 3.183731l-120.19684 -3.5721893l-26.183746 22.611557l145.19162 36.89238l145.189 -27.372696z" fill-rule="evenodd"/><path stroke="#434343" stroke-width="1.0" stroke-linejoin="round" stroke-linecap="butt" d="m625.3847 149.23492l-156.95273 3.183731l-120.19684 -3.5721893l-26.183746 22.611557l145.19162 36.89238l145.189 -27.372696z" fill-rule="evenodd"/><path fill="#434343" d="m616.9475 843.32806l0 0c0 -76.25006 61.812927 -138.06299 138.06299 -138.06299l0 0c36.616577 0 71.73346 14.545898 97.625305 40.437744c25.891785 25.891846 40.437683 61.008667 40.437683 97.625244l0 0c0 76.25012 -61.812927 138.06299 -138.06299 138.06299l0 0c-76.25006 0 -138.06299 -61.812866 -138.06299 -138.06299z" fill-rule="evenodd"/><path fill="#999999" d="m676.04395 843.3379l0 0c0 -43.61743 35.358948 -78.97638 78.97638 -78.97638l0 0c20.9458 0 41.033752 8.32074 55.844727 23.131653c14.810913 14.810974 23.131653 34.898926 23.131653 55.844727l0 0c0 43.61743 -35.358948 78.97638 -78.97638 78.97638l0 0c-43.61743 0 -78.97638 -35.358948 -78.97638 -78.97638z" fill-rule="evenodd"/><path fill="#434343" d="m806.27124 776.57526l15.496033 15.496094l-118.01575 118.01575l-15.496033 -15.496094z" fill-rule="evenodd"/><path fill="#434343" d="m688.2577 792.07263l15.496033 -15.496094l118.01575 118.01575l-15.496033 15.496094z" fill-rule="evenodd"/><path fill="#434343" d="m53.97113 843.31757l0 0c0 -76.25006 61.812904 -138.06299 138.06299 -138.06299l0 0c36.616577 0 71.73346 14.545898 97.625275 40.437744c25.891846 25.891846 40.437714 61.008667 40.437714 97.625244l0 0c0 76.25012 -61.812897 138.06299 -138.06299 138.06299l0 0c-76.250084 0 -138.06299 -61.812866 -138.06299 -138.06299z" fill-rule="evenodd"/><path fill="#999999" d="m113.06756 843.3274l0 0c0 -43.61743 35.358925 -78.97638 78.97639 -78.97638l0 0c20.945831 0 41.033783 8.32074 55.844727 23.131653c14.810944 14.810974 23.131653 34.898926 23.131653 55.844727l0 0c0 43.61743 -35.358932 78.97638 -78.97638 78.97638l0 0c-43.617462 0 -78.97639 -35.358948 -78.97639 -78.97638z" fill-rule="evenodd"/><path fill="#434343" d="m243.29483 776.56476l15.496063 15.496094l-118.01575 118.01575l-15.496063 -15.496094z" fill-rule="evenodd"/><path fill="#434343" d="m125.28131 792.06213l15.496063 -15.496094l118.01575 118.01575l-15.496063 15.496094z" fill-rule="evenodd"/><path fill="#4781de" d="m291.864 160.05481l-15.873993 8.874008l16.873993 5.6246796z" fill-rule="evenodd"/><path stroke="#4781de" stroke-width="1.0" stroke-linejoin="round" stroke-linecap="butt" d="m291.864 160.05481l-15.873993 8.874008l16.873993 5.6246796z" fill-rule="evenodd"/></g></svg>