<svg version="1.1" viewBox="0.0 0.0 256.0 256.0" fill="none" stroke="none" stroke-linecap="square" stroke-miterlimit="10" xmlns:xlink="http://www.w3.org/1999/xlink" xmlns="http://www.w3.org/2000/svg"><clipPath id="p.0"><path d="m0 0l256.0 0l0 256.0l-256.0 0l0 -256.0z" clip-rule="nonzero"/></clipPath><g clip-path="url(#p.0)"><path fill="#000000" fill-opacity="0.0" d="m0 0l256.0 0l0 256.0l-256.0 0z" fill-rule="evenodd"/><path fill="#666666" d="m39.82677 149.68997l0 0c0 -48.696724 39.476498 -88.17322 88.17323 -88.17322l0 0c23.384995 0 45.812195 9.289654 62.347885 25.825344c16.53569 16.535683 25.825348 38.96289 25.825348 62.347878l0 0c0 48.69673 -39.4765 88.17323 -88.17323 88.17323l0 0c-48.69673 0 -88.17323 -39.4765 -88.17323 -88.17323z" fill-rule="evenodd"/><path fill="#666666" d="m89.237526 29.89031l0 0c0 -6.491289 5.26223 -11.753517 11.753517 -11.753517l54.03627 0c3.1172333 0 6.106781 1.2383137 8.311005 3.4425259c2.2042084 2.2042122 3.4425201 5.1937637 3.4425201 8.310991l0 47.01265c0 6.491287 -5.2622375 11.753517 -11.753525 11.753517l-54.03627 0c-6.491287 0 -11.753517 -5.26223 -11.753517 -11.753517z" fill-rule="evenodd"/><path fill="#ffffff" d="m61.110573 149.69438l0 0c0 -36.955246 29.951096 -66.91339 66.89764 -66.91339l0 0c17.742355 0 34.758026 7.0497894 47.303772 19.59848c12.545746 12.548691 19.593872 29.568375 19.593872 47.31491l0 0c0 36.955246 -29.951096 66.91339 -66.897644 66.91339l0 0c-36.94654 0 -66.89764 -29.958145 -66.89764 -66.91339z" fill-rule="evenodd"/><path stroke="#ffff00" stroke-width="8.0" stroke-linejoin="round" stroke-linecap="butt" d="m61.110573 149.69438l0 0c0 -36.955246 29.951096 -66.91339 66.89764 -66.91339l0 0c17.742355 0 34.758026 7.0497894 47.303772 19.59848c12.545746 12.548691 19.593872 29.568375 19.593872 47.31491l0 0c0 36.955246 -29.951096 66.91339 -66.897644 66.91339l0 0c-36.94654 0 -66.89764 -29.958145 -66.89764 -66.91339z" fill-rule="evenodd"/><path fill="#434343" d="m159.98949 182.36725l0 0c1.1676941 1.4073944 0.97265625 3.4940338 -0.43562317 4.6606445l-0.22302246 0.18476868l0 0c-0.67626953 0.56022644 -1.5476074 0.82902527 -2.4223175 0.7472687c-0.8746948 -0.08175659 -1.6811218 -0.50737 -2.241867 -1.1832275l-27.991905 -33.738052c-1.1676865 -1.4073792 -0.97265625 -3.4940186 0.43561554 -4.6606445l0.22303009 -0.18475342c1.4082718 -1.1666107 3.496498 -0.97143555 4.664192 0.43595886z" fill-rule="evenodd"/><path fill="#434343" d="m124.55571 96.79133l0 0c0 -1.8249207 1.479393 -3.3043137 3.3043137 -3.3043137l0.2890091 0l0 0c0.87635803 0 1.7168274 0.3481369 2.336502 0.9678116c0.61968994 0.6196823 0.9678192 1.460144 0.9678192 2.336502l0 49.611855c0 1.8249207 -1.4794006 3.304306 -3.3043213 3.304306l-0.2890091 0c-1.8249207 0 -3.3043137 -1.4793854 -3.3043137 -3.304306z" fill-rule="evenodd"/><path fill="#2f2f2f" d="m119.0999 149.70355l0 0c0 -4.9227295 3.9906616 -8.913391 8.913391 -8.913391l0 0c2.363968 0 4.631134 0.9390869 6.302719 2.610672c1.6715851 1.6715851 2.6106567 3.938736 2.6106567 6.302719l0 0c0 4.922714 -3.9906464 8.913376 -8.913376 8.913376l0 0c-4.9227295 0 -8.913391 -3.9906616 -8.913391 -8.913376z" fill-rule="evenodd"/><path fill="#000000" fill-opacity="0.0" d="m66.488945 149.70302l0 0c0 -33.989433 27.539772 -61.543304 61.511818 -61.543304l0 0c16.313934 0 31.959702 6.484001 43.495407 18.025612c11.535706 11.541611 18.016403 27.195396 18.016403 43.517693l0 0c0 33.989426 -27.53978 61.543304 -61.51181 61.543304l0 0c-33.972046 0 -61.511818 -27.553879 -61.511818 -61.543304z" fill-rule="evenodd"/><path stroke="#999999" stroke-width="8.0" stroke-linejoin="round" stroke-linecap="butt" stroke-dasharray="8.0,24.0" d="m66.488945 149.70302l0 0c0 -33.989433 27.539772 -61.543304 61.511818 -61.543304l0 0c16.313934 0 31.959702 6.484001 43.495407 18.025612c11.535706 11.541611 18.016403 27.195396 18.016403 43.517693l0 0c0 33.989426 -27.53978 61.543304 -61.51181 61.543304l0 0c-33.972046 0 -61.511818 -27.553879 -61.511818 -61.543304z" fill-rule="evenodd"/></g></svg>