<svg version="1.1" viewBox="0.0 0.0 256.0 256.0" fill="none" stroke="none" stroke-linecap="square" stroke-miterlimit="10" xmlns:xlink="http://www.w3.org/1999/xlink" xmlns="http://www.w3.org/2000/svg"><clipPath id="p.0"><path d="m0 0l256.0 0l0 256.0l-256.0 0l0 -256.0z" clip-rule="nonzero"/></clipPath><g clip-path="url(#p.0)"><path fill="#b7b7b7" d="m0 0l256.0 0l0 256.0l-256.0 0z" fill-rule="evenodd"/><path fill="#6d9eeb" d="m17.774279 49.17323l0 0c0 -18.510962 15.006098 -33.51706 33.51706 -33.51706l2.7664032 0l0 0l54.425198 0l93.47507 0c8.889267 0 17.414474 3.531252 23.700134 9.816919c6.285675 6.2856693 9.816925 14.8108635 9.816925 23.700142l0 83.79265l0 0l0 50.27559l0 0c0 18.510956 -15.0061035 33.51706 -33.51706 33.51706l-93.47507 0l-27.211876 25.137802l-27.213322 -25.137802l-2.7664032 0l0 0c-18.510963 0 -33.51706 -15.0061035 -33.51706 -33.51706l0 0l0 -50.27559l0 0z" fill-rule="evenodd"/><path stroke="#000000" stroke-width="8.0" stroke-linejoin="round" stroke-linecap="butt" d="m17.774279 49.17323l0 0c0 -18.510962 15.006098 -33.51706 33.51706 -33.51706l2.7664032 0l0 0l54.425198 0l93.47507 0c8.889267 0 17.414474 3.531252 23.700134 9.816919c6.285675 6.2856693 9.816925 14.8108635 9.816925 23.700142l0 83.79265l0 0l0 50.27559l0 0c0 18.510956 -15.0061035 33.51706 -33.51706 33.51706l-93.47507 0l-27.211876 25.137802l-27.213322 -25.137802l-2.7664032 0l0 0c-18.510963 0 -33.51706 -15.0061035 -33.51706 -33.51706l0 0l0 -50.27559l0 0z" fill-rule="evenodd"/><path fill="#666666" d="m36.923885 53.48819l0 0c0 -5.2880173 4.286785 -9.574802 9.574802 -9.574802l160.25197 0c2.5393982 0 4.974777 1.00877 6.770401 2.8043938c1.7956238 1.7956238 2.8043976 4.2310104 2.8043976 6.7704086l0 0l0 0c0 5.2880173 -4.2867737 9.574802 -9.574799 9.574802l-160.25197 0c-5.2880173 0 -9.574802 -4.286785 -9.574802 -9.574802z" fill-rule="evenodd"/><path fill="#666666" d="m36.923885 91.968506l0 0c0 -5.2880173 4.286785 -9.574806 9.574802 -9.574806l160.25197 0c2.5393982 0 4.974777 1.0087738 6.770401 2.8043976c1.7956238 1.7956238 2.8043976 4.2310104 2.8043976 6.7704086l0 0l0 0c0 5.2880173 -4.2867737 9.574799 -9.574799 9.574799l-160.25197 0c-5.2880173 0 -9.574802 -4.2867813 -9.574802 -9.574799z" fill-rule="evenodd"/><path fill="#666666" d="m38.299213 130.44882l0 0c0 -5.2880173 4.286785 -9.574806 9.574802 -9.574806l160.25198 0c2.539383 0 4.974777 1.0087738 6.770401 2.8043976c1.7956238 1.7956238 2.8043976 4.2310104 2.8043976 6.7704086l0 0l0 0c0 5.2880096 -4.286789 9.574799 -9.574799 9.574799l-160.25198 0c-5.2880173 0 -9.574802 -4.286789 -9.574802 -9.574799z" fill-rule="evenodd"/></g></svg>