<svg version="1.1" viewBox="0.0 0.0 900.0 450.0" fill="none" stroke="none" stroke-linecap="square" stroke-miterlimit="10" xmlns:xlink="http://www.w3.org/1999/xlink" xmlns="http://www.w3.org/2000/svg"><clipPath id="p.0"><path d="m0 0l900.0 0l0 450.0l-900.0 0l0 -450.0z" clip-rule="nonzero"/></clipPath><g clip-path="url(#p.0)"><path fill="#000000" fill-opacity="0.0" d="m0 0l900.0 0l0 450.0l-900.0 0z" fill-rule="evenodd"/><path fill="#434343" d="m616.9475 843.32806l0 0c0 -76.25006 61.812927 -138.06299 138.06299 -138.06299l0 0c36.616577 0 71.73346 14.545898 97.625305 40.437744c25.891785 25.891846 40.437683 61.008667 40.437683 97.625244l0 0c0 76.25012 -61.812927 138.06299 -138.06299 138.06299l0 0c-76.25006 0 -138.06299 -61.812866 -138.06299 -138.06299z" fill-rule="evenodd"/><path fill="#999999" d="m676.04395 843.3379l0 0c0 -43.61743 35.358948 -78.97638 78.97638 -78.97638l0 0c20.9458 0 41.033752 8.32074 55.844727 23.131653c14.810913 14.810974 23.131653 34.898926 23.131653 55.844727l0 0c0 43.61743 -35.358948 78.97638 -78.97638 78.97638l0 0c-43.61743 0 -78.97638 -35.358948 -78.97638 -78.97638z" fill-rule="evenodd"/><path fill="#434343" d="m806.27124 776.57526l15.496033 15.496094l-118.01575 118.01575l-15.496033 -15.496094z" fill-rule="evenodd"/><path fill="#434343" d="m688.2577 792.07263l15.496033 -15.496094l118.01575 118.01575l-15.496033 15.496094z" fill-rule="evenodd"/><path fill="#434343" d="m53.97113 843.31757l0 0c0 -76.25006 61.812904 -138.06299 138.06299 -138.06299l0 0c36.616577 0 71.73346 14.545898 97.625275 40.437744c25.891846 25.891846 40.437714 61.008667 40.437714 97.625244l0 0c0 76.25012 -61.812897 138.06299 -138.06299 138.06299l0 0c-76.250084 0 -138.06299 -61.812866 -138.06299 -138.06299z" fill-rule="evenodd"/><path fill="#999999" d="m113.06756 843.3274l0 0c0 -43.61743 35.358925 -78.97638 78.97639 -78.97638l0 0c20.945831 0 41.033783 8.32074 55.844727 23.131653c14.810944 14.810974 23.131653 34.898926 23.131653 55.844727l0 0c0 43.61743 -35.358932 78.97638 -78.97638 78.97638l0 0c-43.617462 0 -78.97639 -35.358948 -78.97639 -78.97638z" fill-rule="evenodd"/><path fill="#434343" d="m243.29483 776.56476l15.496063 15.496094l-118.01575 118.01575l-15.496063 -15.496094z" fill-rule="evenodd"/><path fill="#434343" d="m125.28131 792.06213l15.496063 -15.496094l118.01575 118.01575l-15.496063 15.496094z" fill-rule="evenodd"/><path fill="#b7b7b7" d="m440.1812 321.82452l0 0c0 -11.055542 8.96228 -20.017822 20.017792 -20.017822l21.948639 0l0 0c5.3090515 0 10.400665 2.1090088 14.154724 5.863098c3.7540894 3.7540588 5.863098 8.845673 5.863098 14.154724l0 28.562805c0 11.055542 -8.96228 20.017822 -20.017822 20.017822l-21.948639 0c-11.055511 0 -20.017792 -8.96228 -20.017792 -20.017822z" fill-rule="evenodd"/><path stroke="#b7b7b7" stroke-width="1.0" stroke-linejoin="round" stroke-linecap="butt" d="m440.1812 321.82452l0 0c0 -11.055542 8.96228 -20.017822 20.017792 -20.017822l21.948639 0l0 0c5.3090515 0 10.400665 2.1090088 14.154724 5.863098c3.7540894 3.7540588 5.863098 8.845673 5.863098 14.154724l0 28.562805c0 11.055542 -8.96228 20.017822 -20.017822 20.017822l-21.948639 0c-11.055511 0 -20.017792 -8.96228 -20.017792 -20.017822z" fill-rule="evenodd"/><path fill="#999999" d="m456.29144 317.13483l0 0c0 -0.8204651 0.6651306 -1.4855957 1.4855957 -1.4855957l26.792603 0c0.39398193 0 0.7718506 0.15652466 1.0504456 0.43511963c0.2786255 0.27859497 0.43511963 0.6564636 0.43511963 1.0504761l0 5.9421997c0 0.8204651 -0.6651001 1.4855957 -1.4855652 1.4855957l-26.792603 0c-0.8204651 0 -1.4855957 -0.6651306 -1.4855957 -1.4855957z" fill-rule="evenodd"/><path stroke="#999999" stroke-width="1.0" stroke-linejoin="round" stroke-linecap="butt" d="m456.29144 317.13483l0 0c0 -0.8204651 0.6651306 -1.4855957 1.4855957 -1.4855957l26.792603 0c0.39398193 0 0.7718506 0.15652466 1.0504456 0.43511963c0.2786255 0.27859497 0.43511963 0.6564636 0.43511963 1.0504761l0 5.9421997c0 0.8204651 -0.6651001 1.4855957 -1.4855652 1.4855957l-26.792603 0c-0.8204651 0 -1.4855957 -0.6651306 -1.4855957 -1.4855957z" fill-rule="evenodd"/><path fill="#999999" d="m456.29144 333.13483l0 0c0 -0.8204651 0.6651306 -1.4855957 1.4855957 -1.4855957l26.792603 0c0.39398193 0 0.7718506 0.15652466 1.0504456 0.43511963c0.2786255 0.27859497 0.43511963 0.6564636 0.43511963 1.0504761l0 5.9421997c0 0.8204651 -0.6651001 1.4855957 -1.4855652 1.4855957l-26.792603 0c-0.8204651 0 -1.4855957 -0.6651306 -1.4855957 -1.4855957z" fill-rule="evenodd"/><path stroke="#999999" stroke-width="1.0" stroke-linejoin="round" stroke-linecap="butt" d="m456.29144 333.13483l0 0c0 -0.8204651 0.6651306 -1.4855957 1.4855957 -1.4855957l26.792603 0c0.39398193 0 0.7718506 0.15652466 1.0504456 0.43511963c0.2786255 0.27859497 0.43511963 0.6564636 0.43511963 1.0504761l0 5.9421997c0 0.8204651 -0.6651001 1.4855957 -1.4855652 1.4855957l-26.792603 0c-0.8204651 0 -1.4855957 -0.6651306 -1.4855957 -1.4855957z" fill-rule="evenodd"/><path fill="#999999" d="m456.29144 349.13483l0 0c0 -0.8204651 0.6651306 -1.4855957 1.4855957 -1.4855957l26.792603 0c0.39398193 0 0.7718506 0.15652466 1.0504456 0.43511963c0.2786255 0.27859497 0.43511963 0.6564636 0.43511963 1.0504761l0 5.9421997c0 0.8204651 -0.6651001 1.4855957 -1.4855652 1.4855957l-26.792603 0c-0.8204651 0 -1.4855957 -0.6651306 -1.4855957 -1.4855957z" fill-rule="evenodd"/><path stroke="#999999" stroke-width="1.0" stroke-linejoin="round" stroke-linecap="butt" d="m456.29144 349.13483l0 0c0 -0.8204651 0.6651306 -1.4855957 1.4855957 -1.4855957l26.792603 0c0.39398193 0 0.7718506 0.15652466 1.0504456 0.43511963c0.2786255 0.27859497 0.43511963 0.6564636 0.43511963 1.0504761l0 5.9421997c0 0.8204651 -0.6651001 1.4855957 -1.4855652 1.4855957l-26.792603 0c-0.8204651 0 -1.4855957 -0.6651306 -1.4855957 -1.4855957z" fill-rule="evenodd"/><defs><linearGradient id="p.1" gradientUnits="userSpaceOnUse" gradientTransform="matrix(9.421453153710369 0.0 0.0 9.421453153710369 0.0 0.0)" spreadMethod="pad" x1="12.967282508529586" y1="29.537510747638137" x2="22.388735662239956" y2="29.537510747638137"><stop offset="0.0" stop-color="#a4a4a4"/><stop offset="1.0" stop-color="#b7b7b7"/></linearGradient></defs><path fill="url(#p.1)" d="m203.53285 278.2863l-81.362206 -25.22049l3.7007904 -20.83464l85.062996 4.3858337z" fill-rule="evenodd"/><path stroke="#b7b7b7" stroke-width="1.0" stroke-linejoin="round" stroke-linecap="butt" d="m203.53285 278.2863l-81.362206 -25.22049l3.7007904 -20.83464l85.062996 4.3858337z" fill-rule="evenodd"/><path fill="#b7b7b7" d="m203.48965 278.2714l7.4015656 -41.66928l155.71654 27.716522l-7.401581 41.66931z" fill-rule="evenodd"/><path stroke="#b7b7b7" stroke-width="1.0" stroke-linejoin="round" stroke-linecap="butt" d="m203.48965 278.2714l7.4015656 -41.66928l155.71654 27.716522l-7.401581 41.66931z" fill-rule="evenodd"/><path fill="#cccccc" d="m314.28244 322.39346l0 0c0 -16.212555 13.142853 -29.355408 29.355408 -29.355408l74.801025 0l0 0c7.7855225 0 15.252167 3.092804 20.757385 8.597992c5.5052185 5.5052185 8.597992 12.971863 8.597992 20.757416l0 32.18683c0 16.212555 -13.142853 29.355408 -29.355377 29.355408l-74.801025 0c-16.212555 0 -29.355408 -13.142853 -29.355408 -29.355408z" fill-rule="evenodd"/><path stroke="#cccccc" stroke-width="1.0" stroke-linejoin="round" stroke-linecap="butt" d="m314.28244 322.39346l0 0c0 -16.212555 13.142853 -29.355408 29.355408 -29.355408l74.801025 0l0 0c7.7855225 0 15.252167 3.092804 20.757385 8.597992c5.5052185 5.5052185 8.597992 12.971863 8.597992 20.757416l0 32.18683c0 16.212555 -13.142853 29.355408 -29.355377 29.355408l-74.801025 0c-16.212555 0 -29.355408 -13.142853 -29.355408 -29.355408z" fill-rule="evenodd"/><path fill="#999999" d="m326.95435 338.48688l0 0c0 -12.445984 10.089478 -22.53543 22.535461 -22.53543l0 0c5.9767456 0 11.70874 2.3742676 15.934937 6.600464c4.226227 4.226227 6.6004944 9.958191 6.6004944 15.934967l0 0c0 12.445984 -10.089478 22.53543 -22.53543 22.53543l0 0c-12.445984 0 -22.535461 -10.089447 -22.535461 -22.53543z" fill-rule="evenodd"/><path stroke="#999999" stroke-width="1.0" stroke-linejoin="round" stroke-linecap="butt" d="m326.95435 338.48688l0 0c0 -12.445984 10.089478 -22.53543 22.535461 -22.53543l0 0c5.9767456 0 11.70874 2.3742676 15.934937 6.600464c4.226227 4.226227 6.6004944 9.958191 6.6004944 15.934967l0 0c0 12.445984 -10.089478 22.53543 -22.53543 22.53543l0 0c-12.445984 0 -22.535461 -10.089447 -22.535461 -22.53543z" fill-rule="evenodd"/><path fill="#cc0000" d="m43.072468 175.54987l-9.522308 13.091873l221.35696 40.46193l4.7585297 -64.26247z" fill-rule="evenodd"/><path stroke="#cc0000" stroke-width="1.0" stroke-linejoin="round" stroke-linecap="butt" d="m43.072468 175.54987l-9.522308 13.091873l221.35696 40.46193l4.7585297 -64.26247z" fill-rule="evenodd"/><path fill="#cc0000" d="m569.08765 274.65808c12.099304 9.124237 49.191162 -36.494324 80.92651 -44.031494c31.735352 -7.5371857 75.766846 -12.298782 109.485535 -1.1916046c33.71875 11.107178 76.95892 63.272537 92.82678 67.83464c15.86792 4.562134 20.628174 -18.64392 2.3805542 -40.461945c-18.247559 -21.818024 -65.651306 -76.958435 -111.86609 -90.4462c-46.214783 -13.487747 -136.46375 -8.529739 -165.4226 9.519699c-28.958862 18.049423 -20.429993 89.652664 -8.330688 98.7769z" fill-rule="evenodd"/><path stroke="#cc0000" stroke-width="1.0" stroke-linejoin="round" stroke-linecap="butt" d="m569.08765 274.65808c12.099304 9.124237 49.191162 -36.494324 80.92651 -44.031494c31.735352 -7.5371857 75.766846 -12.298782 109.485535 -1.1916046c33.71875 11.107178 76.95892 63.272537 92.82678 67.83464c15.86792 4.562134 20.628174 -18.64392 2.3805542 -40.461945c-18.247559 -21.818024 -65.651306 -76.958435 -111.86609 -90.4462c-46.214783 -13.487747 -136.46375 -8.529739 -165.4226 9.519699c-28.958862 18.049423 -20.429993 89.652664 -8.330688 98.7769z" fill-rule="evenodd"/><path fill="#cc0000" d="m210.873 210.0643l114.249344 86.87402l217.78476 21.422577l54.742798 -63.0735l-2.3805542 -97.58792l-339.17325 -10.711288z" fill-rule="evenodd"/><path stroke="#cc0000" stroke-width="1.0" stroke-linejoin="round" stroke-linecap="butt" d="m210.873 210.0643l114.249344 86.87402l217.78476 21.422577l54.742798 -63.0735l-2.3805542 -97.58792l-339.17325 -10.711288z" fill-rule="evenodd"/><path fill="#cc0000" d="m591.69977 168.41077l-54.742798 -84.49607l38.08136 -17.850388l58.315002 94.01574z" fill-rule="evenodd"/><path stroke="#cc0000" stroke-width="1.0" stroke-linejoin="round" stroke-linecap="butt" d="m591.69977 168.41077l-54.742798 -84.49607l38.08136 -17.850388l58.315002 94.01574z" fill-rule="evenodd"/><path fill="#434343" d="m261.8546 146.93045l156.95276 3.1837158l120.19684 -3.572174l26.183716 22.611557l-145.19156 36.89238l-145.189 -27.372696z" fill-rule="evenodd"/><path stroke="#434343" stroke-width="1.0" stroke-linejoin="round" stroke-linecap="butt" d="m261.8546 146.93045l156.95276 3.1837158l120.19684 -3.572174l26.183716 22.611557l-145.19156 36.89238l-145.189 -27.372696z" fill-rule="evenodd"/></g></svg>