<svg version="1.1" viewBox="0.0 0.0 100.0 100.0" fill="none" stroke="none" stroke-linecap="square" stroke-miterlimit="10" xmlns:xlink="http://www.w3.org/1999/xlink" xmlns="http://www.w3.org/2000/svg"><clipPath id="p.0"><path d="m0 0l100.0 0l0 100.0l-100.0 0l0 -100.0z" clip-rule="nonzero"/></clipPath><g clip-path="url(#p.0)"><path fill="#000000" fill-opacity="0.0" d="m0 0l100.0 0l0 100.0l-100.0 0z" fill-rule="evenodd"/><path fill="#6aa84f" d="m48.09972 10.908136l3.80056 0l0 0c1.6010399 0 3.1365051 0.6360111 4.268612 1.768117c1.1321068 1.1321068 1.768116 2.667572 1.768116 4.268613l0 83.06563c0 7.6293945E-5 -6.1035156E-5 1.296997E-4 -1.335144E-4 1.296997E-4l-15.873882 -1.296997E-4l0 0c-7.247925E-5 0 -1.335144E-4 -6.1035156E-5 -1.335144E-4 -1.296997E-4l1.335144E-4 -83.065506l0 0c0 -3.333994 2.702736 -6.03673 6.036728 -6.03673z" fill-rule="evenodd"/><path fill="#6aa84f" d="m43.14071 61.94998c-4.986004 2.0936127 -24.050308 3.7738419 -29.422573 0c-5.372266 -3.773838 -3.9956255 -18.731407 -2.8110237 -22.643044c1.1846018 -3.9116364 7.742345 -3.168415 9.918635 -0.8267708c2.1762905 2.3416443 -0.6622925 13.058617 3.1391068 14.87664c3.8014011 1.8180237 16.473318 -5.4006996 19.66929 -3.9685059c3.1959763 1.4321976 4.492565 10.468067 -0.4934349 12.56168z" fill-rule="evenodd"/><path fill="#6aa84f" d="m54.3143 45.3573c4.571743 1.8346443 21.012253 3.1657906 25.776901 -0.72966003c4.764656 -3.8954506 4.187233 -18.632107 2.8110275 -22.643044c-1.3762054 -4.010935 -8.920387 -3.4995613 -11.068245 -1.4225712c-2.1478577 2.0769901 1.3766403 11.708223 -1.8188934 13.884516c-3.1955414 2.1762886 -14.737534 -2.6452332 -17.354332 -0.8267746c-2.6167984 1.8184624 -2.9181976 9.902889 1.6535416 11.737534z" fill-rule="evenodd"/></g></svg>