<svg version="1.1" viewBox="0.0 0.0 800.0 500.0" fill="none" stroke="none" stroke-linecap="square" stroke-miterlimit="10" xmlns:xlink="http://www.w3.org/1999/xlink" xmlns="http://www.w3.org/2000/svg"><clipPath id="p.0"><path d="m0 0l800.0 0l0 500.0l-800.0 0l0 -500.0z" clip-rule="nonzero"/></clipPath><g clip-path="url(#p.0)"><path fill="#000000" fill-opacity="0.0" d="m0 0l800.0 0l0 500.0l-800.0 0z" fill-rule="evenodd"/><path fill="#434343" d="m227.04993 395.0821c3.6885376 -1.5708618 15.437881 -7.5818176 18.853012 -0.40945435c3.4151306 7.1723633 2.1846008 35.724854 1.6378021 43.443573c-0.54681396 7.7187195 -3.962387 9.357819 -4.91864 2.868744c-0.95625305 -6.489044 2.3228302 -35.655273 -0.81889343 -41.80313c-3.141739 -6.1478577 -15.572617 5.599304 -18.031494 4.9160156c-2.4588928 -0.6832886 -0.4103241 -7.4448853 3.2782135 -9.015747z" fill-rule="evenodd"/><path fill="#f1c232" d="m26.440945 189.8033l0 0c0 -3.9544983 3.2057533 -7.160248 7.160248 -7.160248l732.7976 0c1.8990479 0 3.7202759 0.7543793 5.0630493 2.0971832c1.3428345 1.342804 2.097229 3.1640472 2.097229 5.0630646l0 28.640121c0 3.9544983 -3.2057495 7.160248 -7.1602783 7.160248l-732.7976 0c-3.9544945 0 -7.160248 -3.2057495 -7.160248 -7.160248z" fill-rule="evenodd"/><path fill="#7f6000" d="m751.2336 225.6063l-196.69287 0l0 274.3937l196.69287 0z" fill-rule="evenodd"/><defs><radialGradient id="p.1" gradientUnits="userSpaceOnUse" gradientTransform="matrix(10.080021445864158 0.0 0.0 10.080021445864158 0.0 0.0)" spreadMethod="pad" cx="64.77041171132545" cy="29.733199249512573" fx="64.77041171132545" fy="29.733199249512573" r="10.080021858215332"><stop offset="0.0" stop-color="#6d9eeb"/><stop offset="1.0" stop-color="#3c78d8"/></radialGradient></defs><path fill="url(#p.1)" d="m569.5486 260.96103l0 0c0 -10.700928 8.674805 -19.375732 19.375671 -19.375732l127.92578 0c5.138733 0 10.067017 2.0413666 13.700684 5.6750183c3.633667 3.6336517 5.674988 8.561951 5.674988 13.700714l0 77.50052c0 10.700928 -8.674805 19.375732 -19.375671 19.375732l-127.92578 0c-10.700867 0 -19.375671 -8.674805 -19.375671 -19.375732z" fill-rule="evenodd"/><path stroke="#666666" stroke-width="4.0" stroke-linejoin="round" stroke-linecap="butt" d="m569.5486 260.96103l0 0c0 -10.700928 8.674805 -19.375732 19.375671 -19.375732l127.92578 0c5.138733 0 10.067017 2.0413666 13.700684 5.6750183c3.633667 3.6336517 5.674988 8.561951 5.674988 13.700714l0 77.50052c0 10.700928 -8.674805 19.375732 -19.375671 19.375732l-127.92578 0c-10.700867 0 -19.375671 -8.674805 -19.375671 -19.375732z" fill-rule="evenodd"/><path fill="#6f5400" d="m635.53296 409.10236l34.708313 0l0 0c2.3013916 0 4.508484 0.9142151 6.135803 2.5415344c1.6273193 1.6273193 2.541565 3.8344421 2.541565 6.135803l0 82.22031c0 2.4414062E-4 -1.8310547E-4 4.272461E-4 -4.272461E-4 4.272461E-4l-52.06256 -4.272461E-4l0 0c-2.4414062E-4 0 -4.272461E-4 -1.8310547E-4 -4.272461E-4 -4.272461E-4l4.272461E-4 -82.21988l0 0c0 -4.7923584 3.8849487 -8.677338 8.677307 -8.677338z" fill-rule="evenodd"/><path fill="#7f6000" d="m662.39105 454.55118l0 0c0 -3.7659607 3.0529785 -6.8189087 6.8189087 -6.8189087l0 0c1.8084717 0 3.5429077 0.7184448 4.8217163 1.9972229c1.2787476 1.2787781 1.9971924 3.013214 1.9971924 4.821686l0 0c0 3.7659912 -3.0529175 6.8189087 -6.8189087 6.8189087l0 0c-3.7659302 0 -6.8189087 -3.0529175 -6.8189087 -6.8189087z" fill-rule="evenodd"/><path fill="#999999" d="m55.73491 225.6063l31.149605 0l0 274.3937l-31.149605 0z" fill-rule="evenodd"/><path fill="#000000" fill-opacity="0.0" d="m26.427822 90.55643l747.11816 0l0 100.18898l-747.11816 0z" fill-rule="evenodd"/><path fill="#000000" d="m200.44437 163.55643q-2.59375 0 -4.0 -1.390625q-1.390625 -1.40625 -1.390625 -4.015625l0 -36.1875q0 -2.59375 1.390625 -4.0q1.40625 -1.40625 4.0 -1.40625l16.140625 0q5.0 0 8.53125 1.46875q3.53125 1.46875 5.359375 4.203125q1.84375 2.734375 1.84375 6.53125q0 4.203125 -2.40625 7.140625q-2.40625 2.921875 -6.59375 3.921875l0 -1.0625q4.859375 0.875 7.5625 3.84375q2.703125 2.953125 2.703125 7.6875q0 6.265625 -4.34375 9.765625q-4.328125 3.5 -11.921875 3.5l-16.875 0zm4.46875 -7.671875l11.0 0q4.0 0 5.859375 -1.5625q1.875 -1.5625 1.875 -4.625q0 -3.078125 -1.875 -4.609375q-1.859375 -1.53125 -5.859375 -1.53125l-11.0 0l0 12.328125zm0 -19.984375l9.875 0q3.859375 0 5.71875 -1.46875q1.875 -1.46875 1.875 -4.40625q0 -2.859375 -1.875 -4.328125q-1.859375 -1.46875 -5.71875 -1.46875l-9.875 0l0 11.671875zm41.669907 28.25q-2.53125 0 -3.875 -1.390625q-1.328125 -1.40625 -1.328125 -3.9375l0 -37.53125q0 -2.53125 1.328125 -3.921875q1.34375 -1.40625 3.875 -1.40625q2.453125 0 3.78125 1.40625q1.34375 1.390625 1.34375 3.921875l0 37.53125q0 2.53125 -1.296875 3.9375q-1.296875 1.390625 -3.828125 1.390625zm19.79692 0q-2.53125 0 -3.875 -1.390625q-1.328125 -1.40625 -1.328125 -3.9375l0 -37.59375q0 -2.53125 1.328125 -3.890625q1.34375 -1.375 3.875 -1.375q2.453125 0 3.78125 1.375q1.34375 1.359375 1.34375 3.890625l0 15.796875l0.140625 0l17.71878 -18.53125q1.140625 -1.203125 2.375 -1.828125q1.234375 -0.640625 2.828125 -0.640625q2.328125 0 3.359375 1.203125q1.046875 1.203125 0.90625 2.8125q-0.125 1.59375 -1.46875 2.984375l-17.796906 18.203125l0.078125 -4.46875l18.65628 19.9375q1.53125 1.65625 1.5625 3.390625q0.03125 1.734375 -1.140625 2.90625q-1.15625 1.15625 -3.421875 1.15625q-1.9375 0 -3.109375 -0.796875q-1.15625 -0.796875 -2.5625 -2.328125l-17.984406 -18.9375l-0.140625 0l0 16.734375q0 2.53125 -1.296875 3.9375q-1.296875 1.390625 -3.828125 1.390625zm46.04709 -0.59375q-2.59375 0 -4.0 -1.390625q-1.390625 -1.40625 -1.390625 -4.015625l0 -36.1875q0 -2.59375 1.390625 -4.0q1.40625 -1.40625 4.0 -1.40625l23.265625 0q2.0 0 3.03125 1.046875q1.03125 1.03125 1.03125 2.953125q0 2.0 -1.03125 3.046875q-1.03125 1.03125 -3.03125 1.03125l-18.796875 0l0 11.0l17.265625 0q2.0625 0 3.09375 1.03125q1.046875 1.03125 1.046875 3.03125q0 2.0 -1.046875 3.03125q-1.03125 1.03125 -3.09375 1.03125l-17.265625 0l0 11.734375l18.796875 0q2.0 0 3.03125 1.03125q1.03125 1.03125 1.03125 2.96875q0 2.0 -1.03125 3.03125q-1.03125 1.03125 -3.03125 1.03125l-23.265625 0zm40.139587 0.59375q-2.53125 0 -3.875 -1.390625q-1.328125 -1.40625 -1.328125 -3.9375l0 -37.0q0 -2.59375 1.359375 -3.921875q1.375 -1.34375 3.90625 -1.34375l16.203125 0q7.859375 0 12.125 3.8125q4.265625 3.796875 4.265625 10.59375q0 4.390625 -1.9375 7.59375q-1.921875 3.203125 -5.5625 4.9375q-3.625 1.734375 -8.890625 1.734375l0.53125 -1.140625l2.734375 0q2.796875 0 4.890625 1.375q2.109375 1.359375 3.640625 4.15625l4.125 7.671875q0.9375 1.671875 0.859375 3.265625q-0.0625 1.59375 -1.203125 2.59375q-1.125 1.0 -3.328125 1.0q-2.1875 0 -3.5625 -0.921875q-1.359375 -0.9375 -2.421875 -2.875l-6.40625 -11.796875q-1.0 -1.859375 -2.4375 -2.53125q-1.421875 -0.671875 -3.5 -0.671875l-5.0625 0l0 13.46875q0 2.53125 -1.296875 3.9375q-1.296875 1.390625 -3.828125 1.390625zm5.125 -26.25l9.265625 0q4.140625 0 6.234375 -1.671875q2.09375 -1.671875 2.09375 -5.0q0 -3.265625 -2.09375 -4.921875q-2.09375 -1.671875 -6.234375 -1.671875l-9.265625 0l0 13.265625zm41.25949 -3.140625q-1.0 1.265625 -2.140625 1.40625q-1.125 0.125 -1.96875 -0.4375q-0.828125 -0.5625 -0.890625 -1.6875q-0.0625 -1.140625 1.0 -2.40625q1.46875 -1.8125 2.0 -3.609375q0.53125 -1.796875 0.53125 -3.203125l0.34375 2.734375q-2.671875 0 -4.34375 -1.53125q-1.65625 -1.53125 -1.65625 -4.125q0 -2.53125 1.53125 -4.09375q1.53125 -1.578125 4.203125 -1.578125q2.71875 0 4.25 1.796875q1.546875 1.796875 1.546875 5.140625q0 1.734375 -0.34375 3.5625q-0.328125 1.828125 -1.265625 3.796875q-0.921875 1.96875 -2.796875 4.234375zm29.13272 29.53125q-2.796875 0 -5.703125 -0.4375q-2.890625 -0.4375 -5.53125 -1.234375q-2.625 -0.796875 -4.703125 -2.0q-1.46875 -0.796875 -2.0625 -2.09375q-0.59375 -1.296875 -0.4375 -2.625q0.171875 -1.34375 1.0 -2.375q0.84375 -1.03125 2.140625 -1.328125q1.296875 -0.3125 2.890625 0.5q2.734375 1.53125 5.96875 2.265625q3.234375 0.734375 6.4375 0.734375q4.859375 0 6.921875 -1.5q2.078125 -1.5 2.078125 -3.765625q0 -1.9375 -1.46875 -3.0625q-1.46875 -1.140625 -5.140625 -1.9375l-7.53125 -1.609375q-6.390625 -1.328125 -9.5 -4.5625q-3.09375 -3.234375 -3.09375 -8.5q0 -3.328125 1.390625 -6.0625q1.40625 -2.734375 3.9375 -4.734375q2.546875 -2.0 6.03125 -3.0625q3.5 -1.0625 7.703125 -1.0625q3.734375 0 7.328125 0.90625q3.609375 0.890625 6.34375 2.625q1.328125 0.796875 1.828125 2.03125q0.5 1.234375 0.328125 2.46875q-0.15625 1.234375 -1.0 2.171875q-0.828125 0.921875 -2.09375 1.1875q-1.265625 0.265625 -3.0625 -0.59375q-2.203125 -1.140625 -4.671875 -1.671875q-2.46875 -0.53125 -5.0625 -0.53125q-2.796875 0 -4.765625 0.734375q-1.96875 0.734375 -3.0 2.0625q-1.03125 1.328125 -1.03125 3.0625q0 1.9375 1.390625 3.140625q1.40625 1.203125 4.875 1.921875l7.53125 1.609375q6.53125 1.390625 9.734375 4.5q3.203125 3.09375 3.203125 8.15625q0 3.34375 -1.34375 6.046875q-1.328125 2.6875 -3.859375 4.625q-2.53125 1.9375 -6.078125 2.96875q-3.53125 1.03125 -7.921875 1.03125zm67.7926 0q-7.9375 0 -13.4375 -3.0q-5.5 -3.0 -8.375 -8.390625q-2.859375 -5.40625 -2.859375 -12.671875q0 -5.59375 1.703125 -10.09375q1.703125 -4.5 4.9375 -7.671875q3.234375 -3.171875 7.859375 -4.890625q4.640625 -1.734375 10.5 -1.734375q3.59375 0 7.1875 0.796875q3.609375 0.796875 6.9375 2.65625q1.40625 0.8125 1.9062195 2.046875q0.5 1.21875 0.265625 2.59375q-0.234375 1.359375 -1.0624695 2.40625q-0.828125 1.03125 -2.140625 1.328125q-1.296875 0.296875 -2.96875 -0.5q-2.1875 -1.203125 -4.65625 -1.765625q-2.46875 -0.578125 -5.40625 -0.578125q-4.734375 0 -7.9375 1.78125q-3.1875 1.765625 -4.765625 5.203125q-1.5625 3.421875 -1.5625 8.421875q0 7.53125 3.625 11.40625q3.640625 3.859375 10.78125 3.859375q2.390625 0 4.921875 -0.46875q2.546875 -0.46875 5.0 -1.328125l-1.921875 4.1875l0 -12.796875l-6.0 0q-2.0 0 -3.078125 -1.0q-1.0625 -1.0 -1.0625 -2.734375q0 -1.796875 1.0625 -2.75q1.078125 -0.96875 3.078125 -0.96875l10.46875 0q2.0 0 3.03125 1.0625q1.0312195 1.0625 1.0312195 3.0625l0 15.46875q0 1.734375 -0.671875 2.9375q-0.6562195 1.1875 -2.2655945 1.71875q-3.0 1.078125 -6.734375 1.734375q-3.734375 0.671875 -7.390625 0.671875zm27.521515 -0.140625q-1.859375 0 -3.03125 -0.859375q-1.171875 -0.875 -1.46875 -2.328125q-0.296875 -1.46875 0.578125 -3.265625l17.0625 -37.40625q1.0625 -2.265625 2.531189 -3.296875q1.46875 -1.03125 3.390625 -1.03125q1.9375 0 3.40625 1.03125q1.46875 1.03125 2.46875 3.296875l17.1875 37.40625q0.875 1.796875 0.640625 3.296875q-0.234375 1.5 -1.375 2.328125q-1.125 0.828125 -2.921875 0.828125q-2.265625 0 -3.5 -1.0625q-1.234375 -1.0625 -2.171875 -3.328125l-4.0 -9.265625l4.140625 2.859375l-27.796814 0l4.125 -2.859375l-3.9375 9.265625q-1.0 2.328125 -2.09375 3.359375q-1.09375 1.03125 -3.234375 1.03125zm18.937439 -36.59375l-8.531189 20.328125l-1.796875 -2.59375l20.859314 0l-1.796875 2.59375l-8.609375 -20.328125l-0.125 0zm46.123535 36.734375q-2.796875 0 -5.703125 -0.4375q-2.890625 -0.4375 -5.53125 -1.234375q-2.625 -0.796875 -4.703125 -2.0q-1.46875 -0.796875 -2.0625 -2.09375q-0.59375 -1.296875 -0.4375 -2.625q0.171875 -1.34375 1.0 -2.375q0.84375 -1.03125 2.140625 -1.328125q1.296875 -0.3125 2.890625 0.5q2.734375 1.53125 5.96875 2.265625q3.234375 0.734375 6.4375 0.734375q4.859375 0 6.921875 -1.5q2.078125 -1.5 2.078125 -3.765625q0 -1.9375 -1.46875 -3.0625q-1.46875 -1.140625 -5.140625 -1.9375l-7.53125 -1.609375q-6.390625 -1.328125 -9.5 -4.5625q-3.09375 -3.234375 -3.09375 -8.5q0 -3.328125 1.390625 -6.0625q1.40625 -2.734375 3.9375 -4.734375q2.546875 -2.0 6.03125 -3.0625q3.5 -1.0625 7.703125 -1.0625q3.734375 0 7.328125 0.90625q3.609375 0.890625 6.34375 2.625q1.328125 0.796875 1.828125 2.03125q0.5 1.234375 0.328125 2.46875q-0.15625 1.234375 -1.0 2.171875q-0.828125 0.921875 -2.09375 1.1875q-1.265625 0.265625 -3.0625 -0.59375q-2.203125 -1.140625 -4.671875 -1.671875q-2.46875 -0.53125 -5.0625 -0.53125q-2.796875 0 -4.765625 0.734375q-1.96875 0.734375 -3.0 2.0625q-1.03125 1.328125 -1.03125 3.0625q0 1.9375 1.390625 3.140625q1.40625 1.203125 4.875 1.921875l7.53125 1.609375q6.53125 1.390625 9.734375 4.5q3.203125 3.09375 3.203125 8.15625q0 3.34375 -1.34375 6.046875q-1.328125 2.6875 -3.859375 4.625q-2.53125 1.9375 -6.078125 2.96875q-3.53125 1.03125 -7.921875 1.03125z" fill-rule="nonzero"/><path fill="#ffd966" d="m176.14174 175.252l0 0c0 -0.8175659 0.6627655 -1.4803467 1.4803314 -1.4803467l444.75586 0c0.39257812 0 0.76916504 0.15596008 1.0467529 0.4335785c0.27764893 0.2776184 0.43359375 0.65415955 0.43359375 1.0467682l0 5.9212036c0 0.8175659 -0.66278076 1.4803467 -1.4803467 1.4803467l-444.75586 0c-0.8175659 0 -1.4803314 -0.66278076 -1.4803314 -1.4803467z" fill-rule="evenodd"/><path fill="#999999" d="m173.85826 473.7953l54.110245 0c3.257782 0 6.382126 1.2941284 8.685715 3.5977173c2.3036041 2.3036194 3.5977478 5.427948 3.5977478 8.68573l0 13.921265c0 3.6621094E-4 -2.89917E-4 6.4086914E-4 -6.5612793E-4 6.4086914E-4l-78.67651 -6.4086914E-4l0 0c-3.5095215E-4 0 -6.5612793E-4 -3.0517578E-4 -6.5612793E-4 -6.4086914E-4l6.5612793E-4 -13.920624l0 0c0 -6.783966 5.4994965 -12.283447 12.283463 -12.283447z" fill-rule="evenodd"/><path fill="#cc0000" d="m183.55923 382.89764l34.708313 0l0 0c2.3013763 0 4.508484 0.9142151 6.135803 2.5415344c1.6273193 1.6273193 2.5415344 3.8344116 2.5415344 6.135803l0 82.22031c0 2.1362305E-4 -1.9836426E-4 4.272461E-4 -4.4250488E-4 4.272461E-4l-52.062546 -4.272461E-4l0 0c-2.4414062E-4 0 -4.4250488E-4 -2.1362305E-4 -4.4250488E-4 -4.5776367E-4l4.4250488E-4 -82.21985l0 0c0 -4.7923584 3.884964 -8.677338 8.677338 -8.677338z" fill-rule="evenodd"/><path fill="#6d9eeb" d="m182.12599 396.25992l0 0c0 -2.4121094 1.9554138 -4.367523 4.3675385 -4.367523l28.839722 0c1.1583405 0 2.2692413 0.46014404 3.0883179 1.2792053c0.8190613 0.8190918 1.2792206 1.9299927 1.2792206 3.0883179l0 17.469666c0 2.4121094 -1.9554138 4.367523 -4.3675385 4.367523l-28.839722 0c-2.4121246 0 -4.3675385 -1.9554138 -4.3675385 -4.367523z" fill-rule="evenodd"/><path fill="#666666" d="m240.72476 436.67978l8.282928 0l-0.23640442 13.959442l-2.1305847 1.1819763l-0.47279358 5.2067566l-2.6033783 0.47280884l0 -5.4431458l-3.312561 -0.94558716z" fill-rule="evenodd"/><path fill="#434343" d="m419.1549 395.0821c3.6885376 -1.5708618 15.437897 -7.5818176 18.853027 -0.40945435c3.4151306 7.1723633 2.1846008 35.724854 1.6377869 43.443573c-0.54681396 7.7187195 -3.9623718 9.357819 -4.91864 2.868744c-0.9562378 -6.489044 2.3228455 -35.655273 -0.8188782 -41.80313c-3.1417542 -6.1478577 -15.572632 5.599304 -18.031525 4.9160156c-2.4588623 -0.6832886 -0.41030884 -7.4448853 3.2782288 -9.015747z" fill-rule="evenodd"/><path fill="#999999" d="m365.96326 473.7953l54.11023 0c3.257782 0 6.382141 1.2941284 8.68573 3.5977173c2.3035889 2.3036194 3.5977478 5.427948 3.5977478 8.68573l0 13.921265c0 3.6621094E-4 -3.0517578E-4 6.4086914E-4 -6.713867E-4 6.4086914E-4l-78.67651 -6.4086914E-4l0 0c-3.6621094E-4 0 -6.4086914E-4 -3.0517578E-4 -6.4086914E-4 -6.4086914E-4l6.4086914E-4 -13.920624l0 0c0 -6.783966 5.4995117 -12.283447 12.283478 -12.283447z" fill-rule="evenodd"/><path fill="#cc0000" d="m375.6642 382.89764l34.708313 0l0 0c2.301361 0 4.508484 0.9142151 6.135803 2.5415344c1.6273193 1.6273193 2.5415344 3.8344116 2.5415344 6.135803l0 82.22031c0 2.1362305E-4 -1.8310547E-4 4.272461E-4 -4.272461E-4 4.272461E-4l-52.06256 -4.272461E-4l0 0c-2.4414062E-4 0 -4.272461E-4 -2.1362305E-4 -4.272461E-4 -4.5776367E-4l4.272461E-4 -82.21985l0 0c0 -4.7923584 3.8849792 -8.677338 8.677338 -8.677338z" fill-rule="evenodd"/><path fill="#6d9eeb" d="m374.23096 396.25992l0 0c0 -2.4121094 1.9554138 -4.367523 4.3675537 -4.367523l28.839722 0c1.1583557 0 2.2692566 0.46014404 3.0883179 1.2792053c0.8190613 0.8190918 1.2792358 1.9299927 1.2792358 3.0883179l0 17.469666c0 2.4121094 -1.9554138 4.367523 -4.3675537 4.367523l-28.839722 0c-2.41214 0 -4.3675537 -1.9554138 -4.3675537 -4.367523z" fill-rule="evenodd"/><path fill="#666666" d="m432.82974 436.67978l8.282928 0l-0.23638916 13.959442l-2.1305847 1.1819763l-0.47280884 5.2067566l-2.603363 0.47280884l0 -5.4431458l-3.312561 -0.94558716z" fill-rule="evenodd"/></g></svg>