<svg version="1.1" viewBox="0.0 0.0 100.0 100.0" fill="none" stroke="none" stroke-linecap="square" stroke-miterlimit="10" xmlns:xlink="http://www.w3.org/1999/xlink" xmlns="http://www.w3.org/2000/svg"><clipPath id="p.0"><path d="m0 0l100.0 0l0 100.0l-100.0 0l0 -100.0z" clip-rule="nonzero"/></clipPath><g clip-path="url(#p.0)"><path fill="#000000" fill-opacity="0.0" d="m0 0l100.0 0l0 100.0l-100.0 0z" fill-rule="evenodd"/><path fill="#d9d9d9" d="m7.1811023 50.0l0 0c0 -23.648224 19.170673 -42.818897 42.818897 -42.818897l0 0c11.356277 0 22.247429 4.5112643 30.277534 12.541365c8.030098 8.0301 12.541367 18.921255 12.541367 30.277533l0 0c0 23.648224 -19.170677 42.8189 -42.8189 42.8189l0 0c-23.648224 0 -42.818897 -19.170677 -42.818897 -42.8189z" fill-rule="evenodd"/><path stroke="#bf9000" stroke-width="8.0" stroke-linejoin="round" stroke-linecap="butt" d="m7.1811023 50.0l0 0c0 -23.648224 19.170673 -42.818897 42.818897 -42.818897l0 0c11.356277 0 22.247429 4.5112643 30.277534 12.541365c8.030098 8.0301 12.541367 18.921255 12.541367 30.277533l0 0c0 23.648224 -19.170677 42.8189 -42.8189 42.8189l0 0c-23.648224 0 -42.818897 -19.170677 -42.818897 -42.8189z" fill-rule="evenodd"/><path fill="#f1c232" fill-opacity="0.5" d="m126.37139 50.0l0 0c0 -20.35191 16.498482 -36.850395 36.850395 -36.850395l0 0c9.773331 0 19.146378 3.8824406 26.05716 10.79323c6.910797 6.9107895 10.793228 16.283833 10.793228 26.057163l0 0c0 20.351913 -16.498474 36.850395 -36.850388 36.850395l0 0c-20.351913 0 -36.850395 -16.498482 -36.850395 -36.850395z" fill-rule="evenodd"/><g filter="url(#shadowFilter-p.1)"><use xlink:href="#p.1" transform="matrix(1.0 0.0 0.0 1.0 18.11302992125984 15.745416797900258)"/></g><defs><filter id="shadowFilter-p.1" filterUnits="userSpaceOnUse"><feGaussianBlur in="SourceAlpha" stdDeviation="35.0" result="blur"/><feComponentTransfer in="blur" color-interpolation-filters="sRGB"><feFuncR type="linear" slope="0" intercept="0.9529412"/><feFuncG type="linear" slope="0" intercept="0.9529412"/><feFuncB type="linear" slope="0" intercept="0.9529412"/><feFuncA type="linear" slope="1.0" intercept="0"/></feComponentTransfer></filter></defs><g id="p.1"><path fill="#e0af1a" d="m39.56454 61.09905l0 0c-4.21941 0 -7.639921 -3.8158073 -7.639921 -8.522842c0 -4.707039 3.4205112 -8.522846 7.639921 -8.522846l0 3.8199577c-2.1097069 0 -3.8199615 2.1055565 -3.8199615 4.7028885c0 2.5973282 1.7102547 4.7028847 3.8199615 4.7028847z" fill-rule="evenodd"/></g><g filter="url(#shadowFilter-p.2)"><use xlink:href="#p.2" transform="matrix(1.0 0.0 0.0 1.0 18.11302992125984 15.745416797900258)"/></g><defs><filter id="shadowFilter-p.2" filterUnits="userSpaceOnUse"><feGaussianBlur in="SourceAlpha" stdDeviation="35.0" result="blur"/><feComponentTransfer in="blur" color-interpolation-filters="sRGB"><feFuncR type="linear" slope="0" intercept="0.9529412"/><feFuncG type="linear" slope="0" intercept="0.9529412"/><feFuncB type="linear" slope="0" intercept="0.9529412"/><feFuncA type="linear" slope="1.0" intercept="0"/></feComponentTransfer></filter></defs><g id="p.2"><path fill="#e0af1a" d="m84.995384 37.211975c0.9467697 2.2204056 0.8435211 17.074497 0 19.20885c-0.8435211 2.1343536 -3.281723 -5.160198 -5.0611267 -6.4027367c-1.7794037 -1.2425385 -4.546257 -0.079006195 -5.615288 -1.0524979c-1.0690231 -0.97348785 -1.6315155 -3.8105736 -0.79888916 -4.7884407c0.832634 -0.9778633 3.8821182 0.08210373 5.79467 -1.0787582c1.9125519 -1.160862 4.733864 -8.106823 5.6806335 -5.8864174z" fill-rule="evenodd"/></g><g filter="url(#shadowFilter-p.3)"><use xlink:href="#p.3" transform="matrix(1.0 0.0 0.0 1.0 18.11302992125984 15.745416797900258)"/></g><defs><filter id="shadowFilter-p.3" filterUnits="userSpaceOnUse"><feGaussianBlur in="SourceAlpha" stdDeviation="35.0" result="blur"/><feComponentTransfer in="blur" color-interpolation-filters="sRGB"><feFuncR type="linear" slope="0" intercept="0.9529412"/><feFuncG type="linear" slope="0" intercept="0.9529412"/><feFuncB type="linear" slope="0" intercept="0.9529412"/><feFuncA type="linear" slope="1.0" intercept="0"/></feComponentTransfer></filter></defs><g id="p.3"><path fill="#e0af1a" d="m75.820724 43.716484l-36.35682 0.35873413l-0.051254272 3.79488l36.35682 1.5380669z" fill-rule="evenodd"/></g><g filter="url(#shadowFilter-p.4)"><use xlink:href="#p.4" transform="matrix(1.0 0.0 0.0 1.0 18.11302992125984 15.745416797900267)"/></g><defs><filter id="shadowFilter-p.4" filterUnits="userSpaceOnUse"><feGaussianBlur in="SourceAlpha" stdDeviation="35.0" result="blur"/><feComponentTransfer in="blur" color-interpolation-filters="sRGB"><feFuncR type="linear" slope="0" intercept="0.9529412"/><feFuncG type="linear" slope="0" intercept="0.9529412"/><feFuncB type="linear" slope="0" intercept="0.9529412"/><feFuncA type="linear" slope="1.0" intercept="0"/></feComponentTransfer></filter></defs><g id="p.4"><path fill="#cccccc" d="m46.420418 41.877167l0 0c0 -0.047447205 0.038467407 -0.0859108 0.08591461 -0.0859108l0.34363937 0l0 0c0.022785187 0 0.044635773 0.009052277 0.060749054 0.025161743c0.016113281 0.016113281 0.025161743 0.037963867 0.025161743 0.060749054l0 1.4112549c0 0.047447205 -0.038463593 0.0859108 -0.0859108 0.0859108l-0.34363937 0c-0.047447205 0 -0.08591461 -0.038463593 -0.08591461 -0.0859108z" fill-rule="evenodd"/><path stroke="#cccccc" stroke-width="1.0" stroke-linejoin="round" stroke-linecap="butt" d="m46.420418 41.877167l0 0c0 -0.047447205 0.038467407 -0.0859108 0.08591461 -0.0859108l0.34363937 0l0 0c0.022785187 0 0.044635773 0.009052277 0.060749054 0.025161743c0.016113281 0.016113281 0.025161743 0.037963867 0.025161743 0.060749054l0 1.4112549c0 0.047447205 -0.038463593 0.0859108 -0.0859108 0.0859108l-0.34363937 0c-0.047447205 0 -0.08591461 -0.038463593 -0.08591461 -0.0859108z" fill-rule="evenodd"/></g><g filter="url(#shadowFilter-p.5)"><use xlink:href="#p.5" transform="matrix(1.0 0.0 0.0 1.0 18.11302992125984 15.745416797900258)"/></g><defs><filter id="shadowFilter-p.5" filterUnits="userSpaceOnUse"><feGaussianBlur in="SourceAlpha" stdDeviation="35.0" result="blur"/><feComponentTransfer in="blur" color-interpolation-filters="sRGB"><feFuncR type="linear" slope="0" intercept="0.9529412"/><feFuncG type="linear" slope="0" intercept="0.9529412"/><feFuncB type="linear" slope="0" intercept="0.9529412"/><feFuncA type="linear" slope="1.0" intercept="0"/></feComponentTransfer></filter></defs><g id="p.5"><path fill="#bf9000" d="m45.791874 63.22299l1.7918358 0l0 0c0.11881256 0 0.23275375 -0.047195435 0.31676483 -0.13120651c0.08401108 -0.08401108 0.13121033 -0.19795609 0.13121033 -0.31676483l0 -18.364876c0 -1.1444092E-5 -1.1444092E-5 -2.2888184E-5 -2.2888184E-5 -2.2888184E-5l-2.6877594 2.2888184E-5l0 0c-1.1444092E-5 0 -2.2888184E-5 1.1444092E-5 -2.2888184E-5 2.2888184E-5l2.2888184E-5 18.364853l0 0c0 0.24740982 0.20056534 0.44797134 0.44797134 0.44797134z" fill-rule="evenodd"/><path stroke="#bf9000" stroke-width="1.0" stroke-linejoin="round" stroke-linecap="butt" d="m45.791874 63.22299l1.7918358 0l0 0c0.11881256 0 0.23275375 -0.047195435 0.31676483 -0.13120651c0.08401108 -0.08401108 0.13121033 -0.19795609 0.13121033 -0.31676483l0 -18.364876c0 -1.1444092E-5 -1.1444092E-5 -2.2888184E-5 -2.2888184E-5 -2.2888184E-5l-2.6877594 2.2888184E-5l0 0c-1.1444092E-5 0 -2.2888184E-5 1.1444092E-5 -2.2888184E-5 2.2888184E-5l2.2888184E-5 18.364853l0 0c0 0.24740982 0.20056534 0.44797134 0.44797134 0.44797134z" fill-rule="evenodd"/></g><g filter="url(#shadowFilter-p.6)"><use xlink:href="#p.6" transform="matrix(1.0 0.0 0.0 1.0 18.11302992125984 15.745416797900258)"/></g><defs><filter id="shadowFilter-p.6" filterUnits="userSpaceOnUse"><feGaussianBlur in="SourceAlpha" stdDeviation="35.0" result="blur"/><feComponentTransfer in="blur" color-interpolation-filters="sRGB"><feFuncR type="linear" slope="0" intercept="0.9529412"/><feFuncG type="linear" slope="0" intercept="0.9529412"/><feFuncB type="linear" slope="0" intercept="0.9529412"/><feFuncA type="linear" slope="1.0" intercept="0"/></feComponentTransfer></filter></defs><g id="p.6"><path fill="#7f6000" d="m45.051704 43.536648l0 0c0 -0.09488678 0.07692337 -0.17181015 0.17181396 -0.17181015l2.933258 0c0.04556656 0 0.08926773 0.018100739 0.12149048 0.050323486c0.032218933 0.032218933 0.05031967 0.075920105 0.05031967 0.121486664l0 0.6872215c0 0.09488678 -0.076919556 0.17181015 -0.17181015 0.17181015l-2.933258 0c-0.094890594 0 -0.17181396 -0.07692337 -0.17181396 -0.17181015z" fill-rule="evenodd"/><path stroke="#7f6000" stroke-width="1.0" stroke-linejoin="round" stroke-linecap="butt" d="m45.051704 43.536648l0 0c0 -0.09488678 0.07692337 -0.17181015 0.17181396 -0.17181015l2.933258 0c0.04556656 0 0.08926773 0.018100739 0.12149048 0.050323486c0.032218933 0.032218933 0.05031967 0.075920105 0.05031967 0.121486664l0 0.6872215c0 0.09488678 -0.076919556 0.17181015 -0.17181015 0.17181015l-2.933258 0c-0.094890594 0 -0.17181396 -0.07692337 -0.17181396 -0.17181015z" fill-rule="evenodd"/></g><g filter="url(#shadowFilter-p.7)"><use xlink:href="#p.7" transform="matrix(1.0 0.0 0.0 1.0 18.11302992125984 15.745416797900258)"/></g><defs><filter id="shadowFilter-p.7" filterUnits="userSpaceOnUse"><feGaussianBlur in="SourceAlpha" stdDeviation="35.0" result="blur"/><feComponentTransfer in="blur" color-interpolation-filters="sRGB"><feFuncR type="linear" slope="0" intercept="0.9529412"/><feFuncG type="linear" slope="0" intercept="0.9529412"/><feFuncB type="linear" slope="0" intercept="0.9529412"/><feFuncA type="linear" slope="1.0" intercept="0"/></feComponentTransfer></filter></defs><g id="p.7"><path fill="#b7b7b7" d="m45.197803 40.932804l0 0c0 -0.09488678 0.07692337 -0.17181015 0.17181015 -0.17181015l2.63871 0c0.045570374 0 0.08926773 0.018100739 0.12149048 0.050323486c0.032218933 0.032218933 0.05031967 0.075920105 0.05031967 0.121486664l0 0.6872215c0 0.09488678 -0.076919556 0.17181015 -0.17181015 0.17181015l-2.63871 0c-0.09488678 0 -0.17181015 -0.07692337 -0.17181015 -0.17181015z" fill-rule="evenodd"/><path stroke="#b7b7b7" stroke-width="1.0" stroke-linejoin="round" stroke-linecap="butt" d="m45.197803 40.932804l0 0c0 -0.09488678 0.07692337 -0.17181015 0.17181015 -0.17181015l2.63871 0c0.045570374 0 0.08926773 0.018100739 0.12149048 0.050323486c0.032218933 0.032218933 0.05031967 0.075920105 0.05031967 0.121486664l0 0.6872215c0 0.09488678 -0.076919556 0.17181015 -0.17181015 0.17181015l-2.63871 0c-0.09488678 0 -0.17181015 -0.07692337 -0.17181015 -0.17181015z" fill-rule="evenodd"/></g><g filter="url(#shadowFilter-p.8)"><use xlink:href="#p.8" transform="matrix(1.0 0.0 0.0 1.0 18.11302992125984 15.745416797900267)"/></g><defs><filter id="shadowFilter-p.8" filterUnits="userSpaceOnUse"><feGaussianBlur in="SourceAlpha" stdDeviation="35.0" result="blur"/><feComponentTransfer in="blur" color-interpolation-filters="sRGB"><feFuncR type="linear" slope="0" intercept="0.9529412"/><feFuncG type="linear" slope="0" intercept="0.9529412"/><feFuncB type="linear" slope="0" intercept="0.9529412"/><feFuncA type="linear" slope="1.0" intercept="0"/></feComponentTransfer></filter></defs><g id="p.8"><path fill="#cccccc" d="m50.326633 41.877167l0 0c0 -0.047447205 0.038463593 -0.0859108 0.08591461 -0.0859108l0.34363937 0l0 0c0.022785187 0 0.044635773 0.009052277 0.060749054 0.025161743c0.016109467 0.016113281 0.025161743 0.037963867 0.025161743 0.060749054l0 1.4112549c0 0.047447205 -0.038463593 0.0859108 -0.0859108 0.0859108l-0.34363937 0c-0.04745102 0 -0.08591461 -0.038463593 -0.08591461 -0.0859108z" fill-rule="evenodd"/><path stroke="#cccccc" stroke-width="1.0" stroke-linejoin="round" stroke-linecap="butt" d="m50.326633 41.877167l0 0c0 -0.047447205 0.038463593 -0.0859108 0.08591461 -0.0859108l0.34363937 0l0 0c0.022785187 0 0.044635773 0.009052277 0.060749054 0.025161743c0.016109467 0.016113281 0.025161743 0.037963867 0.025161743 0.060749054l0 1.4112549c0 0.047447205 -0.038463593 0.0859108 -0.0859108 0.0859108l-0.34363937 0c-0.04745102 0 -0.08591461 -0.038463593 -0.08591461 -0.0859108z" fill-rule="evenodd"/></g><g filter="url(#shadowFilter-p.9)"><use xlink:href="#p.9" transform="matrix(1.0 0.0 0.0 1.0 18.11302992125984 15.745416797900258)"/></g><defs><filter id="shadowFilter-p.9" filterUnits="userSpaceOnUse"><feGaussianBlur in="SourceAlpha" stdDeviation="35.0" result="blur"/><feComponentTransfer in="blur" color-interpolation-filters="sRGB"><feFuncR type="linear" slope="0" intercept="0.9529412"/><feFuncG type="linear" slope="0" intercept="0.9529412"/><feFuncB type="linear" slope="0" intercept="0.9529412"/><feFuncA type="linear" slope="1.0" intercept="0"/></feComponentTransfer></filter></defs><g id="p.9"><path fill="#bf9000" d="m49.69809 63.22299l1.7918358 0l0 0c0.11880875 0 0.23275375 -0.047195435 0.31676483 -0.13120651c0.08401108 -0.08401108 0.13120651 -0.19795609 0.13120651 -0.31676483l0 -18.364876c0 -1.1444092E-5 -7.6293945E-6 -2.2888184E-5 -2.2888184E-5 -2.2888184E-5l-2.6877556 2.2888184E-5l0 0c-1.1444092E-5 0 -2.2888184E-5 1.1444092E-5 -2.2888184E-5 2.2888184E-5l2.2888184E-5 18.364853l0 0c0 0.24740982 0.20056534 0.44797134 0.44797134 0.44797134z" fill-rule="evenodd"/><path stroke="#bf9000" stroke-width="1.0" stroke-linejoin="round" stroke-linecap="butt" d="m49.69809 63.22299l1.7918358 0l0 0c0.11880875 0 0.23275375 -0.047195435 0.31676483 -0.13120651c0.08401108 -0.08401108 0.13120651 -0.19795609 0.13120651 -0.31676483l0 -18.364876c0 -1.1444092E-5 -7.6293945E-6 -2.2888184E-5 -2.2888184E-5 -2.2888184E-5l-2.6877556 2.2888184E-5l0 0c-1.1444092E-5 0 -2.2888184E-5 1.1444092E-5 -2.2888184E-5 2.2888184E-5l2.2888184E-5 18.364853l0 0c0 0.24740982 0.20056534 0.44797134 0.44797134 0.44797134z" fill-rule="evenodd"/></g><g filter="url(#shadowFilter-p.10)"><use xlink:href="#p.10" transform="matrix(1.0 0.0 0.0 1.0 18.11302992125984 15.745416797900258)"/></g><defs><filter id="shadowFilter-p.10" filterUnits="userSpaceOnUse"><feGaussianBlur in="SourceAlpha" stdDeviation="35.0" result="blur"/><feComponentTransfer in="blur" color-interpolation-filters="sRGB"><feFuncR type="linear" slope="0" intercept="0.9529412"/><feFuncG type="linear" slope="0" intercept="0.9529412"/><feFuncB type="linear" slope="0" intercept="0.9529412"/><feFuncA type="linear" slope="1.0" intercept="0"/></feComponentTransfer></filter></defs><g id="p.10"><path fill="#7f6000" d="m48.95792 43.536648l0 0c0 -0.09488678 0.07692337 -0.17181015 0.17181015 -0.17181015l2.9332619 0c0.04556656 0 0.08926773 0.018100739 0.12149048 0.050323486c0.032218933 0.032218933 0.05031967 0.075920105 0.05031967 0.121486664l0 0.6872215c0 0.09488678 -0.076919556 0.17181015 -0.17181015 0.17181015l-2.9332619 0c-0.09488678 0 -0.17181015 -0.07692337 -0.17181015 -0.17181015z" fill-rule="evenodd"/><path stroke="#7f6000" stroke-width="1.0" stroke-linejoin="round" stroke-linecap="butt" d="m48.95792 43.536648l0 0c0 -0.09488678 0.07692337 -0.17181015 0.17181015 -0.17181015l2.9332619 0c0.04556656 0 0.08926773 0.018100739 0.12149048 0.050323486c0.032218933 0.032218933 0.05031967 0.075920105 0.05031967 0.121486664l0 0.6872215c0 0.09488678 -0.076919556 0.17181015 -0.17181015 0.17181015l-2.9332619 0c-0.09488678 0 -0.17181015 -0.07692337 -0.17181015 -0.17181015z" fill-rule="evenodd"/></g><g filter="url(#shadowFilter-p.11)"><use xlink:href="#p.11" transform="matrix(1.0 0.0 0.0 1.0 18.11302992125984 15.745416797900258)"/></g><defs><filter id="shadowFilter-p.11" filterUnits="userSpaceOnUse"><feGaussianBlur in="SourceAlpha" stdDeviation="35.0" result="blur"/><feComponentTransfer in="blur" color-interpolation-filters="sRGB"><feFuncR type="linear" slope="0" intercept="0.9529412"/><feFuncG type="linear" slope="0" intercept="0.9529412"/><feFuncB type="linear" slope="0" intercept="0.9529412"/><feFuncA type="linear" slope="1.0" intercept="0"/></feComponentTransfer></filter></defs><g id="p.11"><path fill="#b7b7b7" d="m49.10402 40.932804l0 0c0 -0.09488678 0.07692337 -0.17181015 0.17181015 -0.17181015l2.63871 0c0.04556656 0 0.08926773 0.018100739 0.12149048 0.050323486c0.032218933 0.032218933 0.05031967 0.075920105 0.05031967 0.121486664l0 0.6872215c0 0.09488678 -0.076919556 0.17181015 -0.17181015 0.17181015l-2.63871 0c-0.09488678 0 -0.17181015 -0.07692337 -0.17181015 -0.17181015z" fill-rule="evenodd"/><path stroke="#b7b7b7" stroke-width="1.0" stroke-linejoin="round" stroke-linecap="butt" d="m49.10402 40.932804l0 0c0 -0.09488678 0.07692337 -0.17181015 0.17181015 -0.17181015l2.63871 0c0.04556656 0 0.08926773 0.018100739 0.12149048 0.050323486c0.032218933 0.032218933 0.05031967 0.075920105 0.05031967 0.121486664l0 0.6872215c0 0.09488678 -0.076919556 0.17181015 -0.17181015 0.17181015l-2.63871 0c-0.09488678 0 -0.17181015 -0.07692337 -0.17181015 -0.17181015z" fill-rule="evenodd"/></g><g filter="url(#shadowFilter-p.12)"><use xlink:href="#p.12" transform="matrix(1.0 0.0 0.0 1.0 18.11302992125984 15.745416797900267)"/></g><defs><filter id="shadowFilter-p.12" filterUnits="userSpaceOnUse"><feGaussianBlur in="SourceAlpha" stdDeviation="35.0" result="blur"/><feComponentTransfer in="blur" color-interpolation-filters="sRGB"><feFuncR type="linear" slope="0" intercept="0.9529412"/><feFuncG type="linear" slope="0" intercept="0.9529412"/><feFuncB type="linear" slope="0" intercept="0.9529412"/><feFuncA type="linear" slope="1.0" intercept="0"/></feComponentTransfer></filter></defs><g id="p.12"><path fill="#cccccc" d="m54.23285 41.877167l0 0c0 -0.047447205 0.038463593 -0.0859108 0.0859108 -0.0859108l0.34363937 0l0 0c0.022785187 0 0.044639587 0.009052277 0.060749054 0.025161743c0.016113281 0.016113281 0.025165558 0.037963867 0.025165558 0.060749054l0 1.4112549c0 0.047447205 -0.038463593 0.0859108 -0.08591461 0.0859108l-0.34363937 0c-0.047447205 0 -0.0859108 -0.038463593 -0.0859108 -0.0859108z" fill-rule="evenodd"/><path stroke="#cccccc" stroke-width="1.0" stroke-linejoin="round" stroke-linecap="butt" d="m54.23285 41.877167l0 0c0 -0.047447205 0.038463593 -0.0859108 0.0859108 -0.0859108l0.34363937 0l0 0c0.022785187 0 0.044639587 0.009052277 0.060749054 0.025161743c0.016113281 0.016113281 0.025165558 0.037963867 0.025165558 0.060749054l0 1.4112549c0 0.047447205 -0.038463593 0.0859108 -0.08591461 0.0859108l-0.34363937 0c-0.047447205 0 -0.0859108 -0.038463593 -0.0859108 -0.0859108z" fill-rule="evenodd"/></g><g filter="url(#shadowFilter-p.13)"><use xlink:href="#p.13" transform="matrix(1.0 0.0 0.0 1.0 18.11302992125984 15.745416797900258)"/></g><defs><filter id="shadowFilter-p.13" filterUnits="userSpaceOnUse"><feGaussianBlur in="SourceAlpha" stdDeviation="35.0" result="blur"/><feComponentTransfer in="blur" color-interpolation-filters="sRGB"><feFuncR type="linear" slope="0" intercept="0.9529412"/><feFuncG type="linear" slope="0" intercept="0.9529412"/><feFuncB type="linear" slope="0" intercept="0.9529412"/><feFuncA type="linear" slope="1.0" intercept="0"/></feComponentTransfer></filter></defs><g id="p.13"><path fill="#bf9000" d="m53.604305 63.22299l1.7918358 0l0 0c0.11880875 0 0.23275375 -0.047195435 0.31676483 -0.13120651c0.08401108 -0.08401108 0.13120651 -0.19795609 0.13120651 -0.31676483l0 -18.364876c0 -1.1444092E-5 -1.1444092E-5 -2.2888184E-5 -2.2888184E-5 -2.2888184E-5l-2.6877556 2.2888184E-5l0 0c-1.5258789E-5 0 -2.2888184E-5 1.1444092E-5 -2.2888184E-5 2.2888184E-5l2.2888184E-5 18.364853l0 0c0 0.24740982 0.20056152 0.44797134 0.44797134 0.44797134z" fill-rule="evenodd"/><path stroke="#bf9000" stroke-width="1.0" stroke-linejoin="round" stroke-linecap="butt" d="m53.604305 63.22299l1.7918358 0l0 0c0.11880875 0 0.23275375 -0.047195435 0.31676483 -0.13120651c0.08401108 -0.08401108 0.13120651 -0.19795609 0.13120651 -0.31676483l0 -18.364876c0 -1.1444092E-5 -1.1444092E-5 -2.2888184E-5 -2.2888184E-5 -2.2888184E-5l-2.6877556 2.2888184E-5l0 0c-1.5258789E-5 0 -2.2888184E-5 1.1444092E-5 -2.2888184E-5 2.2888184E-5l2.2888184E-5 18.364853l0 0c0 0.24740982 0.20056152 0.44797134 0.44797134 0.44797134z" fill-rule="evenodd"/></g><g filter="url(#shadowFilter-p.14)"><use xlink:href="#p.14" transform="matrix(1.0 0.0 0.0 1.0 18.11302992125984 15.745416797900258)"/></g><defs><filter id="shadowFilter-p.14" filterUnits="userSpaceOnUse"><feGaussianBlur in="SourceAlpha" stdDeviation="35.0" result="blur"/><feComponentTransfer in="blur" color-interpolation-filters="sRGB"><feFuncR type="linear" slope="0" intercept="0.9529412"/><feFuncG type="linear" slope="0" intercept="0.9529412"/><feFuncB type="linear" slope="0" intercept="0.9529412"/><feFuncA type="linear" slope="1.0" intercept="0"/></feComponentTransfer></filter></defs><g id="p.14"><path fill="#7f6000" d="m52.864136 43.536648l0 0c0 -0.09488678 0.07692337 -0.17181015 0.17181015 -0.17181015l2.9332619 0c0.04556656 0 0.08926773 0.018100739 0.121486664 0.050323486c0.032222748 0.032218933 0.050323486 0.075920105 0.050323486 0.121486664l0 0.6872215c0 0.09488678 -0.07692337 0.17181015 -0.17181015 0.17181015l-2.9332619 0c-0.09488678 0 -0.17181015 -0.07692337 -0.17181015 -0.17181015z" fill-rule="evenodd"/><path stroke="#7f6000" stroke-width="1.0" stroke-linejoin="round" stroke-linecap="butt" d="m52.864136 43.536648l0 0c0 -0.09488678 0.07692337 -0.17181015 0.17181015 -0.17181015l2.9332619 0c0.04556656 0 0.08926773 0.018100739 0.121486664 0.050323486c0.032222748 0.032218933 0.050323486 0.075920105 0.050323486 0.121486664l0 0.6872215c0 0.09488678 -0.07692337 0.17181015 -0.17181015 0.17181015l-2.9332619 0c-0.09488678 0 -0.17181015 -0.07692337 -0.17181015 -0.17181015z" fill-rule="evenodd"/></g><g filter="url(#shadowFilter-p.15)"><use xlink:href="#p.15" transform="matrix(1.0 0.0 0.0 1.0 18.11302992125984 15.745416797900258)"/></g><defs><filter id="shadowFilter-p.15" filterUnits="userSpaceOnUse"><feGaussianBlur in="SourceAlpha" stdDeviation="35.0" result="blur"/><feComponentTransfer in="blur" color-interpolation-filters="sRGB"><feFuncR type="linear" slope="0" intercept="0.9529412"/><feFuncG type="linear" slope="0" intercept="0.9529412"/><feFuncB type="linear" slope="0" intercept="0.9529412"/><feFuncA type="linear" slope="1.0" intercept="0"/></feComponentTransfer></filter></defs><g id="p.15"><path fill="#b7b7b7" d="m53.010235 40.932804l0 0c0 -0.09488678 0.07692337 -0.17181015 0.17181015 -0.17181015l2.63871 0c0.04556656 0 0.08926773 0.018100739 0.121486664 0.050323486c0.032222748 0.032218933 0.050323486 0.075920105 0.050323486 0.121486664l0 0.6872215c0 0.09488678 -0.07692337 0.17181015 -0.17181015 0.17181015l-2.63871 0c-0.09488678 0 -0.17181015 -0.07692337 -0.17181015 -0.17181015z" fill-rule="evenodd"/><path stroke="#b7b7b7" stroke-width="1.0" stroke-linejoin="round" stroke-linecap="butt" d="m53.010235 40.932804l0 0c0 -0.09488678 0.07692337 -0.17181015 0.17181015 -0.17181015l2.63871 0c0.04556656 0 0.08926773 0.018100739 0.121486664 0.050323486c0.032222748 0.032218933 0.050323486 0.075920105 0.050323486 0.121486664l0 0.6872215c0 0.09488678 -0.07692337 0.17181015 -0.17181015 0.17181015l-2.63871 0c-0.09488678 0 -0.17181015 -0.07692337 -0.17181015 -0.17181015z" fill-rule="evenodd"/></g><g filter="url(#shadowFilter-p.16)"><use xlink:href="#p.16" transform="matrix(1.0 0.0 0.0 1.0 18.11302992125984 15.745416797900267)"/></g><defs><filter id="shadowFilter-p.16" filterUnits="userSpaceOnUse"><feGaussianBlur in="SourceAlpha" stdDeviation="35.0" result="blur"/><feComponentTransfer in="blur" color-interpolation-filters="sRGB"><feFuncR type="linear" slope="0" intercept="0.9529412"/><feFuncG type="linear" slope="0" intercept="0.9529412"/><feFuncB type="linear" slope="0" intercept="0.9529412"/><feFuncA type="linear" slope="1.0" intercept="0"/></feComponentTransfer></filter></defs><g id="p.16"><path fill="#b7b7b7" d="m14.332575 45.007812l0 0c0 -0.15929031 0.12913036 -0.28841782 0.28841972 -0.28841782l1.1536474 0l0 0c0.07649422 0 0.14985466 0.030384064 0.2039442 0.08447647c0.054088593 0.054088593 0.08447647 0.12744904 0.08447647 0.20394135l0 6.307705c0 0.15929031 -0.12913036 0.28842163 -0.28842068 0.28842163l-1.1536474 0c-0.15928936 0 -0.28841972 -0.12913132 -0.28841972 -0.28842163z" fill-rule="evenodd"/></g><g filter="url(#shadowFilter-p.17)"><use xlink:href="#p.17" transform="matrix(1.0 0.0 0.0 1.0 18.113029921259844 15.745416797900258)"/></g><defs><filter id="shadowFilter-p.17" filterUnits="userSpaceOnUse"><feGaussianBlur in="SourceAlpha" stdDeviation="35.0" result="blur"/><feComponentTransfer in="blur" color-interpolation-filters="sRGB"><feFuncR type="linear" slope="0" intercept="0.9529412"/><feFuncG type="linear" slope="0" intercept="0.9529412"/><feFuncB type="linear" slope="0" intercept="0.9529412"/><feFuncA type="linear" slope="1.0" intercept="0"/></feComponentTransfer></filter></defs><g id="p.17"><path fill="#999999" d="m20.703129 47.400486l0 1.4993477l0 0c0 0.416317 -0.16538048 0.81557846 -0.45976067 1.1099586c-0.29437828 0.2943802 -0.69364357 0.45975876 -1.1099586 0.45975876l-3.0694618 0c-2.0980835E-5 0 -3.8146973E-5 -1.5258789E-5 -3.8146973E-5 -3.8146973E-5l3.8146973E-5 -4.6387444l0 0c0 -2.2888184E-5 1.7166138E-5 -3.8146973E-5 3.8146973E-5 -3.8146973E-5l3.0694237 3.8146973E-5l0 0c0.8669319 0 1.5697193 0.7027855 1.5697193 1.5697174z" fill-rule="evenodd"/></g><g filter="url(#shadowFilter-p.18)"><use xlink:href="#p.18" transform="matrix(1.0 0.0 0.0 1.0 18.113029921259844 15.745416797900258)"/></g><defs><filter id="shadowFilter-p.18" filterUnits="userSpaceOnUse"><feGaussianBlur in="SourceAlpha" stdDeviation="35.0" result="blur"/><feComponentTransfer in="blur" color-interpolation-filters="sRGB"><feFuncR type="linear" slope="0" intercept="0.9529412"/><feFuncG type="linear" slope="0" intercept="0.9529412"/><feFuncB type="linear" slope="0" intercept="0.9529412"/><feFuncA type="linear" slope="1.0" intercept="0"/></feComponentTransfer></filter></defs><g id="p.18"><path fill="#999999" d="m27.048208 47.609367l0 1.1044617l0 0c0 0.07323074 -0.029090881 0.14346695 -0.08087349 0.19524765c-0.051784515 0.051784515 -0.12201691 0.0808754 -0.19524956 0.0808754l-6.0567265 0c-7.6293945E-6 0 -1.335144E-5 -3.8146973E-6 -1.335144E-5 -1.1444092E-5l1.335144E-5 -1.6566963l0 0c0 -7.6293945E-6 5.722046E-6 -1.5258789E-5 1.335144E-5 -1.5258789E-5l6.056713 1.5258789E-5l0 0c0.15249825 0 0.27612305 0.123622894 0.27612305 0.27612305z" fill-rule="evenodd"/><path stroke="#999999" stroke-width="1.0" stroke-linejoin="round" stroke-linecap="butt" d="m27.048208 47.609367l0 1.1044617l0 0c0 0.07323074 -0.029090881 0.14346695 -0.08087349 0.19524765c-0.051784515 0.051784515 -0.12201691 0.0808754 -0.19524956 0.0808754l-6.0567265 0c-7.6293945E-6 0 -1.335144E-5 -3.8146973E-6 -1.335144E-5 -1.1444092E-5l1.335144E-5 -1.6566963l0 0c0 -7.6293945E-6 5.722046E-6 -1.5258789E-5 1.335144E-5 -1.5258789E-5l6.056713 1.5258789E-5l0 0c0.15249825 0 0.27612305 0.123622894 0.27612305 0.27612305z" fill-rule="evenodd"/></g><g filter="url(#shadowFilter-p.19)"><use xlink:href="#p.19" transform="matrix(1.0 0.0 0.0 1.0 18.11302992125984 15.745416797900267)"/></g><defs><filter id="shadowFilter-p.19" filterUnits="userSpaceOnUse"><feGaussianBlur in="SourceAlpha" stdDeviation="35.0" result="blur"/><feComponentTransfer in="blur" color-interpolation-filters="sRGB"><feFuncR type="linear" slope="0" intercept="0.9529412"/><feFuncG type="linear" slope="0" intercept="0.9529412"/><feFuncB type="linear" slope="0" intercept="0.9529412"/><feFuncA type="linear" slope="1.0" intercept="0"/></feComponentTransfer></filter></defs><g id="p.19"><path fill="#f1c232" d="m23.048498 47.000637l0 0c0 -0.32194138 0.26098442 -0.5829277 0.5829277 -0.5829277l44.08457 0c0.15460205 0 0.3028717 0.061416626 0.4121933 0.17073822c0.109321594 0.10931778 0.17073059 0.25758743 0.17073059 0.41218948l0 2.3316422c0 0.32194138 -0.2609787 0.5829277 -0.5829239 0.5829277l-44.08457 0c-0.32194328 0 -0.5829277 -0.26098633 -0.5829277 -0.5829277z" fill-rule="evenodd"/></g><g filter="url(#shadowFilter-p.20)"><use xlink:href="#p.20" transform="matrix(1.0 0.0 0.0 1.0 18.11302992125984 15.745416797900258)"/></g><defs><filter id="shadowFilter-p.20" filterUnits="userSpaceOnUse"><feGaussianBlur in="SourceAlpha" stdDeviation="35.0" result="blur"/><feComponentTransfer in="blur" color-interpolation-filters="sRGB"><feFuncR type="linear" slope="0" intercept="0.9529412"/><feFuncG type="linear" slope="0" intercept="0.9529412"/><feFuncB type="linear" slope="0" intercept="0.9529412"/><feFuncA type="linear" slope="1.0" intercept="0"/></feComponentTransfer></filter></defs><g id="p.20"><path fill="#f1c232" d="m67.76889 46.43304l0 0c3.8432236 0 6.9587708 3.4119759 6.9587708 7.620861c0 4.208885 -3.1155472 7.620861 -6.9587708 7.620861l0 -3.4793854l0 0c1.921608 0 3.4793854 -1.8542023 3.4793854 -4.1414757c0 -2.2872734 -1.5577774 -4.141472 -3.4793854 -4.141472z" fill-rule="evenodd"/></g><g filter="url(#shadowFilter-p.21)"><use xlink:href="#p.21" transform="matrix(1.0 0.0 0.0 1.0 18.11302992125984 15.745416797900267)"/></g><defs><filter id="shadowFilter-p.21" filterUnits="userSpaceOnUse"><feGaussianBlur in="SourceAlpha" stdDeviation="35.0" result="blur"/><feComponentTransfer in="blur" color-interpolation-filters="sRGB"><feFuncR type="linear" slope="0" intercept="0.9529412"/><feFuncG type="linear" slope="0" intercept="0.9529412"/><feFuncB type="linear" slope="0" intercept="0.9529412"/><feFuncA type="linear" slope="1.0" intercept="0"/></feComponentTransfer></filter></defs><g id="p.21"><path fill="#f1c232" d="m25.644436 46.66781l0 0c0 -0.41005325 0.33241272 -0.742466 0.742466 -0.742466l3.596075 0c0.19691467 0 0.38576317 0.07822418 0.52500343 0.21746063c0.13923836 0.13924026 0.21746254 0.32809067 0.21746254 0.52500534l0 2.9697723c0 0.41005325 -0.33241272 0.742466 -0.742466 0.742466l-3.596075 0c-0.41005325 0 -0.742466 -0.33241272 -0.742466 -0.742466z" fill-rule="evenodd"/></g><g filter="url(#shadowFilter-p.22)"><use xlink:href="#p.22" transform="matrix(1.0 0.0 0.0 1.0 18.11302992125984 15.745416797900258)"/></g><defs><filter id="shadowFilter-p.22" filterUnits="userSpaceOnUse"><feGaussianBlur in="SourceAlpha" stdDeviation="35.0" result="blur"/><feComponentTransfer in="blur" color-interpolation-filters="sRGB"><feFuncR type="linear" slope="0" intercept="0.9529412"/><feFuncG type="linear" slope="0" intercept="0.9529412"/><feFuncB type="linear" slope="0" intercept="0.9529412"/><feFuncA type="linear" slope="1.0" intercept="0"/></feComponentTransfer></filter></defs><g id="p.22"><defs><linearGradient id="p.23" gradientUnits="userSpaceOnUse" gradientTransform="matrix(5.363552556858535 0.0 0.0 5.363552556858535 0.0 0.0)" spreadMethod="pad" x1="7.297372452175063" y1="11.496617890134345" x2="12.660925009033598" y2="11.496617890134345"><stop offset="0.0" stop-color="#e0af1a"/><stop offset="1.0" stop-color="#f1c232"/></linearGradient></defs><path fill="url(#p.23)" d="m67.90753 58.201584l-28.485806 -0.9230957l-0.28188705 3.7942352l28.767693 0.5899887z" fill-rule="evenodd"/></g></g></svg>