<svg version="1.1" viewBox="0.0 0.0 100.0 100.0" fill="none" stroke="none" stroke-linecap="square" stroke-miterlimit="10" xmlns:xlink="http://www.w3.org/1999/xlink" xmlns="http://www.w3.org/2000/svg"><clipPath id="p.0"><path d="m0 0l100.0 0l0 100.0l-100.0 0l0 -100.0z" clip-rule="nonzero"/></clipPath><g clip-path="url(#p.0)"><path fill="#000000" fill-opacity="0.0" d="m0 0l100.0 0l0 100.0l-100.0 0z" fill-rule="evenodd"/><path fill="#434343" d="m0 50.0l0 0c0 -27.614237 22.385763 -50.0 50.0 -50.0l0 0c13.260826 0 25.978523 5.267842 35.35534 14.644661c9.376816 9.37682 14.644661 22.094513 14.644661 35.35534l0 0c0 27.614235 -22.385765 50.0 -50.0 50.0l0 0c-27.614237 0 -50.0 -22.385765 -50.0 -50.0z" fill-rule="evenodd"/><path fill="#999999" d="m21.401575 50.0l0 0c0 -15.794476 12.803949 -28.598425 28.598425 -28.598425l0 0c7.584774 0 14.858894 3.0130386 20.222137 8.376284c5.3632507 5.363247 8.376289 12.637367 8.376289 20.222141l0 0c0 15.794472 -12.803955 28.598427 -28.598427 28.598427l0 0c-15.794476 0 -28.598425 -12.803955 -28.598425 -28.598427z" fill-rule="evenodd"/><path fill="#434343" d="m68.56294 25.824743l5.6063004 5.6062984l-42.740158 42.740154l-5.6062984 -5.6062927z" fill-rule="evenodd"/><path fill="#434343" d="m25.824743 31.437056l5.6062984 -5.6063004l42.740154 42.740158l-5.6062927 5.6063004z" fill-rule="evenodd"/></g></svg>