<svg version="1.1" viewBox="0.0 0.0 100.0 100.0" fill="none" stroke="none" stroke-linecap="square" stroke-miterlimit="10" xmlns:xlink="http://www.w3.org/1999/xlink" xmlns="http://www.w3.org/2000/svg"><clipPath id="p.0"><path d="m0 0l100.0 0l0 100.0l-100.0 0l0 -100.0z" clip-rule="nonzero"/></clipPath><g clip-path="url(#p.0)"><path fill="#000000" fill-opacity="0.0" d="m0 0l100.0 0l0 100.0l-100.0 0z" fill-rule="evenodd"/><path fill="#434343" d="m42.052494 2.6462429l0 0c0 -1.4611919 1.1845284 -2.6457222 2.6457214 -2.6457222l10.582573 0l0 0c0.70168686 0 1.3746376 0.27874494 1.8708076 0.77491415c0.49617004 0.4961691 0.7749138 1.1691189 0.7749138 1.870808l0 10.582571c0 1.4611921 -1.1845322 2.6457224 -2.6457214 2.6457224l-10.582573 0c-1.4611931 0 -2.6457214 -1.1845303 -2.6457214 -2.6457224z" fill-rule="evenodd"/><path fill="#434343" d="m8.094488 50.0l0 0c0 -23.143776 18.761736 -41.90551 41.90551 -41.90551l0 0c11.114033 0 21.772865 4.4150324 29.631668 12.27384c7.8588104 7.8588085 12.273842 18.51764 12.273842 29.631672l0 0c0 23.143776 -18.761734 41.90551 -41.90551 41.90551l0 0c-23.143776 0 -41.90551 -18.761734 -41.90551 -41.90551z" fill-rule="evenodd"/><path fill="#999999" d="m23.055119 50.0l0 0c0 -14.881248 12.063633 -26.944881 26.944881 -26.944881l0 0c7.146229 0 13.9997635 2.8388271 19.05291 7.8919735c5.0531464 5.0531445 7.8919754 11.906679 7.8919754 19.052908l0 0c0 14.881248 -12.063637 26.944885 -26.944885 26.944885l0 0c-14.881248 0 -26.944881 -12.063637 -26.944881 -26.944885z" fill-rule="evenodd"/><path fill="#434343" d="m97.35428 42.063515l0 0c1.4611893 0 2.6457214 1.1845284 2.6457214 2.6457214l0 10.582569l0 0c0 0.7016907 -0.27874756 1.3746414 -0.7749176 1.8708076c-0.4961624 0.49617004 -1.1691132 0.7749138 -1.8708038 0.7749138l-10.582573 0c-1.4611893 0 -2.6457214 -1.1845284 -2.6457214 -2.6457214l0 -10.582569c0 -1.4611931 1.1845322 -2.6457214 2.6457214 -2.6457214z" fill-rule="evenodd"/><path fill="#434343" d="m57.92651 97.34955l0 0c0 1.4611893 -1.1845322 2.6457214 -2.6457214 2.6457214l-10.582573 0l0 0c-0.7016907 0 -1.3746376 -0.27873993 -1.8708076 -0.77491c-0.49617004 -0.49617004 -0.7749138 -1.1691208 -0.7749138 -1.8708115l0 -10.582573c0 -1.4611893 1.1845284 -2.6457214 2.6457214 -2.6457214l10.582573 0c1.4611893 0 2.6457214 1.1845322 2.6457214 2.6457214z" fill-rule="evenodd"/><path fill="#434343" d="m2.640473 57.937527l0 0c-1.461192 0 -2.6457222 -1.1845284 -2.6457222 -2.6457214l0 -10.582569l0 0c0 -0.7016907 0.27874494 -1.3746414 0.7749141 -1.8708076c0.4961691 -0.49617004 1.1691189 -0.7749138 1.8708081 -0.7749138l10.582571 0c1.4611921 0 2.6457224 1.1845284 2.6457224 2.6457214l0 10.582569c0 1.4611931 -1.1845303 2.6457214 -2.6457224 2.6457214z" fill-rule="evenodd"/><path fill="#434343" d="m77.8668 10.887463l0 0c1.0321121 -1.0321112 2.7054977 -1.0321112 3.7376099 0l7.474991 7.474991l0 0c0.495636 0.4956379 0.774086 1.1678658 0.774086 1.8688049c0 0.7009373 -0.27845 1.3731651 -0.774086 1.868803l-7.474991 7.474991c-1.0321121 1.0321121 -2.7054977 1.0321121 -3.7376099 0l-7.474991 -7.474991c-1.0321121 -1.0321121 -1.0321121 -2.7054958 0 -3.737608z" fill-rule="evenodd"/><path fill="#434343" d="m89.09885 77.86796l0 0c1.0321121 1.0321121 1.0321121 2.7054977 0 3.7376099l-7.474991 7.474991l0 0c-0.495636 0.495636 -1.1678619 0.77407837 -1.8688049 0.77407837c-0.70093536 0 -1.3731613 -0.27844238 -1.8688049 -0.77407837l-7.474991 -7.474991c-1.0321121 -1.0321121 -1.0321121 -2.7054977 0 -3.7376099l7.474991 -7.474991c1.0321121 -1.0321121 2.7054977 -1.0321121 3.7376099 0z" fill-rule="evenodd"/><path fill="#434343" d="m22.122065 89.08144l0 0c-1.0321121 1.0321121 -2.7054958 1.0321121 -3.737608 0l-7.47499 -7.474991l0 0c-0.4956379 -0.495636 -0.7740841 -1.1678619 -0.7740841 -1.8688049c0 -0.70093536 0.2784462 -1.3731613 0.7740841 -1.8687973l7.47499 -7.474991c1.0321121 -1.0321121 2.7054958 -1.0321121 3.737608 0l7.474991 7.474991c1.0321121 1.0321121 1.0321121 2.70549 0 3.7376022z" fill-rule="evenodd"/><path fill="#434343" d="m10.897441 22.115799l0 0c-1.0321121 -1.0321121 -1.0321121 -2.7054958 0 -3.737608l7.47499 -7.474991l0 0c0.4956379 -0.49563694 1.1678677 -0.7740841 1.8688049 -0.7740841c0.7009373 0 1.3731651 0.27844715 1.868803 0.7740841l7.474991 7.474991c1.0321121 1.0321121 1.0321121 2.7054958 0 3.737608l-7.474991 7.474991c-1.0321121 1.0321121 -2.7054958 1.0321121 -3.737608 0z" fill-rule="evenodd"/><path fill="#999999" d="m-73.975075 40.586605l0 0c0 -13.23744 10.731064 -23.968506 23.968502 -23.968506l0 0c6.356842 0 12.453327 2.5252457 16.948292 7.020212c4.4949665 4.4949665 7.020212 10.591448 7.020212 16.948294l0 0c0 13.237438 -10.731066 23.968502 -23.968504 23.968502l0 0c-13.237438 0 -23.968502 -10.731064 -23.968502 -23.968502z" fill-rule="evenodd"/><path fill="#434343" d="m-34.45128 20.324955l4.692911 4.692915l-35.81102 35.81102l-4.692917 -4.692913z" fill-rule="evenodd"/><path fill="#434343" d="m-70.26822 25.028378l4.6929092 -4.692913l35.811028 35.811024l-4.692911 4.692913z" fill-rule="evenodd"/><path fill="#434343" d="m41.070866 21.622047l2.4566917 -0.69291306l15.401577 57.44882l-2.4566917 0.69291687z" fill-rule="evenodd"/><path fill="#434343" d="m79.03004 56.473366l-0.62992096 2.4566917l-57.448814 -15.401573l0.62992096 -2.4566917z" fill-rule="evenodd"/><path fill="#434343" d="m78.3937 41.095943l0.69291687 2.4566956l-57.480316 15.401573l-0.69291306 -2.4566917z" fill-rule="evenodd"/><path fill="#434343" d="m43.54238 79.055115l-2.4566917 -0.62992096l15.401573 -57.480312l2.4566956 0.62992096z" fill-rule="evenodd"/><path fill="#848484" fill-opacity="0.95" d="m42.992126 50.0l0 0c0 -3.8703423 3.1375313 -7.0078735 7.0078735 -7.0078735l0 0c1.8586044 0 3.6410828 0.738327 4.9553146 2.052559c1.3142319 1.3142319 2.052559 3.0967102 2.052559 4.9553146l0 0c0 3.8703423 -3.1375313 7.0078735 -7.0078735 7.0078735l0 0c-3.8703423 0 -7.0078735 -3.1375313 -7.0078735 -7.0078735z" fill-rule="evenodd"/><path fill="#b7b7b7" d="m-19.650919 63.700787l0 0c0 -2.6353111 2.136343 -4.771652 4.771654 -4.771652l0 0c1.265521 0 2.47921 0.5027275 3.3740683 1.397583c0.89485836 0.8948593 1.3975849 2.1085472 1.3975849 3.3740692l0 0c0 2.6353111 -2.136342 4.771656 -4.771653 4.771656l0 0c-2.6353111 0 -4.771654 -2.136345 -4.771654 -4.771656z" fill-rule="evenodd"/></g></svg>