<svg version="1.1" viewBox="0.0 0.0 100.0 100.0" fill="none" stroke="none" stroke-linecap="square" stroke-miterlimit="10" xmlns:xlink="http://www.w3.org/1999/xlink" xmlns="http://www.w3.org/2000/svg"><clipPath id="p.0"><path d="m0 0l100.0 0l0 100.0l-100.0 0l0 -100.0z" clip-rule="nonzero"/></clipPath><g clip-path="url(#p.0)"><path fill="#000000" fill-opacity="0.0" d="m0 0l100.0 0l0 100.0l-100.0 0z" fill-rule="evenodd"/><path fill="#000000" d="m-81.16798 15.18955l0 0c0 -1.4611921 1.1845245 -2.6457224 2.6457214 -2.6457224l10.582573 0l0 0c0.70168304 0 1.3746338 0.2787447 1.8708038 0.7749138c0.49617004 0.4961691 0.7749176 1.1691189 0.7749176 1.8708086l0 10.582571c0 1.4611912 -1.1845322 2.6457214 -2.6457214 2.6457214l-10.582573 0c-1.4611969 0 -2.6457214 -1.1845303 -2.6457214 -2.6457214z" fill-rule="evenodd"/><path fill="#000000" d="m-25.866194 54.60682l0 0c1.4611912 0 2.6457214 1.1845322 2.6457214 2.6457214l0 10.582573l0 0c0 0.7016907 -0.27874565 1.3746414 -0.7749138 1.8708115c-0.49617004 0.4961624 -1.1691189 0.77491 -1.8708076 0.77491l-10.582571 0c-1.4611931 0 -2.6457253 -1.1845322 -2.6457253 -2.6457214l0 -10.582573c0 -1.4611893 1.1845322 -2.6457214 2.6457253 -2.6457214z" fill-rule="evenodd"/><path fill="#000000" d="m-65.29396 109.89285l0 0c0 1.4611969 -1.1845322 2.645729 -2.6457214 2.645729l-10.582573 0l0 0c-0.7016907 0 -1.3746414 -0.27874756 -1.8708115 -0.7749176c-0.49617004 -0.49617004 -0.77491 -1.1691208 -0.77491 -1.8708115l0 -10.582565c0 -1.4611969 1.1845245 -2.6457214 2.6457214 -2.6457214l10.582573 0c1.4611893 0 2.6457214 1.1845245 2.6457214 2.6457214z" fill-rule="evenodd"/><path fill="#000000" d="m-120.58 70.480835l0 0c-1.4611893 0 -2.6457214 -1.1845322 -2.6457214 -2.6457214l0 -10.582573l0 0c0 -0.70168686 0.27874756 -1.3746376 0.7749176 -1.8708076c0.49617004 -0.49616623 1.1691132 -0.7749138 1.8708038 -0.7749138l10.582573 0c1.4611893 0 2.6457214 1.1845322 2.6457214 2.6457214l0 10.582573c0 1.4611893 -1.1845322 2.6457214 -2.6457214 2.6457214z" fill-rule="evenodd"/><path fill="#000000" d="m-45.353672 23.43077l0 0c1.0321121 -1.0321121 2.705494 -1.0321121 3.737606 0l7.474991 7.474991l0 0c0.4956398 0.495636 0.774086 1.1678658 0.774086 1.8688011c0 0.7009392 -0.2784462 1.373169 -0.774086 1.8688049l-7.474991 7.474991c-1.0321121 1.0321121 -2.705494 1.0321121 -3.737606 0l-7.474991 -7.474991c-1.0321121 -1.0321121 -1.0321121 -2.7054958 0 -3.737606z" fill-rule="evenodd"/><path fill="#000000" d="m-34.121624 90.41126l0 0c1.0321121 1.0321121 1.0321121 2.7054977 0 3.7376099l-7.474991 7.474991l0 0c-0.4956398 0.495636 -1.1678658 0.774086 -1.8688049 0.774086c-0.7009392 0 -1.3731651 -0.27845 -1.8688049 -0.774086l-7.474991 -7.474991c-1.0321121 -1.0321121 -1.0321121 -2.7054977 0 -3.7376099l7.474991 -7.474991c1.0321121 -1.0321121 2.7054977 -1.0321121 3.7376099 0z" fill-rule="evenodd"/><path fill="#000000" d="m-101.098404 101.624756l0 0c-1.0321121 1.0321121 -2.7054977 1.0321121 -3.7376099 0l-7.474991 -7.474991l0 0c-0.495636 -0.49564362 -0.774086 -1.1678696 -0.774086 -1.8688049c0 -0.700943 0.27845 -1.373169 0.774086 -1.8688049l7.474991 -7.474991c1.0321121 -1.0321121 2.7054977 -1.0321121 3.7376099 0l7.474991 7.474991c1.0321045 1.0321121 1.0321045 2.7054977 0 3.7376099z" fill-rule="evenodd"/><path fill="#000000" d="m-112.32303 34.659107l0 0c-1.0321121 -1.0321121 -1.0321121 -2.7054977 0 -3.737608l7.474991 -7.474991l0 0c0.495636 -0.4956379 1.1678619 -0.7740841 1.8687973 -0.7740841c0.700943 0 1.373169 0.2784462 1.8688049 0.7740841l7.474991 7.474991c1.0321121 1.0321102 1.0321121 2.7054958 0 3.737608l-7.474991 7.474991c-1.0321121 1.0321121 -2.70549 1.0321121 -3.7376022 0z" fill-rule="evenodd"/><path fill="#848484" fill-opacity="0.95" d="m135.19685 50.026245l0 0c0 -3.8703384 3.1375275 -7.0078735 7.0078735 -7.0078735l0 0c1.8585968 0 3.6410828 0.738327 4.955307 2.052559c1.3142395 1.3142319 2.0525665 3.096714 2.0525665 4.9553146l0 0c0 3.8703423 -3.1375275 7.0078773 -7.0078735 7.0078773l0 0c-3.870346 0 -7.0078735 -3.137535 -7.0078735 -7.0078773z" fill-rule="evenodd"/><path fill="#999999" d="m126.614174 6.9501314l0 0c0 -14.8812475 12.063637 -26.944881 26.944878 -26.944881l0 0c7.146225 0 13.999771 2.8388271 19.052917 7.8919735c5.0531464 5.0531454 7.891968 11.906682 7.891968 19.05291l0 0c0 14.8812475 -12.063629 26.944881 -26.944885 26.944881l0 0c-14.881241 0 -26.944878 -12.063633 -26.944878 -26.944881z" fill-rule="evenodd"/><path fill="#434343" d="m144.62993 -21.427822l2.4566803 -0.69291306l15.401581 57.44882l-2.4566956 0.69291306z" fill-rule="evenodd"/><path fill="#434343" d="m182.5891 13.423497l-0.6299286 2.4566927l-57.448814 -15.401575l0.62992096 -2.456693z" fill-rule="evenodd"/><path fill="#434343" d="m181.95276 -1.9539244l0.69291687 2.456693l-57.480324 15.401575l-0.69290924 -2.4566936z" fill-rule="evenodd"/><path fill="#434343" d="m147.10144 36.00525l-2.4566956 -0.62992096l15.401581 -57.480316l2.4566803 0.62992096z" fill-rule="evenodd"/><path fill="#666666" d="m23.055119 50.0l0 0c0 -14.881248 12.063633 -26.944881 26.944881 -26.944881l0 0c7.146229 0 13.9997635 2.8388271 19.05291 7.8919735c5.0531464 5.0531445 7.8919754 11.906679 7.8919754 19.052908l0 0c0 14.881248 -12.063637 26.944885 -26.944885 26.944885l0 0c-14.881248 0 -26.944881 -12.063637 -26.944881 -26.944885z" fill-rule="evenodd"/><path fill="#000000" d="m61.24717 50.00225l0 0c0 -2.4004822 1.9459763 -4.3464546 4.3464584 -4.3464546l0 0c1.1527481 0 2.2582932 0.4579277 3.07341 1.2730484c0.8151169 0.8151169 1.2730484 1.9206543 1.2730484 3.0734062l0 0c0 2.4004822 -1.9459763 4.3464584 -4.3464584 4.3464584l0 0c-2.4004822 0 -4.3464584 -1.9459763 -4.3464584 -4.3464584z" fill-rule="evenodd"/><path fill="#000000" d="m45.652416 34.40764l0 0c0 -2.4004784 1.9459763 -4.3464546 4.3464584 -4.3464546l0 0c1.1527519 0 2.2582893 0.4579277 3.07341 1.2730465c0.8151169 0.8151188 1.2730446 1.9206562 1.2730446 3.0734081l0 0c0 2.4004822 -1.9459724 4.3464584 -4.3464546 4.3464584l0 0c-2.4004822 0 -4.3464584 -1.9459763 -4.3464584 -4.3464584z" fill-rule="evenodd"/><path fill="#000000" d="m45.652416 65.59236l0 0c0 -2.4004822 1.9459763 -4.3464584 4.3464584 -4.3464584l0 0c1.1527519 0 2.2582893 0.4579277 3.07341 1.2730484c0.8151169 0.8151169 1.2730446 1.9206543 1.2730446 3.07341l0 0c0 2.4004822 -1.9459724 4.3464584 -4.3464546 4.3464584l0 0c-2.4004822 0 -4.3464584 -1.9459763 -4.3464584 -4.3464584z" fill-rule="evenodd"/><path fill="#000000" d="m30.059916 50.0l0 0c0 -2.4004822 1.9459743 -4.3464584 4.3464565 -4.3464584l0 0c1.1527519 0 2.2582893 0.45793152 3.07341 1.2730484c0.8151169 0.8151207 1.2730484 1.9206581 1.2730484 3.07341l0 0c0 2.4004822 -1.9459763 4.3464584 -4.3464584 4.3464584l0 0c-2.4004822 0 -4.3464565 -1.9459763 -4.3464565 -4.3464584z" fill-rule="evenodd"/><path fill="#000000" d="m57.9539 57.952l0 0c1.6959953 -1.6959915 4.4457397 -1.6959915 6.141735 0l0 0c0.8144455 0.8144455 1.2719955 1.9190674 1.2719955 3.0708656c0 1.1517982 -0.45755005 2.256424 -1.2719955 3.0708694l0 0c-1.6959953 1.6959915 -4.4457397 1.6959915 -6.141735 0l0 0c-1.6959915 -1.6959953 -1.6959915 -4.4457436 0 -6.141735z" fill-rule="evenodd"/><path fill="#000000" d="m57.9538 35.89779l0 0c1.6959915 -1.6959915 4.4457397 -1.6959915 6.141735 0l0 0c0.8144455 0.8144455 1.2719955 1.9190674 1.2719955 3.0708656c0 1.1517982 -0.45755005 2.2564201 -1.2719955 3.0708656l0 0c-1.6959953 1.6959915 -4.4457436 1.6959915 -6.141735 0l0 0c-1.6959915 -1.6959915 -1.6959915 -4.4457397 0 -6.1417313z" fill-rule="evenodd"/><path fill="#000000" d="m35.902874 57.948715l0 0c1.6959915 -1.6959915 4.4457397 -1.6959915 6.1417313 0l0 0c0.8144455 0.8144455 1.2719955 1.9190674 1.2719955 3.0708656c0 1.1517982 -0.45755005 2.256424 -1.2719955 3.0708656l0 0c-1.6959915 1.6959915 -4.4457397 1.6959915 -6.1417313 0l0 0c-1.6959915 -1.6959915 -1.6959915 -4.4457397 0 -6.1417313z" fill-rule="evenodd"/><path fill="#000000" d="m35.902775 35.89769l0 0c1.6959915 -1.6959953 4.4457397 -1.6959953 6.1417313 0l0 0c0.8144455 0.8144417 1.2719955 1.9190674 1.2719955 3.0708656c0 1.1517982 -0.45755005 2.2564201 -1.2719955 3.0708656l0 0c-1.6959915 1.6959915 -4.4457397 1.6959915 -6.1417313 0l0 0c-1.6959915 -1.6959915 -1.6959915 -4.4457397 0 -6.1417313z" fill-rule="evenodd"/><path fill="#434343" d="m171.91602 32.136482l2.4566803 -0.69291306l15.401581 57.44882l-2.4566956 0.69291687z" fill-rule="evenodd"/><path fill="#434343" d="m209.87518 66.9878l-0.62991333 2.4566956l-57.448822 -15.401577l0.62991333 -2.4566917z" fill-rule="evenodd"/><path fill="#434343" d="m209.23885 51.61038l0.69291687 2.4566956l-57.480316 15.401577l-0.69291687 -2.4566956z" fill-rule="evenodd"/><path fill="#434343" d="m174.38753 89.56956l-2.4566956 -0.62992096l15.401581 -57.480316l2.4566956 0.62991905z" fill-rule="evenodd"/><path fill="#000000" d="m8.110236 50.0l0 0c0 -23.143776 18.761738 -41.90551 41.90551 -41.90551l0 0c11.114033 0 21.772865 4.4150324 29.631676 12.27384c7.858803 7.8588085 12.273834 18.51764 12.273834 29.631672l0 0c0 23.143776 -18.761734 41.90551 -41.90551 41.90551l0 0c-23.143774 0 -41.90551 -18.761734 -41.90551 -41.90551zm10.701829 0l0 0c0 17.233315 13.970364 31.203682 31.203682 31.203682c17.233322 0 31.203682 -13.970367 31.203682 -31.203682l0 0c0 -17.233318 -13.97036 -31.203682 -31.203682 -31.203682l0 0c-17.233318 0 -31.203682 13.970364 -31.203682 31.203682z" fill-rule="evenodd"/><path stroke="#000000" stroke-width="12.0" stroke-linejoin="round" stroke-linecap="butt" d="m8.110236 50.0l0 0c0 -23.143776 18.761738 -41.90551 41.90551 -41.90551l0 0c11.114033 0 21.772865 4.4150324 29.631676 12.27384c7.858803 7.8588085 12.273834 18.51764 12.273834 29.631672l0 0c0 23.143776 -18.761734 41.90551 -41.90551 41.90551l0 0c-23.143774 0 -41.90551 -18.761734 -41.90551 -41.90551zm10.701829 0l0 0c0 17.233315 13.970364 31.203682 31.203682 31.203682c17.233322 0 31.203682 -13.970367 31.203682 -31.203682l0 0c0 -17.233318 -13.97036 -31.203682 -31.203682 -31.203682l0 0c-17.233318 0 -31.203682 13.970364 -31.203682 31.203682z" fill-rule="evenodd"/></g></svg>