<svg version="1.1" viewBox="0.0 0.0 100.0 100.0" fill="none" stroke="none" stroke-linecap="square" stroke-miterlimit="10" xmlns:xlink="http://www.w3.org/1999/xlink" xmlns="http://www.w3.org/2000/svg"><clipPath id="p.0"><path d="m0 0l100.0 0l0 100.0l-100.0 0l0 -100.0z" clip-rule="nonzero"/></clipPath><g clip-path="url(#p.0)"><path fill="#000000" fill-opacity="0.0" d="m0 0l100.0 0l0 100.0l-100.0 0z" fill-rule="evenodd"/><path fill="#434343" d="m158.49081 3.8325946l0 0c0 -1.4611921 1.1845245 -2.6457222 2.6457214 -2.6457222l10.582565 0l0 0c0.7016907 0 1.374649 0.27874494 1.8708191 0.774914c0.49617004 0.4961691 0.77490234 1.1691189 0.77490234 1.8708081l0 10.582571c0 1.4611921 -1.1845245 2.6457224 -2.6457214 2.6457224l-10.582565 0c-1.4611969 0 -2.6457214 -1.1845303 -2.6457214 -2.6457224z" fill-rule="evenodd"/><path fill="#434343" d="m0.61417323 50.0l0 0c0 -27.27504 22.110786 -49.385826 49.385826 -49.385826l0 0c13.097935 0 25.659416 5.2031345 34.92105 14.464774c9.261642 9.261639 14.464775 21.823118 14.464775 34.92105l0 0c0 27.27504 -22.110786 49.385826 -49.385826 49.385826l0 0c-27.27504 0 -49.385826 -22.110786 -49.385826 -49.385826z" fill-rule="evenodd"/><path fill="#999999" d="m18.250109 50.01389l0 0c0 -17.542652 14.221128 -31.76378 31.76378 -31.76378l0 0c8.424278 0 16.503521 3.346531 22.460384 9.303396c5.9568634 5.9568634 9.3033905 14.036106 9.3033905 22.460384l0 0c0 17.542652 -14.221123 31.763775 -31.763775 31.763775l0 0c-17.542652 0 -31.76378 -14.221123 -31.76378 -31.763775z" fill-rule="evenodd"/><path fill="#434343" d="m213.7926 43.249863l0 0c1.4611816 0 2.6457214 1.1845322 2.6457214 2.6457253l0 10.582569l0 0c0 0.7016907 -0.27874756 1.3746414 -0.7749176 1.8708076c-0.49617004 0.49617004 -1.1691132 0.7749138 -1.8708038 0.7749138l-10.582581 0c-1.4611816 0 -2.6457214 -1.1845284 -2.6457214 -2.6457214l0 -10.582569c0 -1.4611931 1.1845398 -2.6457253 2.6457214 -2.6457253z" fill-rule="evenodd"/><path fill="#434343" d="m174.36482 98.535904l0 0c0 1.4611893 -1.1845245 2.6457214 -2.6457214 2.6457214l-10.582565 0l0 0c-0.7016907 0 -1.3746338 -0.27874756 -1.8708038 -0.7749176c-0.49617004 -0.49617004 -0.7749176 -1.1691208 -0.7749176 -1.8708038l0 -10.582573c0 -1.4611969 1.1845245 -2.6457214 2.6457214 -2.6457214l10.582565 0c1.4611969 0 2.6457214 1.1845245 2.6457214 2.6457214z" fill-rule="evenodd"/><path fill="#434343" d="m119.0788 59.12388l0 0c-1.4611969 0 -2.645729 -1.1845284 -2.645729 -2.6457214l0 -10.582569l0 0c0 -0.7016907 0.27874756 -1.3746414 0.7749176 -1.8708076c0.49617004 -0.49617004 1.1691208 -0.7749176 1.8708115 -0.7749176l10.582565 0c1.4611969 0 2.6457214 1.1845322 2.6457214 2.6457253l0 10.582569c0 1.4611931 -1.1845245 2.6457214 -2.6457214 2.6457214z" fill-rule="evenodd"/><path fill="#434343" d="m194.30511 12.073814l0 0c1.0321198 -1.0321121 2.7055054 -1.0321121 3.7376099 0l7.474991 7.474991l0 0c0.495636 0.4956379 0.7740936 1.1678658 0.7740936 1.868803c0 0.7009392 -0.27845764 1.373167 -0.7740936 1.8688049l-7.474991 7.474991c-1.0321045 1.0321121 -2.70549 1.0321121 -3.7376099 0l-7.474991 -7.474991c-1.0321045 -1.0321121 -1.0321045 -2.7054958 0 -3.737608z" fill-rule="evenodd"/><path fill="#434343" d="m205.53717 79.054306l0 0c1.0321045 1.0321121 1.0321045 2.7054977 0 3.7376099l-7.474991 7.474991l0 0c-0.495636 0.495636 -1.1678619 0.774086 -1.8688049 0.774086c-0.700943 0 -1.373169 -0.27845 -1.8688049 -0.774086l-7.474991 -7.474991c-1.0321198 -1.0321121 -1.0321198 -2.7054977 0 -3.7376099l7.474991 -7.474991c1.0321045 -1.0321121 2.70549 -1.0321121 3.7376099 0z" fill-rule="evenodd"/><path fill="#434343" d="m138.56038 90.2678l0 0c-1.0321045 1.0321121 -2.70549 1.0321121 -3.7375946 0l-7.4749985 -7.474991l0 0c-0.495636 -0.495636 -0.774086 -1.1678696 -0.774086 -1.8688049c0 -0.70093536 0.27845 -1.373169 0.774086 -1.8688049l7.4749985 -7.474991c1.0321045 -1.0321121 2.70549 -1.0321121 3.7375946 0l7.474991 7.474991c1.0321198 1.0321121 1.0321198 2.7054977 0 3.7376099z" fill-rule="evenodd"/><path fill="#434343" d="m127.33576 23.30215l0 0c-1.0321121 -1.0321121 -1.0321121 -2.7054958 0 -3.737608l7.474983 -7.474991l0 0c0.49565125 -0.4956379 1.1678772 -0.7740841 1.8688049 -0.7740841c0.700943 0 1.373169 0.2784462 1.8688049 0.7740841l7.474991 7.474991c1.0321198 1.0321121 1.0321198 2.7054958 0 3.737608l-7.474991 7.474991c-1.0321045 1.0321121 -2.70549 1.0321121 -3.7376099 0z" fill-rule="evenodd"/><path fill="#999999" d="m-73.975075 40.586605l0 0c0 -13.23744 10.731064 -23.968506 23.968502 -23.968506l0 0c6.356842 0 12.453327 2.5252457 16.948292 7.020212c4.4949665 4.4949665 7.020212 10.591448 7.020212 16.948294l0 0c0 13.237438 -10.731066 23.968502 -23.968504 23.968502l0 0c-13.237438 0 -23.968502 -10.731064 -23.968502 -23.968502z" fill-rule="evenodd"/><path fill="#434343" d="m-34.45128 20.324955l4.692911 4.692915l-35.81102 35.81102l-4.692917 -4.692913z" fill-rule="evenodd"/><path fill="#434343" d="m-70.26822 25.028378l4.6929092 -4.692913l35.811028 35.811024l-4.692911 4.692913z" fill-rule="evenodd"/><path fill="#434343" d="m39.487488 16.560772l2.9291344 -0.81889725l18.17323 67.71654l-2.9291344 0.81889343z" fill-rule="evenodd"/><path fill="#434343" d="m84.234634 57.64431l-0.75590515 2.9291344l-67.71653 -18.17323l0.7559061 -2.9291344z" fill-rule="evenodd"/><path fill="#434343" d="m83.484505 39.51705l0.81890106 2.9291344l-67.74803 18.173225l-0.81889725 -2.9291306z" fill-rule="evenodd"/><path fill="#434343" d="m42.400967 84.2642l-2.9291306 -0.75590515l18.173225 -67.74803l2.9291344 0.75590515z" fill-rule="evenodd"/><path fill="#848484" fill-opacity="0.95" d="m159.43045 51.18635l0 0c0 -3.8703423 3.1375275 -7.0078735 7.0078735 -7.0078735l0 0c1.8585968 0 3.6410828 0.738327 4.955307 2.052559c1.3142395 1.3142319 2.0525665 3.0967102 2.0525665 4.9553146l0 0c0 3.8703423 -3.1375427 7.0078735 -7.0078735 7.0078735l0 0c-3.870346 0 -7.0078735 -3.1375313 -7.0078735 -7.0078735z" fill-rule="evenodd"/><path fill="#b7b7b7" d="m-19.650919 63.700787l0 0c0 -2.6353111 2.136343 -4.771652 4.771654 -4.771652l0 0c1.265521 0 2.47921 0.5027275 3.3740683 1.397583c0.89485836 0.8948593 1.3975849 2.1085472 1.3975849 3.3740692l0 0c0 2.6353111 -2.136342 4.771656 -4.771653 4.771656l0 0c-2.6353111 0 -4.771654 -2.136345 -4.771654 -4.771656z" fill-rule="evenodd"/></g></svg>