<svg version="1.1" viewBox="0.0 0.0 100.0 100.0" fill="none" stroke="none" stroke-linecap="square" stroke-miterlimit="10" xmlns:xlink="http://www.w3.org/1999/xlink" xmlns="http://www.w3.org/2000/svg"><clipPath id="p.0"><path d="m0 0l100.0 0l0 100.0l-100.0 0l0 -100.0z" clip-rule="nonzero"/></clipPath><g clip-path="url(#p.0)"><path fill="#000000" fill-opacity="0.0" d="m0 0l100.0 0l0 100.0l-100.0 0z" fill-rule="evenodd"/><path fill="#434343" d="m42.055534 15.878611l3.9685059 -15.874016l7.937008 0l3.968502 15.874016z" fill-rule="evenodd"/><path fill="#434343" d="m84.125984 42.06593l15.874016 3.9685059l0 7.937008l-15.874016 3.968502z" fill-rule="evenodd"/><path fill="#434343" d="m57.92872 84.12139l-3.9685059 15.874016l-7.937008 0l-3.968502 -15.874016z" fill-rule="evenodd"/><path fill="#434343" d="m15.874016 57.93932l-15.874016 -3.9685059l0 -7.937008l15.874016 -3.968502z" fill-rule="evenodd"/><path fill="#434343" d="m68.52407 20.234978l14.015747 -8.40945l5.6063004 5.6062994l-8.409454 14.015747z" fill-rule="evenodd"/><path fill="#434343" d="m79.75552 68.52509l8.409454 14.015747l-5.6063004 5.6063004l-14.015747 -8.409447z" fill-rule="evenodd"/><path fill="#434343" d="m31.470045 79.738144l-14.015747 8.409447l-5.6062994 -5.6063004l8.40945 -14.015747z" fill-rule="evenodd"/><path fill="#434343" d="m20.24601 31.46287l-8.409448 -14.015747l5.6062994 -5.6062994l14.015747 8.40945z" fill-rule="evenodd"/><path fill="#666666" d="m23.217731 50.004784l0 0c0 -14.794273 11.99313 -26.787401 26.787403 -26.787401l0 0c7.1044617 0 13.917942 2.822235 18.941551 7.845848c5.023613 5.023611 7.845848 11.837091 7.845848 18.941553l0 0c0 14.794273 -11.993126 26.7874 -26.7874 26.7874l0 0c-14.794273 0 -26.787403 -11.993126 -26.787403 -26.7874z" fill-rule="evenodd"/><path stroke="#666666" stroke-width="1.0" stroke-linejoin="round" stroke-linecap="butt" d="m23.217731 50.004784l0 0c0 -14.794273 11.99313 -26.787401 26.787403 -26.787401l0 0c7.1044617 0 13.917942 2.822235 18.941551 7.845848c5.023613 5.023611 7.845848 11.837091 7.845848 18.941553l0 0c0 14.794273 -11.993126 26.7874 -26.7874 26.7874l0 0c-14.794273 0 -26.787403 -11.993126 -26.787403 -26.7874z" fill-rule="evenodd"/><path fill="#000000" d="m61.175148 49.99742l0 0c0 -2.3830872 1.9318733 -4.3149605 4.3149643 -4.3149605l0 0c1.1443939 0 2.2419205 0.45460892 3.0511322 1.2638245c0.80921173 0.80921173 1.2638245 1.9067383 1.2638245 3.051136l0 0c0 2.3830872 -1.9318695 4.3149605 -4.3149567 4.3149605l0 0c-2.383091 0 -4.3149643 -1.9318733 -4.3149643 -4.3149605z" fill-rule="evenodd"/><path fill="#000000" d="m45.67916 34.50137l0 0c0 -2.3830872 1.9318733 -4.3149586 4.3149605 -4.3149586l0 0c1.1443977 0 2.2419243 0.45461082 3.051136 1.2638226c0.80921173 0.80921173 1.2638245 1.9067383 1.2638245 3.051136l0 0c0 2.3830872 -1.9318733 4.3149605 -4.3149605 4.3149605l0 0c-2.3830872 0 -4.3149605 -1.9318733 -4.3149605 -4.3149605z" fill-rule="evenodd"/><path fill="#000000" d="m45.67916 65.489l0 0c0 -2.383091 1.9318733 -4.3149643 4.3149605 -4.3149643l0 0c1.1443977 0 2.2419243 0.45461273 3.051136 1.2638245c0.80921173 0.80921173 1.2638245 1.9067383 1.2638245 3.0511398l0 0c0 2.3830872 -1.9318733 4.3149567 -4.3149605 4.3149567l0 0c-2.3830872 0 -4.3149605 -1.9318695 -4.3149605 -4.3149567z" fill-rule="evenodd"/><path fill="#000000" d="m30.18541 49.995182l0 0c0 -2.3830872 1.9318733 -4.3149605 4.3149605 -4.3149605l0 0c1.1443977 0 2.241928 0.45461273 3.0511398 1.2638245c0.80921173 0.80921173 1.2638206 1.9067383 1.2638206 3.051136l0 0c0 2.3830872 -1.9318733 4.3149605 -4.3149605 4.3149605l0 0c-2.3830872 0 -4.3149605 -1.9318733 -4.3149605 -4.3149605z" fill-rule="evenodd"/><path fill="#434343" d="m8.365246 50.0025l0 0c0 -22.99592 18.641876 -41.637794 41.637794 -41.637794l0 0c11.04303 0 21.63377 4.3868265 29.442371 12.195427c7.8086014 7.8086014 12.195427 18.39934 12.195427 29.44237l0 0c0 22.995914 -18.641876 41.63779 -41.6378 41.63779l0 0c-22.995918 0 -41.637794 -18.641876 -41.637794 -41.63779zm10.633461 0l0 0c0 17.123219 13.881115 31.004337 31.004333 31.004337c17.123226 0 31.004337 -13.881119 31.004337 -31.004337l0 0c0 -17.123222 -13.881111 -31.004337 -31.004337 -31.004337l0 0c-17.123219 0 -31.004333 13.881115 -31.004333 31.004337z" fill-rule="evenodd"/><path stroke="#434343" stroke-width="8.0" stroke-linejoin="round" stroke-linecap="butt" d="m8.365246 50.0025l0 0c0 -22.99592 18.641876 -41.637794 41.637794 -41.637794l0 0c11.04303 0 21.63377 4.3868265 29.442371 12.195427c7.8086014 7.8086014 12.195427 18.39934 12.195427 29.44237l0 0c0 22.995914 -18.641876 41.63779 -41.6378 41.63779l0 0c-22.995918 0 -41.637794 -18.641876 -41.637794 -41.63779zm10.633461 0l0 0c0 17.123219 13.881115 31.004337 31.004333 31.004337c17.123226 0 31.004337 -13.881119 31.004337 -31.004337l0 0c0 -17.123222 -13.881111 -31.004337 -31.004337 -31.004337l0 0c-17.123219 0 -31.004333 13.881115 -31.004333 31.004337z" fill-rule="evenodd"/><path fill="#000000" d="m58.115402 58.125305l0 0c1.4089775 -1.4089775 3.693386 -1.4089775 5.1023636 0l0 0c0.67661285 0.67661667 1.0567322 1.5943031 1.0567322 2.5511818c0 0.95687866 -0.38011932 1.8745651 -1.0567322 2.5511818l0 0c-1.4089775 1.4089737 -3.693386 1.4089737 -5.1023636 0l0 0c-1.4089775 -1.4089813 -1.4089775 -3.693386 0 -5.1023636z" fill-rule="evenodd"/><path fill="#000000" d="m58.114487 36.788815l0 0c1.4089813 -1.4089775 3.693386 -1.4089775 5.1023636 0l0 0c0.67661667 0.67661285 1.0567322 1.5943031 1.0567322 2.5511818c0 0.95687866 -0.3801155 1.8745651 -1.0567322 2.551178l0 0c-1.4089775 1.4089813 -3.6933823 1.4089813 -5.1023636 0l0 0c-1.4089775 -1.4089775 -1.4089775 -3.6933823 0 -5.10236z" fill-rule="evenodd"/><path fill="#000000" d="m36.78183 58.12175l0 0c1.4089775 -1.4089775 3.693386 -1.4089775 5.1023636 0l0 0c0.67661285 0.67661667 1.0567322 1.5943031 1.0567322 2.5511818c0 0.95687866 -0.38011932 1.8745651 -1.0567322 2.5511818l0 0c-1.4089775 1.4089813 -3.693386 1.4089813 -5.1023636 0l0 0c-1.4089775 -1.4089775 -1.4089775 -3.693386 0 -5.1023636z" fill-rule="evenodd"/><path fill="#000000" d="m36.780914 36.7879l0 0c1.4089813 -1.4089775 3.693386 -1.4089775 5.1023636 0l0 0c0.67661667 0.67661667 1.0567322 1.5943031 1.0567322 2.5511818c0 0.95687866 -0.3801155 1.8745651 -1.0567322 2.5511818l0 0c-1.4089775 1.4089775 -3.6933823 1.4089775 -5.1023636 0l0 0c-1.4089775 -1.4089775 -1.4089775 -3.693386 0 -5.1023636z" fill-rule="evenodd"/></g></svg>