<svg version="1.1" viewBox="0.0 0.0 100.0 100.0" fill="none" stroke="none" stroke-linecap="square" stroke-miterlimit="10" xmlns:xlink="http://www.w3.org/1999/xlink" xmlns="http://www.w3.org/2000/svg"><clipPath id="p.0"><path d="m0 0l100.0 0l0 100.0l-100.0 0l0 -100.0z" clip-rule="nonzero"/></clipPath><g clip-path="url(#p.0)"><path fill="#000000" fill-opacity="0.0" d="m0 0l100.0 0l0 100.0l-100.0 0z" fill-rule="evenodd"/><path fill="#434343" d="m42.055534 15.910862l0 -15.905512l15.905514 15.905512z" fill-rule="evenodd"/><path fill="#434343" d="m84.09449 42.06605l15.90551 0l-15.90551 15.90551z" fill-rule="evenodd"/><path fill="#434343" d="m57.92872 84.08914l0 15.90551l-15.905514 -15.90551z" fill-rule="evenodd"/><path fill="#434343" d="m15.905512 57.9392l-15.905512 0l15.905512 -15.905514z" fill-rule="evenodd"/><path fill="#434343" d="m68.52407 20.267092l11.212593 -11.244095l0 22.48819z" fill-rule="evenodd"/><path fill="#434343" d="m79.75552 68.49315l11.212601 11.244095l-22.425194 0z" fill-rule="evenodd"/><path fill="#434343" d="m31.470045 79.706024l-11.212599 11.244095l0 -22.48819z" fill-rule="evenodd"/><path fill="#434343" d="m20.24601 31.494816l-11.212598 -11.244095l22.425198 0z" fill-rule="evenodd"/><path fill="#666666" d="m27.055119 50.0l0 0c0 -12.672108 10.272774 -22.944881 22.944881 -22.944881l0 0c6.0853615 0 11.921482 2.4174004 16.22448 6.720402c4.3030014 4.3029976 6.7204056 10.139118 6.7204056 16.22448l0 0c0 12.672108 -10.272778 22.944885 -22.944885 22.944885l0 0c-12.672108 0 -22.944881 -10.272778 -22.944881 -22.944885z" fill-rule="evenodd"/><path fill="#000000" d="m59.573963 50.00192l0 0c0 -2.043888 1.6568985 -3.7007904 3.7007904 -3.7007904l0 0c0.98151016 0 1.9228172 0.38990402 2.616848 1.0839386c0.69403076 0.69403076 1.0839386 1.6353416 1.0839386 2.6168518l0 0c0 2.043888 -1.6568985 3.7007866 -3.7007866 3.7007866l0 0c-2.043892 0 -3.7007904 -1.6568985 -3.7007904 -3.7007866z" fill-rule="evenodd"/><path fill="#000000" d="m46.298252 36.726326l0 0c0 -2.043888 1.6569023 -3.7007866 3.7007904 -3.7007866l0 0c0.98151016 0 1.9228172 0.38990402 2.6168518 1.0839348c0.69403076 0.6940346 1.0839348 1.6353416 1.0839348 2.6168518l0 0c0 2.043892 -1.6568985 3.7007904 -3.7007866 3.7007904l0 0c-2.043888 0 -3.7007904 -1.6568985 -3.7007904 -3.7007904z" fill-rule="evenodd"/><path fill="#000000" d="m46.298252 63.273674l0 0c0 -2.043892 1.6569023 -3.7007904 3.7007904 -3.7007904l0 0c0.98151016 0 1.9228172 0.38990402 2.6168518 1.0839386c0.69403076 0.69403076 1.0839348 1.6353416 1.0839348 2.6168518l0 0c0 2.0438843 -1.6568985 3.7007828 -3.7007866 3.7007828l0 0c-2.043888 0 -3.7007904 -1.6568985 -3.7007904 -3.7007828z" fill-rule="evenodd"/><path fill="#000000" d="m33.02446 50.0l0 0c0 -2.043888 1.6568985 -3.7007866 3.7007904 -3.7007866l0 0c0.98150635 0 1.9228172 0.38990402 2.6168518 1.0839348c0.69403076 0.69403076 1.0839348 1.6353416 1.0839348 2.6168518l0 0c0 2.043888 -1.6568985 3.7007866 -3.7007866 3.7007866l0 0c-2.043892 0 -3.7007904 -1.6568985 -3.7007904 -3.7007866z" fill-rule="evenodd"/><path fill="#434343" d="m14.3307085 50.0l0 0c0 -19.699606 15.969686 -35.669292 35.669292 -35.669292l0 0c9.460083 0 18.532707 3.7580042 25.222 10.447293c6.6892853 6.689291 10.4472885 15.761915 10.4472885 25.221998l0 0c0 19.699608 -15.969681 35.66929 -35.66929 35.66929l0 0c-19.699606 0 -35.669292 -15.969681 -35.669292 -35.66929zm9.109223 0l0 0c0 14.668724 11.891348 26.560066 26.560068 26.560066c14.668724 0 26.560066 -11.891342 26.560066 -26.560066l0 0c0 -14.66872 -11.891342 -26.560068 -26.560066 -26.560068l0 0c-14.66872 0 -26.560068 11.891348 -26.560068 26.560068z" fill-rule="evenodd"/><path stroke="#434343" stroke-width="8.0" stroke-linejoin="round" stroke-linecap="butt" d="m14.3307085 50.0l0 0c0 -19.699606 15.969686 -35.669292 35.669292 -35.669292l0 0c9.460083 0 18.532707 3.7580042 25.222 10.447293c6.6892853 6.689291 10.4472885 15.761915 10.4472885 25.221998l0 0c0 19.699608 -15.969681 35.66929 -35.66929 35.66929l0 0c-19.699606 0 -35.669292 -15.969681 -35.669292 -35.66929zm9.109223 0l0 0c0 14.668724 11.891348 26.560066 26.560068 26.560066c14.668724 0 26.560066 -11.891342 26.560066 -26.560066l0 0c0 -14.66872 -11.891342 -26.560068 -26.560066 -26.560068l0 0c-14.66872 0 -26.560068 11.891348 -26.560068 26.560068z" fill-rule="evenodd"/><path fill="#000000" d="m56.94929 56.964375l0 0c1.2089386 -1.2089386 3.169014 -1.2089386 4.3779526 0l0 0c0.58055115 0.58055115 0.90670395 1.3679504 0.90670395 2.1889763c0 0.82102203 -0.3261528 1.6084213 -0.90670395 2.1889763l0 0c-1.2089386 1.2089348 -3.169014 1.2089348 -4.3779526 0l0 0c-1.2089386 -1.2089386 -1.2089386 -3.1690178 0 -4.3779526z" fill-rule="evenodd"/><path fill="#000000" d="m56.948505 38.68523l0 0c1.2089386 -1.2089386 3.169014 -1.2089386 4.3779526 0l0 0c0.58055496 0.58055496 0.90670395 1.3679504 0.90670395 2.1889763c0 0.82102585 -0.326149 1.6084251 -0.90670395 2.1889763l0 0c-1.2089386 1.2089386 -3.169014 1.2089386 -4.3779526 0l0 0c-1.2089386 -1.2089386 -1.2089386 -3.169014 0 -4.3779526z" fill-rule="evenodd"/><path fill="#000000" d="m38.67241 56.961327l0 0c1.2089386 -1.2089386 3.169014 -1.2089386 4.3779526 0l0 0c0.58055496 0.58055496 0.90670395 1.3679504 0.90670395 2.1889763c0 0.82102585 -0.326149 1.6084251 -0.90670395 2.1889763l0 0c-1.2089386 1.2089386 -3.169014 1.2089386 -4.3779526 0l0 0c-1.2089386 -1.2089386 -1.2089386 -3.169014 0 -4.3779526z" fill-rule="evenodd"/><path fill="#000000" d="m38.671627 38.68445l0 0c1.2089386 -1.2089386 3.169014 -1.2089386 4.3779526 0l0 0c0.58055115 0.58055115 0.90670395 1.3679504 0.90670395 2.1889763c0 0.82102585 -0.3261528 1.6084251 -0.90670395 2.1889763l0 0c-1.2089386 1.2089386 -3.169014 1.2089386 -4.3779526 0l0 0c-1.2089386 -1.2089386 -1.2089386 -3.169014 0 -4.3779526z" fill-rule="evenodd"/></g></svg>