<svg version="1.1" viewBox="0.0 0.0 100.0 100.0" fill="none" stroke="none" stroke-linecap="square" stroke-miterlimit="10" xmlns:xlink="http://www.w3.org/1999/xlink" xmlns="http://www.w3.org/2000/svg"><clipPath id="p.0"><path d="m0 0l100.0 0l0 100.0l-100.0 0l0 -100.0z" clip-rule="nonzero"/></clipPath><g clip-path="url(#p.0)"><path fill="#000000" fill-opacity="0.0" d="m0 0l100.0 0l0 100.0l-100.0 0z" fill-rule="evenodd"/><path fill="#434343" d="m42.055534 1.988493l0 0c0 1.0958722 3.5535202 1.984252 7.937008 1.984252c4.3834877 0 7.937008 -0.8883798 7.937008 -1.984252l0 11.905512c0 1.0958719 -3.5535202 1.984252 -7.937008 1.984252c-4.3834877 0 -7.937008 -0.88838005 -7.937008 -1.984252z" fill-rule="evenodd"/><path fill="#8e8e8e" d="m42.055534 1.988493l0 0c0 -1.0958722 3.5535202 -1.984252 7.937008 -1.984252c4.3834877 0 7.937008 0.8883799 7.937008 1.984252l0 0c0 1.0958722 -3.5535202 1.984252 -7.937008 1.984252c-4.3834877 0 -7.937008 -0.8883798 -7.937008 -1.984252z" fill-rule="evenodd"/><path fill="#000000" fill-opacity="0.0" d="m57.92955 1.988493l0 0c0 1.0958722 -3.5535202 1.984252 -7.937008 1.984252c-4.3834877 0 -7.937008 -0.8883798 -7.937008 -1.984252l0 0c0 -1.0958722 3.5535202 -1.984252 7.937008 -1.984252c4.3834877 0 7.937008 0.8883799 7.937008 1.984252l0 11.905512c0 1.0958719 -3.5535202 1.984252 -7.937008 1.984252c-4.3834877 0 -7.937008 -0.88838005 -7.937008 -1.984252l0 -11.905512" fill-rule="evenodd"/><path fill="#434343" d="m98.01575 42.065872l0 0c-1.095871 0 -1.9842529 3.5535202 -1.9842529 7.937008c0 4.3834915 0.88838196 7.937008 1.9842529 7.937008l-11.90551 0c-1.095871 0 -1.9842529 -3.5535164 -1.9842529 -7.937008c0 -4.3834877 0.88838196 -7.937008 1.9842529 -7.937008z" fill-rule="evenodd"/><path fill="#8e8e8e" d="m98.01575 42.065872l0 0c1.095871 0 1.9842529 3.5535202 1.9842529 7.937008c0 4.3834915 -0.88838196 7.937008 -1.9842529 7.937008l0 0c-1.095871 0 -1.9842529 -3.5535164 -1.9842529 -7.937008c0 -4.3834877 0.88838196 -7.937008 1.9842529 -7.937008z" fill-rule="evenodd"/><path fill="#000000" fill-opacity="0.0" d="m98.01575 57.939888l0 0c-1.095871 0 -1.9842529 -3.5535164 -1.9842529 -7.937008c0 -4.3834877 0.88838196 -7.937008 1.9842529 -7.937008l0 0c1.095871 0 1.9842529 3.5535202 1.9842529 7.937008c0 4.3834915 -0.88838196 7.937008 -1.9842529 7.937008l-11.90551 0c-1.095871 0 -1.9842529 -3.5535164 -1.9842529 -7.937008c0 -4.3834877 0.88838196 -7.937008 1.9842529 -7.937008l11.90551 0" fill-rule="evenodd"/><path fill="#434343" d="m57.92872 98.011505l0 0c0 -1.095871 -3.5535202 -1.9842529 -7.937008 -1.9842529c-4.3834915 0 -7.937008 0.88838196 -7.937008 1.9842529l0 -11.90551c0 -1.095871 3.5535164 -1.9842529 7.937008 -1.9842529c4.3834877 0 7.937008 0.88838196 7.937008 1.9842529z" fill-rule="evenodd"/><path fill="#8e8e8e" d="m57.92872 98.011505l0 0c0 1.095871 -3.5535202 1.9842529 -7.937008 1.9842529c-4.3834915 0 -7.937008 -0.88838196 -7.937008 -1.9842529l0 0c0 -1.095871 3.5535164 -1.9842529 7.937008 -1.9842529c4.3834877 0 7.937008 0.88838196 7.937008 1.9842529z" fill-rule="evenodd"/><path fill="#000000" fill-opacity="0.0" d="m42.054703 98.011505l0 0c0 -1.095871 3.5535164 -1.9842529 7.937008 -1.9842529c4.3834877 0 7.937008 0.88838196 7.937008 1.9842529l0 0c0 1.095871 -3.5535202 1.9842529 -7.937008 1.9842529c-4.3834915 0 -7.937008 -0.88838196 -7.937008 -1.9842529l0 -11.90551c0 -1.095871 3.5535164 -1.9842529 7.937008 -1.9842529c4.3834877 0 7.937008 0.88838196 7.937008 1.9842529l0 11.90551" fill-rule="evenodd"/><path fill="#434343" d="m1.984252 57.939377l0 0c1.0958722 0 1.984252 -3.5535202 1.984252 -7.937008c0 -4.3834877 -0.8883798 -7.937008 -1.984252 -7.937008l11.905512 0c1.0958719 0 1.984252 3.5535202 1.984252 7.937008c0 4.3834877 -0.88838005 7.937008 -1.984252 7.937008z" fill-rule="evenodd"/><path fill="#8e8e8e" d="m1.984252 57.939377l0 0c-1.0958722 0 -1.984252 -3.5535202 -1.984252 -7.937008c-1.2031112E-15 -4.3834877 0.8883799 -7.937008 1.984252 -7.937008l0 0c1.0958722 0 1.984252 3.5535202 1.984252 7.937008c0 4.3834877 -0.8883798 7.937008 -1.984252 7.937008z" fill-rule="evenodd"/><path fill="#000000" fill-opacity="0.0" d="m1.984252 42.06536l0 0c1.0958722 0 1.984252 3.5535202 1.984252 7.937008c0 4.3834877 -0.8883798 7.937008 -1.984252 7.937008l0 0c-1.0958722 0 -1.984252 -3.5535202 -1.984252 -7.937008c-1.2031111E-15 -4.3834877 0.8883799 -7.937008 1.984252 -7.937008l11.905512 0c1.0958719 0 1.984252 3.5535202 1.984252 7.937008c0 4.3834877 -0.88838005 7.937008 -1.984252 7.937008l-11.905512 0" fill-rule="evenodd"/><path fill="#434343" d="m78.33903 10.427599l0 0c-0.77189636 0.7762432 1.105339 3.9225883 4.192917 7.0275593c3.0875778 3.104971 6.2162933 4.992779 6.9881897 4.2165356l-8.385826 8.433071c-0.77189636 0.7762432 -3.9006195 -1.1115646 -6.9881897 -4.2165356c-3.0875778 -3.104971 -4.964813 -6.251316 -4.192917 -7.0275593z" fill-rule="evenodd"/><path fill="#8e8e8e" d="m78.33903 10.427599l0 0c0.77189636 -0.77624226 3.9006119 1.1115646 6.9881897 4.2165356c3.0875778 3.104971 4.9648056 6.251316 4.192917 7.0275593l0 0c-0.77189636 0.7762432 -3.9006119 -1.1115646 -6.9881897 -4.2165356c-3.0875778 -3.104971 -4.964813 -6.251316 -4.192917 -7.0275593z" fill-rule="evenodd"/><path fill="#000000" fill-opacity="0.0" d="m89.520134 21.671694l0 0c-0.77189636 0.7762432 -3.9006119 -1.1115646 -6.9881897 -4.2165356c-3.0875778 -3.104971 -4.964813 -6.251316 -4.192917 -7.0275593l0 0c0.77189636 -0.77624226 3.9006119 1.1115646 6.9881897 4.2165356c3.0875778 3.104971 4.9648056 6.251316 4.192917 7.0275593l-8.385826 8.433071c-0.77189636 0.7762432 -3.9006195 -1.1115646 -6.9881897 -4.2165356c-3.0875778 -3.104971 -4.964813 -6.251316 -4.192917 -7.0275593l8.385826 -8.433071" fill-rule="evenodd"/><path fill="#434343" d="m89.57049 78.33239l0 0c-0.77189636 -0.7762375 -3.9006119 1.1115646 -6.9881897 4.2165375c-3.0875778 3.1049728 -4.9648056 6.25132 -4.1929092 7.0275574l-8.385834 -8.433067c-0.77188873 -0.7762451 1.105339 -3.9225922 4.192917 -7.0275574c3.0875778 -3.1049728 6.2162933 -4.9927826 6.9881897 -4.2165375z" fill-rule="evenodd"/><path fill="#8e8e8e" d="m89.57049 78.33239l0 0c0.77189636 0.7762451 -1.105339 3.9225922 -4.192917 7.0275574c-3.0875702 3.1049728 -6.2162933 4.9927826 -6.988182 4.2165375l0 0c-0.77189636 -0.7762375 1.1053314 -3.9225845 4.1929092 -7.0275574c3.0875778 -3.1049728 6.2162933 -4.992775 6.9881897 -4.2165375z" fill-rule="evenodd"/><path fill="#000000" fill-opacity="0.0" d="m78.38939 89.576485l0 0c-0.77189636 -0.7762375 1.1053314 -3.9225845 4.1929092 -7.0275574c3.0875778 -3.1049728 6.2162933 -4.992775 6.9881897 -4.2165375l0 0c0.77189636 0.7762451 -1.105339 3.9225922 -4.192917 7.0275574c-3.0875702 3.1049728 -6.2162933 4.9927826 -6.988182 4.2165375l-8.385834 -8.433067c-0.77188873 -0.7762451 1.105339 -3.9225922 4.192917 -7.0275574c3.0875778 -3.1049728 6.2162933 -4.9927826 6.9881897 -4.2165375l8.385826 8.433067" fill-rule="evenodd"/><path fill="#434343" d="m21.655085 89.54552l0 0c0.77189445 -0.7762451 -1.1053371 -3.9225845 -4.192913 -7.0275574c-3.087576 -3.1049728 -6.2162952 -4.992775 -6.9881887 -4.2165375l8.385827 -8.433067c0.77189255 -0.7762451 3.9006119 1.1115646 6.988188 4.21653c3.087576 3.1049728 4.9648075 6.25132 4.192913 7.027565z" fill-rule="evenodd"/><path fill="#8e8e8e" d="m21.655085 89.54552l0 0c-0.77189445 0.7762451 -3.9006119 -1.1115646 -6.9881887 -4.2165375c-3.087576 -3.1049652 -4.9648075 -6.2513123 -4.192913 -7.0275574l0 0c0.7718935 -0.7762375 3.9006128 1.1115646 6.9881887 4.2165375c3.087576 3.1049728 4.9648075 6.2513123 4.192913 7.0275574z" fill-rule="evenodd"/><path fill="#000000" fill-opacity="0.0" d="m10.473983 78.30142l0 0c0.7718935 -0.7762375 3.9006128 1.1115646 6.9881887 4.2165375c3.087576 3.1049728 4.9648075 6.2513123 4.192913 7.0275574l0 0c-0.77189445 0.7762451 -3.9006119 -1.1115646 -6.9881887 -4.2165375c-3.087576 -3.1049652 -4.9648075 -6.2513123 -4.192913 -7.0275574l8.385827 -8.433067c0.77189255 -0.7762451 3.9006119 1.1115646 6.988188 4.21653c3.087576 3.1049728 4.9648075 6.25132 4.192913 7.027565l-8.385826 8.433067" fill-rule="evenodd"/><path fill="#434343" d="m10.43105 21.655573l0 0c0.7718935 0.7762432 3.9006128 -1.1115646 6.9881887 -4.2165356c3.087576 -3.104971 4.9648075 -6.251316 4.192913 -7.0275593l8.385826 8.433071c0.77189445 0.7762432 -1.1053371 3.9225883 -4.192913 7.0275593c-3.087576 3.104971 -6.2162952 4.992779 -6.988188 4.2165356z" fill-rule="evenodd"/><path fill="#8e8e8e" d="m10.43105 21.655573l0 0c-0.77189445 -0.7762432 1.1053371 -3.9225883 4.192913 -7.0275593c3.0875769 -3.104971 6.2162943 -4.992778 6.9881887 -4.2165356l0 0c0.77189445 0.7762432 -1.1053371 3.9225883 -4.192913 7.0275593c-3.087576 3.104971 -6.2162952 4.992779 -6.9881887 4.2165356z" fill-rule="evenodd"/><path fill="#000000" fill-opacity="0.0" d="m21.612152 10.411478l0 0c0.77189445 0.7762432 -1.1053371 3.9225883 -4.192913 7.0275593c-3.087576 3.104971 -6.2162952 4.992779 -6.9881887 4.2165356l0 0c-0.77189445 -0.7762432 1.1053371 -3.9225883 4.192913 -7.0275593c3.0875769 -3.104971 6.2162943 -4.992778 6.9881887 -4.2165356l8.385826 8.433071c0.77189445 0.7762432 -1.1053371 3.9225883 -4.192913 7.0275593c-3.087576 3.104971 -6.2162952 4.992779 -6.988188 4.2165356l-8.385827 -8.433071" fill-rule="evenodd"/><path fill="#666666" d="m22.929134 50.0l0 0c0 -14.950825 12.120041 -27.070866 27.070866 -27.070866l0 0c7.1796417 0 14.065224 2.8521004 19.14199 7.928873c5.0767746 5.0767727 7.928879 11.962351 7.928879 19.141993l0 0c0 14.950829 -12.120041 27.07087 -27.07087 27.07087l0 0c-14.950825 0 -27.070866 -12.120041 -27.070866 -27.07087z" fill-rule="evenodd"/><path fill="#000000" d="m61.175148 50.013138l0 0c0 -2.3917847 1.9389267 -4.3307076 4.3307114 -4.3307076l0 0c1.1485748 0 2.2501068 0.4562683 3.062271 1.2684364c0.8121643 0.8121643 1.2684326 1.9136963 1.2684326 3.062271l0 0c0 2.3917847 -1.9389191 4.3307114 -4.3307037 4.3307114l0 0c-2.3917847 0 -4.3307114 -1.9389267 -4.3307114 -4.3307114z" fill-rule="evenodd"/><path fill="#000000" d="m45.67916 34.51698l0 0c0 -2.3917847 1.9389229 -4.3307095 4.3307076 -4.3307095l0 0c1.1485748 0 2.2501068 0.45627022 3.062275 1.2684345c0.8121643 0.8121643 1.2684326 1.9137001 1.2684326 3.062275l0 0c0 2.3917847 -1.9389229 4.3307076 -4.3307076 4.3307076l0 0c-2.3917847 0 -4.3307076 -1.9389229 -4.3307076 -4.3307076z" fill-rule="evenodd"/><path fill="#000000" d="m45.67916 65.50482l0 0c0 -2.3917847 1.9389229 -4.3307076 4.3307076 -4.3307076l0 0c1.1485748 0 2.2501068 0.4562683 3.062275 1.2684364c0.8121643 0.8121643 1.2684326 1.9136963 1.2684326 3.062271l0 0c0 2.3917847 -1.9389229 4.3307114 -4.3307076 4.3307114l0 0c-2.3917847 0 -4.3307076 -1.9389267 -4.3307076 -4.3307114z" fill-rule="evenodd"/><path fill="#000000" d="m30.18541 50.010902l0 0c0 -2.3917847 1.9389229 -4.3307114 4.3307076 -4.3307114l0 0c1.1485786 0 2.2501106 0.45627213 3.062275 1.2684364c0.8121643 0.8121643 1.2684364 1.9137001 1.2684364 3.062275l0 0c0 2.3917847 -1.9389267 4.3307076 -4.3307114 4.3307076l0 0c-2.3917847 0 -4.3307076 -1.9389229 -4.3307076 -4.3307076z" fill-rule="evenodd"/><path fill="#434343" d="m8.365246 49.986454l0 0c0 -22.987223 18.634825 -41.622047 41.622047 -41.622047l0 0c11.038853 0 21.625584 4.385167 29.431232 12.190815c7.805649 7.805649 12.190819 18.39238 12.190819 29.431232l0 0c0 22.987225 -18.634827 41.622044 -41.62205 41.622044l0 0c-22.987223 0 -41.622047 -18.634819 -41.622047 -41.622044zm10.629438 0l0 0c0 17.116741 13.875864 30.99261 30.992609 30.99261c17.116749 0 30.99261 -13.87587 30.99261 -30.99261l0 0c0 -17.116745 -13.875862 -30.992609 -30.99261 -30.992609l0 0c-17.116745 0 -30.992609 13.875864 -30.992609 30.992609z" fill-rule="evenodd"/><path stroke="#434343" stroke-width="8.0" stroke-linejoin="round" stroke-linecap="butt" d="m8.365246 49.986454l0 0c0 -22.987223 18.634825 -41.622047 41.622047 -41.622047l0 0c11.038853 0 21.625584 4.385167 29.431232 12.190815c7.805649 7.805649 12.190819 18.39238 12.190819 29.431232l0 0c0 22.987225 -18.634827 41.622044 -41.62205 41.622044l0 0c-22.987223 0 -41.622047 -18.634819 -41.622047 -41.622044zm10.629438 0l0 0c0 17.116741 13.875864 30.99261 30.992609 30.99261c17.116749 0 30.99261 -13.87587 30.99261 -30.99261l0 0c0 -17.116745 -13.875862 -30.992609 -30.99261 -30.992609l0 0c-17.116745 0 -30.992609 13.875864 -30.992609 30.992609z" fill-rule="evenodd"/><path fill="#000000" d="m58.099655 58.141094l0 0c1.417675 -1.4176788 3.7161827 -1.4176788 5.1338577 0l0 0c0.68079376 0.68078995 1.0632553 1.6041412 1.0632553 2.5669289c0 0.9627838 -0.38246155 1.8861351 -1.0632553 2.5669289l0 0c-1.417675 1.417675 -3.7161827 1.417675 -5.1338577 0l0 0c-1.417675 -1.4176788 -1.417675 -3.7161827 0 -5.1338577z" fill-rule="evenodd"/><path fill="#000000" d="m58.09874 36.80445l0 0c1.417675 -1.417675 3.7161827 -1.417675 5.1338577 0l0 0c0.68079376 0.68078995 1.0632553 1.604145 1.0632553 2.5669289c0 0.9627838 -0.38246155 1.8861351 -1.0632553 2.5669289l0 0c-1.417675 1.417675 -3.7161827 1.417675 -5.1338577 0l0 0c-1.417675 -1.417675 -1.417675 -3.7161827 0 -5.1338577z" fill-rule="evenodd"/><path fill="#000000" d="m36.766083 58.13754l0 0c1.417675 -1.417675 3.7161827 -1.417675 5.1338577 0l0 0c0.68079376 0.68078995 1.0632553 1.6041412 1.0632553 2.5669289c0 0.9627838 -0.38246155 1.8861351 -1.0632553 2.5669289l0 0c-1.417675 1.417675 -3.7161827 1.417675 -5.1338577 0l0 0c-1.417675 -1.417675 -1.417675 -3.7161827 0 -5.1338577z" fill-rule="evenodd"/><path fill="#000000" d="m36.765167 36.803535l0 0c1.417675 -1.417675 3.7161827 -1.417675 5.1338577 0l0 0c0.68079376 0.68079376 1.0632591 1.604145 1.0632591 2.5669289c0 0.9627876 -0.38246536 1.8861389 -1.0632591 2.5669289l0 0c-1.417675 1.417675 -3.7161827 1.417675 -5.1338577 0l0 0c-1.417675 -1.417675 -1.417675 -3.7161827 0 -5.1338577z" fill-rule="evenodd"/></g></svg>