<svg version="1.1" viewBox="0.0 0.0 300.0 3000.0" fill="none" stroke="none" stroke-linecap="square" stroke-miterlimit="10" xmlns:xlink="http://www.w3.org/1999/xlink" xmlns="http://www.w3.org/2000/svg"><clipPath id="p.0"><path d="m0 0l300.0 0l0 3000.0l-300.0 0l0 -3000.0z" clip-rule="nonzero"/></clipPath><g clip-path="url(#p.0)"><path fill="#5e4b0e" d="m0 0l300.0 0l0 3000.0l-300.0 0z" fill-rule="evenodd"/><path fill="#635011" fill-opacity="0.5886" d="m246.0 165.9993c-10.666672 -20.333328 -24.0 98.33334 -36.0 196.0c-12.0 97.66666 -32.66667 270.33334 -36.0 390.00003c-3.3333282 119.666626 13.666672 70.0 16.0 327.99994c2.3333282 258.0 2.0 965.3334 -2.0 1220.0c-4.0 254.66675 -19.666672 200.66675 -22.0 308.0c-2.3333282 107.33325 -2.0 297.33325 8.0 336.0c10.0 38.666748 40.33333 32.666748 52.0 -104.0c11.666672 -136.66675 13.333328 -467.66675 18.0 -716.0c4.6666718 -248.33325 10.666672 -545.6666 10.0 -774.0c-0.66667175 -228.33325 -17.333328 -451.66663 -14.0 -595.99994c3.3333282 -144.33337 33.0 -172.0 34.0 -270.00003c1.0 -98.0 -17.333344 -297.66666 -28.0 -318.0z" fill-rule="evenodd"/><path fill="#635011" fill-opacity="0.5886" d="m84.0 168.00082c-18.666664 88.0 -28.666668 409.33334 -32.0 708.0c-3.333332 298.6667 11.333332 835.3333 12.0 1084.0c0.6666641 248.66663 -6.666668 283.99988 -8.0 407.99988c-1.3333321 124.0 -10.666668 390.0 0 336.0c10.666664 -54.0 55.333336 -458.6665 64.0 -659.9999c8.666672 -201.33337 -9.333336 -360.66675 -12.0 -548.0c-2.6666641 -187.33337 -13.333336 -384.66675 -4.0 -576.00006c9.333336 -191.33331 63.33333 -446.66663 60.0 -572.0c-3.3333282 -125.33334 -61.333336 -268.0 -80.0 -180.0z" fill-rule="evenodd"/><path fill="#7f6000" d="m0 0l300.0 0l0 48.0l-300.0 0z" fill-rule="evenodd"/><path fill="#7f6000" d="m0 480.0l300.0 0l0 48.0l-300.0 0z" fill-rule="evenodd"/><path fill="#7f6000" d="m0 1440.0l300.0 0l0 48.0l-300.0 0z" fill-rule="evenodd"/><path fill="#7f6000" d="m0 1920.0l300.0 0l0 48.0l-300.0 0z" fill-rule="evenodd"/><path fill="#7f6000" d="m0 2400.0l300.0 0l0 48.0l-300.0 0z" fill-rule="evenodd"/><path fill="#7f6000" d="m0 960.0l300.0 0l0 48.0l-300.0 0z" fill-rule="evenodd"/></g></svg>