<svg version="1.1" viewBox="0.0 0.0 512.0 512.0" fill="none" stroke="none" stroke-linecap="square" stroke-miterlimit="10" xmlns:xlink="http://www.w3.org/1999/xlink" xmlns="http://www.w3.org/2000/svg"><clipPath id="p.0"><path d="m0 0l512.0 0l0 512.0l-512.0 0l0 -512.0z" clip-rule="nonzero"/></clipPath><g clip-path="url(#p.0)"><path fill="#000000" fill-opacity="0.0" d="m0 0l512.0 0l0 512.0l-512.0 0z" fill-rule="evenodd"/><path fill="#cccccc" d="m31.244095 106.16423l0 0c0 -41.37725 33.542885 -74.920135 74.920135 -74.920135l299.67157 0l0 0c19.870056 0 38.92627 7.8933487 52.976532 21.9436c14.050232 14.050251 21.943604 33.10648 21.943604 52.976536l0 299.67157c0 41.377228 -33.542908 74.920135 -74.920135 74.920135l-299.67157 0c-41.37725 0 -74.920135 -33.542908 -74.920135 -74.920135z" fill-rule="evenodd"/><path fill="#000000" fill-opacity="0.0" d="m64.64567 67.68767l382.70868 0l0 82.425186l-382.70868 0z" fill-rule="evenodd"/><path fill="#000000" d="m202.77519 127.12329q-3.328125 0 -6.21875 -0.984375q-2.875 -0.984375 -5.0156403 -2.78125q-2.125 -1.796875 -3.171875 -4.1875q-0.46875 -0.875 -0.03125 -1.65625q0.453125 -0.78125 1.5 -1.046875q0.765625 -0.203125 1.546875 0.1875q0.78125 0.390625 1.15625 1.21875q0.76564026 1.453125 2.2500153 2.625q1.484375 1.171875 3.53125 1.828125q2.0625 0.640625 4.453125 0.640625q2.703125 0 4.828125 -0.875q2.140625 -0.890625 3.390625 -2.546875q1.25 -1.671875 1.25 -4.0625q0 -3.015625 -2.296875 -5.28125q-2.28125 -2.265625 -7.265625 -2.828125q-6.203125 -0.734375 -9.71875 -3.796875q-3.5000153 -3.078125 -3.5000153 -7.59375q0 -3.234375 1.765625 -5.59375q1.7812653 -2.359375 4.8437653 -3.625q3.0625 -1.28125 6.96875 -1.28125q2.96875 0 5.296875 0.90625q2.34375 0.90625 4.078125 2.421875q1.75 1.5 2.890625 3.375q0.625 0.9375 0.4375 1.796875q-0.171875 0.859375 -0.953125 1.328125q-0.828125 0.40625 -1.75 0.125q-0.90625 -0.28125 -1.375 -1.125q-0.78125 -1.25 -1.953125 -2.3125q-1.15625 -1.0625 -2.828125 -1.6875q-1.65625 -0.625 -3.953125 -0.671875q-4.0 0 -6.546875 1.671875q-2.546875 1.65625 -2.546875 4.921875q0 1.671875 0.90625 3.15625q0.90625 1.484375 3.0625 2.53125q2.15625 1.03125 5.90625 1.546875q6.453125 0.828125 9.671875 3.90625q3.21875 3.0625 3.21875 8.046875q0 2.875 -1.0625 5.0625q-1.0625 2.171875 -2.984375 3.65625q-1.921875 1.484375 -4.453125 2.234375q-2.515625 0.75 -5.328125 0.75zm23.980652 -11.75q-1.046875 0 -1.640625 -0.625q-0.59375 -0.625 -0.59375 -1.5625l0 -24.953125q0 -1.046875 0.59375 -1.640625q0.59375 -0.59375 1.640625 -0.59375q0.984375 0 1.578125 0.59375q0.59375 0.59375 0.59375 1.640625l0 24.953125q0 0.9375 -0.59375 1.5625q-0.59375 0.625 -1.578125 0.625zm22.046875 11.234375q-1.0 0 -1.625 -0.625q-0.609375 -0.625 -0.609375 -1.5625l0 -13.25q0 -3.171875 -1.171875 -5.171875q-1.171875 -2.015625 -3.203125 -3.015625q-2.03125 -1.015625 -4.625 -1.015625q-2.453125 0 -4.40625 0.96875q-1.9375 0.953125 -3.09375 2.59375q-1.140625 1.625 -1.140625 3.765625l-3.015625 0q0.109375 -3.28125 1.75 -5.84375q1.640625 -2.578125 4.390625 -4.078125q2.75 -1.515625 6.140625 -1.515625q3.640625 0 6.515625 1.53125q2.890625 1.53125 4.578125 4.5q1.6875 2.953125 1.6875 7.28125l0 13.25q0 0.9375 -0.625 1.5625q-0.609375 0.625 -1.546875 0.625zm-22.046875 0q-1.046875 0 -1.640625 -0.59375q-0.59375 -0.609375 -0.59375 -1.59375l0 -24.015625q0 -1.046875 0.59375 -1.640625q0.59375 -0.59375 1.640625 -0.59375q0.984375 0 1.578125 0.59375q0.59375 0.59375 0.59375 1.640625l0 24.015625q0 0.984375 -0.59375 1.59375q-0.59375 0.59375 -1.578125 0.59375zm46.011124 0.265625q-4.203125 0 -7.453125 -1.875q-3.25 -1.875 -5.125 -5.140625q-1.875 -3.28125 -1.875 -7.453125q0 -4.203125 1.875 -7.46875q1.875 -3.28125 5.125 -5.15625q3.25 -1.875 7.453125 -1.875q4.15625 0 7.375 1.875q3.234375 1.875 5.109375 5.15625q1.875 3.265625 1.921875 7.46875q0 4.171875 -1.875 7.453125q-1.875 3.265625 -5.125 5.140625q-3.25 1.875 -7.40625 1.875zm0 -3.953125q2.921875 0 5.203125 -1.375q2.28125 -1.390625 3.578125 -3.75q1.3125 -2.375 1.3125 -5.390625q0 -3.015625 -1.3125 -5.40625q-1.296875 -2.390625 -3.578125 -3.765625q-2.28125 -1.375 -5.203125 -1.375q-2.90625 0 -5.21875 1.375q-2.3125 1.375 -3.640625 3.765625q-1.328125 2.390625 -1.328125 5.40625q0 3.015625 1.328125 5.390625q1.328125 2.359375 3.640625 3.75q2.3125 1.375 5.21875 1.375zm24.448914 15.859375q-1.046875 0 -1.640625 -0.609375q-0.59375 -0.59375 -0.59375 -1.625l0 -24.296875q0.046875 -4.046875 1.9375 -7.296875q1.90625 -3.25 5.125 -5.140625q3.21875 -1.90625 7.28125 -1.90625q4.15625 0 7.40625 1.90625q3.25 1.890625 5.140625 5.171875q1.90625 3.265625 1.90625 7.421875q0 4.109375 -1.796875 7.390625q-1.78125 3.28125 -4.90625 5.1875q-3.125 1.890625 -7.078125 1.890625q-3.375 0 -6.140625 -1.421875q-2.75 -1.4375 -4.46875 -3.78125l0 14.875q0 1.03125 -0.625 1.625q-0.609375 0.609375 -1.546875 0.609375zm12.109375 -15.859375q2.90625 0 5.21875 -1.375q2.328125 -1.390625 3.640625 -3.78125q1.328125 -2.390625 1.328125 -5.359375q0 -3.015625 -1.328125 -5.375q-1.3125 -2.359375 -3.640625 -3.765625q-2.3125 -1.40625 -5.21875 -1.40625q-2.8125 0 -5.125 1.40625q-2.3125 1.40625 -3.609375 3.765625q-1.296875 2.359375 -1.296875 5.375q0 2.96875 1.296875 5.359375q1.296875 2.390625 3.578125 3.78125q2.296875 1.375 5.15625 1.375z" fill-rule="nonzero"/><path fill="#ba0808" d="m202.60954 236.88858c-3.5212555 -0.17025757 -13.209732 4.0503845 -15.263031 6.473999c-2.0532837 2.4235992 -0.5779877 7.8973694 2.9432526 8.067627c3.5212555 0.17024231 16.13095 -4.6224976 18.18425 -7.046097c2.0532837 -2.4236145 -2.343216 -7.325287 -5.8644714 -7.495529z" fill-rule="evenodd"/><path fill="#ba0808" d="m309.22565 237.00691c3.5167236 -0.24822998 13.296661 3.7568817 15.403198 6.1344757c2.1065674 2.3776093 0.75283813 7.882889 -2.7638855 8.131119c-3.5167236 0.24822998 -16.22992 -4.2641296 -18.336456 -6.6417236c-2.1065674 -2.3776093 2.18042 -7.3756256 5.6971436 -7.623871z" fill-rule="evenodd"/><path fill="#cc0000" d="m201.30724 285.5966c-0.2651062 -32.256287 -8.434158 -88.52147 8.318741 -104.55664c16.7529 -16.035172 76.56732 -22.850891 92.19867 8.345581c15.631348 31.196457 16.690704 147.96783 1.589386 178.83319c-15.101318 30.865326 -75.17955 20.129211 -92.19734 6.358856c-17.017792 -13.770355 -9.644333 -56.72473 -9.909454 -88.98099z" fill-rule="evenodd"/><path fill="#bf0c0c" d="m212.08984 276.35925c13.533463 -7.8739014 75.70587 -8.693787 89.56729 -0.9838867c13.861389 7.7099304 7.134613 39.369415 -6.398834 47.243317c-13.533447 7.873871 -60.94049 7.7099 -74.801895 0c-13.861404 -7.7099 -21.90001 -38.38556 -8.366562 -46.25943z" fill-rule="evenodd"/><path fill="#990000" d="m215.85567 190.61584c-1.2575836 5.9917145 -3.3282166 29.81157 -3.1062775 36.83893c0.22193909 7.027359 3.1803284 11.31694 4.437912 5.325226c1.2575836 -5.9917145 3.329544 -34.24814 3.107605 -41.275497c-0.22193909 -7.027359 -3.181656 -6.880371 -4.4392395 -0.8886566z" fill-rule="evenodd"/><path fill="#990000" d="m292.3871 190.61584c1.2575684 5.9917145 3.328186 29.81157 3.1062622 36.83893c-0.22195435 7.027359 -3.1803284 11.31694 -4.4379272 5.325226c-1.2575684 -5.9917145 -3.3295288 -34.24814 -3.107605 -41.275497c0.22195435 -7.027359 3.1816711 -6.880371 4.43927 -0.8886566z" fill-rule="evenodd"/><path fill="#ff9900" fill-opacity="0.2975" d="m205.64789 186.08217c2.7368927 -4.0682983 7.7670135 -8.210663 11.983429 -10.651779c4.2164154 -2.4411163 14.054718 -5.696167 13.315063 -3.994934c-0.73965454 1.7012482 -12.7969055 9.468262 -17.752975 14.202393c-4.95607 4.7341156 -10.725845 14.128311 -11.983429 14.202377c-1.2575836 0.0740509 1.7010193 -9.689743 4.437912 -13.758057z" fill-rule="evenodd"/><path fill="#ff9900" fill-opacity="0.2975" d="m300.11978 186.08217c-2.736908 -4.0682983 -7.767029 -8.210663 -11.983429 -10.651779c-4.2164307 -2.4411163 -14.054718 -5.696167 -13.315063 -3.994934c0.73965454 1.7012482 12.7969055 9.468262 17.75296 14.202393c4.956085 4.7341156 10.725861 14.128311 11.983429 14.202377c1.2575989 0.0740509 -1.7010193 -9.689743 -4.4378967 -13.758057z" fill-rule="evenodd"/><path fill="#434343" d="m212.74844 245.99716c6.879486 -5.9917145 25.81665 -7.8410645 39.945206 -8.432831c14.128555 -0.59176636 36.985245 -0.51771545 44.826096 4.8822327c7.8408203 5.399948 9.689972 22.191559 2.218933 27.517456c-7.4710083 5.3258667 -32.324707 3.8461304 -47.04503 4.4378967c-14.720322 0.59176636 -34.61931 3.8468018 -41.27684 -0.8872986c-6.6575317 -4.734131 -5.5478363 -21.525742 1.3316345 -27.517456z" fill-rule="evenodd"/><path fill="#950303" d="m212.05547 280.58655c-1.2575836 5.991699 -3.3282166 29.811554 -3.1062622 36.83893c0.22193909 7.0273438 3.180313 11.316925 4.4378967 5.3251953c1.2575836 -5.991699 3.3295593 -34.24814 3.1076202 -41.275482c-0.22195435 -7.0273743 -3.1816711 -6.880371 -4.4392548 -0.88864136z" fill-rule="evenodd"/><path fill="#950303" d="m300.15393 280.58655c1.2575684 5.991699 3.328186 29.811554 3.1062622 36.83893c-0.22195435 7.0273438 -3.1803284 11.316925 -4.4378967 5.3251953c-1.2575989 -5.991699 -3.3295593 -34.24814 -3.1076355 -41.275482c0.22195435 -7.0273743 3.1816711 -6.880371 4.43927 -0.88864136z" fill-rule="evenodd"/><path fill="#434343" d="m213.1927 350.73972c6.953781 -1.701294 30.846817 2.8848572 44.383987 2.6628418c13.53717 -0.2220459 30.773132 -5.7704773 36.83905 -3.994995c6.065918 1.7754517 6.4700317 10.993164 -0.44354248 14.647797c-6.913574 3.6546326 -28.01828 7.3541565 -41.037964 7.279999c-13.019699 -0.07418823 -30.456604 -4.29245 -37.080185 -7.7250366c-6.623581 -3.4326172 -9.615112 -11.169312 -2.6613464 -12.870605z" fill-rule="evenodd"/><path fill="#f3f3f3" fill-opacity="0.6203" d="m236.8018 199.10048c2.6246185 -3.3628845 13.205246 -14.025375 15.747757 -15.747757c2.5425262 -1.7223816 2.131958 2.050583 -0.49267578 5.4134827c-2.6246185 3.3628845 -12.71257 13.041519 -15.255081 14.763901c-2.5425262 1.7223816 -2.6246338 -1.0667267 0 -4.4296265z" fill-rule="evenodd"/><path fill="#f3f3f3" fill-opacity="0.6203" d="m249.66347 199.10048c2.6246185 -3.3628845 13.205246 -14.025375 15.747757 -15.747757c2.542511 -1.7223816 2.131958 2.050583 -0.49267578 5.4134827c-2.6246338 3.3628845 -12.71257 13.041519 -15.255081 14.763901c-2.5425262 1.7223816 -2.6246338 -1.0667267 0 -4.4296265z" fill-rule="evenodd"/><path fill="#346dc9" d="m57.33771 278.70056c-3.077488 -0.14859009 -11.54472 3.5407104 -13.3391075 5.658966c-1.794384 2.1182861 -0.5046921 6.90213 2.5727959 7.0507507c3.077488 0.14859009 14.097752 -4.0408936 15.892136 -6.1591797c1.794384 -2.1182861 -2.0483322 -6.401947 -5.125824 -6.550537z" fill-rule="evenodd"/><path fill="#346dc9" d="m150.51764 278.80515c3.0735474 -0.21697998 11.621033 3.2833252 13.462143 5.361267c1.8411102 2.0779724 0.65802 6.889496 -2.4155273 7.106476c-3.0735474 0.21697998 -14.184647 -3.726654 -16.025757 -5.804596c-1.841095 -2.0779724 1.9055939 -6.446167 4.979141 -6.663147z" fill-rule="evenodd"/><path fill="#3c78d8" d="m56.199936 321.26923c-0.2317009 -28.190552 -7.37109 -77.3638 7.270199 -91.37782c14.641285 -14.014038 66.91643 -19.970657 80.57753 7.2936554c13.661087 27.264313 14.586929 129.31729 1.3890381 156.29224c-13.197876 26.974915 -65.70356 17.592041 -80.576355 5.5573425c-14.872795 -12.034668 -8.428711 -49.57486 -8.660416 -77.76541z" fill-rule="evenodd"/><path fill="#3c74cf" d="m65.62334 313.1975c11.827187 -6.8811646 66.16109 -7.597687 78.27487 -0.85980225c12.1138 6.737854 6.2351074 34.405823 -5.5920715 41.286987c-11.827202 6.8811646 -53.25728 6.737854 -65.37108 0c-12.113796 -6.737854 -19.138916 -33.54602 -7.311722 -40.427185z" fill-rule="evenodd"/><path fill="#1155cc" d="m68.914856 238.26057c-1.0990753 5.236496 -2.9087067 26.054 -2.7147446 32.19557c0.19396973 6.1416016 2.7794647 9.890503 3.8785324 4.654022c1.0990753 -5.2364807 2.9098816 -29.93135 2.7159119 -36.072952c-0.1939621 -6.1415863 -2.780632 -6.0131226 -3.8796997 -0.77664185z" fill-rule="evenodd"/><path fill="#1155cc" d="m135.80139 238.26057c1.0990753 5.236496 2.9087067 26.054 2.714737 32.19557c-0.19395447 6.1416016 -2.7794495 9.890503 -3.8785248 4.654022c-1.0990753 -5.2364807 -2.9098816 -29.93135 -2.7159119 -36.072952c0.19396973 -6.1415863 2.7806244 -6.0131226 3.8796997 -0.77664185z" fill-rule="evenodd"/><path fill="#ff9900" fill-opacity="0.2975" d="m59.9935 234.29813c2.3919182 -3.5555267 6.7880173 -7.175766 10.472977 -9.309189c3.6849594 -2.1334229 12.2831955 -4.978195 11.63678 -3.4913788c-0.64642334 1.4868011 -11.183929 8.274826 -15.515312 12.412247c-4.331379 4.1374054 -9.373905 12.347519 -10.472977 12.412247c-1.0990753 0.064712524 1.4866142 -8.468414 3.8785324 -12.023926z" fill-rule="evenodd"/><path fill="#ff9900" fill-opacity="0.2975" d="m142.5596 234.29813c-2.391922 -3.5555267 -6.788025 -7.175766 -10.472977 -9.309189c-3.684967 -2.1334229 -12.2831955 -4.978195 -11.636772 -3.4913788c0.64642334 1.4868011 11.183922 8.274826 15.515312 12.412247c4.331375 4.1374054 9.373901 12.347519 10.472977 12.412247c1.0990753 0.064712524 -1.486618 -8.468414 -3.87854 -12.023926z" fill-rule="evenodd"/><path fill="#434343" d="m66.19918 286.66214c6.012352 -5.2364807 22.562607 -6.8527527 34.910324 -7.369934c12.347725 -0.5171509 32.323463 -0.4524536 39.176003 4.266876c6.8525543 4.7192993 8.468597 19.39441 1.93927 24.049011c-6.5293274 4.654602 -28.250374 3.3613586 -41.115273 3.87854c-12.864899 0.5171814 -30.25573 3.3619385 -36.07412 -0.7754822c-5.8183823 -4.1374207 -4.8485527 -18.81253 1.1637955 -24.049011z" fill-rule="evenodd"/><path fill="#1155cc" d="m65.59358 316.89227c-1.0990753 5.236511 -2.9087067 26.053986 -2.7147408 32.195587c0.19396591 6.1416016 2.779461 9.890503 3.8785286 4.654022c1.0990753 -5.236511 2.9098816 -29.931366 2.7159119 -36.072968c-0.1939621 -6.1416016 -2.780632 -6.0131226 -3.8796997 -0.77664185z" fill-rule="evenodd"/><path fill="#1155cc" d="m142.58942 316.89227c1.0990753 5.236511 2.9087067 26.053986 2.714737 32.195587c-0.19395447 6.1416016 -2.7794495 9.890503 -3.8785248 4.654022c-1.0990753 -5.236511 -2.9098816 -29.931366 -2.7159119 -36.072968c0.19395447 -6.1416016 2.7806244 -6.0131226 3.8796997 -0.77664185z" fill-rule="evenodd"/><path fill="#434343" d="m66.58736 378.20407c6.0770645 -1.4868164 26.957733 2.5211182 38.788177 2.3270874c11.830444 -0.19403076 26.893341 -5.042938 32.19449 -3.4913025c5.3011475 1.5516357 5.654312 9.607178 -0.38763428 12.801056c-6.0419464 3.1938477 -24.485802 6.4269714 -35.864006 6.362152c-11.378204 -0.064819336 -26.616714 -3.7512512 -32.40522 -6.7510986c-5.7885017 -2.999817 -8.402866 -9.761108 -2.3258057 -11.247894z" fill-rule="evenodd"/><path fill="#f3f3f3" fill-opacity="0.6203" d="m87.22118 245.6752c2.2937164 -2.938919 11.540367 -12.257111 13.762329 -13.762329c2.221962 -1.5052338 1.8631592 1.7920532 -0.43056488 4.730957c-2.2937164 2.938919 -11.109802 11.397293 -13.331764 12.902512c-2.221962 1.5052338 -2.293724 -0.9322357 0 -3.8711395z" fill-rule="evenodd"/><path fill="#f3f3f3" fill-opacity="0.6203" d="m98.46194 245.6752c2.293724 -2.938919 11.540367 -12.257111 13.762329 -13.762329c2.221962 -1.5052338 1.8631592 1.7920532 -0.43055725 4.730957c-2.293724 2.938919 -11.10981 11.397293 -13.331772 12.902512c-2.221962 1.5052338 -2.293724 -0.9322357 0 -3.8711395z" fill-rule="evenodd"/><path fill="#60934a" d="m361.33838 278.69748c-3.077057 -0.14865112 -11.543243 3.5399475 -13.337433 5.657898c-1.7941895 2.1179504 -0.50479126 6.901184 2.5722961 7.0498047c3.077057 0.14865112 14.095917 -4.039978 15.890106 -6.1579285c1.7941895 -2.1179504 -2.0479126 -6.401123 -5.1249695 -6.549774z" fill-rule="evenodd"/><path fill="#60934a" d="m454.51587 278.79974c3.0734558 -0.21673584 11.620483 3.2841187 13.461365 5.362152c1.8409119 2.0780334 0.6575012 6.8893433 -2.415985 7.106079c-3.0734863 0.21676636 -14.1839905 -3.7276 -16.024902 -5.8056335c-1.8408813 -2.0780334 1.9060364 -6.445862 4.9795227 -6.6625977z" fill-rule="evenodd"/><path fill="#6aa84f" d="m360.20212 321.26935c-0.23171997 -28.191101 -7.3712463 -77.36537 7.2703247 -91.379684c14.641602 -14.014313 66.917816 -19.971054 80.57919 7.293808c13.661377 27.264893 14.587219 129.31995 1.3890686 156.29541c-13.198151 26.975494 -65.704895 17.592407 -80.578 5.5574646c-14.873108 -12.034912 -8.428894 -49.575867 -8.6605835 -77.767z" fill-rule="evenodd"/><path fill="#64a14a" d="m369.6251 313.19223c11.826874 -6.8809814 66.15933 -7.5975037 78.27283 -0.85980225c12.113464 6.737671 6.2349243 34.404907 -5.5919495 41.28589c-11.826874 6.881012 -53.25589 6.7377014 -65.369354 0c-12.113495 -6.737671 -19.138428 -33.545105 -7.3115234 -40.426086z" fill-rule="evenodd"/><path fill="#38761d" d="m372.91653 238.2581c-1.0990906 5.236603 -2.9087524 26.05452 -2.7147827 32.196243c0.19396973 6.1417236 2.7795105 9.890686 3.878601 4.654114c1.0990906 -5.236603 2.9099426 -29.931961 2.715973 -36.073685c-0.19396973 -6.1417236 -2.7807007 -6.01326 -3.8797913 -0.77667236z" fill-rule="evenodd"/><path fill="#38761d" d="m439.79987 238.2581c1.0990906 5.236603 2.9087524 26.05452 2.7147827 32.196243c-0.19396973 6.1417236 -2.7795105 9.890686 -3.878601 4.654114c-1.0990906 -5.236603 -2.9099426 -29.931961 -2.715973 -36.073685c0.19396973 -6.1417236 2.7807007 -6.01326 3.8797913 -0.77667236z" fill-rule="evenodd"/><path fill="#ff9900" fill-opacity="0.2975" d="m363.99564 234.29631c2.3919678 -3.5555878 6.7881775 -7.1759033 10.473206 -9.309372c3.685028 -2.1334686 12.283447 -4.9782867 11.636993 -3.491455c-0.64642334 1.4868469 -11.184143 8.275009 -15.515625 12.412506c-4.3314514 4.137497 -9.374084 12.347778 -10.473175 12.412491c-1.0990906 0.06472778 1.4866333 -8.468567 3.878601 -12.02417z" fill-rule="evenodd"/><path fill="#ff9900" fill-opacity="0.2975" d="m446.55768 234.29631c-2.3919678 -3.5555878 -6.788147 -7.1759033 -10.473175 -9.309372c-3.685028 -2.1334686 -12.283447 -4.9782867 -11.637024 -3.491455c0.64645386 1.4868469 11.184174 8.275009 15.515625 12.412506c4.331482 4.137497 9.374115 12.347778 10.473206 12.412491c1.0990906 0.06472778 -1.4866638 -8.468567 -3.8786316 -12.02417z" fill-rule="evenodd"/><path fill="#434343" d="m370.2011 286.65814c6.0124817 -5.2365723 22.56308 -6.8528748 34.91104 -7.370056c12.347961 -0.5171814 32.324127 -0.4524536 39.17682 4.2669373c6.852661 4.7194214 8.46875 19.394836 1.9393005 24.0495c-6.52948 4.6546936 -28.250946 3.3614502 -41.11612 3.8786316c-12.865143 0.5171814 -30.256348 3.3619995 -36.07486 -0.7754822c-5.8184814 -4.137512 -4.848633 -18.812927 1.1638184 -24.04953z" fill-rule="evenodd"/><path fill="#356f1b" d="m369.5954 316.88702c-1.0990906 5.236603 -2.9087524 26.054504 -2.7147827 32.196228c0.19396973 6.1417236 2.7795105 9.890686 3.878601 4.654114c1.0990906 -5.236603 2.9099426 -29.931976 2.715973 -36.0737c-0.19396973 -6.1417236 -2.7807007 -6.0132446 -3.8797913 -0.77664185z" fill-rule="evenodd"/><path fill="#356f1b" d="m446.5876 316.88702c1.0990906 5.236603 2.908783 26.054504 2.7148132 32.196228c-0.19396973 6.1417236 -2.779541 9.890686 -3.8786316 4.654114c-1.0990906 -5.236603 -2.9099426 -29.931976 -2.715973 -36.0737c0.19396973 -6.1417236 2.7807007 -6.0132446 3.8797913 -0.77664185z" fill-rule="evenodd"/><path fill="#434343" d="m370.58902 378.1964c6.0769043 -1.4867554 26.957031 2.5210876 38.78717 2.327057c11.830109 -0.19403076 26.89264 -5.042816 32.193634 -3.4912415c5.300995 1.5516052 5.6541443 9.606934 -0.38763428 12.80072c-6.0417786 3.1937866 -24.485168 6.426819 -35.863068 6.3619995c-11.377899 -0.064819336 -26.615997 -3.7511597 -32.404358 -6.7509155c-5.7883606 -2.9997559 -8.402649 -9.760864 -2.3257446 -11.24762z" fill-rule="evenodd"/><path fill="#f3f3f3" fill-opacity="0.6203" d="m391.22192 245.67238c2.2936707 -2.9388275 11.54007 -12.256775 13.761963 -13.761963c2.2219238 -1.505188 1.8631287 1.7919922 -0.430542 4.730835c-2.2936707 2.9388275 -11.109528 11.396988 -13.331421 12.902176c-2.2218933 1.505188 -2.2936707 -0.9322052 0 -3.871048z" fill-rule="evenodd"/><path fill="#f3f3f3" fill-opacity="0.6203" d="m402.4622 245.67238c2.2936707 -2.9388275 11.54007 -12.256775 13.761993 -13.761963c2.2218933 -1.505188 1.8630981 1.7919922 -0.4305725 4.730835c-2.2936401 2.9388275 -11.109497 11.396988 -13.331421 12.902176c-2.2218933 1.505188 -2.2936401 -0.9322052 0 -3.871048z" fill-rule="evenodd"/></g></svg>