<svg version="1.1" viewBox="0.0 0.0 256.0 256.0" fill="none" stroke="none" stroke-linecap="square" stroke-miterlimit="10" xmlns:xlink="http://www.w3.org/1999/xlink" xmlns="http://www.w3.org/2000/svg"><clipPath id="p.0"><path d="m0 0l256.0 0l0 256.0l-256.0 0l0 -256.0z" clip-rule="nonzero"/></clipPath><g clip-path="url(#p.0)"><path fill="#000000" fill-opacity="0.0" d="m0 0l256.0 0l0 256.0l-256.0 0z" fill-rule="evenodd"/><g filter="url(#shadowFilter-p.1)"><use xlink:href="#p.1" transform="matrix(1.0 0.0 0.0 1.0 -0.7312160104986889 -5.9552769028871415)"/></g><defs><filter id="shadowFilter-p.1" filterUnits="userSpaceOnUse"><feGaussianBlur in="SourceAlpha" stdDeviation="16.0" result="blur"/><feComponentTransfer in="blur" color-interpolation-filters="sRGB"><feFuncR type="linear" slope="0" intercept="0.0"/><feFuncG type="linear" slope="0" intercept="0.0"/><feFuncB type="linear" slope="0" intercept="0.0"/><feFuncA type="linear" slope="0.5" intercept="0"/></feComponentTransfer></filter></defs><g id="p.1"><defs><linearGradient id="p.2" gradientUnits="userSpaceOnUse" gradientTransform="matrix(13.804052223055299 0.0 0.0 -13.804052223055299 0.0 0.0)" spreadMethod="pad" x1="2.3706379054523663" y1="-16.1746901284173" x2="2.370587957147474" y2="-2.3706379054523663"><stop offset="0.0" stop-color="#e69138"/><stop offset="1.0" stop-color="#b45f06"/></linearGradient></defs><path fill="url(#p.2)" d="m32.72441 191.51642l0 0c0 17.540115 14.219063 31.75917 31.759163 31.75917l127.032845 0l0 0c8.423065 0 16.50113 -3.3460388 22.457123 -9.302048c5.956009 -5.9559937 9.302048 -14.034058 9.302048 -22.457123l0 -127.032845c0 -17.5401 -14.219055 -31.759163 -31.75917 -31.759163l-127.032845 0c-17.5401 0 -31.759163 14.219063 -31.759163 31.759163z" fill-rule="evenodd"/></g><defs><linearGradient id="p.3" gradientUnits="userSpaceOnUse" gradientTransform="matrix(12.770559938274292 0.0 0.0 12.770559938274292 0.0 0.0)" spreadMethod="pad" x1="3.6375572396258837" y1="3.3091345895695548" x2="3.637511076738627" y2="16.079694527760413"><stop offset="0.0" stop-color="#cccccc"/><stop offset="1.0" stop-color="#f3f3f3"/></linearGradient></defs><path fill="url(#p.3)" d="m46.453644 123.8034l0 0c0 -45.035126 36.50818 -81.543304 81.543304 -81.543304l0 0c21.626633 0 42.367493 8.591145 57.65982 23.88348c15.292343 15.2923355 23.883484 36.033195 23.883484 57.65983l0 0c0 45.03512 -36.50818 81.54331 -81.543304 81.54331l0 0c-45.035126 0 -81.543304 -36.508194 -81.543304 -81.54331z" fill-rule="evenodd"/><defs><linearGradient id="p.4" gradientUnits="userSpaceOnUse" gradientTransform="matrix(11.22709670115617 0.0 0.0 -11.22709670115617 0.0 0.0)" spreadMethod="pad" x1="5.788342589183957" y1="-15.75452388665656" x2="5.788301951625553" y2="-4.527427185573934"><stop offset="0.0" stop-color="#e69138"/><stop offset="1.0" stop-color="#b45f06"/></linearGradient></defs><path fill="url(#p.4)" d="m64.98628 113.853485l0 0c0 34.80699 28.216637 63.02362 63.02362 63.02362l0 0c16.714905 0 32.74521 -6.639969 44.564438 -18.459198c11.819214 -11.819214 18.459183 -27.849518 18.459183 -44.564423l0 0c0 -34.806984 -28.216629 -63.023624 -63.02362 -63.023624l0 0c-34.806984 0 -63.02362 28.21664 -63.02362 63.023624z" fill-rule="evenodd"/><defs><linearGradient id="p.5" gradientUnits="userSpaceOnUse" gradientTransform="matrix(9.432745658523531 0.0 0.0 9.432745658523531 0.0 0.0)" spreadMethod="pad" x1="8.85414802525453" y1="6.078484003472516" x2="8.854113787325419" y2="15.511229661933909"><stop offset="0.0" stop-color="#cccccc"/><stop offset="1.0" stop-color="#f3f3f3"/></linearGradient></defs><path fill="url(#p.5)" d="m83.51892 101.8253l0 0c0 -24.570145 19.918045 -44.488186 44.48819 -44.488186l0 0c11.798996 0 23.114746 4.687134 31.457901 13.030285c8.343155 8.343155 13.030289 19.658905 13.030289 31.457901l0 0c0 24.570152 -19.918045 44.48819 -44.48819 44.48819l0 0c-24.570145 0 -44.48819 -19.918037 -44.48819 -44.48819z" fill-rule="evenodd"/><defs><linearGradient id="p.6" gradientUnits="userSpaceOnUse" gradientTransform="matrix(7.2045608026163395 0.0 0.0 7.2045608026163395 0.0 0.0)" spreadMethod="pad" x1="14.164855186233558" y1="8.496014878804235" x2="14.16482957089778" y2="15.700575681375037"><stop offset="0.0" stop-color="#e69138"/><stop offset="1.0" stop-color="#b45f06"/></linearGradient></defs><path fill="url(#p.6)" d="m102.05157 87.163l0 0c0 -14.333313 11.619438 -25.952759 25.952751 -25.952759l0 0c6.8831024 0 13.484283 2.7342987 18.351364 7.601387c4.867096 4.8670883 7.6013947 11.468269 7.6013947 18.351372l0 0c0 14.333305 -11.619446 25.952751 -25.952759 25.952751l0 0c-14.333313 0 -25.952751 -11.619446 -25.952751 -25.952751z" fill-rule="evenodd"/></g></svg>