<svg version="1.1" viewBox="0.0 0.0 512.0 512.0" fill="none" stroke="none" stroke-linecap="square" stroke-miterlimit="10" xmlns:xlink="http://www.w3.org/1999/xlink" xmlns="http://www.w3.org/2000/svg"><clipPath id="p.0"><path d="m0 0l512.0 0l0 512.0l-512.0 0l0 -512.0z" clip-rule="nonzero"/></clipPath><g clip-path="url(#p.0)"><path fill="#000000" fill-opacity="0.0" d="m0 0l512.0 0l0 512.0l-512.0 0z" fill-rule="evenodd"/><path fill="#cccccc" d="m31.244095 106.16423l0 0c0 -41.37725 33.542885 -74.920135 74.920135 -74.920135l299.67157 0l0 0c19.870056 0 38.92627 7.8933487 52.976532 21.9436c14.050232 14.050251 21.943604 33.10648 21.943604 52.976536l0 299.67157c0 41.377228 -33.542908 74.920135 -74.920135 74.920135l-299.67157 0c-41.37725 0 -74.920135 -33.542908 -74.920135 -74.920135z" fill-rule="evenodd"/><path fill="#e69138" d="m197.41733 331.5011l58.582672 -170.96062l58.582672 170.96062z" fill-rule="evenodd"/><path fill="#e69138" d="m197.4252 332.79507c0 -1.7249451 6.1704254 -3.379242 17.153854 -4.5989685c10.983429 -1.2197266 25.880157 -1.9049683 41.41307 -1.9049683l0 0c32.34561 0 58.566925 2.9119263 58.566925 6.503937l0 0c0 3.592041 -26.221313 6.503937 -58.566925 6.503937l0 0c-32.345627 0 -58.566925 -2.9118958 -58.566925 -6.503937z" fill-rule="evenodd"/><path fill="#7f6000" d="m197.424 347.9884l0 -17.355652c0 1.9170532 26.225418 3.4711304 58.576126 3.4711304c32.350677 0 58.57611 -1.5540771 58.57611 -3.4711304l0 17.355652l0 0c0 1.9170227 -26.225433 3.4710999 -58.57611 3.4710999c-32.350708 0 -58.576126 -1.5540771 -58.576126 -3.4710999z" fill-rule="evenodd"/><path fill="#cc0000" d="m239.51405 224.75308l0 0c0 -5.7489777 4.6604767 -10.409454 10.409454 -10.409454l0 0c2.7607574 0 5.408432 1.0967102 7.3605804 3.0488586c1.9521484 1.9521484 3.0488586 4.5998383 3.0488586 7.3605957l0 0c0 5.7489777 -4.6604614 10.409454 -10.409439 10.409454l0 0c-5.7489777 0 -10.409454 -4.6604767 -10.409454 -10.409454z" fill-rule="evenodd"/><path fill="#cc0000" d="m267.66367 285.87643l0 0c0 -5.7489624 4.6604614 -10.409454 10.409454 -10.409454l0 0c2.7607422 0 5.4084473 1.0967102 7.3605957 3.0488586c1.9521484 1.9521484 3.0488586 4.5998535 3.0488586 7.3605957l0 0c0 5.748993 -4.660492 10.409454 -10.409454 10.409454l0 0c-5.748993 0 -10.409454 -4.6604614 -10.409454 -10.409454z" fill-rule="evenodd"/><path fill="#cc0000" d="m239.51405 263.90137l0 0c0 -5.7489624 4.6604767 -10.409439 10.409454 -10.409439l0 0c2.7607574 0 5.408432 1.0967102 7.3605804 3.0488434c1.9521484 1.9521484 3.0488586 4.5998535 3.0488586 7.3605957l0 0c0 5.748993 -4.6604614 10.409454 -10.409439 10.409454l0 0c-5.7489777 0 -10.409454 -4.6604614 -10.409454 -10.409454z" fill-rule="evenodd"/><path fill="#cc0000" d="m223.7844 303.04968l0 0c0 -5.748993 4.6604767 -10.409454 10.409454 -10.409454l0 0c2.7607574 0 5.4084473 1.0967102 7.3605957 3.0488586c1.9521484 1.9521484 3.0488586 4.599823 3.0488586 7.3605957l0 0c0 5.7489624 -4.6604767 10.409424 -10.409454 10.409424l0 0c-5.7489777 0 -10.409454 -4.6604614 -10.409454 -10.409424z" fill-rule="evenodd"/><path fill="#000000" fill-opacity="0.0" d="m64.64567 67.68767l382.70868 0l0 82.425186l-382.70868 0z" fill-rule="evenodd"/><path fill="#000000" d="m93.55335 126.607666q-0.984375 0 -1.609375 -0.625q-0.625 -0.625 -0.625 -1.609375l0 -36.140625q0 -0.984375 0.625 -1.609375q0.625 -0.625 1.609375 -0.625l9.359375 0q4.46875 0 8.1875 1.484375q3.71875 1.484375 6.421875 4.21875q2.703125 2.71875 4.15625 6.421875q1.46875 3.6875 1.46875 8.15625q0 4.46875 -1.46875 8.1875q-1.453125 3.71875 -4.15625 6.453125q-2.703125 2.71875 -6.421875 4.203125q-3.71875 1.484375 -8.1875 1.484375l-9.359375 0zm2.234375 -4.0l7.125 0q4.671875 0 8.234375 -2.109375q3.5625 -2.109375 5.59375 -5.796875q2.03125 -3.6875 2.03125 -8.421875q0 -4.734375 -2.03125 -8.421875q-2.03125 -3.703125 -5.59375 -5.78125q-3.5625 -2.078125 -8.234375 -2.078125l-7.125 0l0 32.609375zm48.31054 4.265625q-4.265625 0 -7.546875 -1.84375q-3.265625 -1.859375 -5.140625 -5.125q-1.875 -3.28125 -1.875 -7.5q0 -4.25 1.765625 -7.5q1.765625 -3.25 4.859375 -5.125q3.09375 -1.875 7.15625 -1.875q3.953125 0 6.890625 1.796875q2.9375 1.796875 4.515625 4.96875q1.59375 3.171875 1.59375 7.21875q0 0.890625 -0.578125 1.4375q-0.5625 0.546875 -1.453125 0.546875l-21.734375 0l0 -3.59375l22.0 0l-2.234375 1.5625q0.046875 -2.859375 -1.046875 -5.140625q-1.09375 -2.296875 -3.125 -3.59375q-2.015625 -1.296875 -4.828125 -1.296875q-2.96875 0 -5.1875 1.359375q-2.203125 1.34375 -3.375 3.765625q-1.15625 2.40625 -1.15625 5.46875q0 3.078125 1.34375 5.46875q1.359375 2.390625 3.71875 3.75q2.359375 1.34375 5.4375 1.34375q1.765625 0 3.609375 -0.625q1.84375 -0.625 2.9375 -1.5625q0.625 -0.46875 1.421875 -0.484375q0.8125 -0.03125 1.34375 0.4375q0.765625 0.671875 0.796875 1.453125q0.03125 0.78125 -0.703125 1.359375q-1.71875 1.453125 -4.375 2.390625q-2.640625 0.9375 -5.03125 0.9375zm25.328903 -0.265625q-2.1875 0 -3.859375 -1.171875q-1.65625 -1.171875 -2.59375 -3.25q-0.9375 -2.078125 -0.9375 -4.78125l0 -29.21875q0 -1.0 0.59375 -1.59375q0.609375 -0.59375 1.59375 -0.59375q0.9375 0 1.53125 0.59375q0.59375 0.59375 0.59375 1.59375l0 29.21875q0 2.125 0.859375 3.515625q0.859375 1.375 2.21875 1.375l1.296875 0q0.828125 0 1.34375 0.59375q0.53125 0.59375 0.53125 1.53125q0 0.984375 -0.765625 1.59375q-0.75 0.59375 -1.953125 0.59375l-0.453125 0zm11.585388 0q-0.984375 0 -1.609375 -0.59375q-0.625 -0.609375 -0.625 -1.640625l0 -23.96875q0 -1.046875 0.625 -1.640625q0.625 -0.59375 1.609375 -0.59375q0.984375 0 1.578125 0.59375q0.609375 0.59375 0.609375 1.640625l0 23.96875q0 1.03125 -0.609375 1.640625q-0.59375 0.59375 -1.578125 0.59375zm-0.046875 -33.59375q-1.25 0 -2.140625 -0.90625q-0.875 -0.90625 -0.875 -2.15625q0 -1.296875 0.90625 -2.125q0.90625 -0.84375 2.109375 -0.84375q1.1875 0 2.09375 0.84375q0.921875 0.828125 0.921875 2.125q0 1.25 -0.890625 2.15625q-0.875 0.90625 -2.125 0.90625zm22.001633 33.59375q-1.359375 0 -2.03125 -1.453125l-11.390625 -24.125q-0.359375 -0.734375 -0.078125 -1.453125q0.28125 -0.734375 1.109375 -1.15625q0.78125 -0.40625 1.53125 -0.125q0.765625 0.28125 1.1875 1.015625l10.8125 23.453125l-2.234375 0l10.703125 -23.453125q0.3125 -0.78125 1.140625 -1.03125q0.84375 -0.265625 1.625 0.09375q0.828125 0.421875 1.078125 1.171875q0.265625 0.75 -0.046875 1.421875l-11.28125 24.1875q-0.671875 1.453125 -2.125 1.453125zm30.987015 0.265625q-4.265625 0 -7.546875 -1.84375q-3.265625 -1.859375 -5.140625 -5.125q-1.875 -3.28125 -1.875 -7.5q0 -4.25 1.765625 -7.5q1.765625 -3.25 4.859375 -5.125q3.09375 -1.875 7.15625 -1.875q3.953125 0 6.890625 1.796875q2.9375 1.796875 4.515625 4.96875q1.59375 3.171875 1.59375 7.21875q0 0.890625 -0.578125 1.4375q-0.5625 0.546875 -1.453125 0.546875l-21.734375 0l0 -3.59375l22.0 0l-2.234375 1.5625q0.046875 -2.859375 -1.046875 -5.140625q-1.09375 -2.296875 -3.125 -3.59375q-2.015625 -1.296875 -4.828125 -1.296875q-2.96875 0 -5.1875 1.359375q-2.203125 1.34375 -3.375 3.765625q-1.15625 2.40625 -1.15625 5.46875q0 3.078125 1.34375 5.46875q1.359375 2.390625 3.71875 3.75q2.359375 1.34375 5.4375 1.34375q1.765625 0 3.609375 -0.625q1.84375 -0.625 2.9375 -1.5625q0.625 -0.46875 1.421875 -0.484375q0.8125 -0.03125 1.34375 0.4375q0.765625 0.671875 0.796875 1.453125q0.03125 0.78125 -0.703125 1.359375q-1.71875 1.453125 -4.375 2.390625q-2.640625 0.9375 -5.03125 0.9375zm20.907028 -17.890625q0.09375 -3.171875 1.625 -5.6875q1.546875 -2.53125 4.0625 -3.984375q2.515625 -1.453125 5.546875 -1.453125q2.640625 0 4.015625 0.78125q1.390625 0.765625 1.015625 2.125q-0.15625 0.734375 -0.65625 1.046875q-0.484375 0.3125 -1.140625 0.3125q-0.640625 0 -1.46875 -0.109375q-3.078125 -0.359375 -5.453125 0.390625q-2.359375 0.75 -3.765625 2.46875q-1.390625 1.71875 -1.390625 4.109375l-2.390625 0zm0.25 17.625q-1.03125 0 -1.609375 -0.5625q-0.5625 -0.578125 -0.5625 -1.625l0 -24.078125q0 -1.03125 0.5625 -1.59375q0.578125 -0.578125 1.609375 -0.578125q1.046875 0 1.59375 0.578125q0.546875 0.5625 0.546875 1.59375l0 24.078125q0 1.046875 -0.546875 1.625q-0.546875 0.5625 -1.59375 0.5625zm40.098145 0q-0.984375 0 -1.609375 -0.625q-0.625 -0.625 -0.625 -1.609375l0 -36.140625q0 -0.984375 0.625 -1.609375q0.625 -0.625 1.609375 -0.625l10.40625 0q3.84375 0 6.828125 1.6875q2.984375 1.6875 4.640625 4.6875q1.671875 2.984375 1.671875 6.9375q0 3.796875 -1.671875 6.734375q-1.65625 2.9375 -4.640625 4.625q-2.984375 1.6875 -6.828125 1.6875l-8.171875 0l0 12.015625q0 0.984375 -0.625 1.609375q-0.625 0.625 -1.609375 0.625zm2.234375 -18.515625l8.171875 0q2.546875 0 4.546875 -1.109375q2.0 -1.125 3.140625 -3.125q1.140625 -2.0 1.140625 -4.546875q0 -2.703125 -1.125 -4.734375q-1.109375 -2.03125 -3.140625 -3.203125q-2.015625 -1.171875 -4.5625 -1.171875l-8.171875 0l0 17.890625zm29.948792 18.515625q-0.984375 0 -1.609375 -0.59375q-0.625 -0.609375 -0.625 -1.640625l0 -23.96875q0 -1.046875 0.625 -1.640625q0.625 -0.59375 1.609375 -0.59375q0.984375 0 1.578125 0.59375q0.609375 0.59375 0.609375 1.640625l0 23.96875q0 1.03125 -0.609375 1.640625q-0.59375 0.59375 -1.578125 0.59375zm-0.046875 -33.59375q-1.25 0 -2.140625 -0.90625q-0.875 -0.90625 -0.875 -2.15625q0 -1.296875 0.90625 -2.125q0.90625 -0.84375 2.109375 -0.84375q1.1875 0 2.09375 0.84375q0.921875 0.828125 0.921875 2.125q0 1.25 -0.890625 2.15625q-0.875 0.90625 -2.125 0.90625zm14.767242 32.34375l-3.328125 -2.1875l18.828125 -24.171875l2.90625 2.5l-18.40625 23.859375zm-1.71875 1.25q-2.03125 0 -2.03125 -2.03125q0 -1.96875 2.03125 -1.96875l18.78125 0q2.015625 0 2.015625 1.96875q0 2.03125 -2.015625 2.03125l-18.78125 0zm-0.3125 -24.4375q-2.03125 0 -2.03125 -1.984375q0 -2.015625 2.03125 -2.015625l18.828125 0q1.96875 0 1.96875 2.015625q0 1.984375 -1.96875 1.984375l-18.828125 0zm30.423279 23.1875l-3.328125 -2.1875l18.828125 -24.171875l2.90625 2.5l-18.40625 23.859375zm-1.71875 1.25q-2.03125 0 -2.03125 -2.03125q0 -1.96875 2.03125 -1.96875l18.78125 0q2.015625 0 2.015625 1.96875q0 2.03125 -2.015625 2.03125l-18.78125 0zm-0.3125 -24.4375q-2.03125 0 -2.03125 -1.984375q0 -2.015625 2.03125 -2.015625l18.828125 0q1.96875 0 1.96875 2.015625q0 1.984375 -1.96875 1.984375l-18.828125 0zm39.25827 24.703125q-3.953125 0 -7.078125 -1.890625q-3.109375 -1.90625 -4.9375 -5.1875q-1.8125 -3.28125 -1.8125 -7.390625q0 -4.15625 1.890625 -7.421875q1.90625 -3.28125 5.171875 -5.171875q3.28125 -1.90625 7.390625 -1.90625q4.0625 0 7.3125 1.90625q3.25 1.890625 5.140625 5.171875q1.90625 3.265625 1.953125 7.421875l-1.765625 0.890625q0 3.84375 -1.75 6.921875q-1.734375 3.0625 -4.734375 4.859375q-2.984375 1.796875 -6.78125 1.796875zm0.625 -3.953125q2.921875 0 5.171875 -1.375q2.265625 -1.390625 3.59375 -3.78125q1.328125 -2.390625 1.328125 -5.359375q0 -3.015625 -1.328125 -5.375q-1.328125 -2.359375 -3.59375 -3.765625q-2.25 -1.40625 -5.171875 -1.40625q-2.859375 0 -5.171875 1.40625q-2.3125 1.40625 -3.671875 3.765625q-1.34375 2.359375 -1.34375 5.375q0 2.96875 1.34375 5.359375q1.359375 2.390625 3.671875 3.78125q2.3125 1.375 5.171875 1.375zm12.171875 3.6875q-0.9375 0 -1.59375 -0.59375q-0.640625 -0.609375 -0.640625 -1.59375l0 -8.578125l0.984375 -4.515625l3.484375 1.078125l0 12.015625q0 0.984375 -0.625 1.59375q-0.625 0.59375 -1.609375 0.59375z" fill-rule="nonzero"/></g></svg>