<svg version="1.1" viewBox="0.0 0.0 256.0 400.0" fill="none" stroke="none" stroke-linecap="square" stroke-miterlimit="10" xmlns:xlink="http://www.w3.org/1999/xlink" xmlns="http://www.w3.org/2000/svg"><clipPath id="p.0"><path d="m0 0l256.0 0l0 400.0l-256.0 0l0 -400.0z" clip-rule="nonzero"/></clipPath><g clip-path="url(#p.0)"><path fill="#000000" fill-opacity="0.0" d="m0 0l256.0 0l0 400.0l-256.0 0z" fill-rule="evenodd"/><path fill="#544184" d="m33.846878 127.79034c-6.2096214 -0.29982758 -23.294434 7.1442795 -26.915068 11.418465c-3.6206326 4.274185 -1.0183501 13.926819 5.191272 14.226639c6.2096224 0.29981995 28.445827 -8.153503 32.06646 -12.427689c3.6206322 -4.274185 -4.1330414 -12.917587 -10.342663 -13.217415z" fill-rule="evenodd"/><path fill="#544184" d="m221.86127 128.00137c6.20166 -0.43780518 23.44841 6.624954 27.163315 10.817764c3.7148895 4.19281 1.3277283 13.901291 -4.873932 14.339096c-6.2016754 0.43780518 -28.621185 -7.519455 -32.336075 -11.712265c-3.7149048 -4.19281 3.8450165 -13.00679 10.046692 -13.444595z" fill-rule="evenodd"/><path fill="#674ea7" d="m31.551123 213.68355c-0.46751976 -56.881638 -14.873064 -156.10129 14.669485 -184.37819c29.542553 -28.276894 135.02106 -40.295914 162.58582 14.716829c27.564758 55.01274 29.432877 260.93082 2.802765 315.35965c-26.630127 54.428833 -132.57379 35.49643 -162.58347 11.213379c-30.009676 -24.28305 -17.007088 -100.03003 -17.474607 -156.91167z" fill-rule="evenodd"/><path fill="#5a468e" d="m50.565243 197.39682c23.864391 -13.8845215 133.49693 -15.3302765 157.93962 -1.734909c24.442703 13.595352 12.580933 69.42256 -11.283463 83.30708c-23.86438 13.8845215 -107.46019 13.595367 -131.9029 0c-24.442692 -13.595367 -38.61767 -67.68767 -14.753277 -81.572174z" fill-rule="evenodd"/><path fill="#351c75" d="m57.206726 46.19233c-2.2176666 10.56596 -5.8690605 52.570595 -5.477684 64.96284c0.3913765 12.39225 5.6082726 19.956604 7.8259354 9.3906555c2.2176666 -10.565964 5.871422 -60.39416 5.480049 -72.78641c-0.39137268 -12.392246 -5.6106377 -12.133041 -7.8283005 -1.5670815z" fill-rule="evenodd"/><path fill="#351c75" d="m192.16747 46.19233c2.2176666 10.56596 5.8690643 52.570595 5.4776917 64.96284c-0.39138794 12.39225 -5.6082764 19.956604 -7.825943 9.3906555c-2.2176666 -10.565964 -5.8714294 -60.39416 -5.4800415 -72.78641c0.39137268 -12.392246 5.610626 -12.133041 7.828293 -1.5670815z" fill-rule="evenodd"/><path fill="#ff9900" fill-opacity="0.2975" d="m39.20561 38.197063c4.826309 -7.1741676 13.696571 -14.478926 21.13192 -18.783665c7.4353447 -4.304737 24.784496 -10.044783 23.480175 -7.0447617c-1.3043213 3.000021 -22.56644 16.69659 -31.30611 25.044888c-8.739674 8.348297 -18.914257 24.914295 -21.13192 25.044888c-2.2176647 0.13058853 2.9996262 -17.087177 7.8259354 -24.261349z" fill-rule="evenodd"/><path fill="#ff9900" fill-opacity="0.2975" d="m205.80388 38.197063c-4.826309 -7.1741676 -13.696564 -14.478926 -21.131912 -18.783665c-7.4353485 -4.304737 -24.7845 -10.044783 -23.480179 -7.0447617c1.3043213 3.000021 22.566437 16.69659 31.306107 25.044888c8.73967 8.348297 18.91426 24.914295 21.131927 25.044888c2.2176514 0.13058853 -2.9996338 -17.087177 -7.825943 -24.261349z" fill-rule="evenodd"/><path fill="#434343" d="m51.727165 143.85487c12.131462 -10.565964 45.525833 -13.827164 70.44052 -14.870697c24.914696 -1.0435333 65.22086 -0.9129486 79.04763 8.609482c13.826767 9.522415 17.08757 39.133224 3.9129639 48.525055c-13.174606 9.39183 -57.002365 6.7823944 -82.960594 7.825943c-25.95823 1.0435333 -61.048687 6.7835693 -72.78877 -1.5647125c-11.740089 -8.348297 -9.783211 -37.959106 2.3482513 -48.52507z" fill-rule="evenodd"/><path fill="#331b6e" d="m50.505203 204.85194c-2.2176628 10.565964 -5.8690567 52.570602 -5.47768 64.962845c0.39137268 12.392242 5.6082687 19.956604 7.8259354 9.3906555c2.2176628 -10.565979 5.871422 -60.39418 5.4800453 -72.78642c-0.39137268 -12.392242 -5.6106377 -12.133041 -7.8283005 -1.5670776z" fill-rule="evenodd"/><path fill="#331b6e" d="m205.86404 204.85194c2.2176666 10.565964 5.869049 52.570602 5.4776764 64.962845c-0.39137268 12.392242 -5.608261 19.956604 -7.8259277 9.3906555c-2.2176666 -10.565979 -5.8714294 -60.39418 -5.480057 -72.78642c0.39137268 -12.392242 5.6106415 -12.133041 7.828308 -1.5670776z" fill-rule="evenodd"/><path fill="#434343" d="m52.510403 328.56418c12.262028 -3.0 54.39414 5.087036 78.26509 4.695526c23.870956 -0.39151 54.26422 -10.175415 64.96063 -7.0446167c10.696411 3.1307983 11.409012 19.384949 -0.78215027 25.829407c-12.191177 6.4444275 -49.406387 12.968048 -72.36484 12.83725c-22.958443 -0.13079834 -53.70603 -7.5691223 -65.385826 -13.62204c-11.6797905 -6.0529175 -16.95494 -19.695526 -4.692913 -22.695526z" fill-rule="evenodd"/><path fill="#f3f3f3" fill-opacity="0.6203" d="m94.14443 61.15323c4.628174 -5.930008 23.285652 -24.731846 27.769028 -27.769028c4.483383 -3.0371819 3.759407 3.6159248 -0.8687668 9.545933c-4.628166 5.930008 -22.416885 22.996937 -26.90026 26.034122c-4.4833755 3.037178 -4.628166 -1.8810196 0 -7.8110275z" fill-rule="evenodd"/><path fill="#f3f3f3" fill-opacity="0.6203" d="m116.82554 61.15323c4.628166 -5.930008 23.285652 -24.731846 27.76902 -27.769028c4.483383 -3.0371819 3.7594147 3.6159248 -0.86875916 9.545933c-4.628174 5.930008 -22.416885 22.996937 -26.90026 26.034122c-4.483383 3.037178 -4.628174 -1.8810196 0 -7.8110275z" fill-rule="evenodd"/></g></svg>