<svg version="1.1" viewBox="0.0 0.0 256.0 700.0" fill="none" stroke="none" stroke-linecap="square" stroke-miterlimit="10" xmlns:xlink="http://www.w3.org/1999/xlink" xmlns="http://www.w3.org/2000/svg"><clipPath id="p.0"><path d="m0 0l256.0 0l0 700.0l-256.0 0l0 -700.0z" clip-rule="nonzero"/></clipPath><g clip-path="url(#p.0)"><path fill="#000000" fill-opacity="0.0" d="m0 0l256.0 0l0 700.0l-256.0 0z" fill-rule="evenodd"/><path fill="#434343" d="m211.3144 202.80063c-1.9606323 9.804031 -1.3705139 52.35434 1.178482 62.35434c2.548996 10.0 12.154846 7.4496765 14.1154785 -2.3543396c1.9606323 -9.804016 0.19729614 -46.46982 -2.3516998 -56.46982c-2.548996 -10.0 -10.981628 -13.334198 -12.942261 -3.530182z" fill-rule="evenodd"/><path fill="#434343" d="m26.67154 193.76913c-1.9606304 9.804031 -1.3705158 52.35434 1.1784782 62.35434c2.548994 10.0 12.154854 7.4496765 14.115486 -2.3543396c1.9606285 -9.804016 0.19728851 -46.46982 -2.3517075 -56.46982c-2.5489922 -10.0 -10.9816265 -13.334198 -12.942257 -3.530182z" fill-rule="evenodd"/><path fill="#434343" d="m221.68738 318.58673c-1.9606323 9.804016 -1.3705139 52.35431 1.178482 62.35431c2.5489807 10.0 12.154846 7.449707 14.1154785 -2.354309c1.9606323 -9.804047 0.19729614 -46.46982 -2.3516998 -56.46982c-2.548996 -10.0 -10.981628 -13.3342285 -12.942261 -3.530182z" fill-rule="evenodd"/><path fill="#434343" d="m16.93147 318.58804c-1.9606295 9.804016 -1.3705158 52.35431 1.1784782 62.35431c2.548994 10.0 12.154856 7.449707 14.115484 -2.354309c1.9606323 -9.804047 0.19728851 -46.46982 -2.3517056 -56.46982c-2.548994 -10.0 -10.9816265 -13.3342285 -12.942257 -3.530182z" fill-rule="evenodd"/><path fill="#434343" d="m16.93147 497.75995c-1.9606295 9.804016 -1.3705158 52.35431 1.1784782 62.35431c2.548994 10.0 12.154856 7.449707 14.115484 -2.354309c1.9606323 -9.804016 0.19728851 -46.46982 -2.3517056 -56.46982c-2.548994 -10.0 -10.9816265 -13.334198 -12.942257 -3.530182z" fill-rule="evenodd"/><path fill="#434343" d="m221.68738 489.91742c-1.9606323 9.804047 -1.3705139 52.35437 1.178482 62.35437c2.5489807 10.0 12.154846 7.449646 14.1154785 -2.35437c1.9606323 -9.804016 0.19729614 -46.46982 -2.3516998 -56.46982c-2.548996 -10.0 -10.981628 -13.334198 -12.942261 -3.530182z" fill-rule="evenodd"/><path fill="#434343" d="m222.04207 580.37415c-1.9606323 9.804016 -1.3705139 52.35431 1.1784668 62.35431c2.548996 10.0 12.154861 7.449707 14.115494 -2.354309c1.9606323 -9.804016 0.19728088 -46.46985 -2.351715 -56.46985c-2.5489807 -10.0 -10.981628 -13.3341675 -12.9422455 -3.5301514z" fill-rule="evenodd"/><path fill="#434343" d="m16.931648 580.37415c-1.9606295 9.804016 -1.3705158 52.35431 1.1784782 62.35431c2.548994 10.0 12.154856 7.449707 14.115486 -2.354309c1.9606285 -9.804016 0.19728851 -46.46985 -2.3517056 -56.46985c-2.548994 -10.0 -10.981628 -13.3341675 -12.942259 -3.5301514z" fill-rule="evenodd"/><path fill="#ba0808" d="m-517.64655 175.82446c-6.209656 -0.2998352 -23.294434 7.144272 -26.9151 11.418457c-3.6206055 4.274185 -1.0183105 13.926819 5.191284 14.226639c6.209656 0.2998352 28.445831 -8.153503 32.066467 -12.427689c3.620636 -4.274185 -4.1330566 -12.917587 -10.342651 -13.217407z" fill-rule="evenodd"/><path fill="#ba0808" d="m-329.63217 176.03549c6.20166 -0.43780518 23.448425 6.624954 27.1633 10.817764c3.7149048 4.19281 1.3277588 13.901291 -4.873932 14.339096c-6.20166 0.43780518 -28.621155 -7.519455 -32.33606 -11.712265c-3.7149048 -4.19281 3.8450317 -13.00679 10.046692 -13.444595z" fill-rule="evenodd"/><path fill="#cc0000" d="m-519.9423 261.71768c-0.4675293 -56.881653 -14.873047 -156.1013 14.669495 -184.3782c29.542542 -28.276894 135.02106 -40.295914 162.58582 14.716827c27.564758 55.01275 29.432861 260.93082 2.802765 315.35965c-26.630127 54.428833 -132.57379 35.49643 -162.58347 11.213379c-30.009644 -24.28305 -17.00708 -100.03003 -17.47461 -156.91165z" fill-rule="evenodd"/><path fill="#bf0c0c" d="m-500.9282 245.43094c23.86438 -13.8845215 133.49695 -15.3302765 157.93964 -1.734909c24.442688 13.595352 12.580933 69.42256 -11.283478 83.30708c-23.86438 13.8845215 -107.460175 13.595367 -131.9029 0c-24.442688 -13.595367 -38.617676 -67.68765 -14.753265 -81.572174z" fill-rule="evenodd"/><path fill="#990000" d="m-494.2867 94.22645c-2.2176514 10.565964 -5.869049 52.570595 -5.4776917 64.96284c0.39138794 12.392258 5.6082764 19.95662 7.8259583 9.3906555c2.2176514 -10.565964 5.871399 -60.394157 5.4800415 -72.78641c-0.39138794 -12.39225 -5.6106567 -12.133041 -7.828308 -1.5670853z" fill-rule="evenodd"/><path fill="#990000" d="m-359.32596 94.22645c2.2176514 10.565964 5.869049 52.570595 5.477661 64.96284c-0.39135742 12.392258 -5.6082764 19.95662 -7.8259277 9.3906555c-2.2176514 -10.565964 -5.8714294 -60.394157 -5.4800415 -72.78641c0.39135742 -12.39225 5.610626 -12.133041 7.828308 -1.5670853z" fill-rule="evenodd"/><path fill="#ff9900" fill-opacity="0.2975" d="m-512.28784 86.231186c4.8263245 -7.1741714 13.696594 -14.478928 21.131927 -18.783669c7.435364 -4.304737 24.784485 -10.044781 23.480164 -7.044758c-1.3043213 3.000019 -22.566437 16.69659 -31.306091 25.044888c-8.739685 8.348297 -18.914276 24.914291 -21.131927 25.044884c-2.2176514 0.13059235 2.9996338 -17.087173 7.8259277 -24.261345z" fill-rule="evenodd"/><path fill="#ff9900" fill-opacity="0.2975" d="m-345.68954 86.231186c-4.8263245 -7.1741714 -13.696594 -14.478928 -21.131927 -18.783669c-7.435364 -4.304737 -24.784515 -10.044781 -23.480194 -7.044758c1.3043518 3.000019 22.566467 16.69659 31.306122 25.044888c8.739685 8.348297 18.914246 24.914291 21.131927 25.044884c2.2176514 0.13059235 -2.9996338 -17.087173 -7.8259277 -24.261345z" fill-rule="evenodd"/><path fill="#434343" d="m-499.76627 191.88899c12.13147 -10.5659485 45.525818 -13.827148 70.44052 -14.870697c24.914673 -1.0435333 65.220856 -0.9129486 79.04761 8.609482c13.826782 9.522415 17.087585 39.133224 3.9129944 48.525055c-13.174622 9.39183 -57.00238 6.7824097 -82.9606 7.825943c-25.958221 1.0435333 -61.048706 6.7835846 -72.78879 -1.5647125c-11.740082 -8.348297 -9.783203 -37.959106 2.3482666 -48.52507z" fill-rule="evenodd"/><path fill="#950303" d="m-500.98822 252.88606c-2.217682 10.565964 -5.8690796 52.570602 -5.4776917 64.962845c0.39135742 12.392242 5.6082764 19.956604 7.8259277 9.3906555c2.217682 -10.565979 5.8714294 -60.394165 5.4800415 -72.78642c-0.39135742 -12.392242 -5.610626 -12.133041 -7.8282776 -1.5670776z" fill-rule="evenodd"/><path fill="#950303" d="m-345.6294 252.88606c2.2176514 10.565964 5.869049 52.570602 5.4776917 64.962845c-0.39138794 12.392242 -5.6082764 19.956604 -7.8259583 9.3906555c-2.2176514 -10.565979 -5.871399 -60.394165 -5.4800415 -72.78642c0.39138794 -12.392242 5.6106567 -12.133041 7.828308 -1.5670776z" fill-rule="evenodd"/><path fill="#434343" d="m-498.98303 376.5983c12.262024 -3.0 54.394135 5.087036 78.265076 4.695526c23.870972 -0.39151 54.26422 -10.175415 64.96063 -7.0446167c10.696411 3.1307983 11.409027 19.384949 -0.782135 25.829407c-12.191162 6.4444275 -49.406403 12.968048 -72.36484 12.83725c-22.958435 -0.13079834 -53.706024 -7.5691223 -65.38583 -13.62204c-11.679779 -6.0529175 -16.954926 -19.695526 -4.6929016 -22.695526z" fill-rule="evenodd"/><path fill="#f3f3f3" fill-opacity="0.6203" d="m-457.349 109.18735c4.628174 -5.930008 23.285645 -24.731842 27.769012 -27.769028c4.4833984 -3.037178 3.75943 3.6159286 -0.8687439 9.545937c-4.628174 5.930008 -22.4169 22.996933 -26.900269 26.034119c-4.483368 3.0371857 -4.628174 -1.881012 0 -7.8110275z" fill-rule="evenodd"/><path fill="#f3f3f3" fill-opacity="0.6203" d="m-434.6679 109.18735c4.628174 -5.930008 23.285645 -24.731842 27.769043 -27.769028c4.483368 -3.037178 3.7593994 3.6159286 -0.8687744 9.545937c-4.628174 5.930008 -22.4169 22.996933 -26.900269 26.034119c-4.483368 3.0371857 -4.628174 -1.881012 0 -7.8110275z" fill-rule="evenodd"/><path fill="#ba0808" d="m33.846878 124.19681c-6.2096214 -0.29982758 -23.294434 7.144287 -26.915068 11.418472c-3.6206326 4.27417 -1.0183501 13.926804 5.191272 14.226624c6.2096224 0.2998352 28.445827 -8.153488 32.06646 -12.427673c3.6206322 -4.274185 -4.1330414 -12.917603 -10.342663 -13.2174225z" fill-rule="evenodd"/><path fill="#ba0808" d="m221.86127 124.40784c6.20166 -0.43779755 23.44841 6.6249695 27.163315 10.81778c3.7148895 4.19281 1.3277283 13.901276 -4.873932 14.339081c-6.2016754 0.43780518 -28.621185 -7.519455 -32.336075 -11.712265c-3.7149048 -4.19281 3.8450165 -13.00679 10.046692 -13.444595z" fill-rule="evenodd"/><path fill="#cc0000" d="m36.77907 263.39148c-16.223097 -44.75415 -19.033682 -199.51573 9.440945 -237.67978c28.474632 -38.16404 133.51706 -30.719597 161.40683 8.695538c27.889755 39.415134 16.609787 184.49037 5.9317474 227.79527c-10.67804 43.3049 -40.536743 31.835968 -70.0 32.03412c-29.46325 0.19815063 -90.55643 13.909027 -106.779526 -30.845154z" fill-rule="evenodd"/><path fill="#bf0c0c" d="m71.18555 198.13664c22.236656 -9.727478 105.39633 -12.259415 125.76378 -3.5590668c20.367462 8.700363 18.677597 46.03369 -3.5590515 55.761154c-22.236664 9.727493 -109.49344 11.304031 -129.8609 2.6036835c-20.367455 -8.700348 -14.58049 -45.07831 7.656166 -54.80577z" fill-rule="evenodd"/><path fill="#990000" d="m57.206726 42.598797c-2.2176666 10.56596 -5.8690605 52.57059 -5.477684 64.962845c0.3913765 12.39225 5.6082726 19.956612 7.8259354 9.390648c2.2176666 -10.565956 5.871422 -60.394157 5.480049 -72.78641c-0.39137268 -12.392246 -5.6106377 -12.133041 -7.8283005 -1.5670815z" fill-rule="evenodd"/><path fill="#990000" d="m192.16747 42.598797c2.2176666 10.56596 5.8690643 52.57059 5.4776917 64.962845c-0.39138794 12.39225 -5.6082764 19.956612 -7.825943 9.390648c-2.2176666 -10.565956 -5.8714294 -60.394157 -5.4800415 -72.78641c0.39137268 -12.392246 5.610626 -12.133041 7.828293 -1.5670815z" fill-rule="evenodd"/><path fill="#ff9900" fill-opacity="0.2975" d="m39.20561 34.603535c4.826309 -7.1741714 13.696571 -14.4789295 21.13192 -18.783669c7.4353447 -4.304738 24.784496 -10.044783 23.480175 -7.0447617c-1.3043213 3.000021 -22.56644 16.69659 -31.30611 25.044888c-8.739674 8.348297 -18.914257 24.914299 -21.13192 25.044888c-2.2176647 0.13058853 2.9996262 -17.087177 7.8259354 -24.261345z" fill-rule="evenodd"/><path fill="#ff9900" fill-opacity="0.2975" d="m209.1695 37.540825c-4.826309 -7.1741676 -13.696579 -14.478926 -21.131927 -18.783665c-7.4353485 -4.304737 -24.784485 -10.044783 -23.480164 -7.0447617c1.3043213 3.000021 22.566437 16.69659 31.306107 25.044888c8.73967 8.348293 18.91426 24.914295 21.131912 25.044888c2.2176666 0.13058853 -2.9996185 -17.087177 -7.8259277 -24.261349z" fill-rule="evenodd"/><path fill="#434343" d="m68.814674 145.9317c12.131676 -10.566055 35.162292 -19.552055 53.354332 -20.540688c18.192047 -0.9886246 41.97113 5.0866165 55.797897 14.608925c13.826782 9.522308 36.462387 34.13298 27.162735 42.524933c-9.299652 8.3919525 -57.002182 6.7830353 -82.96063 7.826767c-25.958443 1.043747 -63.897636 5.839035 -72.79002 -1.5643005c-8.892387 -7.4033203 7.3040237 -32.28958 19.435692 -42.855637z" fill-rule="evenodd"/><path fill="#950303" d="m50.503517 201.25815c-1.0949249 7.764221 -0.322834 40.129044 1.2598419 48.154846c1.5826759 8.025818 7.1412964 7.764221 8.236221 0c1.0949249 -7.764206 -0.08398819 -38.55948 -1.6666679 -46.585297c-1.5826759 -8.025803 -6.7344704 -9.333771 -7.8293953 -1.5695496z" fill-rule="evenodd"/><path fill="#950303" d="m205.86266 201.25766c1.8958893 7.371826 4.1338654 36.206024 3.5485535 45.80052c-0.58529663 9.594498 -5.1644745 19.13823 -7.060364 11.766403c-1.8958893 -7.371826 -4.9002686 -46.402893 -4.3149567 -55.997375c0.58529663 -9.594498 5.9308777 -8.941391 7.826767 -1.5695496z" fill-rule="evenodd"/><path fill="#f3f3f3" fill-opacity="0.6203" d="m94.14443 57.5597c4.628174 -5.9300117 23.285652 -24.731846 27.769028 -27.76903c4.483383 -3.0371838 3.759407 3.615923 -0.8687668 9.545931c-4.628166 5.930008 -22.416885 22.996937 -26.90026 26.034119c-4.4833755 3.0371857 -4.628166 -1.881012 0 -7.81102z" fill-rule="evenodd"/><path fill="#f3f3f3" fill-opacity="0.6203" d="m116.82554 57.5597c4.628166 -5.9300117 23.285652 -24.731846 27.76902 -27.76903c4.483383 -3.0371838 3.7594147 3.615923 -0.86875916 9.545931c-4.628174 5.930008 -22.416885 22.996937 -26.90026 26.034119c-4.483383 3.0371857 -4.628174 -1.881012 0 -7.81102z" fill-rule="evenodd"/><path fill="#999999" d="m67.50734 288.06882c21.978561 -2.5170593 104.60542 -2.3726807 125.76378 0c21.158356 2.3727112 23.164917 11.719177 1.1863556 14.236237c-21.978577 2.5170593 -111.89939 3.2388306 -133.05774 0.8661499c-21.158356 -2.3727112 -15.870953 -12.585327 6.1076126 -15.102386z" fill-rule="evenodd"/><path fill="#b7b7b7" d="m26.535433 327.9823l0 0c0 -18.679474 15.142714 -33.822205 33.822197 -33.822205l135.28473 0l0 0c8.970215 0 17.573013 3.5634155 23.915909 9.906311c6.3428955 6.3428955 9.906296 14.945679 9.906296 23.915894l0 318.81232c0 18.679443 -15.142715 33.822205 -33.822205 33.822205l-135.28473 0c-18.679485 0 -33.822197 -15.142761 -33.822197 -33.822205z" fill-rule="evenodd"/><path fill="#999999" d="m62.23383 315.33066c24.281918 -3.1752625 115.56807 -2.993164 138.94383 0c23.375748 2.993164 25.59259 14.783722 1.3106842 17.958984c-24.281921 3.175293 -123.62645 4.0858154 -147.0022 1.0926514c-23.375751 -2.993164 -17.53423 -15.876343 6.7476883 -19.051636z" fill-rule="evenodd"/><path fill="#999999" d="m62.23383 375.12396c24.281918 -3.1752625 115.56807 -2.993164 138.94383 0c23.375748 2.993164 25.59259 14.783722 1.3106842 17.958984c-24.281921 3.1752625 -123.62645 4.0858154 -147.0022 1.0926514c-23.375751 -2.993164 -17.53423 -15.876373 6.7476883 -19.051636z" fill-rule="evenodd"/><path fill="#999999" d="m62.23383 439.30765c24.281918 -3.175293 115.56807 -2.993164 138.94383 0c23.375748 2.993164 25.59259 14.783722 1.3106842 17.958984c-24.281921 3.1752625 -123.62645 4.085785 -147.0022 1.0926208c-23.375751 -2.993164 -17.53423 -15.876343 6.7476883 -19.051605z" fill-rule="evenodd"/><path fill="#999999" d="m62.23383 504.80246c24.281918 -3.1752625 115.56807 -2.993164 138.94383 0c23.375748 2.993164 25.59259 14.783722 1.3106842 17.959015c-24.281921 3.175232 -123.62645 4.0858154 -147.0022 1.0926514c-23.375751 -2.993164 -17.53423 -15.876373 6.7476883 -19.051666z" fill-rule="evenodd"/><path fill="#999999" d="m62.23383 568.98615c24.281918 -3.175293 115.56807 -2.993164 138.94383 0c23.375748 2.993164 25.59259 14.783691 1.3106842 17.958984c-24.281921 3.175293 -123.62645 4.0858154 -147.0022 1.0926514c-23.375751 -2.993164 -17.53423 -15.876343 6.7476883 -19.051636z" fill-rule="evenodd"/><path fill="#999999" d="m57.829212 636.91785c24.281918 -3.175232 115.568085 -2.993164 138.94383 0c23.375748 2.993164 25.59259 14.783752 1.3106842 17.959045c-24.281921 3.175232 -123.62645 4.0857544 -147.0022 1.0925903c-23.375751 -2.993164 -17.53423 -15.876343 6.7476883 -19.051636z" fill-rule="evenodd"/></g></svg>