<svg version="1.1" viewBox="0.0 0.0 256.0 400.0" fill="none" stroke="none" stroke-linecap="square" stroke-miterlimit="10" xmlns:xlink="http://www.w3.org/1999/xlink" xmlns="http://www.w3.org/2000/svg"><clipPath id="p.0"><path d="m0 0l256.0 0l0 400.0l-256.0 0l0 -400.0z" clip-rule="nonzero"/></clipPath><g clip-path="url(#p.0)"><path fill="#000000" fill-opacity="0.0" d="m0 0l256.0 0l0 400.0l-256.0 0z" fill-rule="evenodd"/><path fill="#000000" d="m101.014496 75.932465c8.361328 -6.89283 3.616356 -56.723534 12.881889 -59.66142c9.265526 -2.9378834 28.021873 38.53106 42.71128 42.03412c14.689423 3.5030632 36.272537 -32.315395 45.4252 -21.015747c9.152664 11.299652 4.066925 62.825024 9.490814 88.813644c5.423889 25.988625 21.809265 43.50219 23.05249 67.11811c1.2432251 23.615921 -14.237091 49.944885 -15.59317 74.57744c-1.3560791 24.632538 16.722214 54.80008 7.4566956 73.217834c-9.265533 18.417755 -42.93701 29.717865 -63.04988 37.288727c-20.112854 7.570862 -40.790894 12.543304 -57.62729 8.136475c-16.836395 -4.40683 -28.588806 -22.60019 -43.39108 -34.577423c-14.802273 -11.977264 -38.755905 -20.675873 -45.422573 -37.286102c-6.666666 -16.61023 5.987753 -44.18283 5.422573 -62.37532c-0.5651798 -18.192474 -9.26553 -30.621613 -8.813648 -46.779526c0.4518814 -16.157913 10.620735 -31.863083 11.524935 -50.167984c0.9041996 -18.304901 -10.619423 -48.58792 -6.099737 -59.661415c4.519684 -11.073494 25.76028 -0.4518814 33.217846 -6.7795258c7.457569 -6.3276443 3.3919525 -29.039371 11.527561 -31.186352c8.135609 -2.146984 28.924755 25.197285 37.28609 18.304462z" fill-rule="evenodd"/></g></svg>