<svg version="1.1" viewBox="0.0 0.0 256.0 256.0" fill="none" stroke="none" stroke-linecap="square" stroke-miterlimit="10" xmlns:xlink="http://www.w3.org/1999/xlink" xmlns="http://www.w3.org/2000/svg"><clipPath id="p.0"><path d="m0 0l256.0 0l0 256.0l-256.0 0l0 -256.0z" clip-rule="nonzero"/></clipPath><g clip-path="url(#p.0)"><path fill="#000000" fill-opacity="0.0" d="m0 0l256.0 0l0 256.0l-256.0 0z" fill-rule="evenodd"/><path fill="#ff0000" d="m21.921259 128.0l0 0c0 -58.58567 47.493073 -106.07874 106.07874 -106.07874l0 0c28.133835 0 55.11537 11.176123 75.009 31.069746c19.893616 19.893623 31.069733 46.87516 31.069733 75.008995l0 0c0 58.585663 -47.493073 106.078735 -106.078735 106.078735l0 0c-58.58567 0 -106.07874 -47.493073 -106.07874 -106.078735zm53.039375 0l0 0c0 29.292831 23.746536 53.039368 53.039368 53.039368c29.292831 0 53.039368 -23.746536 53.039368 -53.039368c0 -29.292831 -23.746536 -53.039368 -53.039368 -53.039368l0 0c-29.292831 0 -53.039368 23.746536 -53.039368 53.039368z" fill-rule="evenodd"/><path stroke="#ff0000" stroke-width="1.0" stroke-linejoin="round" stroke-linecap="butt" d="m21.921259 128.0l0 0c0 -58.58567 47.493073 -106.07874 106.07874 -106.07874l0 0c28.133835 0 55.11537 11.176123 75.009 31.069746c19.893616 19.893623 31.069733 46.87516 31.069733 75.008995l0 0c0 58.585663 -47.493073 106.078735 -106.078735 106.078735l0 0c-58.58567 0 -106.07874 -47.493073 -106.07874 -106.078735zm53.039375 0l0 0c0 29.292831 23.746536 53.039368 53.039368 53.039368c29.292831 0 53.039368 -23.746536 53.039368 -53.039368c0 -29.292831 -23.746536 -53.039368 -53.039368 -53.039368l0 0c-29.292831 0 -53.039368 23.746536 -53.039368 53.039368z" fill-rule="evenodd"/></g></svg>