<svg version="1.1" viewBox="0.0 0.0 256.0 256.0" fill="none" stroke="none" stroke-linecap="square" stroke-miterlimit="10" xmlns:xlink="http://www.w3.org/1999/xlink" xmlns="http://www.w3.org/2000/svg"><clipPath id="p.0"><path d="m0 0l256.0 0l0 256.0l-256.0 0l0 -256.0z" clip-rule="nonzero"/></clipPath><g clip-path="url(#p.0)"><path fill="#b7b7b7" d="m0 0l256.0 0l0 256.0l-256.0 0z" fill-rule="evenodd"/><path fill="#666666" d="m180.68738 197.49187l0 0c-24.831238 22.359634 -60.318336 28.41391 -91.156395 15.551727c-30.838058 -12.862183 -51.510567 -42.33995 -53.101868 -75.72011l21.659702 -1.0329437l0 0c1.192276 25.013 16.682163 47.10176 39.788998 56.739548c23.106827 9.637802 49.696968 5.1005096 68.3023 -11.654968z" fill-rule="evenodd"/><path stroke="#666666" stroke-width="1.0" stroke-linejoin="round" stroke-linecap="butt" d="m180.68738 197.49187l0 0c-24.831238 22.359634 -60.318336 28.41391 -91.156395 15.551727c-30.838058 -12.862183 -51.510567 -42.33995 -53.101868 -75.72011l21.659702 -1.0329437l0 0c1.192276 25.013 16.682163 47.10176 39.788998 56.739548c23.106827 9.637802 49.696968 5.1005096 68.3023 -11.654968z" fill-rule="evenodd"/><path fill="#666666" d="m147.96674 165.70103l67.732285 -18.125992l-18.125977 67.732285z" fill-rule="evenodd"/><path stroke="#666666" stroke-width="1.0" stroke-linejoin="round" stroke-linecap="butt" d="m147.96674 165.70103l67.732285 -18.125992l-18.125977 67.732285z" fill-rule="evenodd"/><path fill="#666666" d="m75.31263 58.508137l0 0c24.83123 -22.359638 60.31832 -28.413912 91.15638 -15.551731c30.838074 12.862183 51.510574 42.33995 53.101883 75.72011l-21.659714 1.0329361l0 0c-1.192276 -25.012993 -16.68216 -47.101753 -39.788986 -56.739544c-23.106842 -9.637798 -49.696976 -5.1005096 -68.30231 11.654964z" fill-rule="evenodd"/><path stroke="#666666" stroke-width="1.0" stroke-linejoin="round" stroke-linecap="butt" d="m75.31263 58.508137l0 0c24.83123 -22.359638 60.31832 -28.413912 91.15638 -15.551731c30.838074 12.862183 51.510574 42.33995 53.101883 75.72011l-21.659714 1.0329361l0 0c-1.192276 -25.012993 -16.68216 -47.101753 -39.788986 -56.739544c-23.106842 -9.637798 -49.696976 -5.1005096 -68.30231 11.654964z" fill-rule="evenodd"/><path fill="#666666" d="m108.03326 90.29897l-67.732285 18.125984l18.125984 -67.732285z" fill-rule="evenodd"/><path stroke="#666666" stroke-width="1.0" stroke-linejoin="round" stroke-linecap="butt" d="m108.03326 90.29897l-67.732285 18.125984l18.125984 -67.732285z" fill-rule="evenodd"/></g></svg>