<svg version="1.1" viewBox="0.0 0.0 960.0 720.0" fill="none" stroke="none" stroke-linecap="square" stroke-miterlimit="10" xmlns:xlink="http://www.w3.org/1999/xlink" xmlns="http://www.w3.org/2000/svg"><clipPath id="p.0"><path d="m0 0l960.0 0l0 720.0l-960.0 0l0 -720.0z" clip-rule="nonzero"/></clipPath><g clip-path="url(#p.0)"><path fill="#000000" fill-opacity="0.0" d="m0 0l960.0 0l0 720.0l-960.0 0z" fill-rule="evenodd"/><path fill="#cccccc" d="m23.800526 622.4147l144.0 -84.49603l160.66142 79.734924l-173.75066 80.92651z" fill-rule="evenodd"/><path fill="#cccccc" d="m635.83466 607.0079l130.90814 -107.107605l166.61151 82.11548l-167.80048 104.72705z" fill-rule="evenodd"/><path fill="#cccccc" d="m53.553806 140.43045l63.076115 58.312332l114.24673 -70.2126l-107.10762 -41.65354z" fill-rule="evenodd"/><path fill="#cccccc" d="m723.5696 60.695538l-157.09192 115.438324l85.68768 66.643036l227.30444 -103.53543z" fill-rule="evenodd"/><path fill="#cccccc" d="m555.7664 414.74277l-127.33859 46.41208l-38.08136 90.44885l224.92386 -27.372742z" fill-rule="evenodd"/><path fill="#cccccc" d="m91.63517 324.8924l155.9029 -71.404205l88.06561 101.15747l-86.87663 126.147l-170.1811 -15.469818z" fill-rule="evenodd"/><path fill="#cccccc" d="m366.54593 124.95801l-88.06561 65.45407l116.62729 78.54593l92.82678 -45.2231z" fill-rule="evenodd"/><path fill="#cccccc" d="m803.6352 288.0l-84.49347 102.346466l119.00787 72.595795l71.404236 -65.45407z" fill-rule="evenodd"/><path fill="#cccccc" d="m412.95538 587.90027l-36.892395 82.11548l129.71918 41.653564l111.868774 -114.24939z" fill-rule="evenodd"/><path fill="#cccccc" d="m398.67715 296.33072l70.21524 82.11548l232.06561 -30.94226z" fill-rule="evenodd"/><path fill="#cccccc" d="m433.18896 71.4042l16.661438 79.73754l153.52228 -38.084l-96.3963 -83.30446z" fill-rule="evenodd"/><path fill="#cccccc" d="m238.01575 35.70341l22.611542 58.312336l85.68768 5.9501343l51.173218 -48.792652l-53.553802 -30.942259z" fill-rule="evenodd"/><path fill="#cccccc" d="m910.41205 176.13124l-40.461914 23.803146l-19.041992 53.553802l52.364807 76.165344l36.892395 -76.165344z" fill-rule="evenodd"/><path fill="#cccccc" d="m813.42255 11.372704l-28.56427 41.650917l39.27295 41.65354l49.984253 -5.9501266z" fill-rule="evenodd"/><path fill="#cccccc" d="m670.01575 442.71127l-4.758545 42.84253l-30.94226 40.461945l58.312378 11.902893l57.125977 -41.653534l-36.89502 -41.653564z" fill-rule="evenodd"/><path fill="#cccccc" d="m310.60892 460.56168l-41.653534 97.58792l49.984253 8.328064l24.992126 -45.223083l27.370087 -39.270325l-29.750671 -55.934387z" fill-rule="evenodd"/><path fill="#cccccc" d="m35.70341 242.7769l102.34645 -17.850388l10.711288 44.031494l-66.64567 30.94226z" fill-rule="evenodd"/><path fill="#cccccc" d="m41.65354 490.31497l3.5695572 58.312347l64.26509 -9.519714l-21.42257 -41.653534z" fill-rule="evenodd"/><path fill="#cccccc" d="m296.33072 666.44617l-30.94226 32.131287l83.30444 -1.1890259l-21.419922 -48.792603z" fill-rule="evenodd"/><path fill="#cccccc" d="m645.7205 660.3744l-22.312378 24.172058l89.25159 -0.928833l-61.360107 -52.99237z" fill-rule="evenodd"/><path fill="#cccccc" d="m0 29.76l0 88.10499l76.16535 -30.981628l-8.330704 -30.94226z" fill-rule="evenodd"/><path stroke="#cccccc" stroke-width="1.0" stroke-linejoin="round" stroke-linecap="butt" d="m0 29.76l0 88.10499l76.16535 -30.981628l-8.330704 -30.94226z" fill-rule="evenodd"/><path fill="#cccccc" d="m960.0 29.761154l0 88.10499l-46.905518 -8.341209l10.713928 -33.33333z" fill-rule="evenodd"/><path stroke="#cccccc" stroke-width="1.0" stroke-linejoin="round" stroke-linecap="butt" d="m960.0 29.761154l0 88.10499l-46.905518 -8.341209l10.713928 -33.33333z" fill-rule="evenodd"/><path fill="#cccccc" d="m0 374.4l0 88.10498l17.858267 -22.485565l7.141733 -35.713898z" fill-rule="evenodd"/><path stroke="#cccccc" stroke-width="1.0" stroke-linejoin="round" stroke-linecap="butt" d="m0 374.4l0 88.10498l17.858267 -22.485565l7.141733 -35.713898z" fill-rule="evenodd"/><path fill="#cccccc" d="m960.0 374.39896l0 88.10498l-38.572205 -33.931763l5.952759 -38.097107z" fill-rule="evenodd"/><path stroke="#cccccc" stroke-width="1.0" stroke-linejoin="round" stroke-linecap="butt" d="m960.0 374.39896l0 88.10498l-38.572205 -33.931763l5.952759 -38.097107z" fill-rule="evenodd"/><path fill="#cccccc" d="m0 624.0l0 88.10498l41.677166 -21.212585l-8.333332 -32.141724z" fill-rule="evenodd"/><path stroke="#cccccc" stroke-width="1.0" stroke-linejoin="round" stroke-linecap="butt" d="m0 624.0l0 88.10498l41.677166 -21.212585l-8.333332 -32.141724z" fill-rule="evenodd"/><path fill="#cccccc" d="m960.0 624.0l0 88.10498l-54.04724 -19.246704l19.047241 -48.811035z" fill-rule="evenodd"/><path stroke="#cccccc" stroke-width="1.0" stroke-linejoin="round" stroke-linecap="butt" d="m960.0 624.0l0 88.10498l-54.04724 -19.246704l19.047241 -48.811035z" fill-rule="evenodd"/><path fill="#cccccc" d="m647.785 -0.0011548556l-88.10498 0l30.981628 76.16535l30.94226 -8.330711z" fill-rule="evenodd"/><path stroke="#cccccc" stroke-width="1.0" stroke-linejoin="round" stroke-linecap="butt" d="m647.785 -0.0011548556l-88.10498 0l30.981628 76.16535l30.94226 -8.330711z" fill-rule="evenodd"/><path fill="#cccccc" d="m647.7848 720.0l-88.10498 0l17.700745 -43.80841l50.0 17.855652z" fill-rule="evenodd"/><path stroke="#cccccc" stroke-width="1.0" stroke-linejoin="round" stroke-linecap="butt" d="m647.7848 720.0l-88.10498 0l17.700745 -43.80841l50.0 17.855652z" fill-rule="evenodd"/></g></svg>