<svg version="1.1" viewBox="0.0 0.0 750.0 500.0" fill="none" stroke="none" stroke-linecap="square" stroke-miterlimit="10" xmlns:xlink="http://www.w3.org/1999/xlink" xmlns="http://www.w3.org/2000/svg"><clipPath id="p.0"><path d="m0 0l750.0 0l0 500.0l-750.0 0l0 -500.0z" clip-rule="nonzero"/></clipPath><g clip-path="url(#p.0)"><path fill="#b7b7b7" d="m0 0l750.0 0l0 500.0l-750.0 0z" fill-rule="evenodd"/><path fill="#434343" d="m130.03937 194.18538l0 0c0 -22.52092 18.256805 -40.777725 40.777725 -40.777725l408.36584 0c10.814941 0 21.18689 4.296219 28.834167 11.943512c7.647339 7.6473083 11.9435425 18.019287 11.9435425 28.834213l0 163.10597c0 22.520905 -18.256836 40.77771 -40.77771 40.77771l-408.36584 0c-22.52092 0 -40.777725 -18.256805 -40.777725 -40.77771z" fill-rule="evenodd"/><path stroke="#434343" stroke-width="1.0" stroke-linejoin="round" stroke-linecap="butt" d="m130.03937 194.18538l0 0c0 -22.52092 18.256805 -40.777725 40.777725 -40.777725l408.36584 0c10.814941 0 21.18689 4.296219 28.834167 11.943512c7.647339 7.6473083 11.9435425 18.019287 11.9435425 28.834213l0 163.10597c0 22.520905 -18.256836 40.77771 -40.77771 40.77771l-408.36584 0c-22.52092 0 -40.777725 -18.256805 -40.777725 -40.77771z" fill-rule="evenodd"/><path fill="#666666" d="m280.1223 275.73865l0 0c0 -52.40181 42.480072 -94.88188 94.8819 -94.88188l0 0c25.164246 0 49.29782 9.99646 67.09161 27.790268c17.793823 17.793808 27.790283 41.927383 27.790283 67.09161l0 0c0 52.401825 -42.480072 94.8819 -94.8819 94.8819l0 0c-52.401825 0 -94.8819 -42.480072 -94.8819 -94.8819z" fill-rule="evenodd"/><path stroke="#666666" stroke-width="1.0" stroke-linejoin="round" stroke-linecap="butt" d="m280.1223 275.73865l0 0c0 -52.40181 42.480072 -94.88188 94.8819 -94.88188l0 0c25.164246 0 49.29782 9.99646 67.09161 27.790268c17.793823 17.793808 27.790283 41.927383 27.790283 67.09161l0 0c0 52.401825 -42.480072 94.8819 -94.8819 94.8819l0 0c-52.401825 0 -94.8819 -42.480072 -94.8819 -94.8819z" fill-rule="evenodd"/><path fill="#434343" d="m446.9009 111.89963l0 0c0 -5.505562 4.4631653 -9.968697 9.9687195 -9.968697l99.8421 0c2.6438599 0 5.1794434 1.0502701 7.04895 2.9197617c1.8695068 1.8694916 2.9197388 4.405075 2.9197388 7.048935l0 39.873627c0 5.505554 -4.463135 9.968689 -9.968689 9.968689l-99.8421 0c-5.505554 0 -9.9687195 -4.463135 -9.9687195 -9.968689z" fill-rule="evenodd"/><path stroke="#434343" stroke-width="1.0" stroke-linejoin="round" stroke-linecap="butt" d="m446.9009 111.89963l0 0c0 -5.505562 4.4631653 -9.968697 9.9687195 -9.968697l99.8421 0c2.6438599 0 5.1794434 1.0502701 7.04895 2.9197617c1.8695068 1.8694916 2.9197388 4.405075 2.9197388 7.048935l0 39.873627c0 5.505554 -4.463135 9.968689 -9.968689 9.968689l-99.8421 0c-5.505554 0 -9.9687195 -4.463135 -9.9687195 -9.968689z" fill-rule="evenodd"/></g></svg>