<svg version="1.1" viewBox="0.0 0.0 256.0 256.0" fill="none" stroke="none" stroke-linecap="square" stroke-miterlimit="10" xmlns:xlink="http://www.w3.org/1999/xlink" xmlns="http://www.w3.org/2000/svg"><clipPath id="p.0"><path d="m0 0l256.0 0l0 256.0l-256.0 0l0 -256.0z" clip-rule="nonzero"/></clipPath><g clip-path="url(#p.0)"><path fill="#ff0000" d="m0 0l256.0 0l0 256.0l-256.0 0z" fill-rule="evenodd"/><path fill="#434343" d="m41.674652 191.75339l0 0c-3.1166267 -3.116623 -3.1166267 -8.169678 0 -11.286316l138.79242 -138.79242c1.4966583 -1.4966583 3.5265656 -2.337471 5.643158 -2.337471c2.1166077 0 4.1464996 0.8408127 5.643158 2.337471l22.57196 22.571953c3.116623 3.1166306 3.116623 8.169685 0 11.286316l-138.79242 138.79242c-3.1166306 3.116623 -8.169685 3.116623 -11.286316 0z" fill-rule="evenodd"/><path stroke="#434343" stroke-width="1.0" stroke-linejoin="round" stroke-linecap="butt" d="m41.674652 191.75339l0 0c-3.1166267 -3.116623 -3.1166267 -8.169678 0 -11.286316l138.79242 -138.79242c1.4966583 -1.4966583 3.5265656 -2.337471 5.643158 -2.337471c2.1166077 0 4.1464996 0.8408127 5.643158 2.337471l22.57196 22.571953c3.116623 3.1166306 3.116623 8.169685 0 11.286316l-138.79242 138.79242c-3.1166306 3.116623 -8.169685 3.116623 -11.286316 0z" fill-rule="evenodd"/><path fill="#434343" d="m64.246605 41.674652l0 0c3.1166306 -3.1166267 8.169685 -3.1166267 11.286316 0l138.79242 138.79242c1.4966583 1.4966583 2.3374634 3.5265656 2.3374634 5.643158c0 2.1166077 -0.84080505 4.1464996 -2.3374634 5.643158l-22.57196 22.57196c-3.116623 3.116623 -8.169678 3.116623 -11.286316 0l-138.79242 -138.79242c-3.1166267 -3.1166306 -3.1166267 -8.169685 0 -11.286316z" fill-rule="evenodd"/><path stroke="#434343" stroke-width="1.0" stroke-linejoin="round" stroke-linecap="butt" d="m64.246605 41.674652l0 0c3.1166306 -3.1166267 8.169685 -3.1166267 11.286316 0l138.79242 138.79242c1.4966583 1.4966583 2.3374634 3.5265656 2.3374634 5.643158c0 2.1166077 -0.84080505 4.1464996 -2.3374634 5.643158l-22.57196 22.57196c-3.116623 3.116623 -8.169678 3.116623 -11.286316 0l-138.79242 -138.79242c-3.1166267 -3.1166306 -3.1166267 -8.169685 0 -11.286316z" fill-rule="evenodd"/></g></svg>