<svg version="1.1" viewBox="0.0 0.0 512.0 512.0" fill="none" stroke="none" stroke-linecap="square" stroke-miterlimit="10" xmlns:xlink="http://www.w3.org/1999/xlink" xmlns="http://www.w3.org/2000/svg"><clipPath id="p.0"><path d="m0 0l512.0 0l0 512.0l-512.0 0l0 -512.0z" clip-rule="nonzero"/></clipPath><g clip-path="url(#p.0)"><path fill="#000000" fill-opacity="0.0" d="m0 0l512.0 0l0 512.0l-512.0 0z" fill-rule="evenodd"/><path fill="#000000" d="m293.2126 384.2707l0 0c0 -9.738373 7.8945312 -17.632904 17.632904 -17.632904l70.52948 0l0 0c4.676544 0 9.16153 1.8577576 12.468353 5.164551c3.3067932 3.3068237 5.164551 7.791809 5.164551 12.468353l0 70.52948c0 9.738373 -7.8945312 17.632904 -17.632904 17.632904l-70.52948 0c-9.738373 0 -17.632904 -7.8945312 -17.632904 -17.632904z" fill-rule="evenodd"/><path stroke="#000000" stroke-width="1.0" stroke-linejoin="round" stroke-linecap="butt" d="m293.2126 384.2707l0 0c0 -9.738373 7.8945312 -17.632904 17.632904 -17.632904l70.52948 0l0 0c4.676544 0 9.16153 1.8577576 12.468353 5.164551c3.3067932 3.3068237 5.164551 7.791809 5.164551 12.468353l0 70.52948c0 9.738373 -7.8945312 17.632904 -17.632904 17.632904l-70.52948 0c-9.738373 0 -17.632904 -7.8945312 -17.632904 -17.632904z" fill-rule="evenodd"/><path fill="#000000" d="m232.05511 394.04855l0 0c0 -3.974701 3.2221375 -7.1968384 7.1968536 -7.1968384l66.83464 0c1.9087219 0 3.7392883 0.75823975 5.0889587 2.1079102c1.3496704 1.3496704 2.1079102 3.1802063 2.1079102 5.088928l0 0l0 0c0 3.974701 -3.222168 7.1968384 -7.196869 7.1968384l-66.83464 0c-3.9747162 0 -7.1968536 -3.2221375 -7.1968536 -7.1968384z" fill-rule="evenodd"/><path stroke="#000000" stroke-width="1.0" stroke-linejoin="round" stroke-linecap="butt" d="m232.05511 394.04855l0 0c0 -3.974701 3.2221375 -7.1968384 7.1968536 -7.1968384l66.83464 0c1.9087219 0 3.7392883 0.75823975 5.0889587 2.1079102c1.3496704 1.3496704 2.1079102 3.1802063 2.1079102 5.088928l0 0l0 0c0 3.974701 -3.222168 7.1968384 -7.196869 7.1968384l-66.83464 0c-3.9747162 0 -7.1968536 -3.2221375 -7.1968536 -7.1968384z" fill-rule="evenodd"/><path fill="#000000" d="m232.05511 445.02118l0 0c0 -3.9747314 3.2221375 -7.196869 7.1968536 -7.196869l66.83464 0c1.9087219 0 3.7392883 0.75823975 5.0889587 2.1079102c1.3496704 1.3496704 2.1079102 3.1802368 2.1079102 5.0889587l0 0l0 0c0 3.974701 -3.222168 7.1968384 -7.196869 7.1968384l-66.83464 0c-3.9747162 0 -7.1968536 -3.2221375 -7.1968536 -7.1968384z" fill-rule="evenodd"/><path stroke="#000000" stroke-width="1.0" stroke-linejoin="round" stroke-linecap="butt" d="m232.05511 445.02118l0 0c0 -3.9747314 3.2221375 -7.196869 7.1968536 -7.196869l66.83464 0c1.9087219 0 3.7392883 0.75823975 5.0889587 2.1079102c1.3496704 1.3496704 2.1079102 3.1802368 2.1079102 5.0889587l0 0l0 0c0 3.974701 -3.222168 7.1968384 -7.196869 7.1968384l-66.83464 0c-3.9747162 0 -7.1968536 -3.2221375 -7.1968536 -7.1968384z" fill-rule="evenodd"/><path fill="#000000" d="m293.2126 361.68253l0 0c0 -2.7339478 2.2163086 -4.9502563 4.9502563 -4.9502563l19.800323 0l0 0c1.3128662 0 2.571991 0.5215454 3.5003357 1.4498901c0.9283447 0.92837524 1.4498901 2.1874695 1.4498901 3.5003662l0 115.70584c0 2.7339172 -2.2163086 4.950226 -4.950226 4.950226l-19.800323 0c-2.7339478 0 -4.9502563 -2.2163086 -4.9502563 -4.950226z" fill-rule="evenodd"/><path stroke="#000000" stroke-width="1.0" stroke-linejoin="round" stroke-linecap="butt" d="m293.2126 361.68253l0 0c0 -2.7339478 2.2163086 -4.9502563 4.9502563 -4.9502563l19.800323 0l0 0c1.3128662 0 2.571991 0.5215454 3.5003357 1.4498901c0.9283447 0.92837524 1.4498901 2.1874695 1.4498901 3.5003662l0 115.70584c0 2.7339172 -2.2163086 4.950226 -4.950226 4.950226l-19.800323 0c-2.7339478 0 -4.9502563 -2.2163086 -4.9502563 -4.950226z" fill-rule="evenodd"/><path fill="#000000" d="m362.52756 401.25742l0 0c0 -5.047516 4.091797 -9.139313 9.139282 -9.139313l36.55606 0l0 0c2.4239197 0 4.7485046 0.9628906 6.4624634 2.6768494c1.7139587 1.7139282 2.6768494 4.0385437 2.6768494 6.4624634l0 36.55606c0 5.0474854 -4.091797 9.139282 -9.139313 9.139282l-36.55606 0c-5.0474854 0 -9.139282 -4.091797 -9.139282 -9.139282z" fill-rule="evenodd"/><path stroke="#000000" stroke-width="1.0" stroke-linejoin="round" stroke-linecap="butt" d="m362.52756 401.25742l0 0c0 -5.047516 4.091797 -9.139313 9.139282 -9.139313l36.55606 0l0 0c2.4239197 0 4.7485046 0.9628906 6.4624634 2.6768494c1.7139587 1.7139282 2.6768494 4.0385437 2.6768494 6.4624634l0 36.55606c0 5.0474854 -4.091797 9.139282 -9.139313 9.139282l-36.55606 0c-5.0474854 0 -9.139282 -4.091797 -9.139282 -9.139282z" fill-rule="evenodd"/><path fill="#000000" d="m218.7874 384.2707l0 0c0 -9.738373 -7.894516 -17.632904 -17.632889 -17.632904l-70.52948 0l0 0c-4.676544 0 -9.161537 1.8577576 -12.468346 5.164551c-3.306816 3.3068237 -5.1645584 7.791809 -5.1645584 12.468353l0 70.52948c0 9.738373 7.894516 17.632904 17.632904 17.632904l70.52948 0c9.738373 0 17.632889 -7.8945312 17.632889 -17.632904z" fill-rule="evenodd"/><path stroke="#000000" stroke-width="1.0" stroke-linejoin="round" stroke-linecap="butt" d="m218.7874 384.2707l0 0c0 -9.738373 -7.894516 -17.632904 -17.632889 -17.632904l-70.52948 0l0 0c-4.676544 0 -9.161537 1.8577576 -12.468346 5.164551c-3.306816 3.3068237 -5.1645584 7.791809 -5.1645584 12.468353l0 70.52948c0 9.738373 7.894516 17.632904 17.632904 17.632904l70.52948 0c9.738373 0 17.632889 -7.8945312 17.632889 -17.632904z" fill-rule="evenodd"/><path fill="#000000" d="m218.7874 361.68253l0 0c0 -2.7339478 -2.2162933 -4.9502563 -4.950226 -4.9502563l-19.800323 0l0 0c-1.3128815 0 -2.5720062 0.5215454 -3.500351 1.4498901c-0.9283447 0.92837524 -1.4498901 2.1874695 -1.4498901 3.5003662l0 115.70584c0 2.7339172 2.2162933 4.950226 4.950241 4.950226l19.800323 0c2.7339325 0 4.950226 -2.2163086 4.950226 -4.950226z" fill-rule="evenodd"/><path stroke="#000000" stroke-width="1.0" stroke-linejoin="round" stroke-linecap="butt" d="m218.7874 361.68253l0 0c0 -2.7339478 -2.2162933 -4.9502563 -4.950226 -4.9502563l-19.800323 0l0 0c-1.3128815 0 -2.5720062 0.5215454 -3.500351 1.4498901c-0.9283447 0.92837524 -1.4498901 2.1874695 -1.4498901 3.5003662l0 115.70584c0 2.7339172 2.2162933 4.950226 4.950241 4.950226l19.800323 0c2.7339325 0 4.950226 -2.2163086 4.950226 -4.950226z" fill-rule="evenodd"/><path fill="#000000" d="m149.47244 401.25742l0 0c0 -5.047516 -4.091797 -9.139313 -9.1392975 -9.139313l-36.55606 0l0 0c-2.4238892 0 -4.7485046 0.9628906 -6.4624557 2.6768494c-1.7139435 1.7139282 -2.676834 4.0385437 -2.676834 6.4624634l0 36.55606c0 5.0474854 4.091797 9.139282 9.13929 9.139282l36.55606 0c5.0475006 0 9.1392975 -4.091797 9.1392975 -9.139282z" fill-rule="evenodd"/><path stroke="#000000" stroke-width="1.0" stroke-linejoin="round" stroke-linecap="butt" d="m149.47244 401.25742l0 0c0 -5.047516 -4.091797 -9.139313 -9.1392975 -9.139313l-36.55606 0l0 0c-2.4238892 0 -4.7485046 0.9628906 -6.4624557 2.6768494c-1.7139435 1.7139282 -2.676834 4.0385437 -2.676834 6.4624634l0 36.55606c0 5.0474854 4.091797 9.139282 9.13929 9.139282l36.55606 0c5.0475006 0 9.1392975 -4.091797 9.1392975 -9.139282z" fill-rule="evenodd"/><path fill="#000000" fill-opacity="0.0" d="m97.01837 419.96588c-33.016113 0 -67.39421 12.035004 -99.01575 2.54068c-25.808464 -7.748932 -35.58325 -42.102997 -59.238846 -55.007874c-17.07862 -9.316925 -42.099106 -3.169983 -55.855644 -16.926514" fill-rule="evenodd"/><path stroke="#000000" stroke-width="16.0" stroke-linejoin="round" stroke-linecap="butt" d="m97.01837 419.96588c-33.016113 0 -67.39421 12.035004 -99.01575 2.54068c-25.808464 -7.748932 -35.58325 -42.102997 -59.238846 -55.007874c-17.07862 -9.316925 -42.099106 -3.169983 -55.855644 -16.926514" fill-rule="evenodd"/><path fill="#000000" d="m184.85426 292.9754l0 0c0 -5.9316406 4.8085327 -10.740173 10.740158 -10.740173l154.14172 0c2.8484802 0 5.5802917 1.1315613 7.594452 3.1457214c2.0141602 2.0141602 3.1457214 4.7459717 3.1457214 7.594452l0 0l0 0c0 5.93161 -4.8085327 10.740143 -10.740173 10.740143l-154.14172 0c-5.9316254 0 -10.740158 -4.8085327 -10.740158 -10.740143z" fill-rule="evenodd"/><path stroke="#000000" stroke-width="1.0" stroke-linejoin="round" stroke-linecap="butt" d="m184.85426 292.9754l0 0c0 -5.9316406 4.8085327 -10.740173 10.740158 -10.740173l154.14172 0c2.8484802 0 5.5802917 1.1315613 7.594452 3.1457214c2.0141602 2.0141602 3.1457214 4.7459717 3.1457214 7.594452l0 0l0 0c0 5.93161 -4.8085327 10.740143 -10.740173 10.740143l-154.14172 0c-5.9316254 0 -10.740158 -4.8085327 -10.740158 -10.740143z" fill-rule="evenodd"/><path fill="#000000" d="m242.12335 254.83403l0 0c0 -8.936066 7.2441254 -16.180191 16.180206 -16.180191l28.71048 0l0 0c4.2912292 0 8.406738 1.7046967 11.441132 4.7390747c3.0343628 3.0343628 4.739044 7.149872 4.739044 11.441116l0 27.639603l0 0c0 8.936096 -7.24411 16.180206 -16.180176 16.180206l-28.71048 0l0 0c-8.936081 0 -16.180206 -7.24411 -16.180206 -16.180206z" fill-rule="evenodd"/><path stroke="#000000" stroke-width="1.0" stroke-linejoin="round" stroke-linecap="butt" d="m242.12335 254.83403l0 0c0 -8.936066 7.2441254 -16.180191 16.180206 -16.180191l28.71048 0l0 0c4.2912292 0 8.406738 1.7046967 11.441132 4.7390747c3.0343628 3.0343628 4.739044 7.149872 4.739044 11.441116l0 27.639603l0 0c0 8.936096 -7.24411 16.180206 -16.180176 16.180206l-28.71048 0l0 0c-8.936081 0 -16.180206 -7.24411 -16.180206 -16.180206z" fill-rule="evenodd"/><path fill="#3d85c6" d="m148.05511 99.96384l0 0c0 -15.55706 12.611496 -28.168549 28.168549 -28.168549l192.89127 0c7.470764 0 14.635529 2.9677505 19.918152 8.250381c5.2826233 5.2826233 8.250397 12.447403 8.250397 19.918167l0 112.67079c0 15.557053 -12.611511 28.168533 -28.168549 28.168533l-192.89127 0c-15.557053 0 -28.168549 -12.611481 -28.168549 -28.168533z" fill-rule="evenodd"/><path stroke="#000000" stroke-width="24.0" stroke-linejoin="round" stroke-linecap="butt" d="m148.05511 99.96384l0 0c0 -15.55706 12.611496 -28.168549 28.168549 -28.168549l192.89127 0c7.470764 0 14.635529 2.9677505 19.918152 8.250381c5.2826233 5.2826233 8.250397 12.447403 8.250397 19.918167l0 112.67079c0 15.557053 -12.611511 28.168533 -28.168549 28.168533l-192.89127 0c-15.557053 0 -28.168549 -12.611481 -28.168549 -28.168533z" fill-rule="evenodd"/><path fill="#000000" fill-opacity="0.0" d="m412.43832 417.63516c36.712555 4.079193 74.86688 -0.5956726 110.246735 -11.212585c12.812805 -3.8449402 29.782288 1.0523376 39.241455 -8.40683" fill-rule="evenodd"/><path stroke="#000000" stroke-width="16.0" stroke-linejoin="round" stroke-linecap="butt" d="m412.43832 417.63516c36.712555 4.079193 74.86688 -0.5956726 110.246735 -11.212585c12.812805 -3.8449402 29.782288 1.0523376 39.241455 -8.40683" fill-rule="evenodd"/></g></svg>