<svg version="1.1" viewBox="0.0 0.0 256.0 256.0" fill="none" stroke="none" stroke-linecap="square" stroke-miterlimit="10" xmlns:xlink="http://www.w3.org/1999/xlink" xmlns="http://www.w3.org/2000/svg"><clipPath id="p.0"><path d="m0 0l256.0 0l0 256.0l-256.0 0l0 -256.0z" clip-rule="nonzero"/></clipPath><g clip-path="url(#p.0)"><path fill="#b7b7b7" d="m0 0l256.0 0l0 256.0l-256.0 0z" fill-rule="evenodd"/><path fill="#434343" d="m89.49606 128.62993l77.00787 0l0 0c16.89032 0 33.088867 6.7096405 45.03212 18.652908c11.943268 11.943268 18.652924 28.1418 18.652924 45.03212l0 63.685043c0 9.460449E-4 -7.6293945E-4 0.0017089844 -0.0017089844 0.0017089844l-204.37625 -0.0017089844l0 0c-9.403229E-4 0 -0.0017032623 -7.6293945E-4 -0.0017032623 -0.0017089844l0.0017032623 -63.683334l0 0c0 -35.17227 28.512764 -63.685028 63.68504 -63.685028z" fill-rule="evenodd"/><path stroke="#434343" stroke-width="1.0" stroke-linejoin="round" stroke-linecap="butt" d="m89.49606 128.62993l77.00787 0l0 0c16.89032 0 33.088867 6.7096405 45.03212 18.652908c11.943268 11.943268 18.652924 28.1418 18.652924 45.03212l0 63.685043c0 9.460449E-4 -7.6293945E-4 0.0017089844 -0.0017089844 0.0017089844l-204.37625 -0.0017089844l0 0c-9.403229E-4 0 -0.0017032623 -7.6293945E-4 -0.0017032623 -0.0017089844l0.0017032623 -63.683334l0 0c0 -35.17227 28.512764 -63.685028 63.68504 -63.685028z" fill-rule="evenodd"/><path fill="#434343" d="m83.35433 83.35433l0 0c0 -24.657124 19.988548 -44.64567 44.645668 -44.64567l0 0c11.840775 0 23.196564 4.7037277 31.56926 13.076416c8.372681 8.3726845 13.076416 19.728489 13.076416 31.569256l0 0c0 24.65712 -19.988556 44.645668 -44.645676 44.645668l0 0c-24.65712 0 -44.645668 -19.988548 -44.645668 -44.645668z" fill-rule="evenodd"/><path stroke="#434343" stroke-width="1.0" stroke-linejoin="round" stroke-linecap="butt" d="m83.35433 83.35433l0 0c0 -24.657124 19.988548 -44.64567 44.645668 -44.64567l0 0c11.840775 0 23.196564 4.7037277 31.56926 13.076416c8.372681 8.3726845 13.076416 19.728489 13.076416 31.569256l0 0c0 24.65712 -19.988556 44.645668 -44.645676 44.645668l0 0c-24.65712 0 -44.645668 -19.988548 -44.645668 -44.645668z" fill-rule="evenodd"/><path fill="#666666" d="m213.73013 57.587925l16.409454 0l0 56.283466l-16.409454 0z" fill-rule="evenodd"/><path fill="#666666" d="m250.07611 77.52804l0 16.409447l-56.283463 0l0 -16.409447z" fill-rule="evenodd"/></g></svg>