<svg version="1.1" viewBox="0.0 0.0 750.0 500.0" fill="none" stroke="none" stroke-linecap="square" stroke-miterlimit="10" xmlns:xlink="http://www.w3.org/1999/xlink" xmlns="http://www.w3.org/2000/svg"><clipPath id="p.0"><path d="m0 0l750.0 0l0 500.0l-750.0 0l0 -500.0z" clip-rule="nonzero"/></clipPath><g clip-path="url(#p.0)"><path fill="#b7b7b7" d="m0 0l750.0 0l0 500.0l-750.0 0z" fill-rule="evenodd"/><path fill="#000000" fill-opacity="0.0" d="m506.6568 300.7579l0 0c-25.297913 65.618164 -95.05301 102.59061 -163.55798 86.69098c-68.504944 -15.899658 -114.844055 -79.816956 -108.65343 -149.86983c6.1906433 -70.05286 63.02092 -124.85298 133.25255 -128.49234l7.302063 140.9133z" fill-rule="evenodd"/><path fill="#000000" fill-opacity="0.0" d="m506.6568 300.7579l0 0c-25.297913 65.618164 -95.05301 102.59061 -163.55798 86.69098c-68.504944 -15.899658 -114.844055 -79.816956 -108.65343 -149.86983c6.1906433 -70.05286 63.02092 -124.85298 133.25255 -128.49234" fill-rule="evenodd"/><path stroke="#000000" stroke-width="8.0" stroke-linejoin="round" stroke-linecap="butt" d="m506.6568 300.7579l0 0c-25.297913 65.618164 -95.05301 102.59061 -163.55798 86.69098c-68.504944 -15.899658 -114.844055 -79.816956 -108.65343 -149.86983c6.1906433 -70.05286 63.02092 -124.85298 133.25255 -128.49234" fill-rule="evenodd"/><path fill="#f3f3f3" d="m83.05249 100.43044l0 0c0 -15.211746 12.331558 -27.543304 27.543312 -27.543304l0 0c7.3049393 0 14.310684 2.9018784 19.476051 8.0672455c5.1653748 5.1653748 8.067261 12.17112 8.067261 19.476059l0 0c0 15.211754 -12.331566 27.543312 -27.543312 27.543312l0 0c-15.211754 0 -27.543312 -12.331558 -27.543312 -27.543312z" fill-rule="evenodd"/><path stroke="#000000" stroke-width="4.0" stroke-linejoin="round" stroke-linecap="butt" d="m83.05249 100.43044l0 0c0 -15.211746 12.331558 -27.543304 27.543312 -27.543304l0 0c7.3049393 0 14.310684 2.9018784 19.476051 8.0672455c5.1653748 5.1653748 8.067261 12.17112 8.067261 19.476059l0 0c0 15.211754 -12.331566 27.543312 -27.543312 27.543312l0 0c-15.211754 0 -27.543312 -12.331558 -27.543312 -27.543312z" fill-rule="evenodd"/><path fill="#000000" d="m113.99131 113.49044l-3.15625 0l0 -20.15625q-1.140625 1.078125 -3.0 2.171875q-1.859375 1.09375 -3.328125 1.640625l0 -3.0625q2.65625 -1.25 4.640625 -3.015625q1.984375 -1.78125 2.8125 -3.453125l2.03125 0l0 25.875z" fill-rule="nonzero"/><path fill="#f3f3f3" d="m629.5617 383.38058l0 0c0 -15.211761 12.331543 -27.543304 27.543274 -27.543304l0 0c7.3049316 0 14.310669 2.9018555 19.476074 8.06723c5.165344 5.1653748 8.067261 12.171143 8.067261 19.476074l0 0c0 15.211731 -12.331604 27.543304 -27.543335 27.543304l0 0c-15.211731 0 -27.543274 -12.3315735 -27.543274 -27.543304z" fill-rule="evenodd"/><path stroke="#000000" stroke-width="4.0" stroke-linejoin="round" stroke-linecap="butt" d="m629.5617 383.38058l0 0c0 -15.211761 12.331543 -27.543304 27.543274 -27.543304l0 0c7.3049316 0 14.310669 2.9018555 19.476074 8.06723c5.165344 5.1653748 8.067261 12.171143 8.067261 19.476074l0 0c0 15.211731 -12.331604 27.543304 -27.543335 27.543304l0 0c-15.211731 0 -27.543274 -12.3315735 -27.543274 -27.543304z" fill-rule="evenodd"/><path fill="#000000" d="m660.5005 396.44058l-3.15625 0l0 -20.15625q-1.140625 1.078125 -3.0 2.171875q-1.859375 1.09375 -3.328125 1.640625l0 -3.0625q2.65625 -1.25 4.640625 -3.015625q1.984375 -1.78125 2.8125 -3.453125l2.03125 0l0 25.875z" fill-rule="nonzero"/><path fill="#f3f3f3" d="m54.984253 430.83728l0 0c0 -15.211761 12.331558 -27.543304 27.543304 -27.543304l0 0c7.3049393 0 14.310692 2.9018555 19.476059 8.06723c5.1653748 5.1653748 8.067253 12.171112 8.067253 19.476074l0 0c0 15.211731 -12.331558 27.543304 -27.543312 27.543304l0 0c-15.211746 0 -27.543304 -12.3315735 -27.543304 -27.543304z" fill-rule="evenodd"/><path stroke="#000000" stroke-width="4.0" stroke-linejoin="round" stroke-linecap="butt" d="m54.984253 430.83728l0 0c0 -15.211761 12.331558 -27.543304 27.543304 -27.543304l0 0c7.3049393 0 14.310692 2.9018555 19.476059 8.06723c5.1653748 5.1653748 8.067253 12.171112 8.067253 19.476074l0 0c0 15.211731 -12.331558 27.543304 -27.543312 27.543304l0 0c-15.211746 0 -27.543304 -12.3315735 -27.543304 -27.543304z" fill-rule="evenodd"/><path fill="#000000" d="m90.641815 440.8504l0 3.046875l-17.03125 0q-0.03125 -1.140625 0.359375 -2.203125q0.65625 -1.734375 2.078125 -3.421875q1.4375 -1.6875 4.15625 -3.90625q4.203125 -3.4375 5.671875 -5.453125q1.484375 -2.015625 1.484375 -3.8125q0 -1.875 -1.359375 -3.15625q-1.34375 -1.296875 -3.5 -1.296875q-2.28125 0 -3.65625 1.375q-1.375 1.359375 -1.390625 3.78125l-3.25 -0.328125q0.328125 -3.640625 2.5 -5.546875q2.1875 -1.90625 5.875 -1.90625q3.703125 0 5.859375 2.0625q2.171875 2.046875 2.171875 5.09375q0 1.546875 -0.640625 3.046875q-0.625 1.484375 -2.09375 3.140625q-1.46875 1.65625 -4.875 4.53125q-2.859375 2.390625 -3.671875 3.25q-0.796875 0.84375 -1.328125 1.703125l12.640625 0z" fill-rule="nonzero"/><path fill="#f3f3f3" d="m365.90027 239.20998l0 0c0 -15.211746 12.331543 -27.543304 27.543304 -27.543304l0 0c7.3049316 0 14.310669 2.9018707 19.476044 8.0672455c5.1653748 5.1653748 8.067261 12.171112 8.067261 19.476059l0 0c0 15.211746 -12.3315735 27.54332 -27.543304 27.54332l0 0c-15.211761 0 -27.543304 -12.3315735 -27.543304 -27.54332z" fill-rule="evenodd"/><path stroke="#000000" stroke-width="4.0" stroke-linejoin="round" stroke-linecap="butt" d="m365.90027 239.20998l0 0c0 -15.211746 12.331543 -27.543304 27.543304 -27.543304l0 0c7.3049316 0 14.310669 2.9018707 19.476044 8.0672455c5.1653748 5.1653748 8.067261 12.171112 8.067261 19.476059l0 0c0 15.211746 -12.3315735 27.54332 -27.543304 27.54332l0 0c-15.211761 0 -27.543304 -12.3315735 -27.543304 -27.54332z" fill-rule="evenodd"/><path fill="#000000" d="m401.55783 249.2231l0 3.046875l-17.03125 0q-0.03125 -1.140625 0.359375 -2.203125q0.65625 -1.734375 2.078125 -3.421875q1.4375 -1.6875 4.15625 -3.90625q4.203125 -3.4375 5.671875 -5.453125q1.484375 -2.015625 1.484375 -3.8125q0 -1.875 -1.359375 -3.15625q-1.34375 -1.296875 -3.5 -1.296875q-2.28125 0 -3.65625 1.375q-1.375 1.359375 -1.390625 3.78125l-3.25 -0.328125q0.328125 -3.640625 2.5 -5.546875q2.1875 -1.90625 5.875 -1.90625q3.703125 0 5.859375 2.0625q2.171875 2.046875 2.171875 5.09375q0 1.546875 -0.640625 3.046875q-0.625 1.484375 -2.09375 3.140625q-1.46875 1.65625 -4.875 4.53125q-2.859375 2.390625 -3.671875 3.25q-0.796875 0.84375 -1.328125 1.703125l12.640625 0z" fill-rule="nonzero"/><path fill="#f3f3f3" d="m50.643044 294.2966l0 0c0 -15.211761 12.331558 -27.543304 27.543304 -27.543304l0 0c7.3049393 0 14.310692 2.9018555 19.476067 8.06723c5.165367 5.1653748 8.0672455 12.171112 8.0672455 19.476074l0 0c0 15.211731 -12.331558 27.543304 -27.543312 27.543304l0 0c-15.211746 0 -27.543304 -12.3315735 -27.543304 -27.543304z" fill-rule="evenodd"/><path stroke="#000000" stroke-width="4.0" stroke-linejoin="round" stroke-linecap="butt" d="m50.643044 294.2966l0 0c0 -15.211761 12.331558 -27.543304 27.543304 -27.543304l0 0c7.3049393 0 14.310692 2.9018555 19.476067 8.06723c5.165367 5.1653748 8.0672455 12.171112 8.0672455 19.476074l0 0c0 15.211731 -12.331558 27.543304 -27.543312 27.543304l0 0c-15.211746 0 -27.543304 -12.3315735 -27.543304 -27.543304z" fill-rule="evenodd"/><path fill="#000000" d="m69.69123 300.55972l3.15625 -0.421875q0.546875 2.6875 1.859375 3.875q1.3125 1.1875 3.1875 1.1875q2.234375 0 3.765625 -1.546875q1.546875 -1.546875 1.546875 -3.84375q0 -2.171875 -1.421875 -3.578125q-1.421875 -1.421875 -3.625 -1.421875q-0.890625 0 -2.234375 0.34375l0.359375 -2.78125q0.3125 0.046875 0.5 0.046875q2.03125 0 3.640625 -1.046875q1.625 -1.0625 1.625 -3.265625q0 -1.734375 -1.1875 -2.875q-1.171875 -1.15625 -3.03125 -1.15625q-1.84375 0 -3.078125 1.171875q-1.234375 1.15625 -1.578125 3.46875l-3.171875 -0.5625q0.578125 -3.171875 2.625 -4.921875q2.0625 -1.75 5.125 -1.75q2.109375 0 3.875 0.90625q1.78125 0.90625 2.71875 2.46875q0.953125 1.5625 0.953125 3.328125q0 1.65625 -0.90625 3.03125q-0.890625 1.375 -2.640625 2.1875q2.28125 0.515625 3.546875 2.1875q1.265625 1.65625 1.265625 4.15625q0 3.375 -2.46875 5.71875q-2.453125 2.34375 -6.21875 2.34375q-3.390625 0 -5.640625 -2.015625q-2.234375 -2.03125 -2.546875 -5.234375z" fill-rule="nonzero"/><path fill="#f3f3f3" d="m619.1837 179.7874l0 0c0 -15.211746 12.331543 -27.543304 27.543335 -27.543304l0 0c7.3049316 0 14.310669 2.9018707 19.476013 8.0672455c5.1654053 5.1653748 8.067261 12.171127 8.067261 19.476059l0 0c0 15.211746 -12.331543 27.543304 -27.543274 27.543304l0 0c-15.211792 0 -27.543335 -12.331558 -27.543335 -27.543304z" fill-rule="evenodd"/><path stroke="#000000" stroke-width="4.0" stroke-linejoin="round" stroke-linecap="butt" d="m619.1837 179.7874l0 0c0 -15.211746 12.331543 -27.543304 27.543335 -27.543304l0 0c7.3049316 0 14.310669 2.9018707 19.476013 8.0672455c5.1654053 5.1653748 8.067261 12.171127 8.067261 19.476059l0 0c0 15.211746 -12.331543 27.543304 -27.543274 27.543304l0 0c-15.211792 0 -27.543335 -12.331558 -27.543335 -27.543304z" fill-rule="evenodd"/><path fill="#000000" d="m638.23193 186.05052l3.15625 -0.421875q0.546875 2.6875 1.859375 3.875q1.3125 1.1875 3.1875 1.1875q2.234375 0 3.765625 -1.546875q1.546875 -1.546875 1.546875 -3.84375q0 -2.171875 -1.421875 -3.578125q-1.421875 -1.421875 -3.625 -1.421875q-0.890625 0 -2.234375 0.34375l0.359375 -2.78125q0.3125 0.046875 0.5 0.046875q2.03125 0 3.640625 -1.046875q1.625 -1.0625 1.625 -3.265625q0 -1.734375 -1.1875 -2.875q-1.171875 -1.15625 -3.03125 -1.15625q-1.84375 0 -3.078125 1.171875q-1.234375 1.15625 -1.578125 3.46875l-3.171875 -0.5625q0.578125 -3.171875 2.625 -4.921875q2.0625 -1.75 5.125 -1.75q2.109375 0 3.875 0.90625q1.78125 0.90625 2.71875 2.46875q0.953125 1.5625 0.953125 3.328125q0 1.65625 -0.90625 3.03125q-0.890625 1.375 -2.640625 2.1875q2.28125 0.515625 3.546875 2.1875q1.265625 1.65625 1.265625 4.15625q0 3.375 -2.46875 5.71875q-2.453125 2.34375 -6.21875 2.34375q-3.390625 0 -5.640625 -2.015625q-2.234375 -2.03125 -2.546875 -5.234375z" fill-rule="nonzero"/><path fill="#f3f3f3" d="m427.7638 438.4672l0 0c0 -15.211761 12.331543 -27.543304 27.543304 -27.543304l0 0c7.3049316 0 14.310669 2.901886 19.476044 8.06723c5.1653748 5.1653748 8.067261 12.171143 8.067261 19.476074l0 0c0 15.211761 -12.3315735 27.543304 -27.543304 27.543304l0 0c-15.211761 0 -27.543304 -12.331543 -27.543304 -27.543304z" fill-rule="evenodd"/><path stroke="#000000" stroke-width="4.0" stroke-linejoin="round" stroke-linecap="butt" d="m427.7638 438.4672l0 0c0 -15.211761 12.331543 -27.543304 27.543304 -27.543304l0 0c7.3049316 0 14.310669 2.901886 19.476044 8.06723c5.1653748 5.1653748 8.067261 12.171143 8.067261 19.476074l0 0c0 15.211761 -12.3315735 27.543304 -27.543304 27.543304l0 0c-15.211761 0 -27.543304 -12.331543 -27.543304 -27.543304z" fill-rule="evenodd"/><path fill="#000000" d="m456.93698 451.5272l0 -6.171875l-11.1875 0l0 -2.90625l11.765625 -16.6875l2.578125 0l0 16.6875l3.484375 0l0 2.90625l-3.484375 0l0 6.171875l-3.15625 0zm0 -9.078125l0 -11.609375l-8.078125 11.609375l8.078125 0z" fill-rule="nonzero"/><path fill="#f3f3f3" d="m272.57742 211.14436l0 0c0 -15.211761 12.3315735 -27.54332 27.543304 -27.54332l0 0c7.3049316 0 14.310699 2.901886 19.476074 8.067261c5.1653748 5.1653595 8.06723 12.171112 8.06723 19.476059l0 0c0 15.211746 -12.331543 27.543304 -27.543304 27.543304l0 0c-15.211731 0 -27.543304 -12.331558 -27.543304 -27.543304z" fill-rule="evenodd"/><path stroke="#000000" stroke-width="4.0" stroke-linejoin="round" stroke-linecap="butt" d="m272.57742 211.14436l0 0c0 -15.211761 12.3315735 -27.54332 27.543304 -27.54332l0 0c7.3049316 0 14.310699 2.901886 19.476074 8.067261c5.1653748 5.1653595 8.06723 12.171112 8.06723 19.476059l0 0c0 15.211746 -12.331543 27.543304 -27.543304 27.543304l0 0c-15.211731 0 -27.543304 -12.331558 -27.543304 -27.543304z" fill-rule="evenodd"/><path fill="#000000" d="m301.7506 224.20436l0 -6.171875l-11.1875 0l0 -2.90625l11.765625 -16.6875l2.578125 0l0 16.6875l3.484375 0l0 2.90625l-3.484375 0l0 6.171875l-3.15625 0zm0 -9.078125l0 -11.609375l-8.078125 11.609375l8.078125 0z" fill-rule="nonzero"/><path fill="#f3f3f3" d="m502.23358 56.80315l0 0c0 -15.21175 12.331543 -27.543308 27.543335 -27.543308l0 0c7.3049316 0 14.310669 2.9018745 19.476074 8.067249c5.165344 5.165371 8.0672 12.17112 8.0672 19.476059l0 0c0 15.21175 -12.331543 27.543308 -27.543274 27.543308l0 0c-15.211792 0 -27.543335 -12.331558 -27.543335 -27.543308z" fill-rule="evenodd"/><path stroke="#000000" stroke-width="4.0" stroke-linejoin="round" stroke-linecap="butt" d="m502.23358 56.80315l0 0c0 -15.21175 12.331543 -27.543308 27.543335 -27.543308l0 0c7.3049316 0 14.310669 2.9018745 19.476074 8.067249c5.165344 5.165371 8.0672 12.17112 8.0672 19.476059l0 0c0 15.21175 -12.331543 27.543308 -27.543274 27.543308l0 0c-15.211792 0 -27.543335 -12.331558 -27.543335 -27.543308z" fill-rule="evenodd"/><path fill="#000000" d="m521.2662 63.113148l3.3125 -0.28125q0.375 2.4218712 1.71875 3.6562462q1.34375 1.21875 3.25 1.21875q2.28125 0 3.859375 -1.71875q1.578125 -1.734375 1.578125 -4.578121q0 -2.703125 -1.515625 -4.265625q-1.515625 -1.578125 -3.984375 -1.578125q-1.53125 0 -2.765625 0.703125q-1.21875 0.6875 -1.921875 1.796875l-2.96875 -0.390625l2.484375 -13.234375l12.828125 0l0 3.03125l-10.296875 0l-1.375 6.921875q2.3125 -1.625 4.859375 -1.625q3.375 0 5.6875 2.34375q2.328125 2.34375 2.328125 6.015625q0 3.4999962 -2.03125 6.046871q-2.484375 3.125 -6.765625 3.125q-3.515625 0 -5.75 -1.96875q-2.21875 -1.96875 -2.53125 -5.218746z" fill-rule="nonzero"/><path fill="#f3f3f3" d="m171.62204 453.72177l0 0c0 -15.211731 12.3315735 -27.543304 27.54332 -27.543304l0 0c7.3049316 0 14.310684 2.901886 19.476059 8.067261c5.1653748 5.1653748 8.0672455 12.171112 8.0672455 19.476044l0 0c0 15.211761 -12.331558 27.543335 -27.543304 27.543335l0 0c-15.211746 0 -27.54332 -12.3315735 -27.54332 -27.543335z" fill-rule="evenodd"/><path stroke="#000000" stroke-width="4.0" stroke-linejoin="round" stroke-linecap="butt" d="m171.62204 453.72177l0 0c0 -15.211731 12.3315735 -27.543304 27.54332 -27.543304l0 0c7.3049316 0 14.310684 2.901886 19.476059 8.067261c5.1653748 5.1653748 8.0672455 12.171112 8.0672455 19.476044l0 0c0 15.211761 -12.331558 27.543335 -27.543304 27.543335l0 0c-15.211746 0 -27.54332 -12.3315735 -27.54332 -27.543335z" fill-rule="evenodd"/><path fill="#000000" d="m190.65462 460.03177l3.3125 -0.28125q0.375 2.421875 1.71875 3.65625q1.34375 1.21875 3.25 1.21875q2.28125 0 3.859375 -1.71875q1.578125 -1.734375 1.578125 -4.578125q0 -2.703125 -1.515625 -4.265625q-1.515625 -1.578125 -3.984375 -1.578125q-1.53125 0 -2.765625 0.703125q-1.21875 0.6875 -1.921875 1.796875l-2.96875 -0.390625l2.484375 -13.234375l12.828125 0l0 3.03125l-10.296875 0l-1.375 6.921875q2.3125 -1.625 4.859375 -1.625q3.375 0 5.6875 2.34375q2.328125 2.34375 2.328125 6.015625q0 3.5 -2.03125 6.046875q-2.484375 3.125 -6.765625 3.125q-3.515625 0 -5.75 -1.96875q-2.21875 -1.96875 -2.53125 -5.21875z" fill-rule="nonzero"/><path fill="#000000" fill-opacity="0.0" d="m133.04987 116.950134c14.834274 44.48752 46.72441 83.97339 52.543304 130.50656c5.710846 45.669037 -0.57766724 110.16968 39.829407 132.20471c24.396805 13.30423 52.850586 17.26825 79.66141 24.574799c23.524597 6.41098 47.89688 16.163635 72.03412 12.713928c55.820923 -7.977936 107.6431 -33.677063 161.86615 -49.15222c15.483276 -4.418915 32.203003 0 48.304443 0c14.9817505 0 30.701904 -3.0491638 44.91339 1.6929016" fill-rule="evenodd"/><path stroke="#000000" stroke-width="3.0" stroke-linejoin="round" stroke-linecap="butt" d="m133.04987 116.950134c14.834274 44.48752 46.72441 83.97339 52.543304 130.50656c5.710846 45.669037 -0.57766724 110.16968 39.829407 132.20471c24.396805 13.30423 52.850586 17.26825 79.66141 24.574799c23.524597 6.41098 47.89688 16.163635 72.03412 12.713928c55.820923 -7.977936 107.6431 -33.677063 161.86615 -49.15222c15.483276 -4.418915 32.203003 0 48.304443 0c14.9817505 0 30.701904 -3.0491638 44.91339 1.6929016" fill-rule="evenodd"/><path fill="#000000" fill-opacity="0.0" d="m106.77985 416.9509c18.594452 -32.540283 20.110184 -72.35425 26.27034 -109.322815c6.2224426 -37.342346 13.218857 -78.76239 -1.6929169 -113.55907c-11.818893 -27.579468 -50.30027 -35.20871 -66.95013 -60.17061c-7.3820915 -11.067421 -2.5433044 -26.525887 -2.5433044 -39.82939c0 -10.827492 -3.4173508 -24.548523 4.238846 -32.204723c12.890717 -12.890713 35.269806 -9.84964 53.38845 -11.863518c32.94551 -3.661869 66.003845 -7.6272964 99.15224 -7.6272964c66.67984 0 142.82169 -10.710377 198.30707 26.270344c9.6033325 6.400566 10.645691 20.850235 12.711304 32.204727c4.9571533 27.249031 3.6872864 56.063515 -2.5433044 83.04986c-2.9384155 12.72702 -14.40683 23.379135 -14.40683 36.44095" fill-rule="evenodd"/><path stroke="#000000" stroke-width="3.0" stroke-linejoin="round" stroke-linecap="butt" d="m106.77985 416.9509c18.594452 -32.540283 20.110184 -72.35425 26.27034 -109.322815c6.2224426 -37.342346 13.218857 -78.76239 -1.6929169 -113.55907c-11.818893 -27.579468 -50.30027 -35.20871 -66.95013 -60.17061c-7.3820915 -11.067421 -2.5433044 -26.525887 -2.5433044 -39.82939c0 -10.827492 -3.4173508 -24.548523 4.238846 -32.204723c12.890717 -12.890713 35.269806 -9.84964 53.38845 -11.863518c32.94551 -3.661869 66.003845 -7.6272964 99.15224 -7.6272964c66.67984 0 142.82169 -10.710377 198.30707 26.270344c9.6033325 6.400566 10.645691 20.850235 12.711304 32.204727c4.9571533 27.249031 3.6872864 56.063515 -2.5433044 83.04986c-2.9384155 12.72702 -14.40683 23.379135 -14.40683 36.44095" fill-rule="evenodd"/></g></svg>