<svg version="1.1" viewBox="0.0 0.0 256.0 256.0" fill="none" stroke="none" stroke-linecap="square" stroke-miterlimit="10" xmlns:xlink="http://www.w3.org/1999/xlink" xmlns="http://www.w3.org/2000/svg"><clipPath id="p.0"><path d="m0 0l256.0 0l0 256.0l-256.0 0l0 -256.0z" clip-rule="nonzero"/></clipPath><g clip-path="url(#p.0)"><path fill="#b7b7b7" d="m0 0l256.0 0l0 256.0l-256.0 0z" fill-rule="evenodd"/><path fill="#666666" d="m433.97375 73.40717l0 0c0 -16.229668 13.156738 -29.386414 29.386414 -29.386414l183.14844 0c7.793762 0 15.268311 3.096058 20.779297 8.607082c5.5110474 5.5110207 8.607117 12.985569 8.607117 20.779331l0 117.54214c0 16.22966 -13.156738 29.386414 -29.386414 29.386414l-183.14844 0c-16.229675 0 -29.386414 -13.156754 -29.386414 -29.386414z" fill-rule="evenodd"/><path stroke="#666666" stroke-width="1.0" stroke-linejoin="round" stroke-linecap="butt" d="m433.97375 73.40717l0 0c0 -16.229668 13.156738 -29.386414 29.386414 -29.386414l183.14844 0c7.793762 0 15.268311 3.096058 20.779297 8.607082c5.5110474 5.5110207 8.607117 12.985569 8.607117 20.779331l0 117.54214c0 16.22966 -13.156738 29.386414 -29.386414 29.386414l-183.14844 0c-16.229675 0 -29.386414 -13.156754 -29.386414 -29.386414z" fill-rule="evenodd"/><path fill="#434343" d="m641.04724 44.01074l-86.11023 118.83464l-86.1102 -118.83464z" fill-rule="evenodd"/><path stroke="#434343" stroke-width="1.0" stroke-linejoin="round" stroke-linecap="butt" d="m641.04724 44.01074l-86.11023 118.83464l-86.1102 -118.83464z" fill-rule="evenodd"/><path fill="#434343" d="m134.19228 50.34646l0 0c19.734406 -19.734398 51.73018 -19.734398 71.46457 0c19.73439 19.73439 19.73439 51.73017 0 71.46456l-17.866135 -17.866135c9.8671875 -9.867203 9.8671875 -25.86509 0 -35.732285c-9.867203 -9.867199 -25.865097 -9.867199 -35.732285 0z" fill-rule="evenodd"/><path fill="#434343" d="m134.78456 49.753937l17.858261 17.858269l-35.74803 35.74803l-17.858269 -17.858269z" fill-rule="evenodd"/><path fill="#434343" d="m188.48555 103.24565l17.858276 17.858269l-35.74803 35.748024l-17.858276 -17.858261z" fill-rule="evenodd"/><path fill="#434343" d="m121.80772 205.65355l0 0c-19.73439 19.73439 -51.73017 19.73439 -71.46457 0c-19.734394 -19.734406 -19.734394 -51.73018 0 -71.46457l17.866146 17.866135c-9.867199 9.867203 -9.867199 25.865082 0 35.732285c9.867195 9.867203 25.865082 9.867203 35.732285 0z" fill-rule="evenodd"/><path fill="#434343" d="m121.21545 206.24606l-17.858269 -17.858261l35.74803 -35.74803l17.858261 17.858261z" fill-rule="evenodd"/><path fill="#434343" d="m67.51445 152.75435l-17.858269 -17.858261l35.74803 -35.74804l17.858269 17.858269z" fill-rule="evenodd"/><path fill="#434343" d="m142.44496 98.87719l0 0c1.3510284 -1.3510284 3.5414734 -1.3510284 4.8924866 0l9.784683 9.784676l0 0c0.64878845 0.64878845 1.0132751 1.5287247 1.0132751 2.4462433c0 0.9175186 -0.3644867 1.7974625 -1.0132751 2.4462433l-43.579956 43.579956c-1.3510208 1.3510284 -3.5414581 1.3510284 -4.8924866 0l-9.784676 -9.784683c-1.3510208 -1.3510132 -1.3510208 -3.5414581 0 -4.8924866z" fill-rule="evenodd"/></g></svg>