<svg version="1.1" viewBox="0.0 0.0 256.0 256.0" fill="none" stroke="none" stroke-linecap="square" stroke-miterlimit="10" xmlns:xlink="http://www.w3.org/1999/xlink" xmlns="http://www.w3.org/2000/svg"><clipPath id="p.0"><path d="m0 0l256.0 0l0 256.0l-256.0 0l0 -256.0z" clip-rule="nonzero"/></clipPath><g clip-path="url(#p.0)"><path fill="#b7b7b7" d="m0 0l256.0 0l0 256.0l-256.0 0z" fill-rule="evenodd"/><path fill="#666666" d="m27.055119 128.0l0 0c0 -11.219643 9.095318 -20.314964 20.31496 -20.314964l0 0c5.387863 0 10.555054 2.1403275 14.364845 5.950119c3.8097916 3.8097916 5.9501114 8.976982 5.9501114 14.364845l0 0c0 11.21965 -9.095314 20.314957 -20.314957 20.314957l0 0c-11.219643 0 -20.31496 -9.095306 -20.31496 -20.314957z" fill-rule="evenodd"/><path stroke="#666666" stroke-width="1.0" stroke-linejoin="round" stroke-linecap="butt" d="m27.055119 128.0l0 0c0 -11.219643 9.095318 -20.314964 20.31496 -20.314964l0 0c5.387863 0 10.555054 2.1403275 14.364845 5.950119c3.8097916 3.8097916 5.9501114 8.976982 5.9501114 14.364845l0 0c0 11.21965 -9.095314 20.314957 -20.314957 20.314957l0 0c-11.219643 0 -20.31496 -9.095306 -20.31496 -20.314957z" fill-rule="evenodd"/><path fill="#666666" d="m107.685036 128.0l0 0c0 -11.219643 9.095322 -20.314964 20.314964 -20.314964l0 0c5.387863 0 10.555054 2.1403275 14.364853 5.950119c3.809784 3.8097916 5.9501038 8.976982 5.9501038 14.364845l0 0c0 11.21965 -9.095306 20.314957 -20.314957 20.314957l0 0c-11.219643 0 -20.314964 -9.095306 -20.314964 -20.314957z" fill-rule="evenodd"/><path stroke="#666666" stroke-width="1.0" stroke-linejoin="round" stroke-linecap="butt" d="m107.685036 128.0l0 0c0 -11.219643 9.095322 -20.314964 20.314964 -20.314964l0 0c5.387863 0 10.555054 2.1403275 14.364853 5.950119c3.809784 3.8097916 5.9501038 8.976982 5.9501038 14.364845l0 0c0 11.21965 -9.095306 20.314957 -20.314957 20.314957l0 0c-11.219643 0 -20.314964 -9.095306 -20.314964 -20.314957z" fill-rule="evenodd"/><path fill="#666666" d="m188.31496 128.0l0 0c0 -11.219643 9.095322 -20.314964 20.314972 -20.314964l0 0c5.387848 0 10.555038 2.1403275 14.364838 5.950119c3.8097992 3.8097916 5.950119 8.976982 5.950119 14.364845l0 0c0 11.21965 -9.095322 20.314957 -20.314957 20.314957l0 0c-11.21965 0 -20.314972 -9.095306 -20.314972 -20.314957z" fill-rule="evenodd"/><path stroke="#666666" stroke-width="1.0" stroke-linejoin="round" stroke-linecap="butt" d="m188.31496 128.0l0 0c0 -11.219643 9.095322 -20.314964 20.314972 -20.314964l0 0c5.387848 0 10.555038 2.1403275 14.364838 5.950119c3.8097992 3.8097916 5.950119 8.976982 5.950119 14.364845l0 0c0 11.21965 -9.095322 20.314957 -20.314957 20.314957l0 0c-11.21965 0 -20.314972 -9.095306 -20.314972 -20.314957z" fill-rule="evenodd"/></g></svg>