<svg version="1.1" viewBox="0.0 0.0 256.0 256.0" fill="none" stroke="none" stroke-linecap="square" stroke-miterlimit="10" xmlns:xlink="http://www.w3.org/1999/xlink" xmlns="http://www.w3.org/2000/svg"><clipPath id="p.0"><path d="m0 0l256.0 0l0 256.0l-256.0 0l0 -256.0z" clip-rule="nonzero"/></clipPath><g clip-path="url(#p.0)"><path fill="#000000" fill-opacity="0.0" d="m0 0l256.0 0l0 256.0l-256.0 0z" fill-rule="evenodd"/><path fill="#ffffff" d="m16.346457 47.572025l0 0c0 -7.098652 5.754593 -12.853245 12.853243 -12.853245l197.60062 0c3.4088898 0 6.6781616 1.3541794 9.088608 3.7646294c2.4104462 2.41045 3.7646332 5.679722 3.7646332 9.088615l0 13.380127c0 7.098652 -5.754593 12.853245 -12.853241 12.853245l-197.60062 0c-7.09865 0 -12.853243 -5.754593 -12.853243 -12.853245z" fill-rule="evenodd"/><path stroke="#ffffff" stroke-width="1.0" stroke-linejoin="round" stroke-linecap="butt" d="m16.346457 47.572025l0 0c0 -7.098652 5.754593 -12.853245 12.853243 -12.853245l197.60062 0c3.4088898 0 6.6781616 1.3541794 9.088608 3.7646294c2.4104462 2.41045 3.7646332 5.679722 3.7646332 9.088615l0 13.380127c0 7.098652 -5.754593 12.853245 -12.853241 12.853245l-197.60062 0c-7.09865 0 -12.853243 -5.754593 -12.853243 -12.853245z" fill-rule="evenodd"/><path fill="#ffffff" d="m16.346457 121.30994l0 0c0 -7.098648 5.754593 -12.853241 12.853243 -12.853241l197.60062 0c3.4088898 0 6.6781616 1.3541718 9.088608 3.7646255c2.4104462 2.4104462 3.7646332 5.6797256 3.7646332 9.088615l0 13.380127c0 7.098648 -5.754593 12.853241 -12.853241 12.853241l-197.60062 0c-7.09865 0 -12.853243 -5.754593 -12.853243 -12.853241z" fill-rule="evenodd"/><path stroke="#ffffff" stroke-width="1.0" stroke-linejoin="round" stroke-linecap="butt" d="m16.346457 121.30994l0 0c0 -7.098648 5.754593 -12.853241 12.853243 -12.853241l197.60062 0c3.4088898 0 6.6781616 1.3541718 9.088608 3.7646255c2.4104462 2.4104462 3.7646332 5.6797256 3.7646332 9.088615l0 13.380127c0 7.098648 -5.754593 12.853241 -12.853241 12.853241l-197.60062 0c-7.09865 0 -12.853243 -5.754593 -12.853243 -12.853241z" fill-rule="evenodd"/><path fill="#ffffff" d="m16.346457 195.04785l0 0c0 -7.098648 5.754593 -12.853241 12.853243 -12.853241l197.60062 0c3.4088898 0 6.6781616 1.3541718 9.088608 3.764618c2.4104462 2.4104462 3.7646332 5.6797333 3.7646332 9.088623l0 13.380127c0 7.098648 -5.754593 12.853241 -12.853241 12.853241l-197.60062 0c-7.09865 0 -12.853243 -5.754593 -12.853243 -12.853241z" fill-rule="evenodd"/><path stroke="#ffffff" stroke-width="1.0" stroke-linejoin="round" stroke-linecap="butt" d="m16.346457 195.04785l0 0c0 -7.098648 5.754593 -12.853241 12.853243 -12.853241l197.60062 0c3.4088898 0 6.6781616 1.3541718 9.088608 3.764618c2.4104462 2.4104462 3.7646332 5.6797333 3.7646332 9.088623l0 13.380127c0 7.098648 -5.754593 12.853241 -12.853241 12.853241l-197.60062 0c-7.09865 0 -12.853243 -5.754593 -12.853243 -12.853241z" fill-rule="evenodd"/></g></svg>