<svg version="1.1" viewBox="0.0 0.0 256.0 256.0" fill="none" stroke="none" stroke-linecap="square" stroke-miterlimit="10" xmlns:xlink="http://www.w3.org/1999/xlink" xmlns="http://www.w3.org/2000/svg"><clipPath id="p.0"><path d="m0 0l256.0 0l0 256.0l-256.0 0l0 -256.0z" clip-rule="nonzero"/></clipPath><g clip-path="url(#p.0)"><path fill="#b7b7b7" d="m0 0l256.0 0l0 256.0l-256.0 0z" fill-rule="evenodd"/><path fill="#666666" d="m61.866142 50.882027l0 0c0 -3.739956 3.0318298 -6.7717896 6.7717896 -6.7717896l27.086342 0l0 0c1.79599 0 3.518425 0.7134552 4.788376 1.9834099c1.2699585 1.2699585 1.9834137 2.9923897 1.9834137 4.7883797l0 154.23596c0 3.7399445 -3.0318298 6.7717896 -6.7717896 6.7717896l-27.086342 0c-3.7399597 0 -6.7717896 -3.031845 -6.7717896 -6.7717896z" fill-rule="evenodd"/><path stroke="#666666" stroke-width="1.0" stroke-linejoin="round" stroke-linecap="butt" d="m61.866142 50.882027l0 0c0 -3.739956 3.0318298 -6.7717896 6.7717896 -6.7717896l27.086342 0l0 0c1.79599 0 3.518425 0.7134552 4.788376 1.9834099c1.2699585 1.2699585 1.9834137 2.9923897 1.9834137 4.7883797l0 154.23596c0 3.7399445 -3.0318298 6.7717896 -6.7717896 6.7717896l-27.086342 0c-3.7399597 0 -6.7717896 -3.031845 -6.7717896 -6.7717896z" fill-rule="evenodd"/><path fill="#666666" d="m153.50394 50.882027l0 0c0 -3.739956 3.0318298 -6.7717896 6.7717896 -6.7717896l27.08635 0l0 0c1.79599 0 3.5184174 0.7134552 4.788376 1.9834099c1.2699585 1.2699585 1.9834137 2.9923897 1.9834137 4.7883797l0 154.23596c0 3.7399445 -3.031845 6.7717896 -6.7717896 6.7717896l-27.08635 0c-3.7399597 0 -6.7717896 -3.031845 -6.7717896 -6.7717896z" fill-rule="evenodd"/><path stroke="#666666" stroke-width="1.0" stroke-linejoin="round" stroke-linecap="butt" d="m153.50394 50.882027l0 0c0 -3.739956 3.0318298 -6.7717896 6.7717896 -6.7717896l27.08635 0l0 0c1.79599 0 3.5184174 0.7134552 4.788376 1.9834099c1.2699585 1.2699585 1.9834137 2.9923897 1.9834137 4.7883797l0 154.23596c0 3.7399445 -3.031845 6.7717896 -6.7717896 6.7717896l-27.08635 0c-3.7399597 0 -6.7717896 -3.031845 -6.7717896 -6.7717896z" fill-rule="evenodd"/></g></svg>