<svg version="1.1" viewBox="0.0 0.0 200.0 200.0" fill="none" stroke="none" stroke-linecap="square" stroke-miterlimit="10" xmlns:xlink="http://www.w3.org/1999/xlink" xmlns="http://www.w3.org/2000/svg"><clipPath id="p.0"><path d="m0 0l200.0 0l0 200.0l-200.0 0l0 -200.0z" clip-rule="nonzero"/></clipPath><g clip-path="url(#p.0)"><path fill="#000000" fill-opacity="0.0" d="m0 0l200.0 0l0 200.0l-200.0 0z" fill-rule="evenodd"/><path fill="#bf9000" d="m0.69816273 161.63745l198.89763 0l0 38.362198l-198.89763 0z" fill-rule="evenodd"/><path stroke="#bf9000" stroke-width="1.0" stroke-linejoin="round" stroke-linecap="butt" d="m0.69816273 161.63745l198.89763 0l0 38.362198l-198.89763 0z" fill-rule="evenodd"/><path fill="#7f6000" d="m0 196.33089l0.25396955 -7.364029l75.201096 1.4237518l21.460152 1.4797668l14.55349 -1.7266693l32.066513 -1.9730225l55.998383 0.7874756l0 7.4140625l-54.76497 -3.0215302l-31.573257 2.466278l-24.173332 0.49325562l-18.746979 -1.4797668l-17.266666 2.9600677l-19.486591 0z" fill-rule="evenodd"/><path fill="#bf9000" d="m0.27689502 0l198.89763 0l0 26.96063l-198.89763 0z" fill-rule="evenodd"/><path stroke="#bf9000" stroke-width="1.0" stroke-linejoin="round" stroke-linecap="butt" d="m0.27689502 0l198.89763 0l0 26.96063l-198.89763 0z" fill-rule="evenodd"/><path fill="#000000" d="m-196.5958 -160.98294l0 0c0 -5.9142303 4.7944183 -10.708664 10.708649 -10.708664l0 0c2.8401184 0 5.563904 1.1282349 7.572174 3.1365051c2.0082703 2.008255 3.1364899 4.7320404 3.1364899 7.572159l0 0c0 5.9142303 -4.7944336 10.708664 -10.708664 10.708664l0 0c-5.9142303 0 -10.708649 -4.7944336 -10.708649 -10.708664z" fill-rule="evenodd"/><path stroke="#000000" stroke-width="1.0" stroke-linejoin="round" stroke-linecap="butt" d="m-196.5958 -160.98294l0 0c0 -5.9142303 4.7944183 -10.708664 10.708649 -10.708664l0 0c2.8401184 0 5.563904 1.1282349 7.572174 3.1365051c2.0082703 2.008255 3.1364899 4.7320404 3.1364899 7.572159l0 0c0 5.9142303 -4.7944336 10.708664 -10.708664 10.708664l0 0c-5.9142303 0 -10.708649 -4.7944336 -10.708649 -10.708664z" fill-rule="evenodd"/><path fill="#bf9000" d="m-765.7244 359.83597l960.0 0l0 133.29132l-960.0 0z" fill-rule="evenodd"/><path stroke="#bf9000" stroke-width="1.0" stroke-linejoin="round" stroke-linecap="butt" d="m-765.7244 359.83597l960.0 0l0 133.29132l-960.0 0z" fill-rule="evenodd"/><path fill="#7f6000" d="m-736.063 408.00525l113.09711 -23.811035l217.85565 -3.5118103l103.572174 7.141754l70.238846 -8.3333435l154.76115 -9.522308l96.42782 -2.4409485l125.00001 38.097107l-215.47507 -10.656158l-152.38058 11.902893l-116.66666 2.3805847l-90.47769 -7.141754l-83.33331 14.286102l-94.04724 0z" fill-rule="evenodd"/><path fill="#7f6000" d="m-737.25195 465.14697l97.619385 -23.80838l119.04724 10.771637l52.380615 -3.5695496l50.0 15.475067l34.524933 -16.666656l57.141724 0l33.333344 -13.094482l65.47768 2.3805542l44.04724 8.3333435l65.47507 -8.3333435l39.286095 -16.666656l71.42782 10.713898l72.61942 -7.1417236l53.57218 7.0839844l36.902878 17.855652l-76.18897 23.811035l-78.572174 -23.750671l-36.902885 8.3333435l-64.28609 2.3805847l-65.477684 10.713898l-64.28609 -11.905518l-54.76117 2.3805847l-32.141724 11.905518l-60.713898 0l-57.14438 7.144348l-67.85562 -3.572174l-73.811066 -8.3333435l-76.19159 9.464569z" fill-rule="evenodd"/><path fill="#7f6000" d="m-0.13954042 10.692245l0.25396955 -7.36403l75.201096 1.4237521l21.460152 1.4797673l14.55349 -1.7266669l32.066513 -1.9730225l55.998383 0.7874687l0 7.4140625l-54.76497 -3.021531l-31.573257 2.466278l-24.173332 0.49325562l-18.746979 -1.4797668l-17.266666 2.9600782l-19.486588 0z" fill-rule="evenodd"/><path fill="#7f6000" d="m0.08533202 21.438225l0.19795485 -4.9526787l49.470222 2.1611881l10.576447 -0.72112083l10.096245 3.1270332l6.970833 -3.3679504l11.537941 0l6.7304688 -2.646287l13.2211 0.48129082l8.893829 1.6837053l13.220558 -1.6837053l7.9323273 -3.3679514l14.422424 2.1649952l14.663345 -1.4433298l31.586304 3.6159391l-0.025558472 4.934187l-19.7547 2.3363037l-24.786774 -5.8342304l-7.4510345 1.6837044l-12.980728 0.48129082l-13.220558 2.1649952l-12.980728 -2.4059124l-11.05719 0.48129082l-6.490097 2.4059124l-12.259056 0l-11.537941 1.4438744l-13.701305 -0.722208l-14.903717 -1.6837044l-15.308872 1.8430462z" fill-rule="evenodd"/><path fill="#bf9000" d="m-652.42334 42.842518l439.5276 0l0 59.52756l-439.5276 0z" fill-rule="evenodd"/><path stroke="#bf9000" stroke-width="1.0" stroke-linejoin="round" stroke-linecap="butt" d="m-652.42334 42.842518l439.5276 0l0 59.52756l-439.5276 0z" fill-rule="evenodd"/><path fill="#7f6000" d="m-653.3435 66.46703l0.5611572 -16.270527l166.15378 3.1457253l47.415344 3.2694855l32.155334 -3.8150024l70.84964 -4.359314l123.726166 1.7398834l0 16.381065l-121.00098 -6.675949l-69.75983 5.4491425l-53.410004 1.0898285l-41.420685 -3.2694855l-38.149994 6.5401764l-43.05487 0z" fill-rule="evenodd"/><path fill="#7f6000" d="m-652.8466 90.21148l0.43737793 -10.942741l109.30249 4.7750626l23.368225 -1.5932922l22.30722 6.9090576l15.401794 -7.441353l25.492584 0l14.870697 -5.846863l29.211487 1.0633926l19.650543 3.7200775l29.210297 -3.7200775l17.526184 -7.441353l31.865753 4.78347l32.39807 -3.18898l69.78865 7.989273l-0.05647278 10.901886l-43.6472 5.1619644l-54.765366 -12.890495l-16.4628 3.7200775l-28.68039 1.0633926l-29.210266 4.78347l-28.68039 -5.3157654l-24.43042 1.0633926l-14.3396 5.3157654l-27.085907 0l-25.492615 3.190178l-30.272491 -1.5956879l-32.92914 -3.7200775l-33.82434 4.072136z" fill-rule="evenodd"/><path fill="#bf9000" d="m0.38914567 26.940058l198.89764 0l0 26.96063l-198.89764 0z" fill-rule="evenodd"/><path stroke="#bf9000" stroke-width="1.0" stroke-linejoin="round" stroke-linecap="butt" d="m0.38914567 26.940058l198.89764 0l0 26.96063l-198.89764 0z" fill-rule="evenodd"/><path fill="#7f6000" d="m-0.027289763 37.6323l0.25396955 -7.364029l75.201096 1.4237518l21.460152 1.4797668l14.55349 -1.7266674l32.06652 -1.9730225l55.998383 0.78746986l0 7.4140625l-54.764984 -3.0215302l-31.57325 2.466278l-24.173332 0.49325562l-18.746979 -1.4797668l-17.266666 2.9600754l-19.486591 0z" fill-rule="evenodd"/><path fill="#7f6000" d="m0.19758268 48.37828l0.19795485 -4.9526787l49.470222 2.16119l10.576447 -0.72112274l10.096237 3.127037l6.9708405 -3.3679543l11.537941 0l6.7304688 -2.646286l13.2211 0.48129272l8.893829 1.6837044l13.220551 -1.6837044l7.9323425 -3.3679543l14.422424 2.164997l14.663345 -1.4433289l31.586304 3.6159363l-0.025558472 4.934189l-19.7547 2.3363037l-24.786774 -5.8342323l-7.45105 1.6837044l-12.980728 0.48129272l-13.220551 2.1649933l-12.980728 -2.4059105l-11.05719 0.4812889l-6.490097 2.4059143l-12.259056 0l-11.537941 1.4438744l-13.701305 -0.72220993l-14.903717 -1.6837044l-15.308872 1.8430481z" fill-rule="evenodd"/><path fill="#bf9000" d="m0.44556797 53.880116l198.89763 0l0 26.960629l-198.89763 0z" fill-rule="evenodd"/><path stroke="#bf9000" stroke-width="1.0" stroke-linejoin="round" stroke-linecap="butt" d="m0.44556797 53.880116l198.89763 0l0 26.960629l-198.89763 0z" fill-rule="evenodd"/><path fill="#7f6000" d="m0.029132547 64.57236l0.25396955 -7.364029l75.20109 1.4237518l21.46016 1.4797668l14.55349 -1.7266655l32.066505 -1.9730225l55.998383 0.78746796l0 7.4140663l-54.76497 -3.021534l-31.573257 2.4662743l-24.173332 0.49325562l-18.746979 -1.479763l-17.266663 2.9600792l-19.486591 0z" fill-rule="evenodd"/><path fill="#7f6000" d="m0.25400499 75.31834l0.19795486 -4.952675l49.470222 2.1611862l10.576443 -0.72112274l10.096245 3.127037l6.9708405 -3.3679504l11.537933 0l6.7304688 -2.646286l13.2211 0.4812851l8.893829 1.6837082l13.220558 -1.6837082l7.9323273 -3.3679504l14.422424 2.165001l14.663345 -1.4433365l31.586304 3.615944l-0.025558472 4.934189l-19.7547 2.336296l-24.786774 -5.8342285l-7.4510345 1.6837082l-12.980728 0.48129272l-13.220558 2.1649933l-12.980728 -2.4059143l-11.05719 0.48129272l-6.4900894 2.4059143l-12.259064 0l-11.537941 1.4438705l-13.701305 -0.7222061l-14.903713 -1.6837082l-15.308872 1.8430481z" fill-rule="evenodd"/><path fill="#bf9000" d="m0.55781865 80.82017l198.89764 0l0 26.960632l-198.89764 0z" fill-rule="evenodd"/><path stroke="#bf9000" stroke-width="1.0" stroke-linejoin="round" stroke-linecap="butt" d="m0.55781865 80.82017l198.89764 0l0 26.960632l-198.89764 0z" fill-rule="evenodd"/><path fill="#7f6000" d="m0.1413832 91.51241l0.25396955 -7.364029l75.20109 1.4237518l21.46016 1.4797668l14.55349 -1.7266617l32.066513 -1.9730225l55.998383 0.78746796l0 7.4140625l-54.764984 -3.0215302l-31.57325 2.466278l-24.173332 0.49325562l-18.746979 -1.4797668l-17.266666 2.9600754l-19.486588 0z" fill-rule="evenodd"/><path fill="#7f6000" d="m0.36625564 102.25839l0.19795483 -4.952675l49.470226 2.1611862l10.576443 -0.72112274l10.096245 3.127037l6.9708405 -3.3679504l11.537933 0l6.7304688 -2.646286l13.2211 0.48129272l8.893829 1.6837006l13.220551 -1.6837006l7.9323425 -3.367958l14.422424 2.165001l14.663345 -1.4433289l31.586304 3.6159363l-0.025558472 4.934189l-19.7547 2.3363037l-24.786774 -5.834236l-7.45105 1.6837082l-12.980728 0.48129272l-13.220551 2.1649933l-12.980728 -2.4059143l-11.05719 0.48129272l-6.4900894 2.4059143l-12.259064 0l-11.537941 1.4438705l-13.701305 -0.7222061l-14.903717 -1.6837082l-15.30887 1.8430481z" fill-rule="evenodd"/><path fill="#bf9000" d="m0.53017586 107.75853l198.89763 0l0 26.960632l-198.89763 0z" fill-rule="evenodd"/><path stroke="#bf9000" stroke-width="1.0" stroke-linejoin="round" stroke-linecap="butt" d="m0.53017586 107.75853l198.89763 0l0 26.960632l-198.89763 0z" fill-rule="evenodd"/><path fill="#7f6000" d="m0.11374042 118.450775l0.25396955 -7.364029l75.201096 1.4237518l21.460152 1.4797668l14.55349 -1.7266693l32.066513 -1.9730225l55.998383 0.78746796l0 7.4140625l-54.76497 -3.0215302l-31.573257 2.466278l-24.173332 0.49325562l-18.746979 -1.4797668l-17.266666 2.960083l-19.486588 0z" fill-rule="evenodd"/><path fill="#7f6000" d="m0.33861285 129.19676l0.19795483 -4.9526825l49.470222 2.1611862l10.576447 -0.72112274l10.096245 3.1270294l6.970833 -3.3679428l11.537941 0l6.7304688 -2.6462936l13.2211 0.48129272l8.893829 1.6837082l13.220558 -1.6837082l7.9323273 -3.3679504l14.422424 2.1649933l14.663345 -1.4433289l31.586304 3.615944l-0.025558472 4.934181l-19.7547 2.3363037l-24.786774 -5.8342285l-7.4510345 1.6837082l-12.980728 0.4812851l-13.220558 2.1649933l-12.980728 -2.4059067l-11.05719 0.4812851l-6.490097 2.4059143l-12.259056 0l-11.537941 1.4438782l-13.701305 -0.72221375l-14.903717 -1.6837006l-15.30887 1.8430481z" fill-rule="evenodd"/><path fill="#bf9000" d="m0.6424265 134.6986l198.89764 0l0 26.960617l-198.89764 0z" fill-rule="evenodd"/><path stroke="#bf9000" stroke-width="1.0" stroke-linejoin="round" stroke-linecap="butt" d="m0.6424265 134.6986l198.89764 0l0 26.960617l-198.89764 0z" fill-rule="evenodd"/><path fill="#7f6000" d="m0.22599107 145.39084l0.25396955 -7.364029l75.201096 1.4237518l21.460152 1.4797668l14.55349 -1.7266693l32.06652 -1.9730225l55.998383 0.7874603l0 7.4140625l-54.764984 -3.0215302l-31.57325 2.466278l-24.173332 0.49325562l-18.746979 -1.4797668l-17.266666 2.960083l-19.486591 0z" fill-rule="evenodd"/><path fill="#7f6000" d="m0.4508635 156.13681l0.19795486 -4.9526825l49.470222 2.1611938l10.576447 -0.7211151l10.096237 3.1270294l6.9708405 -3.3679504l11.537941 0l6.7304688 -2.646286l13.2211 0.48129272l8.893829 1.6837006l13.220551 -1.6837006l7.9323425 -3.3679504l14.422424 2.1649933l14.663345 -1.4433289l31.586304 3.6159363l-0.025558472 4.934189l-19.7547 2.3363037l-24.786774 -5.8342285l-7.45105 1.6837006l-12.980728 0.48129272l-13.220551 2.1649933l-12.980728 -2.4059143l-11.05719 0.48129272l-6.490097 2.4059143l-12.259056 0l-11.537941 1.4438782l-13.701305 -0.72221375l-14.903717 -1.6837006l-15.308872 1.8430481z" fill-rule="evenodd"/><path fill="#7f6000" d="m0.2824134 172.33089l0.25396952 -7.364029l75.20109 1.4237518l21.46016 1.4797668l14.55349 -1.7266693l32.066505 -1.9730225l55.998383 0.7874756l0 7.4140625l-54.76497 -3.0215302l-31.573257 2.466278l-24.173332 0.49325562l-18.746979 -1.4797668l-17.266663 2.9600677l-19.486591 0z" fill-rule="evenodd"/><path fill="#7f6000" d="m0.50728583 183.07687l0.19795483 -4.9526825l49.470222 2.1611938l10.576447 -0.7211304l10.096241 3.1270294l6.9708405 -3.3679504l11.537941 0l6.730461 -2.646286l13.2211 0.48129272l8.893829 1.6837006l13.220558 -1.6837006l7.9323273 -3.3679504l14.422424 2.1649933l14.663345 -1.4433289l31.586304 3.6159363l-0.025558472 4.934189l-19.7547 2.3363037l-24.786774 -5.8342285l-7.4510345 1.6837006l-12.980728 0.48129272l-13.220558 2.1649933l-12.980728 -2.405899l-11.05719 0.48127747l-6.4900894 2.4059143l-12.259064 0l-11.537941 1.4438782l-13.701302 -0.72221375l-14.903717 -1.6837006l-15.308872 1.8430481z" fill-rule="evenodd"/><path fill="#000000" d="m8.0 14.015748l0 0c0 -3.3224058 2.6933422 -6.015748 6.015748 -6.015748l0 0c1.5954752 0 3.1256056 0.6338005 4.2537756 1.7619715c1.1281719 1.1281719 1.7619724 2.6583014 1.7619724 4.2537766l0 0c0 3.3224058 -2.6933422 6.015748 -6.015748 6.015748l0 0c-3.3224058 0 -6.015748 -2.6933422 -6.015748 -6.015748z" fill-rule="evenodd"/><path stroke="#000000" stroke-width="1.0" stroke-linejoin="round" stroke-linecap="butt" d="m8.0 14.015748l0 0c0 -3.3224058 2.6933422 -6.015748 6.015748 -6.015748l0 0c1.5954752 0 3.1256056 0.6338005 4.2537756 1.7619715c1.1281719 1.1281719 1.7619724 2.6583014 1.7619724 4.2537766l0 0c0 3.3224058 -2.6933422 6.015748 -6.015748 6.015748l0 0c-3.3224058 0 -6.015748 -2.6933422 -6.015748 -6.015748z" fill-rule="evenodd"/><path fill="#000000" d="m180.07874 14.136483l0 0c0 -3.3224058 2.693344 -6.015748 6.015747 -6.015748l0 0c1.5954742 0 3.1256104 0.63379955 4.253784 1.7619715c1.1281738 1.1281719 1.7619629 2.6583004 1.7619629 4.2537766l0 0c0 3.3224058 -2.6933289 6.015748 -6.015747 6.015748l0 0c-3.322403 0 -6.015747 -2.6933422 -6.015747 -6.015748z" fill-rule="evenodd"/><path stroke="#000000" stroke-width="1.0" stroke-linejoin="round" stroke-linecap="butt" d="m180.07874 14.136483l0 0c0 -3.3224058 2.693344 -6.015748 6.015747 -6.015748l0 0c1.5954742 0 3.1256104 0.63379955 4.253784 1.7619715c1.1281738 1.1281719 1.7619629 2.6583004 1.7619629 4.2537766l0 0c0 3.3224058 -2.6933289 6.015748 -6.015747 6.015748l0 0c-3.322403 0 -6.015747 -2.6933422 -6.015747 -6.015748z" fill-rule="evenodd"/><path fill="#000000" d="m8.0 185.98294l0 0c0 -3.322403 2.6933422 -6.015747 6.015748 -6.015747l0 0c1.5954752 0 3.1256056 0.6338043 4.2537756 1.7619629c1.1281719 1.1281738 1.7619724 2.65831 1.7619724 4.253784l0 0c0 3.322403 -2.6933422 6.015747 -6.015748 6.015747l0 0c-3.3224058 0 -6.015748 -2.693344 -6.015748 -6.015747z" fill-rule="evenodd"/><path stroke="#000000" stroke-width="1.0" stroke-linejoin="round" stroke-linecap="butt" d="m8.0 185.98294l0 0c0 -3.322403 2.6933422 -6.015747 6.015748 -6.015747l0 0c1.5954752 0 3.1256056 0.6338043 4.2537756 1.7619629c1.1281719 1.1281738 1.7619724 2.65831 1.7619724 4.253784l0 0c0 3.322403 -2.6933422 6.015747 -6.015748 6.015747l0 0c-3.3224058 0 -6.015748 -2.693344 -6.015748 -6.015747z" fill-rule="evenodd"/><path fill="#000000" d="m179.99475 186.17575l0 0c0 -3.322403 2.693344 -6.015747 6.015747 -6.015747l0 0c1.5954742 0 3.1256104 0.63378906 4.253784 1.7619629c1.1281586 1.1281738 1.7619629 2.65831 1.7619629 4.253784l0 0c0 3.322403 -2.693344 6.015747 -6.015747 6.015747l0 0c-3.322403 0 -6.015747 -2.693344 -6.015747 -6.015747z" fill-rule="evenodd"/><path stroke="#000000" stroke-width="1.0" stroke-linejoin="round" stroke-linecap="butt" d="m179.99475 186.17575l0 0c0 -3.322403 2.693344 -6.015747 6.015747 -6.015747l0 0c1.5954742 0 3.1256104 0.63378906 4.253784 1.7619629c1.1281586 1.1281738 1.7619629 2.65831 1.7619629 4.253784l0 0c0 3.322403 -2.693344 6.015747 -6.015747 6.015747l0 0c-3.322403 0 -6.015747 -2.693344 -6.015747 -6.015747z" fill-rule="evenodd"/></g></svg>