<svg version="1.1" viewBox="0.0 0.0 960.0 130.0" fill="none" stroke="none" stroke-linecap="square" stroke-miterlimit="10" xmlns:xlink="http://www.w3.org/1999/xlink" xmlns="http://www.w3.org/2000/svg"><clipPath id="p.0"><path d="m0 0l960.0 0l0 130.0l-960.0 0l0 -130.0z" clip-rule="nonzero"/></clipPath><g clip-path="url(#p.0)"><path fill="#000000" fill-opacity="0.0" d="m0 0l960.0 0l0 130.0l-960.0 0z" fill-rule="evenodd"/><path fill="#bf9000" d="m0 -0.007874016l960.0 0l0 130.01575l-960.0 0z" fill-rule="evenodd"/><path stroke="#bf9000" stroke-width="1.0" stroke-linejoin="round" stroke-linecap="butt" d="m0 -0.007874016l960.0 0l0 130.01575l-960.0 0z" fill-rule="evenodd"/><path fill="#000000" d="m-212.5958 -176.98294l0 0c0 -5.9142303 4.7944183 -10.708664 10.708649 -10.708664l0 0c2.8401184 0 5.563904 1.1282349 7.572174 3.1365051c2.0082703 2.008255 3.1364899 4.7320404 3.1364899 7.572159l0 0c0 5.9142303 -4.7944336 10.708664 -10.708664 10.708664l0 0c-5.9142303 0 -10.708649 -4.7944336 -10.708649 -10.708664z" fill-rule="evenodd"/><path stroke="#000000" stroke-width="1.0" stroke-linejoin="round" stroke-linecap="butt" d="m-212.5958 -176.98294l0 0c0 -5.9142303 4.7944183 -10.708664 10.708649 -10.708664l0 0c2.8401184 0 5.563904 1.1282349 7.572174 3.1365051c2.0082703 2.008255 3.1364899 4.7320404 3.1364899 7.572159l0 0c0 5.9142303 -4.7944336 10.708664 -10.708664 10.708664l0 0c-5.9142303 0 -10.708649 -4.7944336 -10.708649 -10.708664z" fill-rule="evenodd"/><path fill="#bf9000" d="m-781.7244 343.83597l960.0 0l0 133.29132l-960.0 0z" fill-rule="evenodd"/><path stroke="#bf9000" stroke-width="1.0" stroke-linejoin="round" stroke-linecap="butt" d="m-781.7244 343.83597l960.0 0l0 133.29132l-960.0 0z" fill-rule="evenodd"/><path fill="#7f6000" d="m-752.063 392.00525l113.09711 -23.811035l217.85565 -3.5118103l103.572174 7.141754l70.238846 -8.3333435l154.76115 -9.522308l96.42782 -2.4409485l125.00001 38.097107l-215.47507 -10.656158l-152.38058 11.902893l-116.66666 2.3805847l-90.47769 -7.141754l-83.33331 14.286102l-94.04724 0z" fill-rule="evenodd"/><path fill="#7f6000" d="m-753.25195 449.14697l97.619385 -23.80838l119.04724 10.771637l52.380615 -3.5695496l50.0 15.475067l34.524933 -16.666656l57.141724 0l33.333344 -13.094482l65.47768 2.3805542l44.04724 8.3333435l65.47507 -8.3333435l39.286095 -16.666656l71.42782 10.713898l72.61942 -7.1417236l53.57218 7.0839844l36.902878 17.855652l-76.188965 23.811035l-78.57218 -23.750671l-36.902885 8.3333435l-64.28609 2.3805847l-65.477684 10.713898l-64.28609 -11.905518l-54.76117 2.3805847l-32.141724 11.905518l-60.713898 0l-57.14438 7.144348l-67.85565 -3.572174l-73.811035 -8.3333435l-76.19159 9.464569z" fill-rule="evenodd"/><path fill="#7f6000" d="m-2.0098426 51.595802l1.2257218 -35.540684l362.93964 6.8713913l103.572174 7.1417313l70.23886 -8.333332l154.76111 -9.52231l270.2625 3.8005238l0 35.782154l-264.30975 -14.58268l-152.38055 11.902889l-116.66666 2.380577l-90.47769 -7.1417313l-83.33334 14.286087l-94.04724 0z" fill-rule="evenodd"/><path fill="#7f6000" d="m-0.9245407 103.45932l0.9553806 -23.902893l238.7559 10.43045l51.044617 -3.4803162l48.72705 15.091866l33.643036 -16.254593l55.685028 0l32.48294 -12.771652l63.80838 2.3228302l42.92389 8.125984l63.805786 -8.125984l38.283447 -16.254593l69.60632 10.448822l70.76904 -6.9658813l152.44354 17.451447l-0.12335205 23.813644l-95.34119 11.275589l-119.62732 -28.157478l-35.960632 8.125984l-62.648254 2.3228378l-63.805786 10.448814l-62.648315 -11.611549l-53.364838 2.3228378l-31.322815 11.611549l-59.165344 0l-55.68506 6.968506l-66.12598 -3.4855652l-71.92914 -8.125984l-73.884514 8.895012z" fill-rule="evenodd"/></g></svg>