<svg version="1.1" viewBox="0.0 0.0 750.0 500.0" fill="none" stroke="none" stroke-linecap="square" stroke-miterlimit="10" xmlns:xlink="http://www.w3.org/1999/xlink" xmlns="http://www.w3.org/2000/svg"><clipPath id="p.0"><path d="m0 0l750.0 0l0 500.0l-750.0 0l0 -500.0z" clip-rule="nonzero"/></clipPath><g clip-path="url(#p.0)"><path fill="#ffd966" d="m0 0l750.0 0l0 500.0l-750.0 0z" fill-rule="evenodd"/><g filter="url(#shadowFilter-p.1)"><use xlink:href="#p.1" transform="matrix(1.0 0.0 0.0 1.0 0.0 42.0)"/></g><defs><filter id="shadowFilter-p.1" filterUnits="userSpaceOnUse"><feGaussianBlur in="SourceAlpha" stdDeviation="9.5" result="blur"/><feComponentTransfer in="blur" color-interpolation-filters="sRGB"><feFuncR type="linear" slope="0" intercept="0.0"/><feFuncG type="linear" slope="0" intercept="0.0"/><feFuncB type="linear" slope="0" intercept="0.0"/><feFuncA type="linear" slope="0.18" intercept="0"/></feComponentTransfer></filter></defs><g id="p.1"><path fill="#ffdc72" d="m362.6048 379.2037l27.94635 0l0 15.902679l27.93872 0l0 33.622955l-55.88507 0z" fill-rule="evenodd"/></g><g filter="url(#shadowFilter-p.2)"><use xlink:href="#p.2" transform="matrix(1.0 0.0 0.0 1.0 0.0 2.0)"/></g><defs><filter id="shadowFilter-p.2" filterUnits="userSpaceOnUse"><feGaussianBlur in="SourceAlpha" stdDeviation="2.0" result="blur"/><feComponentTransfer in="blur" color-interpolation-filters="sRGB"><feFuncR type="linear" slope="0" intercept="0.0"/><feFuncG type="linear" slope="0" intercept="0.0"/><feFuncB type="linear" slope="0" intercept="0.0"/><feFuncA type="linear" slope="0.5" intercept="0"/></feComponentTransfer></filter></defs><g id="p.2"><path fill="#d5a411" d="m363.02756 332.84946l0 0c0 -2.6410828 2.1410217 -4.782135 4.782135 -4.782135l19.128021 0l0 0c1.2683105 0 2.4846802 0.5038147 3.3815002 1.4006653c0.89682007 0.89682007 1.4006653 2.1131897 1.4006653 3.3814697l0 45.24887c0 2.6411133 -2.1410522 4.7821655 -4.7821655 4.7821655l-19.128021 0c-2.6411133 0 -4.782135 -2.1410522 -4.782135 -4.7821655z" fill-rule="evenodd"/></g><g filter="url(#shadowFilter-p.3)"><use xlink:href="#p.3" transform="matrix(1.0 0.0 0.0 1.0 0.0 2.0)"/></g><defs><filter id="shadowFilter-p.3" filterUnits="userSpaceOnUse"><feGaussianBlur in="SourceAlpha" stdDeviation="2.0" result="blur"/><feComponentTransfer in="blur" color-interpolation-filters="sRGB"><feFuncR type="linear" slope="0" intercept="0.0"/><feFuncG type="linear" slope="0" intercept="0.0"/><feFuncB type="linear" slope="0" intercept="0.0"/><feFuncA type="linear" slope="0.5" intercept="0"/></feComponentTransfer></filter></defs><g id="p.3"><path fill="#808080" d="m356.65686 377.32193l0 0c0 -0.8417969 0.6824341 -1.524231 1.524231 -1.524231l38.385284 0c0.40423584 0 0.79193115 0.1605835 1.0777893 0.44644165c0.28585815 0.28585815 0.44644165 0.67352295 0.44644165 1.0777893l0 6.0967407c0 0.8417969 -0.6824341 1.524231 -1.524231 1.524231l-38.385284 0c-0.8417969 0 -1.524231 -0.6824341 -1.524231 -1.524231z" fill-rule="evenodd"/></g><g filter="url(#shadowFilter-p.4)"><use xlink:href="#p.4" transform="matrix(1.0 0.0 0.0 1.0 0.0 2.0)"/></g><defs><filter id="shadowFilter-p.4" filterUnits="userSpaceOnUse"><feGaussianBlur in="SourceAlpha" stdDeviation="2.0" result="blur"/><feComponentTransfer in="blur" color-interpolation-filters="sRGB"><feFuncR type="linear" slope="0" intercept="0.0"/><feFuncG type="linear" slope="0" intercept="0.0"/><feFuncB type="linear" slope="0" intercept="0.0"/><feFuncA type="linear" slope="0.5" intercept="0"/></feComponentTransfer></filter></defs><g id="p.4"><path fill="#4f4f4f" d="m364.13666 431.56253l52.828094 0c0.40423584 0 0.79193115 -0.1605835 1.0777893 -0.44644165c0.28585815 -0.28582764 0.44644165 -0.67352295 0.44644165 -1.0777893l0 -7.620941c0 -2.746582E-4 -2.1362305E-4 -4.8828125E-4 -4.8828125E-4 -4.8828125E-4l-55.87607 4.8828125E-4l0 0c-2.746582E-4 0 -4.8828125E-4 1.8310547E-4 -4.8828125E-4 4.5776367E-4l4.8828125E-4 7.6204834l0 0c0 0.8418274 0.68240356 1.524231 1.524231 1.524231z" fill-rule="evenodd"/></g><g filter="url(#shadowFilter-p.5)"><use xlink:href="#p.5" transform="matrix(1.0 0.0 0.0 1.0 0.0 42.0)"/></g><defs><filter id="shadowFilter-p.5" filterUnits="userSpaceOnUse"><feGaussianBlur in="SourceAlpha" stdDeviation="9.5" result="blur"/><feComponentTransfer in="blur" color-interpolation-filters="sRGB"><feFuncR type="linear" slope="0" intercept="0.0"/><feFuncG type="linear" slope="0" intercept="0.0"/><feFuncB type="linear" slope="0" intercept="0.0"/><feFuncA type="linear" slope="0.18" intercept="0"/></feComponentTransfer></filter></defs><g id="p.5"><path fill="#ffe599" d="m351.7408 382.1089l27.94632 0l0 15.90271l27.938751 0l0 33.622955l-55.88507 0z" fill-rule="evenodd"/></g><g filter="url(#shadowFilter-p.6)"><use xlink:href="#p.6" transform="matrix(1.0 0.0 0.0 1.0 0.0 2.0)"/></g><defs><filter id="shadowFilter-p.6" filterUnits="userSpaceOnUse"><feGaussianBlur in="SourceAlpha" stdDeviation="2.0" result="blur"/><feComponentTransfer in="blur" color-interpolation-filters="sRGB"><feFuncR type="linear" slope="0" intercept="0.0"/><feFuncG type="linear" slope="0" intercept="0.0"/><feFuncB type="linear" slope="0" intercept="0.0"/><feFuncA type="linear" slope="0.5" intercept="0"/></feComponentTransfer></filter></defs><g id="p.6"><path fill="#f1c232" d="m352.16354 334.17575l0 0c0 -2.6411133 2.1410522 -4.782135 4.7821655 -4.782135l19.128021 0l0 0c1.26828 0 2.4846497 0.5038147 3.3814697 1.4006348c0.8968506 0.8968506 1.4006653 2.1131897 1.4006653 3.3815002l0 45.24887c0 2.6411133 -2.1410522 4.782135 -4.782135 4.782135l-19.128021 0c-2.6411133 0 -4.7821655 -2.1410217 -4.7821655 -4.782135z" fill-rule="evenodd"/></g><g filter="url(#shadowFilter-p.7)"><use xlink:href="#p.7" transform="matrix(1.0 0.0 0.0 1.0 0.0 2.0)"/></g><defs><filter id="shadowFilter-p.7" filterUnits="userSpaceOnUse"><feGaussianBlur in="SourceAlpha" stdDeviation="2.0" result="blur"/><feComponentTransfer in="blur" color-interpolation-filters="sRGB"><feFuncR type="linear" slope="0" intercept="0.0"/><feFuncG type="linear" slope="0" intercept="0.0"/><feFuncB type="linear" slope="0" intercept="0.0"/><feFuncA type="linear" slope="0.5" intercept="0"/></feComponentTransfer></filter></defs><g id="p.7"><path fill="#999999" d="m345.79288 378.64822l0 0c0 -0.8418274 0.6824341 -1.524231 1.524231 -1.524231l38.385254 0c0.40426636 0 0.79196167 0.1605835 1.0777893 0.44644165c0.28585815 0.28582764 0.44644165 0.67352295 0.44644165 1.0777893l0 6.0967407c0 0.8417969 -0.68240356 1.524231 -1.524231 1.524231l-38.385254 0c-0.8417969 0 -1.524231 -0.6824341 -1.524231 -1.524231z" fill-rule="evenodd"/></g><g filter="url(#shadowFilter-p.8)"><use xlink:href="#p.8" transform="matrix(1.0 0.0 0.0 1.0 0.0 2.0)"/></g><defs><filter id="shadowFilter-p.8" filterUnits="userSpaceOnUse"><feGaussianBlur in="SourceAlpha" stdDeviation="2.0" result="blur"/><feComponentTransfer in="blur" color-interpolation-filters="sRGB"><feFuncR type="linear" slope="0" intercept="0.0"/><feFuncG type="linear" slope="0" intercept="0.0"/><feFuncB type="linear" slope="0" intercept="0.0"/><feFuncA type="linear" slope="0.5" intercept="0"/></feComponentTransfer></filter></defs><g id="p.8"><path fill="#666666" d="m353.27264 432.88882l52.828094 0c0.40426636 0 0.79196167 -0.1605835 1.0777893 -0.44644165c0.28585815 -0.28582764 0.44644165 -0.67352295 0.44644165 -1.0777893l0 -7.6209717c0 -2.4414062E-4 -2.1362305E-4 -4.5776367E-4 -4.5776367E-4 -4.5776367E-4l-55.8761 4.5776367E-4l0 0c-2.4414062E-4 0 -4.5776367E-4 2.1362305E-4 -4.5776367E-4 4.8828125E-4l4.5776367E-4 7.6204834l0 0c0 0.8417969 0.6824341 1.524231 1.524231 1.524231z" fill-rule="evenodd"/></g><path fill="#bf9000" d="m299.06366 243.68947c0.808197 29.291428 5.1528625 68.07829 19.394653 84.23927c14.24176 16.16098 48.17798 14.443665 66.056 12.726654c17.87799 -1.7170105 33.43451 -8.180969 41.212006 -23.028748c7.777527 -14.847748 1.3120117 -42.82657 5.4529724 -66.057816c4.140991 -23.231247 22.827179 -45.048325 19.392822 -73.32968c-3.4343262 -28.281342 -21.817993 -79.0864 -39.99881 -96.35841c-18.180847 -17.272018 -52.925568 -18.990253 -69.08624 -7.2736816c-16.160706 11.716568 -20.807312 49.392708 -27.877869 77.573105c-7.0705566 28.180405 -15.353729 62.21788 -14.545532 91.50931z" fill-rule="evenodd"/><path fill="#d5a411" d="m349.36365 89.75776c-6.161133 8.787582 -9.69519 31.5141 -15.149384 50.300926c-5.454193 18.786835 -19.393738 51.006653 -17.575775 62.420074c1.8179626 11.413422 22.42337 13.231689 28.483551 6.060486c6.0601807 -7.1712036 3.4334106 -33.937134 7.877533 -49.087738c4.4441223 -15.150604 15.756897 -29.796158 18.78714 -41.81588c3.030243 -12.019722 3.1315002 -25.65612 -0.6056824 -30.30243c-3.7371826 -4.646309 -15.65625 -6.363022 -21.817383 2.4245605z" fill-rule="evenodd"/><path fill="#d5a411" d="m321.4933 274.596l0 0c0 -5.021942 4.071106 -9.093048 9.093048 -9.093048l0 0c2.411621 0 4.7244873 0.95803833 6.4297485 2.6632996c1.7052917 1.7052917 2.6632996 4.0181274 2.6632996 6.4297485l0 0c0 5.0219727 -4.071106 9.093048 -9.093048 9.093048l0 0c-5.021942 0 -9.093048 -4.0710754 -9.093048 -9.093048z" fill-rule="evenodd"/><path fill="#d5a411" d="m394.70822 137.30727l0 0c0 -5.0219574 4.0710754 -9.093048 9.093048 -9.093048l0 0c2.411621 0 4.724457 0.9580231 6.4297485 2.6632996c1.7052612 1.7052765 2.6632996 4.0181274 2.6632996 6.4297485l0 0c0 5.0219574 -4.071106 9.093048 -9.093048 9.093048l0 0c-5.0219727 0 -9.093048 -4.0710907 -9.093048 -9.093048z" fill-rule="evenodd"/><path fill="#d5a411" d="m428.63043 214.59636c0.908844 -10.706482 5.857971 -32.220413 0.6056824 -38.785645c-5.252289 -6.565216 -24.645111 -6.8680573 -32.119476 -0.6056824c-7.474365 6.26239 -9.191681 24.746384 -12.726654 38.179962c-3.5349731 13.433594 -8.685425 28.48294 -8.483215 42.42157c0.20220947 13.938614 5.454193 32.523575 9.696411 41.21019c4.242218 8.6866455 10.302704 12.929779 15.756897 10.909607c5.454193 -2.0201416 13.231079 -11.717773 16.968262 -23.030579c3.7371826 -11.312775 3.737793 -33.129547 5.4548035 -44.846115c1.7170105 -11.716568 3.938446 -14.746811 4.84729 -25.453308z" fill-rule="evenodd"/><path fill="#f3f3f3" d="m416.5875 129.07817l0 0c0 -14.88266 -7.599365 -26.947441 -16.973694 -26.947441l0 0c-4.5016785 0 -8.819031 2.839096 -12.002197 7.892723c-3.183197 5.053627 -4.971466 11.907814 -4.971466 19.054718l0 0c0 14.882675 7.599365 26.947449 16.973663 26.947449l0 0c9.374329 0 16.973694 -12.064774 16.973694 -26.947449z" fill-rule="evenodd"/><path fill="#666666" d="m413.43564 129.08327l0 0c0 -6.1968994 -3.6460571 -11.220482 -8.143707 -11.220482l0 0c-2.159851 0 -4.2312317 1.1821518 -5.758484 3.2863998c-1.5272217 2.104248 -2.3852234 4.9582214 -2.3852234 7.934082l0 0c0 6.1968994 3.6460571 11.220474 8.143707 11.220474l0 0c4.49765 0 8.143707 -5.023575 8.143707 -11.220474z" fill-rule="evenodd"/><path fill="#bf9000" d="m19.960453 298.07953c0.697134 25.26654 4.444826 58.723724 16.729656 72.66406c12.284828 13.940338 41.557907 12.458984 56.979317 10.977905c15.42141 -1.4810791 28.840332 -7.0568542 35.54914 -19.86441c6.7088013 -12.807526 1.1317291 -36.941803 4.7036896 -56.980896c3.5719604 -20.039062 19.69049 -38.858276 16.728073 -63.253525c-2.9624329 -24.395233 -18.820007 -68.21924 -34.502647 -83.11792c-15.68264 -14.898697 -45.653114 -16.380829 -59.59318 -6.2742157c-13.940063 10.106613 -17.948193 42.605713 -24.047203 66.91388c-6.0990067 24.308167 -13.2439785 53.66858 -12.5468445 78.93512z" fill-rule="evenodd"/><path fill="#d5a411" d="m63.34878 165.2994c-5.314537 7.5800934 -8.3629875 27.183792 -13.067726 43.389145c-4.7047386 16.205353 -16.728867 43.99788 -15.160706 53.842987c1.5681572 9.845123 19.342197 11.413544 24.569656 5.227722c5.227459 -6.1858215 2.9616394 -29.273865 6.7950935 -42.342636c3.8334503 -13.068771 13.591759 -25.701904 16.20562 -36.070007c2.613861 -10.368103 2.7011948 -22.130753 -0.52246094 -26.13861c-3.2236557 -4.0078735 -13.504944 -5.488693 -18.819477 2.0914001z" fill-rule="evenodd"/><path fill="#d5a411" d="m39.308056 324.73926l0 0c0 -4.331909 3.511692 -7.8435974 7.843582 -7.8435974l0 0c2.080246 0 4.0752945 0.8263855 5.5462494 2.2973328c1.4709587 1.4709778 2.2973328 3.4660034 2.2973328 5.5462646l0 0c0 4.3318787 -3.511692 7.843567 -7.843582 7.843567l0 0c-4.33189 0 -7.843582 -3.5116882 -7.843582 -7.843567z" fill-rule="evenodd"/><path fill="#d5a411" d="m102.4626 206.31519l0 0c0 -4.331894 3.5116959 -7.843582 7.843582 -7.843582l0 0c2.080246 0 4.0752945 0.82637024 5.5462494 2.2973328c1.4709625 1.4709473 2.2973328 3.4660034 2.2973328 5.5462494l0 0c0 4.331894 -3.5116882 7.843582 -7.843582 7.843582l0 0c-4.3318863 0 -7.843582 -3.5116882 -7.843582 -7.843582z" fill-rule="evenodd"/><path fill="#d5a411" d="m131.72362 272.98407c0.7839508 -9.235321 5.0530396 -27.793045 0.52246094 -33.456146c-4.530594 -5.663101 -21.258667 -5.9243317 -27.705986 -0.52246094c-6.4473114 5.4018707 -7.9286575 21.346008 -10.977898 32.933685c-3.04924 11.5877075 -7.4919586 24.569153 -7.317543 36.5925c0.17441559 12.023315 4.704735 28.054535 8.364037 35.547546c3.6593018 7.4930115 8.887024 11.153107 13.591759 9.410522c4.7047424 -1.7425842 11.413017 -10.107666 14.636673 -19.865967c3.2236557 -9.758301 3.2241821 -28.57727 4.705261 -38.68387c1.4810867 -10.106628 3.3972855 -12.7204895 4.1812363 -21.95581z" fill-rule="evenodd"/><path fill="#bf9000" d="m541.8706 253.13599c0.34014893 12.328766 2.1688232 28.654175 8.163208 35.45636c5.9943237 6.8021545 20.278137 6.0793457 27.802979 5.3566284c7.5248413 -0.72268677 14.072632 -3.4433594 17.346191 -9.69281c3.2734985 -6.24942 0.55218506 -18.025726 2.295105 -27.803741c1.742981 -9.778061 9.607971 -18.960876 8.162476 -30.864502c-1.4454956 -11.903641 -9.183228 -33.287506 -16.83551 -40.557312c-7.6523438 -7.2697906 -22.276428 -7.992996 -29.07843 -3.061493c-6.802063 4.9315186 -8.7578125 20.789413 -11.733826 32.65056c-2.9760132 11.861145 -6.4624023 26.18753 -6.1221924 38.51631z" fill-rule="evenodd"/><path fill="#d5a411" d="m563.0419 188.34605c-2.5932007 3.6987 -4.0806885 13.2642975 -6.376404 21.171692c-2.2956543 7.907379 -8.162842 21.46872 -7.397644 26.272629c0.76519775 4.8039246 9.437988 5.569229 11.98877 2.5508575c2.5507202 -3.0183563 1.4451294 -14.284149 3.3156128 -20.661041c1.8705444 -6.376892 6.63208 -12.541229 7.9075317 -17.600327c1.2754517 -5.0591125 1.3180542 -10.798676 -0.25494385 -12.754303c-1.572937 -1.9556427 -6.5897217 -2.6782074 -9.182922 1.0204926z" fill-rule="evenodd"/><path fill="#d5a411" d="m551.3112 266.14456l0 0c0 -2.113739 1.713501 -3.8272705 3.8272705 -3.8272705l0 0c1.0150757 0 1.9885254 0.40322876 2.7062988 1.1209717c0.7177124 0.71777344 1.1209717 1.6912537 1.1209717 2.7062988l0 0c0 2.113739 -1.713501 3.8272705 -3.8272705 3.8272705l0 0c-2.1137695 0 -3.8272705 -1.7135315 -3.8272705 -3.8272705z" fill-rule="evenodd"/><path fill="#d5a411" d="m582.12744 208.35966l0 0c0 -2.113739 1.713501 -3.8272705 3.8272705 -3.8272705l0 0c1.0150146 0 1.9885254 0.40322876 2.7062378 1.1209869c0.71777344 0.7177429 1.1209717 1.6912231 1.1209717 2.7062836l0 0c0 2.113739 -1.713501 3.8272705 -3.8272095 3.8272705l0 0c-2.1137695 0 -3.8272705 -1.7135315 -3.8272705 -3.8272705z" fill-rule="evenodd"/><path fill="#d5a411" d="m596.4053 240.89069c0.38256836 -4.506378 2.4656372 -13.5616 0.25494385 -16.324905c-2.2106934 -2.7632904 -10.373108 -2.8907623 -13.519104 -0.2549286c-3.145935 2.6358337 -3.8687744 10.415756 -5.3566284 16.069962c-1.487915 5.6542053 -3.6557007 11.98848 -3.5706177 17.85527c0.08514404 5.8667603 2.2957153 13.689178 4.081238 17.345367c1.7855225 3.6562195 4.336426 5.442169 6.63208 4.591858c2.2956543 -0.85028076 5.5689697 -4.932007 7.141968 -9.693573c1.572937 -4.7615356 1.5732422 -13.944244 2.2958984 -18.875748c0.7227173 -4.9315033 1.6577148 -6.2069397 2.0402222 -10.713303z" fill-rule="evenodd"/><path fill="#bf9000" d="m611.2668 118.33393c0.45843506 16.615822 2.9230347 38.618004 11.00177 47.78547c8.078796 9.167465 27.329407 8.193298 37.470825 7.2192993c10.1414795 -0.97398376 18.966064 -4.640732 23.37793 -13.063248c4.411865 -8.422531 0.74420166 -24.293747 3.0932007 -37.471878c2.348999 -13.178131 12.948914 -25.554054 11.000793 -41.5969c-1.9481812 -16.04284 -12.376465 -44.86245 -22.689697 -54.66015c-10.313232 -9.797701 -30.022522 -10.772386 -39.18976 -4.1260586c-9.167297 6.646328 -11.803162 28.018444 -15.813965 44.00402c-4.0108643 15.98558 -8.709534 35.293633 -8.251099 51.909447z" fill-rule="evenodd"/><path fill="#d5a411" d="m639.79987 31.014833c-3.494934 4.984831 -5.499634 17.876646 -8.593567 28.53364c-3.0939941 10.656994 -11.001282 28.933964 -9.970032 35.40833c1.03125 6.474365 12.719849 7.5057907 16.157532 3.4378586c3.437683 -4.0679245 1.9476318 -19.25113 4.468628 -27.845444c2.520935 -8.594307 8.938232 -16.90213 10.657166 -23.72042c1.7189331 -6.8182907 1.7763672 -14.553654 -0.34362793 -17.189316c-2.119934 -2.6356602 -8.8811035 -3.609478 -12.376099 1.3753529z" fill-rule="evenodd"/><path fill="#d5a411" d="m623.9902 135.86595l0 0c0 -2.848755 2.3093872 -5.1581116 5.158142 -5.1581116l0 0c1.367981 0 2.6799927 0.5434418 3.6473389 1.5107727c0.96728516 0.96733093 1.5107422 2.2793121 1.5107422 3.6473389l0 0c0 2.8487396 -2.3093262 5.1580963 -5.158081 5.1580963l0 0c-2.848755 0 -5.158142 -2.3093567 -5.158142 -5.1580963z" fill-rule="evenodd"/><path fill="#d5a411" d="m665.522 57.987705l0 0c0 -2.8487473 2.3093872 -5.1581116 5.158142 -5.1581116l0 0c1.367981 0 2.6799927 0.5434456 3.6473389 1.5107765c0.96728516 0.96733475 1.5107422 2.2793198 1.5107422 3.647335l0 0c0 2.8487473 -2.3093262 5.1581116 -5.158081 5.1581116l0 0c-2.848755 0 -5.158142 -2.3093643 -5.158142 -5.1581116z" fill-rule="evenodd"/><path fill="#d5a411" d="m684.76465 101.83062c0.51556396 -6.073349 3.322998 -18.277313 0.3435669 -22.001495c-2.97937 -3.7241745 -13.980103 -3.8959656 -18.220032 -0.34357452c-4.239868 3.5523834 -5.2140503 14.03759 -7.2192993 21.657913c-2.005249 7.6203156 -4.92688 16.157188 -4.812195 24.064003c0.114746094 7.906807 3.093933 18.449272 5.500366 23.376839c2.4064941 4.9275665 5.8442993 7.3345184 8.938293 6.188568c3.093933 -1.1459503 7.505432 -6.6470184 9.625366 -13.064285c2.119934 -6.417282 2.1203003 -18.793037 3.0942993 -25.439362c0.973999 -6.646324 2.2341309 -8.365257 2.7496338 -14.438606z" fill-rule="evenodd"/><path fill="#bf9000" d="m215.49788 147.10187c0.34016418 12.328766 2.1688385 28.654175 8.163208 35.456345c5.9943695 6.80217 20.278137 6.0793457 27.803009 5.356659c7.5248566 -0.722702 14.072617 -3.44339 17.346146 -9.69281c3.2735596 -6.2494354 0.5522461 -18.025726 2.295166 -27.803772c1.7429504 -9.778046 9.607971 -18.960861 8.162445 -30.864494c-1.4454956 -11.903633 -9.183197 -33.287506 -16.83551 -40.557304c-7.6523438 -7.2697983 -22.276398 -7.993004 -29.078445 -3.061493c-6.8020325 4.931511 -8.757797 20.789413 -11.733795 32.65056c-2.9760132 11.861145 -6.462387 26.18753 -6.122223 38.51631z" fill-rule="evenodd"/><path fill="#d5a411" d="m236.66916 82.311935c-2.593216 3.6987 -4.0807037 13.2642975 -6.3763733 21.171684c-2.2956696 7.907387 -8.162842 21.46872 -7.3976593 26.272636c0.7651825 4.8039093 9.438004 5.569229 11.988739 2.5508575c2.5507355 -3.0183563 1.4451294 -14.284149 3.3156586 -20.661049c1.8705292 -6.376892 6.63208 -12.541214 7.9075165 -17.600319c1.2754364 -5.059105 1.3180542 -10.798676 -0.2549286 -12.754311c-1.5729828 -1.9556351 -6.5897217 -2.6781921 -9.182953 1.0205002z" fill-rule="evenodd"/><path fill="#d5a411" d="m224.93852 160.11044l0 0c0 -2.113739 1.7135162 -3.8272705 3.8272552 -3.8272705l0 0c1.0150604 0 1.9885406 0.40322876 2.7062988 1.1209869c0.7177429 0.7177429 1.1209717 1.6912231 1.1209717 2.7062836l0 0c0 2.113739 -1.7135162 3.8272705 -3.8272705 3.8272705l0 0c-2.113739 0 -3.8272552 -1.7135315 -3.8272552 -3.8272705z" fill-rule="evenodd"/><path fill="#d5a411" d="m255.75471 102.32555l0 0c0 -2.113739 1.7135162 -3.8272705 3.8272552 -3.8272705l0 0c1.0150757 0 1.9885559 0.40322876 2.7062988 1.1209793c0.7177429 0.7177582 1.1209717 1.6912384 1.1209717 2.7062912l0 0c0 2.113739 -1.7135315 3.8272629 -3.8272705 3.8272629l0 0c-2.113739 0 -3.8272552 -1.7135239 -3.8272552 -3.8272629z" fill-rule="evenodd"/><path fill="#d5a411" d="m270.0326 134.85657c0.38253784 -4.506378 2.4656372 -13.5616 0.25494385 -16.324898c-2.2107239 -2.7633057 -10.373169 -2.89077 -13.519104 -0.25493622c-3.1459656 2.6358414 -3.8687897 10.415756 -5.356659 16.069962c-1.4878845 5.6542053 -3.6557007 11.98848 -3.5706024 17.855255c0.085113525 5.8667755 2.2956848 13.689194 4.081238 17.345398c1.7855377 3.6562042 4.3364105 5.4421387 6.632065 4.591858c2.2956848 -0.850296 5.5689697 -4.932022 7.141968 -9.693588c1.5729675 -4.761551 1.5732422 -13.944244 2.295929 -18.875748c0.72268677 -4.9315186 1.6576843 -6.2069397 2.0402222 -10.713303z" fill-rule="evenodd"/><path fill="#bf9000" d="m614.7741 381.87482c0.69714355 25.26651 4.444824 58.723724 16.729675 72.66406c12.28479 13.940308 41.55786 12.458984 56.97931 10.977875c15.421387 -1.4810791 28.840332 -7.0568237 35.549133 -19.86438c6.7088013 -12.807556 1.1317139 -36.941833 4.7036743 -56.980896c3.5719604 -20.039062 19.69049 -38.858276 16.728088 -63.25354c-2.9624634 -24.395233 -18.820007 -68.21924 -34.502686 -83.11792c-15.682617 -14.898697 -45.653076 -16.380829 -59.59314 -6.2742157c-13.940063 10.106613 -17.948181 42.60573 -24.047241 66.913895c-6.098999 24.308167 -13.2439575 53.66858 -12.546814 78.93512z" fill-rule="evenodd"/><path fill="#d5a411" d="m658.1624 249.09467c-5.314514 7.5801086 -8.362976 27.183777 -13.067688 43.38913c-4.704773 16.205383 -16.728882 43.997894 -15.160706 53.843018c1.5681152 9.845123 19.342163 11.413544 24.569641 5.227722c5.227478 -6.1858215 2.961609 -29.273865 6.795105 -42.34265c3.833435 -13.068787 13.591736 -25.701904 16.205627 -36.070007c2.6138306 -10.368103 2.7011719 -22.130737 -0.52246094 -26.13861c-3.2236938 -4.0078583 -13.504944 -5.488678 -18.819519 2.0914001z" fill-rule="evenodd"/><path fill="#d5a411" d="m634.1217 408.53452l0 0c0 -4.3318787 3.5117188 -7.843567 7.843567 -7.843567l0 0c2.0802612 0 4.0753174 0.8263855 5.5462646 2.2973328c1.4709473 1.4709473 2.2973022 3.4660034 2.2973022 5.546234l0 0c0 4.331909 -3.5116577 7.8435974 -7.843567 7.8435974l0 0c-4.331848 0 -7.843567 -3.5116882 -7.843567 -7.8435974z" fill-rule="evenodd"/><path fill="#d5a411" d="m697.27625 290.11044l0 0c0 -4.3318787 3.5117188 -7.843567 7.843567 -7.843567l0 0c2.0802612 0 4.0753174 0.8263855 5.5462646 2.2973328c1.4709473 1.4709473 2.2973633 3.4660034 2.2973633 5.546234l0 0c0 4.331909 -3.5117188 7.8435974 -7.843628 7.8435974l0 0c-4.331848 0 -7.843567 -3.5116882 -7.843567 -7.8435974z" fill-rule="evenodd"/><path fill="#d5a411" d="m726.5373 356.77936c0.78393555 -9.235321 5.0530396 -27.79306 0.5223999 -33.456146c-4.5305786 -5.6631165 -21.258606 -5.924347 -27.705933 -0.52246094c-6.4473267 5.4018555 -7.92865 21.346008 -10.977905 32.933685c-3.0492554 11.5877075 -7.4919434 24.569122 -7.317566 36.59247c0.17443848 12.023346 4.704773 28.054535 8.364075 35.547546c3.6593018 7.493042 8.887024 11.153107 13.591736 9.410553c4.704712 -1.7425842 11.413025 -10.107666 14.636658 -19.865967c3.2236938 -9.758331 3.2241821 -28.57727 4.705261 -38.6839c1.4810791 -10.106598 3.3972778 -12.720459 4.1812744 -21.95578z" fill-rule="evenodd"/><path fill="#bf9000" d="m156.9282 410.82474c0.45845032 16.615814 2.9230042 38.61801 11.001785 47.78546c8.078766 9.16748 27.329376 8.193298 37.470825 7.21933c10.141464 -0.973999 18.966034 -4.640747 23.377884 -13.063263c4.411865 -8.422516 0.74424744 -24.293762 3.0932465 -37.471893c2.348999 -13.178131 12.948914 -25.554047 11.000748 -41.596893c-1.9481506 -16.042847 -12.376434 -44.862427 -22.689682 -54.660156c-10.313248 -9.797699 -30.022476 -10.772369 -39.189774 -4.1260376c-9.167282 6.646332 -11.803116 28.018433 -15.813965 44.00403c-4.0108337 15.985565 -8.709518 35.29361 -8.251068 51.909424z" fill-rule="evenodd"/><path fill="#d5a411" d="m185.4613 323.50565c-3.4949493 4.984833 -5.4996796 17.876648 -8.593613 28.53363c-3.0939484 10.657013 -11.0012665 28.93396 -9.9700165 35.408325c1.0312653 6.474365 12.719849 7.5057983 16.157547 3.4378662c3.437683 -4.067932 1.9476318 -19.25113 4.4685974 -27.845428c2.5209656 -8.59433 8.938232 -16.90213 10.657166 -23.720428c1.7189331 -6.8182983 1.7763672 -14.55365 -0.34358215 -17.189331c-2.1199493 -2.6356506 -8.881134 -3.6094666 -12.376099 1.3753662z" fill-rule="evenodd"/><path fill="#d5a411" d="m169.65161 428.35675l0 0c0 -2.8487244 2.3093567 -5.1581116 5.1580963 -5.1581116l0 0c1.3680267 0 2.680008 0.54345703 3.6473389 1.5107727c0.96733093 0.9673462 1.5107727 2.2793274 1.5107727 3.6473389l0 0c0 2.848755 -2.3093567 5.1581116 -5.1581116 5.1581116l0 0c-2.8487396 0 -5.1580963 -2.3093567 -5.1580963 -5.1581116z" fill-rule="evenodd"/><path fill="#d5a411" d="m211.18341 350.47852l0 0c0 -2.848755 2.3093567 -5.1581116 5.1581116 -5.1581116l0 0c1.3680115 0 2.6799927 0.54345703 3.6473236 1.5107727c0.9673462 0.9673462 1.510788 2.2793274 1.510788 3.6473389l0 0c0 2.848755 -2.309372 5.1581116 -5.1581116 5.1581116l0 0c-2.848755 0 -5.1581116 -2.3093567 -5.1581116 -5.1581116z" fill-rule="evenodd"/><path fill="#d5a411" d="m230.42609 394.32144c0.51553345 -6.0733643 3.3229828 -18.277313 0.34358215 -22.001495c-2.979416 -3.7241821 -13.980164 -3.8959656 -18.220062 -0.3435974c-4.2398834 3.5523987 -5.2140503 14.037598 -7.2192993 21.657928c-2.005249 7.620331 -4.92688 16.157196 -4.8121796 24.063995c0.11470032 7.9067993 3.093933 18.44928 5.5003815 23.376862c2.406433 4.9275513 5.844284 7.334503 8.938232 6.188568c3.093933 -1.1459656 7.5054474 -6.6470337 9.625397 -13.064301c2.119934 -6.417267 2.120285 -18.79303 3.094284 -25.439362c0.97398376 -6.646332 2.2341156 -8.365265 2.7496643 -14.438599z" fill-rule="evenodd"/><path fill="#bf9000" d="m15.395514 92.49031c0.3401661 12.328781 2.168848 28.654182 8.163218 35.456352c5.9943695 6.802162 20.278137 6.0793533 27.802998 5.3566513c7.5248604 -0.72268677 14.072605 -3.4433746 17.346165 -9.69281c3.273552 -6.249428 0.5522232 -18.025719 2.2951584 -27.803764c1.7429352 -9.778046 9.607956 -18.960861 8.162445 -30.864494c-1.4455109 -11.903633 -9.183205 -33.287502 -16.83553 -40.5573c-7.6523247 -7.2698 -22.27639 -7.9930058 -29.078426 -3.0614967c-6.80204 4.931511 -8.757803 20.789413 -11.733807 32.65056c-2.9760056 11.861145 -6.462387 26.18753 -6.122221 38.516304z" fill-rule="evenodd"/><path fill="#d5a411" d="m36.5668 27.700388c-2.5932198 3.6986961 -4.0807076 13.264296 -6.376381 21.171682c-2.2956715 7.907387 -8.162832 21.46872 -7.39765 26.272636c0.7651806 4.803917 9.438005 5.569229 11.988737 2.5508575c2.5507317 -3.018364 1.4451294 -14.284149 3.3156586 -20.661045c1.8705292 -6.376896 6.632084 -12.541222 7.9075127 -17.600327c1.2754326 -5.059105 1.3180504 -10.79867 -0.2549324 -12.754303c-1.572979 -1.9556351 -6.5897217 -2.6781998 -9.182945 1.0204983z" fill-rule="evenodd"/><path fill="#d5a411" d="m24.836155 105.49889l0 0c0 -2.113739 1.7135258 -3.8272705 3.8272686 -3.8272705l0 0c1.0150528 0 1.9885349 0.40322876 2.7062855 1.1209869c0.71775436 0.71775055 1.1209831 1.6912308 1.1209831 2.7062836l0 0c0 2.113739 -1.7135277 3.8272705 -3.8272686 3.8272705l0 0c-2.1137428 0 -3.8272686 -1.7135315 -3.8272686 -3.8272705z" fill-rule="evenodd"/><path fill="#d5a411" d="m55.652348 47.713997l0 0c0 -2.1137428 1.7135277 -3.8272667 3.8272667 -3.8272667l0 0c1.0150566 0 1.9885368 0.40322876 2.7062874 1.1209793c0.71775436 0.71775055 1.1209831 1.6912308 1.1209831 2.7062874l0 0c0 2.1137428 -1.7135277 3.8272667 -3.8272705 3.8272667l0 0c-2.113739 0 -3.8272667 -1.7135239 -3.8272667 -3.8272667z" fill-rule="evenodd"/><path fill="#d5a411" d="m69.93023 80.24501c0.38252258 -4.506363 2.465622 -13.561592 0.2549286 -16.324894c-2.2106934 -2.7633018 -10.373138 -2.89077 -13.5191 -0.2549324c-3.145958 2.6358414 -3.8687782 10.415764 -5.3566513 16.069962c-1.4878731 5.6542053 -3.6556969 11.988487 -3.570591 17.855255c0.085105896 5.8667755 2.2956734 13.689186 4.0812225 17.345398c1.785553 3.6562042 4.3364143 5.4421387 6.6320877 4.591858c2.2956696 -0.8502884 5.5689697 -4.9320297 7.141945 -9.693581c1.5729828 -4.7615585 1.5732346 -13.944244 2.295929 -18.875755c0.7226944 -4.931511 1.6576996 -6.2069397 2.0402298 -10.71331z" fill-rule="evenodd"/><path fill="#bf9000" d="m477.90207 432.21735c0.34017944 12.328766 2.1688538 28.654175 8.163208 35.45636c5.994385 6.8021545 20.278168 6.0793457 27.803009 5.356659c7.5248413 -0.7227173 14.072632 -3.44339 17.346191 -9.69281c3.2734985 -6.2494507 0.55218506 -18.025726 2.295105 -27.803772c1.742981 -9.778046 9.607971 -18.960876 8.162476 -30.864502c-1.4454956 -11.9036255 -9.183228 -33.287506 -16.83551 -40.557312c-7.6523438 -7.2697754 -22.276398 -7.9930115 -29.07846 -3.061493c-6.8020325 4.9315186 -8.757782 20.789429 -11.733795 32.650574c-2.9760132 11.861145 -6.462372 26.18753 -6.122223 38.516296z" fill-rule="evenodd"/><path fill="#d5a411" d="m499.07336 367.42743c-2.5932312 3.6987 -4.080719 13.264282 -6.3763733 21.171661c-2.2956848 7.9074097 -8.162842 21.46872 -7.3976746 26.272644c0.76519775 4.8039246 9.438019 5.5692444 11.988739 2.5508728c2.5507507 -3.0183716 1.4451294 -14.284149 3.3156738 -20.661041c1.8705139 -6.3769226 6.63208 -12.541229 7.907501 -17.600342c1.2754517 -5.0591125 1.3180542 -10.798676 -0.25491333 -12.754303c-1.572998 -1.9556274 -6.5897217 -2.6781921 -9.182953 1.0205078z" fill-rule="evenodd"/><path fill="#d5a411" d="m487.3427 445.22592l0 0c0 -2.113739 1.7135315 -3.8272705 3.8272705 -3.8272705l0 0c1.0150452 0 1.9885254 0.40322876 2.7062988 1.1210022c0.7177429 0.7177429 1.1209717 1.6912231 1.1209717 2.7062683l0 0c0 2.113739 -1.7135315 3.8272705 -3.8272705 3.8272705l0 0c-2.113739 0 -3.8272705 -1.7135315 -3.8272705 -3.8272705z" fill-rule="evenodd"/><path fill="#d5a411" d="m518.15894 387.44104l0 0c0 -2.113739 1.713501 -3.8272705 3.8272705 -3.8272705l0 0c1.0150146 0 1.9885254 0.40322876 2.7062378 1.1209717c0.71777344 0.7177429 1.1209717 1.6912231 1.1209717 2.7062988l0 0c0 2.113739 -1.713501 3.8272705 -3.8272095 3.8272705l0 0c-2.1137695 0 -3.8272705 -1.7135315 -3.8272705 -3.8272705z" fill-rule="evenodd"/><path fill="#d5a411" d="m532.43677 419.97205c0.38256836 -4.506378 2.4656372 -13.561584 0.25494385 -16.32489c-2.2106934 -2.7633057 -10.373108 -2.8907776 -13.519104 -0.25494385c-3.145935 2.6358337 -3.8687744 10.4157715 -5.3566284 16.069977c-1.487915 5.6542053 -3.6557007 11.988464 -3.5705872 17.855255c0.08508301 5.8667603 2.2956848 13.689178 4.0812073 17.345398c1.7855835 3.656189 4.336426 5.4421387 6.63208 4.591858c2.2956543 -0.8503113 5.5689697 -4.9320374 7.141968 -9.6936035c1.572937 -4.7615356 1.5732422 -13.944244 2.2958984 -18.875732c0.7227173 -4.9315186 1.6577148 -6.2069397 2.0402222 -10.713318z" fill-rule="evenodd"/><path fill="#bf9000" d="m465.50125 100.22168c0.37554932 13.611259 2.3944702 31.634888 9.01239 39.144653c6.61792 7.5097504 22.387543 6.711731 30.69516 5.913864c8.307617 -0.7978668 15.536499 -3.8015747 19.150574 -10.701096c3.6140747 -6.8995132 0.6096802 -19.900818 2.5338745 -30.696007c1.9242554 -10.795189 10.607422 -20.933235 9.011536 -34.075127c-1.5958252 -13.1418915 -10.138428 -36.75019 -18.586792 -44.77622c-8.448364 -8.0260315 -24.593658 -8.824467 -32.10327 -3.379963c-7.509613 5.444504 -9.668823 22.952003 -12.954407 36.046986c-3.2855835 13.094982 -7.134613 28.911648 -6.7590637 42.522907z" fill-rule="evenodd"/><path fill="#d5a411" d="m488.87485 28.692078c-2.862976 4.0834465 -4.505188 14.644096 -7.039673 23.374035c-2.5344849 8.729942 -9.011963 23.701977 -8.167175 29.005611c0.8447571 5.3036346 10.419769 6.148552 13.23584 2.816208c2.8160706 -3.332344 1.595459 -15.770042 3.660553 -22.810284c2.0651245 -7.040245 7.321991 -13.845802 8.730103 -19.431171c1.4081116 -5.585373 1.4551392 -11.921988 -0.28146362 -14.081055c-1.7366028 -2.1590652 -7.2752075 -2.9567947 -10.138184 1.1266556z" fill-rule="evenodd"/><path fill="#d5a411" d="m475.92395 114.58346l0 0c0 -2.3336182 1.8917542 -4.2253876 4.2253723 -4.2253876l0 0c1.1206665 0 2.195404 0.44516754 2.9878235 1.237587c0.79241943 0.7924118 1.2375793 1.867157 1.2375793 2.9878006l0 0c0 2.3336258 -1.8917847 4.225395 -4.225403 4.225395l0 0c-2.3336182 0 -4.2253723 -1.8917694 -4.2253723 -4.225395z" fill-rule="evenodd"/><path fill="#d5a411" d="m509.94574 50.78757l0 0c0 -2.3336182 1.8917847 -4.2253914 4.225403 -4.2253914l0 0c1.1206665 0 2.1953735 0.44517136 2.987793 1.237587c0.79241943 0.7924156 1.2376099 1.8671608 1.2376099 2.9878044l0 0c0 2.333622 -1.8917847 4.225395 -4.225403 4.225395l0 0c-2.3336182 0 -4.225403 -1.8917732 -4.225403 -4.225395z" fill-rule="evenodd"/><path fill="#d5a411" d="m525.70886 86.702576c0.42230225 -4.975128 2.722107 -14.972313 0.2814331 -18.023064c-2.4406738 -3.0507507 -11.452209 -3.1914825 -14.9253845 -0.28144836c-3.4732056 2.9100266 -4.27124 11.499237 -5.9138794 17.741615c-1.6426392 6.2423706 -4.03598 13.235565 -3.9420166 19.712624c0.09396362 6.4770584 2.5344849 15.113182 4.505768 19.14972c1.971283 4.036537 4.787506 6.0082626 7.3219604 5.0695267c2.5344849 -0.9387512 6.1483154 -5.445076 7.8848877 -10.70195c1.7366333 -5.2568665 1.7368774 -15.394768 2.53479 -20.839272c0.79785156 -5.444504 1.8301392 -6.8526154 2.2524414 -11.827751z" fill-rule="evenodd"/><path fill="#bf9000" d="m151.0233 84.90872c0.18415833 6.674553 1.1741791 15.51281 4.419403 19.195374c3.2452393 3.6825562 10.978195 3.2912369 15.052002 2.8999863c4.073807 -0.3912506 7.618637 -1.8641815 9.390869 -5.2474976c1.7722473 -3.383316 0.29896545 -9.758774 1.2425537 -15.052414c0.9436035 -5.29364 5.2015686 -10.265038 4.418991 -16.709435c-0.78256226 -6.444393 -4.9716034 -18.021202 -9.114426 -21.956932c-4.1428223 -3.9357262 -12.059998 -4.3272552 -15.742493 -1.6574326c-3.6824799 2.6698227 -4.7413025 11.254982 -6.3524475 17.676376c-1.611145 6.4213867 -3.4986115 14.177414 -3.3144531 20.851974z" fill-rule="evenodd"/><path fill="#d5a411" d="m162.48502 49.83272c-1.4039154 2.0024033 -2.2092133 7.1810303 -3.4520416 11.461937c-1.2428284 4.280903 -4.4192047 11.6227455 -4.004944 14.223492c0.41426086 2.6007462 5.109558 3.015068 6.4904633 1.3809814c1.3809204 -1.634079 0.7823639 -7.733162 1.795044 -11.185486c1.0126648 -3.4523277 3.5904694 -6.78957 4.28096 -9.528473c0.690506 -2.7388992 0.7135773 -5.8461876 -0.13800049 -6.90493c-0.851593 -1.0587425 -3.5675507 -1.4499245 -4.9714813 0.5524788z" fill-rule="evenodd"/><path fill="#d5a411" d="m156.13428 91.95131l0 0c0 -1.1443329 0.92767334 -2.0720062 2.0720062 -2.0720062l0 0c0.54953 0 1.0765533 0.21829987 1.4651337 0.6068802c0.38858032 0.3885727 0.60687256 0.915596 0.60687256 1.465126l0 0c0 1.1443405 -0.9276581 2.0720062 -2.0720062 2.0720062l0 0c-1.1443329 0 -2.0720062 -0.9276657 -2.0720062 -2.0720062z" fill-rule="evenodd"/><path fill="#d5a411" d="m172.81757 60.667698l0 0c0 -1.1443367 0.92767334 -2.0720062 2.0720062 -2.0720062l0 0c0.54953 0 1.0765533 0.21829987 1.4651337 0.6068764c0.38858032 0.3885765 0.60687256 0.9155998 0.60687256 1.4651299l0 0c0 1.1443367 -0.92767334 2.0720062 -2.0720062 2.0720062l0 0c-1.1443329 0 -2.0720062 -0.9276695 -2.0720062 -2.0720062z" fill-rule="evenodd"/><path fill="#d5a411" d="m180.54733 78.27935c0.20709229 -2.439659 1.3348389 -7.34198 0.13801575 -8.837975c-1.1968231 -1.4960022 -5.615814 -1.5650101 -7.318985 -0.13801575c-1.7031555 1.4269943 -2.0944824 5.6388855 -2.8999786 8.699966c-0.8055115 3.0610733 -1.979126 6.490326 -1.9330444 9.666481c0.046066284 3.176155 1.2428284 7.4110565 2.209488 9.390457c0.96665955 1.9794006 2.347641 2.9462738 3.5904846 2.485939c1.2428284 -0.46032715 3.014923 -2.6700974 3.8665009 -5.2479095c0.851593 -2.5778122 0.85173035 -7.549141 1.242981 -10.218964c0.3912506 -2.6698227 0.8974457 -3.360321 1.104538 -5.79998z" fill-rule="evenodd"/><path fill="#bf9000" d="m53.46425 447.52026c0.18415833 6.6745605 1.1741714 15.512817 4.419403 19.195374c3.2452354 3.6825562 10.978188 3.2912598 15.052002 2.899994c4.073807 -0.39126587 7.618637 -1.8641663 9.390869 -5.2474976c1.7722397 -3.3833313 0.29896545 -9.758789 1.2425537 -15.052429c0.9435959 -5.29364 5.201561 -10.265015 4.418991 -16.709412c-0.7825699 -6.444397 -4.9716034 -18.02121 -9.114426 -21.95694c-4.1428223 -3.93573 -12.059998 -4.3272705 -15.742493 -1.6574402c-3.6824913 2.6698303 -4.7413025 11.254974 -6.3524513 17.676392c-1.6111526 6.4213867 -3.4986115 14.177399 -3.3144493 20.85196z" fill-rule="evenodd"/><path fill="#d5a411" d="m64.925964 412.44427c-1.4039154 2.002411 -2.2092133 7.1810303 -3.4520454 11.461945c-1.2428322 4.280884 -4.419197 11.622742 -4.004944 14.22348c0.41425323 2.6007385 5.1095543 3.0150757 6.490471 1.3809814c1.3809166 -1.6340942 0.7823601 -7.7331543 1.7950325 -11.185486c1.0126648 -3.4523315 3.590477 -6.7895813 4.2809677 -9.528473c0.69049835 -2.7388916 0.71356964 -5.8461914 -0.13800812 -6.9049377c-0.8515854 -1.0587463 -3.5675507 -1.4499207 -4.9714737 0.55249023z" fill-rule="evenodd"/><path fill="#d5a411" d="m58.575226 454.56287l0 0c0 -1.1443481 0.9276695 -2.0720215 2.0720062 -2.0720215l0 0c0.54953384 0 1.0765572 0.21829224 1.4651337 0.60687256c0.3885765 0.38858032 0.6068764 0.9156189 0.6068764 1.4651489l0 0c0 1.1443176 -0.9276695 2.071991 -2.07201 2.071991l0 0c-1.1443367 0 -2.0720062 -0.92767334 -2.0720062 -2.071991z" fill-rule="evenodd"/><path fill="#d5a411" d="m75.25851 423.27924l0 0c0 -1.1443176 0.92767334 -2.071991 2.0720139 -2.071991l0 0c0.54953 0 1.0765533 0.21829224 1.465126 0.60687256c0.38858032 0.38858032 0.6068802 0.9155884 0.6068802 1.4651184l0 0c0 1.1443481 -0.92767334 2.0720215 -2.0720062 2.0720215l0 0c-1.1443405 0 -2.0720139 -0.92767334 -2.0720139 -2.0720215z" fill-rule="evenodd"/><path fill="#d5a411" d="m82.98827 440.8909c0.20709229 -2.4396667 1.3348465 -7.34198 0.13801575 -8.837982c-1.1968231 -1.4960022 -5.615814 -1.5650024 -7.3189774 -0.13800049c-1.7031631 1.4269714 -2.0944824 5.6388855 -2.8999863 8.699951c-0.80550385 3.0610657 -1.9791183 6.490326 -1.9330444 9.666504c0.046073914 3.1761475 1.2428284 7.4110413 2.209488 9.390442c0.9666672 1.9794006 2.3476486 2.9462585 3.5904846 2.4859314c1.2428284 -0.46032715 3.0149307 -2.670105 3.8665085 -5.2478943c0.8515854 -2.5778198 0.8517227 -7.549164 1.2429733 -10.218964c0.3912506 -2.6698303 0.8974457 -3.360321 1.104538 -5.799988z" fill-rule="evenodd"/><path fill="#bf9000" d="m461.83694 290.23682c0.18417358 6.67453 1.1741638 15.512787 4.419403 19.195374c3.2452393 3.6825562 10.97821 3.2912292 15.052002 2.8999634c4.073822 -0.39123535 7.6186523 -1.8641663 9.390869 -5.2474976c1.7722473 -3.3833008 0.2989807 -9.758759 1.2425537 -15.052399c0.9436035 -5.29364 5.2015686 -10.265045 4.4190063 -16.709442c-0.7825928 -6.444397 -4.9716187 -18.02121 -9.114441 -21.956924c-4.1428223 -3.93573 -12.059998 -4.3272552 -15.742493 -1.6574402c-3.682495 2.6698303 -4.7413025 11.25499 -6.3524475 17.676376c-1.611145 6.4213867 -3.4985962 14.177429 -3.3144531 20.85199z" fill-rule="evenodd"/><path fill="#d5a411" d="m473.29868 255.16081c-1.4039307 2.0023956 -2.2092285 7.181015 -3.452057 11.461929c-1.2428284 4.2809143 -4.4191895 11.622742 -4.004944 14.22348c0.4142456 2.600769 5.109558 3.0150757 6.4904785 1.3809814c1.3809204 -1.6340637 0.78234863 -7.7331543 1.7950134 -11.185486c1.0126953 -3.452301 3.5904846 -6.789551 4.2809753 -9.528473c0.6904907 -2.7388916 0.713562 -5.846176 -0.13800049 -6.9049225c-0.851593 -1.0587311 -3.567566 -1.4499207 -4.971466 0.55249023z" fill-rule="evenodd"/><path fill="#d5a411" d="m466.94794 297.2794l0 0c0 -1.1443176 0.92767334 -2.071991 2.071991 -2.071991l0 0c0.54953 0 1.0765686 0.21829224 1.4651489 0.60687256c0.38858032 0.38858032 0.60687256 0.9155884 0.60687256 1.4651184l0 0c0 1.1443481 -0.92767334 2.0720215 -2.0720215 2.0720215l0 0c-1.1443176 0 -2.071991 -0.92767334 -2.071991 -2.0720215z" fill-rule="evenodd"/><path fill="#d5a411" d="m483.63123 265.9958l0 0c0 -1.1443481 0.9276428 -2.0720215 2.071991 -2.0720215l0 0c0.54953 0 1.0765686 0.21829224 1.4651489 0.60687256c0.3885498 0.38858032 0.60687256 0.9156189 0.60687256 1.4651489l0 0c0 1.1443176 -0.92767334 2.071991 -2.0720215 2.071991l0 0c-1.1443481 0 -2.071991 -0.92767334 -2.071991 -2.071991z" fill-rule="evenodd"/><path fill="#d5a411" d="m491.361 283.60742c0.20709229 -2.4396362 1.3348389 -7.3419495 0.13800049 -8.837952c-1.1968384 -1.4960022 -5.615814 -1.565033 -7.3189697 -0.138031c-1.7031555 1.427002 -2.0944824 5.6388855 -2.899994 8.699982c-0.8055115 3.0610657 -1.979126 6.490326 -1.9330444 9.666473c0.046081543 3.1761475 1.2428284 7.4110413 2.2095032 9.390442c0.9666443 1.9794006 2.3476257 2.946289 3.590454 2.485962c1.2428589 -0.46032715 3.0149536 -2.670105 3.866516 -5.247925c0.851593 -2.5778198 0.8517151 -7.5491333 1.242981 -10.218964c0.39126587 -2.6698303 0.89746094 -3.360321 1.1045532 -5.799988z" fill-rule="evenodd"/><path fill="#bf9000" d="m279.45636 451.13968c0.18417358 6.6745605 1.1741943 15.512817 4.4194336 19.195374c3.2452087 3.6825867 10.97818 3.2912598 15.051971 2.899994c4.073822 -0.39123535 7.6186523 -1.8641663 9.3909 -5.2474976c1.7722168 -3.3833008 0.2989502 -9.758759 1.2425537 -15.052399c0.943573 -5.29364 5.201538 -10.265045 4.418976 -16.709442c-0.78256226 -6.444397 -4.9716187 -18.02121 -9.11441 -21.95694c-4.1428223 -3.93573 -12.060028 -4.32724 -15.742493 -1.6574402c-3.682495 2.6698303 -4.7413025 11.255005 -6.352478 17.676392c-1.611145 6.4213867 -3.4985962 14.177399 -3.3144531 20.85196z" fill-rule="evenodd"/><path fill="#d5a411" d="m290.9181 416.0637c-1.4039307 2.002411 -2.2092285 7.1810303 -3.452057 11.461945c-1.2428284 4.280884 -4.4191895 11.622742 -4.004944 14.22348c0.41427612 2.6007385 5.109558 3.0150757 6.4904785 1.3809814c1.3809204 -1.6340637 0.78237915 -7.7331543 1.795044 -11.185486c1.0126648 -3.4523315 3.5904846 -6.789551 4.2809753 -9.528473c0.6904907 -2.7388916 0.713562 -5.8461914 -0.138031 -6.9049377c-0.8515625 -1.0587158 -3.5675354 -1.4499207 -4.971466 0.55249023z" fill-rule="evenodd"/><path fill="#d5a411" d="m284.56735 458.18228l0 0c0 -1.1443481 0.92767334 -2.0720215 2.0720215 -2.0720215l0 0c0.54953 0 1.0765381 0.21832275 1.4651184 0.6069031c0.38858032 0.38858032 0.60687256 0.9155884 0.60687256 1.4651184l0 0c0 1.1443481 -0.92767334 2.0720215 -2.071991 2.0720215l0 0c-1.1443481 0 -2.0720215 -0.92767334 -2.0720215 -2.0720215z" fill-rule="evenodd"/><path fill="#d5a411" d="m301.25064 426.89868l0 0c0 -1.1443481 0.92767334 -2.0720215 2.071991 -2.0720215l0 0c0.54953 0 1.0765686 0.21829224 1.4651489 0.60687256c0.38858032 0.38858032 0.60687256 0.9156189 0.60687256 1.4651489l0 0c0 1.1443176 -0.92767334 2.071991 -2.0720215 2.071991l0 0c-1.1443176 0 -2.071991 -0.92767334 -2.071991 -2.071991z" fill-rule="evenodd"/><path fill="#d5a411" d="m308.9804 444.5103c0.20709229 -2.4396362 1.3348389 -7.34198 0.13800049 -8.837982c-1.1968079 -1.4959717 -5.615814 -1.5650024 -7.3189697 -0.13800049c-1.7031555 1.427002 -2.0944824 5.6388855 -2.899994 8.699951c-0.8055115 3.0610962 -1.979126 6.490326 -1.9330444 9.666504c0.046081543 3.1761475 1.2428284 7.4110413 2.2095032 9.390442c0.9666443 1.9794006 2.3476562 2.946289 3.5904846 2.485962c1.2428284 -0.46032715 3.014923 -2.670105 3.866516 -5.247925c0.8515625 -2.5778198 0.8517151 -7.5491333 1.2429504 -10.218964c0.39126587 -2.6698303 0.89746094 -3.360321 1.1045532 -5.799988z" fill-rule="evenodd"/></g></svg>