<svg version="1.1" viewBox="0.0 0.0 750.0 500.0" fill="none" stroke="none" stroke-linecap="square" stroke-miterlimit="10" xmlns:xlink="http://www.w3.org/1999/xlink" xmlns="http://www.w3.org/2000/svg"><clipPath id="p.0"><path d="m0 0l750.0 0l0 500.0l-750.0 0l0 -500.0z" clip-rule="nonzero"/></clipPath><g clip-path="url(#p.0)"><path fill="#b7b7b7" d="m0 0l750.0 0l0 500.0l-750.0 0z" fill-rule="evenodd"/><path fill="#000000" d="m289.99515 46.89248l0 0c0 -2.4672127 2.000061 -4.4672813 4.467285 -4.4672813l17.868591 0l0 0c1.1847839 0 2.321045 0.47065735 3.158844 1.3084373c0.83776855 0.8377762 1.3084412 1.9740448 1.3084412 3.158844l0 406.21503c0 2.4672241 -2.0000916 4.467285 -4.467285 4.467285l-17.868591 0c-2.4672241 0 -4.467285 -2.000061 -4.467285 -4.467285z" fill-rule="evenodd"/><path stroke="#000000" stroke-width="1.0" stroke-linejoin="round" stroke-linecap="butt" d="m289.99515 46.89248l0 0c0 -2.4672127 2.000061 -4.4672813 4.467285 -4.4672813l17.868591 0l0 0c1.1847839 0 2.321045 0.47065735 3.158844 1.3084373c0.83776855 0.8377762 1.3084412 1.9740448 1.3084412 3.158844l0 406.21503c0 2.4672241 -2.0000916 4.467285 -4.467285 4.467285l-17.868591 0c-2.4672241 0 -4.467285 -2.000061 -4.467285 -4.467285z" fill-rule="evenodd"/><path fill="#000000" d="m433.22168 46.89248l0 0c0 -2.4672127 2.0000916 -4.4672813 4.467285 -4.4672813l17.868591 0l0 0c1.1848145 0 2.3210754 0.47065735 3.158844 1.3084373c0.8377991 0.8377762 1.3084412 1.9740448 1.3084412 3.158844l0 406.21503c0 2.4672241 -2.000061 4.467285 -4.467285 4.467285l-17.868591 0c-2.4671936 0 -4.467285 -2.000061 -4.467285 -4.467285z" fill-rule="evenodd"/><path stroke="#000000" stroke-width="1.0" stroke-linejoin="round" stroke-linecap="butt" d="m433.22168 46.89248l0 0c0 -2.4672127 2.0000916 -4.4672813 4.467285 -4.4672813l17.868591 0l0 0c1.1848145 0 2.3210754 0.47065735 3.158844 1.3084373c0.8377991 0.8377762 1.3084412 1.9740448 1.3084412 3.158844l0 406.21503c0 2.4672241 -2.000061 4.467285 -4.467285 4.467285l-17.868591 0c-2.4671936 0 -4.467285 -2.000061 -4.467285 -4.467285z" fill-rule="evenodd"/><path fill="#000000" d="m171.89247 335.0206l0 0c-2.4672089 0 -4.46727 -2.000061 -4.46727 -4.467285l0 -17.868591l0 0c0 -1.1847839 0.47065735 -2.321045 1.3084259 -3.158844c0.8377838 -0.83776855 1.97406 -1.3084412 3.158844 -1.3084412l406.2151 0c2.467163 0 4.467285 2.0000916 4.467285 4.467285l0 17.868591c0 2.4672241 -2.000122 4.467285 -4.467285 4.467285z" fill-rule="evenodd"/><path stroke="#000000" stroke-width="1.0" stroke-linejoin="round" stroke-linecap="butt" d="m171.89247 335.0206l0 0c-2.4672089 0 -4.46727 -2.000061 -4.46727 -4.467285l0 -17.868591l0 0c0 -1.1847839 0.47065735 -2.321045 1.3084259 -3.158844c0.8377838 -0.83776855 1.97406 -1.3084412 3.158844 -1.3084412l406.2151 0c2.467163 0 4.467285 2.0000916 4.467285 4.467285l0 17.868591c0 2.4672241 -2.000122 4.467285 -4.467285 4.467285z" fill-rule="evenodd"/><path fill="#000000" d="m171.89247 191.79405l0 0c-2.4672089 0 -4.46727 -2.000061 -4.46727 -4.467285l0 -17.868576l0 0c0 -1.1847992 0.47065735 -2.3210754 1.3084259 -3.158844c0.8377838 -0.8377838 1.97406 -1.3084412 3.158844 -1.3084412l406.2151 0c2.467163 0 4.467285 2.000061 4.467285 4.467285l0 17.868576c0 2.4672241 -2.000122 4.467285 -4.467285 4.467285z" fill-rule="evenodd"/><path stroke="#000000" stroke-width="1.0" stroke-linejoin="round" stroke-linecap="butt" d="m171.89247 191.79405l0 0c-2.4672089 0 -4.46727 -2.000061 -4.46727 -4.467285l0 -17.868576l0 0c0 -1.1847992 0.47065735 -2.3210754 1.3084259 -3.158844c0.8377838 -0.8377838 1.97406 -1.3084412 3.158844 -1.3084412l406.2151 0c2.467163 0 4.467285 2.000061 4.467285 4.467285l0 17.868576c0 2.4672241 -2.000122 4.467285 -4.467285 4.467285z" fill-rule="evenodd"/><path fill="#4a86e8" d="m471.26373 432.42575l0 0c-1.7888184 -1.7887878 -1.7885437 -4.688751 5.79834E-4 -6.477234l79.694244 -79.6651c0.85913086 -0.8588562 2.024353 -1.3412781 3.2393188 -1.341156c1.2149048 9.1552734E-5 2.380066 0.48275757 3.2390747 1.3417664l12.955261 12.955231c1.7888184 1.7888184 1.7885132 4.6887817 -6.1035156E-4 6.477234l-79.694214 79.6651l0 0c-1.7891235 1.7884827 -4.6896057 1.788208 -6.478424 -5.79834E-4z" fill-rule="evenodd"/><path stroke="#4a86e8" stroke-width="1.0" stroke-linejoin="round" stroke-linecap="butt" d="m471.26373 432.42575l0 0c-1.7888184 -1.7887878 -1.7885437 -4.688751 5.79834E-4 -6.477234l79.694244 -79.6651c0.85913086 -0.8588562 2.024353 -1.3412781 3.2393188 -1.341156c1.2149048 9.1552734E-5 2.380066 0.48275757 3.2390747 1.3417664l12.955261 12.955231c1.7888184 1.7888184 1.7885132 4.6887817 -6.1035156E-4 6.477234l-79.694214 79.6651l0 0c-1.7891235 1.7884827 -4.6896057 1.788208 -6.478424 -5.79834E-4z" fill-rule="evenodd"/><path fill="#4a86e8" d="m484.22253 346.25992l0 0c1.7888184 -1.7888184 4.6893005 -1.7890625 6.478424 -6.1035156E-4l79.694244 79.6651c0.85913086 0.8588562 1.3418579 2.0237732 1.34198 3.2384949c1.2207031E-4 1.2147217 -0.48242188 2.3797302 -1.3414307 3.238739l-12.955261 12.955261c-1.7887573 1.7887878 -4.68927 1.7890625 -6.4783936 5.79834E-4l-79.694214 -79.6651l0 0c-1.7891235 -1.7884827 -1.7893982 -4.6884155 -5.79834E-4 -6.477234z" fill-rule="evenodd"/><path stroke="#4a86e8" stroke-width="1.0" stroke-linejoin="round" stroke-linecap="butt" d="m484.22253 346.25992l0 0c1.7888184 -1.7888184 4.6893005 -1.7890625 6.478424 -6.1035156E-4l79.694244 79.6651c0.85913086 0.8588562 1.3418579 2.0237732 1.34198 3.2384949c1.2207031E-4 1.2147217 -0.48242188 2.3797302 -1.3414307 3.238739l-12.955261 12.955261c-1.7887573 1.7887878 -4.68927 1.7890625 -6.4783936 5.79834E-4l-79.694214 -79.6651l0 0c-1.7891235 -1.7884827 -1.7893982 -4.6884155 -5.79834E-4 -6.477234z" fill-rule="evenodd"/><path fill="#ff0000" d="m322.19684 250.0l0 0c0 -29.162369 23.640778 -52.803146 52.80316 -52.803146l0 0c14.004272 0 27.434967 5.5631714 37.337463 15.465683c9.902527 9.902512 15.465698 23.33319 15.465698 37.337463l0 0c0 29.162384 -23.640778 52.80316 -52.80316 52.80316l0 0c-29.162384 0 -52.80316 -23.640778 -52.80316 -52.80316zm26.40158 0l0 0c0 14.581177 11.820404 26.40158 26.40158 26.40158c14.581177 0 26.40158 -11.820404 26.40158 -26.40158c0 -14.581192 -11.820404 -26.40158 -26.40158 -26.40158l0 0c-14.581177 0 -26.40158 11.820389 -26.40158 26.40158z" fill-rule="evenodd"/><path stroke="#ff0000" stroke-width="1.0" stroke-linejoin="round" stroke-linecap="butt" d="m322.19684 250.0l0 0c0 -29.162369 23.640778 -52.803146 52.80316 -52.803146l0 0c14.004272 0 27.434967 5.5631714 37.337463 15.465683c9.902527 9.902512 15.465698 23.33319 15.465698 37.337463l0 0c0 29.162384 -23.640778 52.80316 -52.80316 52.80316l0 0c-29.162384 0 -52.80316 -23.640778 -52.80316 -52.80316zm26.40158 0l0 0c0 14.581177 11.820404 26.40158 26.40158 26.40158c14.581177 0 26.40158 -11.820404 26.40158 -26.40158c0 -14.581192 -11.820404 -26.40158 -26.40158 -26.40158l0 0c-14.581177 0 -26.40158 11.820389 -26.40158 26.40158z" fill-rule="evenodd"/><path fill="#4a86e8" d="m179.6233 432.42575l0 0c-1.7888031 -1.7887878 -1.7885437 -4.688751 5.950928E-4 -6.477234l79.694214 -79.6651c0.8591614 -0.8588562 2.0243835 -1.3412781 3.2393494 -1.341156c1.2149353 9.1552734E-5 2.380066 0.48275757 3.2390747 1.3417664l12.955231 12.955231c1.7888184 1.7888184 1.7885437 4.6887817 -5.79834E-4 6.477234l-79.69423 79.6651l0 0c-1.7891235 1.7884827 -4.6896057 1.788208 -6.478409 -5.79834E-4z" fill-rule="evenodd"/><path stroke="#4a86e8" stroke-width="1.0" stroke-linejoin="round" stroke-linecap="butt" d="m179.6233 432.42575l0 0c-1.7888031 -1.7887878 -1.7885437 -4.688751 5.950928E-4 -6.477234l79.694214 -79.6651c0.8591614 -0.8588562 2.0243835 -1.3412781 3.2393494 -1.341156c1.2149353 9.1552734E-5 2.380066 0.48275757 3.2390747 1.3417664l12.955231 12.955231c1.7888184 1.7888184 1.7885437 4.6887817 -5.79834E-4 6.477234l-79.69423 79.6651l0 0c-1.7891235 1.7884827 -4.6896057 1.788208 -6.478409 -5.79834E-4z" fill-rule="evenodd"/><path fill="#4a86e8" d="m192.58212 346.25992l0 0c1.7888031 -1.7888184 4.6892853 -1.7890625 6.478409 -6.1035156E-4l79.69423 79.6651c0.8591614 0.8588562 1.341919 2.0237732 1.3420105 3.2384949c1.2207031E-4 1.2147217 -0.48242188 2.3797302 -1.3414307 3.238739l-12.955231 12.955261c-1.7888184 1.7887878 -4.6893005 1.7890625 -6.478424 5.79834E-4l-79.694214 -79.6651l0 0c-1.7891388 -1.7884827 -1.7893982 -4.6884155 -5.950928E-4 -6.477234z" fill-rule="evenodd"/><path stroke="#4a86e8" stroke-width="1.0" stroke-linejoin="round" stroke-linecap="butt" d="m192.58212 346.25992l0 0c1.7888031 -1.7888184 4.6892853 -1.7890625 6.478409 -6.1035156E-4l79.69423 79.6651c0.8591614 0.8588562 1.341919 2.0237732 1.3420105 3.2384949c1.2207031E-4 1.2147217 -0.48242188 2.3797302 -1.3414307 3.238739l-12.955231 12.955261c-1.7888184 1.7887878 -4.6893005 1.7890625 -6.478424 5.79834E-4l-79.694214 -79.6651l0 0c-1.7891388 -1.7884827 -1.7893982 -4.6884155 -5.950928E-4 -6.477234z" fill-rule="evenodd"/><path fill="#ff0000" d="m322.20602 395.82416l0 0c0 -29.162384 23.640778 -52.80316 52.80316 -52.80316l0 0c14.004272 0 27.434967 5.5631714 37.337463 15.465698c9.902527 9.902496 15.465698 23.33319 15.465698 37.337463l0 0c0 29.162354 -23.640778 52.80313 -52.80316 52.80313l0 0c-29.162384 0 -52.80316 -23.640778 -52.80316 -52.80313zm26.40158 0l0 0c0 14.581177 11.820404 26.40155 26.40158 26.40155c14.581177 0 26.40158 -11.820374 26.40158 -26.40155c0 -14.581207 -11.820404 -26.40158 -26.40158 -26.40158l0 0c-14.581177 0 -26.40158 11.820374 -26.40158 26.40158z" fill-rule="evenodd"/><path stroke="#ff0000" stroke-width="1.0" stroke-linejoin="round" stroke-linecap="butt" d="m322.20602 395.82416l0 0c0 -29.162384 23.640778 -52.80316 52.80316 -52.80316l0 0c14.004272 0 27.434967 5.5631714 37.337463 15.465698c9.902527 9.902496 15.465698 23.33319 15.465698 37.337463l0 0c0 29.162354 -23.640778 52.80313 -52.80316 52.80313l0 0c-29.162384 0 -52.80316 -23.640778 -52.80316 -52.80313zm26.40158 0l0 0c0 14.581177 11.820404 26.40155 26.40158 26.40155c14.581177 0 26.40158 -11.820374 26.40158 -26.40155c0 -14.581207 -11.820404 -26.40158 -26.40158 -26.40158l0 0c-14.581177 0 -26.40158 11.820374 -26.40158 26.40158z" fill-rule="evenodd"/><path fill="#4a86e8" d="m325.4435 140.79846l0 0c-1.7887878 -1.7888031 -1.7885437 -4.6887665 6.1035156E-4 -6.477234l79.694214 -79.6651c0.8591614 -0.8588562 2.0243835 -1.3412933 3.2393188 -1.3411827c1.2149353 1.1062622E-4 2.380066 0.48276138 3.2390747 1.341774l12.955261 12.955254c1.7888184 1.7888031 1.7885437 4.688751 -5.79834E-4 6.4772263l-79.694244 79.6651l0 0c-1.7891235 1.7884674 -4.6896057 1.788208 -6.4783936 -5.950928E-4z" fill-rule="evenodd"/><path stroke="#4a86e8" stroke-width="1.0" stroke-linejoin="round" stroke-linecap="butt" d="m325.4435 140.79846l0 0c-1.7887878 -1.7888031 -1.7885437 -4.6887665 6.1035156E-4 -6.477234l79.694214 -79.6651c0.8591614 -0.8588562 2.0243835 -1.3412933 3.2393188 -1.3411827c1.2149353 1.1062622E-4 2.380066 0.48276138 3.2390747 1.341774l12.955261 12.955254c1.7888184 1.7888031 1.7885437 4.688751 -5.79834E-4 6.4772263l-79.694244 79.6651l0 0c-1.7891235 1.7884674 -4.6896057 1.788208 -6.4783936 -5.950928E-4z" fill-rule="evenodd"/><path fill="#4a86e8" d="m338.40234 54.63261l0 0c1.7887878 -1.7887993 4.68927 -1.7890663 6.4783936 -5.912781E-4l79.694244 79.6651c0.8591614 0.8588562 1.3418884 2.0237732 1.3420105 3.2384949c1.2207031E-4 1.2147064 -0.48242188 2.379715 -1.3414307 3.2387238l-12.955261 12.955261c-1.7887878 1.7888031 -4.68927 1.7890625 -6.4783936 5.79834E-4l-79.694244 -79.66509l0 0c-1.7891235 -1.7884674 -1.7893677 -4.688423 -5.79834E-4 -6.4772263z" fill-rule="evenodd"/><path stroke="#4a86e8" stroke-width="1.0" stroke-linejoin="round" stroke-linecap="butt" d="m338.40234 54.63261l0 0c1.7887878 -1.7887993 4.68927 -1.7890663 6.4783936 -5.912781E-4l79.694244 79.6651c0.8591614 0.8588562 1.3418884 2.0237732 1.3420105 3.2384949c1.2207031E-4 1.2147064 -0.48242188 2.379715 -1.3414307 3.2387238l-12.955261 12.955261c-1.7887878 1.7888031 -4.68927 1.7890625 -6.4783936 5.79834E-4l-79.694244 -79.66509l0 0c-1.7891235 -1.7884674 -1.7893677 -4.688423 -5.79834E-4 -6.4772263z" fill-rule="evenodd"/><path fill="#ff0000" d="m176.38846 250.00656l0 0c0 -29.162369 23.640762 -52.803146 52.803146 -52.803146l0 0c14.004257 0 27.434952 5.5631714 37.33745 15.465683c9.902527 9.902512 15.465698 23.33319 15.465698 37.337463l0 0c0 29.162384 -23.640778 52.80316 -52.803146 52.80316l0 0c-29.162384 0 -52.803146 -23.640778 -52.803146 -52.80316zm26.401566 0l0 0c0 14.581177 11.820389 26.40158 26.40158 26.40158c14.581177 0 26.401566 -11.820404 26.401566 -26.40158c0 -14.581192 -11.820389 -26.40158 -26.401566 -26.40158l0 0c-14.581192 0 -26.40158 11.820389 -26.40158 26.40158z" fill-rule="evenodd"/><path stroke="#ff0000" stroke-width="1.0" stroke-linejoin="round" stroke-linecap="butt" d="m176.38846 250.00656l0 0c0 -29.162369 23.640762 -52.803146 52.803146 -52.803146l0 0c14.004257 0 27.434952 5.5631714 37.33745 15.465683c9.902527 9.902512 15.465698 23.33319 15.465698 37.337463l0 0c0 29.162384 -23.640778 52.80316 -52.803146 52.80316l0 0c-29.162384 0 -52.803146 -23.640778 -52.803146 -52.80316zm26.401566 0l0 0c0 14.581177 11.820389 26.40158 26.40158 26.40158c14.581177 0 26.401566 -11.820404 26.401566 -26.40158c0 -14.581192 -11.820389 -26.40158 -26.401566 -26.40158l0 0c-14.581192 0 -26.40158 11.820389 -26.40158 26.40158z" fill-rule="evenodd"/></g></svg>