<svg version="1.1" viewBox="0.0 0.0 256.0 256.0" fill="none" stroke="none" stroke-linecap="square" stroke-miterlimit="10" xmlns:xlink="http://www.w3.org/1999/xlink" xmlns="http://www.w3.org/2000/svg"><clipPath id="p.0"><path d="m0 0l256.0 0l0 256.0l-256.0 0l0 -256.0z" clip-rule="nonzero"/></clipPath><g clip-path="url(#p.0)"><path fill="#000000" fill-opacity="0.0" d="m0 0l256.0 0l0 256.0l-256.0 0z" fill-rule="evenodd"/><path fill="#e0af1a" d="m93.561005 164.63069l0 0c-13.92453 0 -25.2126 -12.585388 -25.2126 -28.110245c0 -15.524849 11.288071 -28.11023 25.2126 -28.11023l0 12.6063l0 0c-6.962265 0 -12.6063 6.941345 -12.6063 15.503929c0 8.562592 5.6440353 15.503937 12.6063 15.503937z" fill-rule="evenodd"/><path fill="#e0af1a" d="m243.48723 85.79528c3.1247864 7.328987 2.7840118 56.35853 0 63.403465c-2.7839966 7.0449524 -10.831192 -17.032486 -16.70404 -21.133774c-5.8728333 -4.101303 -15.00473 -0.26078796 -18.53302 -3.474022c-3.5282898 -3.2132416 -5.3847656 -12.577721 -2.6367035 -15.805412c2.7480621 -3.227684 12.812775 0.27100372 19.125076 -3.560707c6.3122864 -3.8317108 15.623917 -26.758537 18.748688 -19.42955z" fill-rule="evenodd"/><path fill="#e0af1a" d="m213.22226 107.26224l-119.994225 1.184082l-0.1691513 12.525917l119.99423 5.0767593z" fill-rule="evenodd"/><path fill="#cccccc" d="m116.18449 101.19704l0 0c0 -0.15945435 0.12926483 -0.28871918 0.28871918 -0.28871918l1.1548462 0l0 0c0.07657623 0 0.15000916 0.030418396 0.20415497 0.08456421c0.054145813 0.054145813 0.08456421 0.12757874 0.08456421 0.20415497l0 4.6194077c0 0.15945435 -0.12926483 0.28871918 -0.28871918 0.28871918l-1.1548462 0c-0.15945435 0 -0.28871918 -0.12926483 -0.28871918 -0.28871918z" fill-rule="evenodd"/><path stroke="#cccccc" stroke-width="1.0" stroke-linejoin="round" stroke-linecap="butt" d="m116.18449 101.19704l0 0c0 -0.15945435 0.12926483 -0.28871918 0.28871918 -0.28871918l1.1548462 0l0 0c0.07657623 0 0.15000916 0.030418396 0.20415497 0.08456421c0.054145813 0.054145813 0.08456421 0.12757874 0.08456421 0.20415497l0 4.6194077c0 0.15945435 -0.12926483 0.28871918 -0.28871918 0.28871918l-1.1548462 0c-0.15945435 0 -0.28871918 -0.12926483 -0.28871918 -0.28871918z" fill-rule="evenodd"/><path fill="#bf9000" d="m114.10184 171.64043l5.879204 0l0 0c0.38983154 0 0.76368713 -0.15486145 1.0393372 -0.43051147c0.27565002 -0.27565002 0.43051147 -0.6495209 0.43051147 -1.0393372l0 -60.640396c0 -3.8146973E-5 -3.8146973E-5 -6.866455E-5 -7.6293945E-5 -6.866455E-5l-8.818825 6.866455E-5l0 0c-3.8146973E-5 0 -6.866455E-5 3.8146973E-5 -6.866455E-5 7.6293945E-5l6.866455E-5 60.64032l0 0c0 0.8117676 0.6580734 1.4698486 1.4698486 1.4698486z" fill-rule="evenodd"/><path stroke="#bf9000" stroke-width="1.0" stroke-linejoin="round" stroke-linecap="butt" d="m114.10184 171.64043l5.879204 0l0 0c0.38983154 0 0.76368713 -0.15486145 1.0393372 -0.43051147c0.27565002 -0.27565002 0.43051147 -0.6495209 0.43051147 -1.0393372l0 -60.640396c0 -3.8146973E-5 -3.8146973E-5 -6.866455E-5 -7.6293945E-5 -6.866455E-5l-8.818825 6.866455E-5l0 0c-3.8146973E-5 0 -6.866455E-5 3.8146973E-5 -6.866455E-5 7.6293945E-5l6.866455E-5 60.64032l0 0c0 0.8117676 0.6580734 1.4698486 1.4698486 1.4698486z" fill-rule="evenodd"/><path fill="#7f6000" d="m111.66774 106.673874l0 0c0 -0.31601715 0.2561798 -0.57218933 0.57218933 -0.57218933l9.627274 0c0.15175629 0 0.29729462 0.060279846 0.40460205 0.16758728c0.107307434 0.107307434 0.16758728 0.25284576 0.16758728 0.40460205l0 2.2886887c0 0.31600952 -0.2561798 0.57218933 -0.57218933 0.57218933l-9.627274 0c-0.31600952 0 -0.57218933 -0.2561798 -0.57218933 -0.57218933z" fill-rule="evenodd"/><path stroke="#7f6000" stroke-width="1.0" stroke-linejoin="round" stroke-linecap="butt" d="m111.66774 106.673874l0 0c0 -0.31601715 0.2561798 -0.57218933 0.57218933 -0.57218933l9.627274 0c0.15175629 0 0.29729462 0.060279846 0.40460205 0.16758728c0.107307434 0.107307434 0.16758728 0.25284576 0.16758728 0.40460205l0 2.2886887c0 0.31600952 -0.2561798 0.57218933 -0.57218933 0.57218933l-9.627274 0c-0.31600952 0 -0.57218933 -0.2561798 -0.57218933 -0.57218933z" fill-rule="evenodd"/><path fill="#b7b7b7" d="m112.149864 98.08029l0 0c0 -0.31600952 0.2561798 -0.57218933 0.57218933 -0.57218933l8.682396 0c0.15174866 0 0.297287 0.060279846 0.40459442 0.16758728c0.107307434 0.107307434 0.16759491 0.25284576 0.16759491 0.40460205l0 2.2886887c0 0.31600952 -0.2561798 0.57218933 -0.57218933 0.57218933l-8.682396 0c-0.31600952 0 -0.57218933 -0.2561798 -0.57218933 -0.57218933z" fill-rule="evenodd"/><path stroke="#b7b7b7" stroke-width="1.0" stroke-linejoin="round" stroke-linecap="butt" d="m112.149864 98.08029l0 0c0 -0.31600952 0.2561798 -0.57218933 0.57218933 -0.57218933l8.682396 0c0.15174866 0 0.297287 0.060279846 0.40459442 0.16758728c0.107307434 0.107307434 0.16759491 0.25284576 0.16759491 0.40460205l0 2.2886887c0 0.31600952 -0.2561798 0.57218933 -0.57218933 0.57218933l-8.682396 0c-0.31600952 0 -0.57218933 -0.2561798 -0.57218933 -0.57218933z" fill-rule="evenodd"/><path fill="#cccccc" d="m129.07498 101.19704l0 0c0 -0.15945435 0.1292572 -0.28871918 0.2887268 -0.28871918l1.1548309 0l0 0c0.07658386 0 0.15000916 0.030418396 0.2041626 0.08456421c0.054138184 0.054145813 0.08456421 0.12757874 0.08456421 0.20415497l0 4.6194077c0 0.15945435 -0.1292572 0.28871918 -0.2887268 0.28871918l-1.1548309 0c-0.1594696 0 -0.2887268 -0.12926483 -0.2887268 -0.28871918z" fill-rule="evenodd"/><path stroke="#cccccc" stroke-width="1.0" stroke-linejoin="round" stroke-linecap="butt" d="m129.07498 101.19704l0 0c0 -0.15945435 0.1292572 -0.28871918 0.2887268 -0.28871918l1.1548309 0l0 0c0.07658386 0 0.15000916 0.030418396 0.2041626 0.08456421c0.054138184 0.054145813 0.08456421 0.12757874 0.08456421 0.20415497l0 4.6194077c0 0.15945435 -0.1292572 0.28871918 -0.2887268 0.28871918l-1.1548309 0c-0.1594696 0 -0.2887268 -0.12926483 -0.2887268 -0.28871918z" fill-rule="evenodd"/><path fill="#bf9000" d="m126.99233 171.64043l5.879204 0l0 0c0.38983154 0 0.76368713 -0.15486145 1.0393372 -0.43051147c0.27565002 -0.27565002 0.43051147 -0.6495209 0.43051147 -1.0393372l0 -60.640396c0 -3.8146973E-5 -3.0517578E-5 -6.866455E-5 -7.6293945E-5 -6.866455E-5l-8.818825 6.866455E-5l0 0c-3.8146973E-5 0 -7.6293945E-5 3.8146973E-5 -7.6293945E-5 7.6293945E-5l7.6293945E-5 60.64032l0 0c0 0.8117676 0.6580734 1.4698486 1.4698486 1.4698486z" fill-rule="evenodd"/><path stroke="#bf9000" stroke-width="1.0" stroke-linejoin="round" stroke-linecap="butt" d="m126.99233 171.64043l5.879204 0l0 0c0.38983154 0 0.76368713 -0.15486145 1.0393372 -0.43051147c0.27565002 -0.27565002 0.43051147 -0.6495209 0.43051147 -1.0393372l0 -60.640396c0 -3.8146973E-5 -3.0517578E-5 -6.866455E-5 -7.6293945E-5 -6.866455E-5l-8.818825 6.866455E-5l0 0c-3.8146973E-5 0 -7.6293945E-5 3.8146973E-5 -7.6293945E-5 7.6293945E-5l7.6293945E-5 60.64032l0 0c0 0.8117676 0.6580734 1.4698486 1.4698486 1.4698486z" fill-rule="evenodd"/><path fill="#7f6000" d="m124.558235 106.673874l0 0c0 -0.31601715 0.2561798 -0.57218933 0.57218933 -0.57218933l9.627281 0c0.15174866 0 0.297287 0.060279846 0.4045868 0.16758728c0.10731506 0.107307434 0.16760254 0.25284576 0.16760254 0.40460205l0 2.2886887c0 0.31600952 -0.2561798 0.57218933 -0.57218933 0.57218933l-9.627281 0c-0.31600952 0 -0.57218933 -0.2561798 -0.57218933 -0.57218933z" fill-rule="evenodd"/><path stroke="#7f6000" stroke-width="1.0" stroke-linejoin="round" stroke-linecap="butt" d="m124.558235 106.673874l0 0c0 -0.31601715 0.2561798 -0.57218933 0.57218933 -0.57218933l9.627281 0c0.15174866 0 0.297287 0.060279846 0.4045868 0.16758728c0.10731506 0.107307434 0.16760254 0.25284576 0.16760254 0.40460205l0 2.2886887c0 0.31600952 -0.2561798 0.57218933 -0.57218933 0.57218933l-9.627281 0c-0.31600952 0 -0.57218933 -0.2561798 -0.57218933 -0.57218933z" fill-rule="evenodd"/><path fill="#b7b7b7" d="m125.04036 98.08029l0 0c0 -0.31600952 0.2561798 -0.57218933 0.57218933 -0.57218933l8.682388 0c0.15176392 0 0.29730225 0.060279846 0.40460205 0.16758728c0.10731506 0.107307434 0.16758728 0.25284576 0.16758728 0.40460205l0 2.2886887c0 0.31600952 -0.2561798 0.57218933 -0.57218933 0.57218933l-8.682388 0c-0.31600952 0 -0.57218933 -0.2561798 -0.57218933 -0.57218933z" fill-rule="evenodd"/><path stroke="#b7b7b7" stroke-width="1.0" stroke-linejoin="round" stroke-linecap="butt" d="m125.04036 98.08029l0 0c0 -0.31600952 0.2561798 -0.57218933 0.57218933 -0.57218933l8.682388 0c0.15176392 0 0.29730225 0.060279846 0.40460205 0.16758728c0.10731506 0.107307434 0.16758728 0.25284576 0.16758728 0.40460205l0 2.2886887c0 0.31600952 -0.2561798 0.57218933 -0.57218933 0.57218933l-8.682388 0c-0.31600952 0 -0.57218933 -0.2561798 -0.57218933 -0.57218933z" fill-rule="evenodd"/><path fill="#cccccc" d="m141.96547 101.19704l0 0c0 -0.15945435 0.12927246 -0.28871918 0.2887268 -0.28871918l1.1548462 0l0 0c0.0765686 0 0.15000916 0.030418396 0.20414734 0.08456421c0.054153442 0.054145813 0.08456421 0.12757874 0.08456421 0.20415497l0 4.6194077c0 0.15945435 -0.1292572 0.28871918 -0.28871155 0.28871918l-1.1548462 0c-0.15945435 0 -0.2887268 -0.12926483 -0.2887268 -0.28871918z" fill-rule="evenodd"/><path stroke="#cccccc" stroke-width="1.0" stroke-linejoin="round" stroke-linecap="butt" d="m141.96547 101.19704l0 0c0 -0.15945435 0.12927246 -0.28871918 0.2887268 -0.28871918l1.1548462 0l0 0c0.0765686 0 0.15000916 0.030418396 0.20414734 0.08456421c0.054153442 0.054145813 0.08456421 0.12757874 0.08456421 0.20415497l0 4.6194077c0 0.15945435 -0.1292572 0.28871918 -0.28871155 0.28871918l-1.1548462 0c-0.15945435 0 -0.2887268 -0.12926483 -0.2887268 -0.28871918z" fill-rule="evenodd"/><path fill="#bf9000" d="m139.88283 171.64043l5.879196 0l0 0c0.38983154 0 0.76368713 -0.15486145 1.0393372 -0.43051147c0.27565002 -0.27565002 0.43051147 -0.6495209 0.43051147 -1.0393372l0 -60.640396c0 -3.8146973E-5 -3.0517578E-5 -6.866455E-5 -7.6293945E-5 -6.866455E-5l-8.818817 6.866455E-5l0 0c-4.5776367E-5 0 -7.6293945E-5 3.8146973E-5 -7.6293945E-5 7.6293945E-5l7.6293945E-5 60.64032l0 0c0 0.8117676 0.6580658 1.4698486 1.4698486 1.4698486z" fill-rule="evenodd"/><path stroke="#bf9000" stroke-width="1.0" stroke-linejoin="round" stroke-linecap="butt" d="m139.88283 171.64043l5.879196 0l0 0c0.38983154 0 0.76368713 -0.15486145 1.0393372 -0.43051147c0.27565002 -0.27565002 0.43051147 -0.6495209 0.43051147 -1.0393372l0 -60.640396c0 -3.8146973E-5 -3.0517578E-5 -6.866455E-5 -7.6293945E-5 -6.866455E-5l-8.818817 6.866455E-5l0 0c-4.5776367E-5 0 -7.6293945E-5 3.8146973E-5 -7.6293945E-5 7.6293945E-5l7.6293945E-5 60.64032l0 0c0 0.8117676 0.6580658 1.4698486 1.4698486 1.4698486z" fill-rule="evenodd"/><path fill="#7f6000" d="m137.44873 106.673874l0 0c0 -0.31601715 0.2561798 -0.57218933 0.57218933 -0.57218933l9.627274 0c0.15174866 0 0.297287 0.060279846 0.40460205 0.16758728c0.107299805 0.107307434 0.16758728 0.25284576 0.16758728 0.40460205l0 2.2886887c0 0.31600952 -0.2561798 0.57218933 -0.57218933 0.57218933l-9.627274 0c-0.31600952 0 -0.57218933 -0.2561798 -0.57218933 -0.57218933z" fill-rule="evenodd"/><path stroke="#7f6000" stroke-width="1.0" stroke-linejoin="round" stroke-linecap="butt" d="m137.44873 106.673874l0 0c0 -0.31601715 0.2561798 -0.57218933 0.57218933 -0.57218933l9.627274 0c0.15174866 0 0.297287 0.060279846 0.40460205 0.16758728c0.107299805 0.107307434 0.16758728 0.25284576 0.16758728 0.40460205l0 2.2886887c0 0.31600952 -0.2561798 0.57218933 -0.57218933 0.57218933l-9.627274 0c-0.31600952 0 -0.57218933 -0.2561798 -0.57218933 -0.57218933z" fill-rule="evenodd"/><path fill="#b7b7b7" d="m137.93085 98.08029l0 0c0 -0.31600952 0.2561798 -0.57218933 0.57218933 -0.57218933l8.682404 0c0.15174866 0 0.297287 0.060279846 0.40460205 0.16758728c0.107299805 0.107307434 0.16758728 0.25284576 0.16758728 0.40460205l0 2.2886887c0 0.31600952 -0.2561798 0.57218933 -0.57218933 0.57218933l-8.682404 0c-0.31600952 0 -0.57218933 -0.2561798 -0.57218933 -0.57218933z" fill-rule="evenodd"/><path stroke="#b7b7b7" stroke-width="1.0" stroke-linejoin="round" stroke-linecap="butt" d="m137.93085 98.08029l0 0c0 -0.31600952 0.2561798 -0.57218933 0.57218933 -0.57218933l8.682404 0c0.15174866 0 0.297287 0.060279846 0.40460205 0.16758728c0.107299805 0.107307434 0.16758728 0.25284576 0.16758728 0.40460205l0 2.2886887c0 0.31600952 -0.2561798 0.57218933 -0.57218933 0.57218933l-8.682404 0c-0.31600952 0 -0.57218933 -0.2561798 -0.57218933 -0.57218933z" fill-rule="evenodd"/><path fill="#b7b7b7" d="m10.294722 111.51708l0 0c0 -0.5218582 0.42304707 -0.9449005 0.9449005 -0.9449005l3.7794905 0l0 0c0.25060272 0 0.490942 0.09954834 0.6681452 0.27674866c0.17720318 0.17720795 0.27675533 0.41754913 0.27675533 0.66815186l0 20.818855c0 0.5218506 -0.4230461 0.9449005 -0.9449005 0.9449005l-3.7794905 0c-0.52185345 0 -0.9449005 -0.42304993 -0.9449005 -0.9449005z" fill-rule="evenodd"/><path fill="#999999" d="m31.317526 119.43053l0 4.957733l0 0c0 1.3765869 -0.5468464 2.6967926 -1.5202408 3.6701813c-0.9733925 0.9733887 -2.2935963 1.5202484 -3.6701832 1.5202484l-10.148159 0c-7.05719E-5 0 -1.2779236E-4 -6.1035156E-5 -1.2779236E-4 -1.373291E-4l1.2779236E-4 -15.338455l0 0c0 -6.866455E-5 5.722046E-5 -1.2207031E-4 1.2779236E-4 -1.2207031E-4l10.148031 1.2207031E-4l0 0c2.8665924 0 5.190424 2.3238373 5.190424 5.1904297z" fill-rule="evenodd"/><path fill="#999999" d="m52.256268 120.10169l0 3.6115112l0 0c0 0.2394638 -0.095127106 0.46912384 -0.2644539 0.6384506c-0.1693306 0.16932678 -0.39898682 0.2644577 -0.6384506 0.2644577l-20.041977 0c-2.4795532E-5 0 -4.5776367E-5 -2.2888184E-5 -4.5776367E-5 -4.5776367E-5l4.5776367E-5 -5.417282l0 0c0 -2.2888184E-5 1.9073486E-5 -4.5776367E-5 4.386902E-5 -4.5776367E-5l20.041933 4.5776367E-5l0 0c0.49866104 0 0.9029045 0.4042511 0.9029045 0.9029083z" fill-rule="evenodd"/><path stroke="#999999" stroke-width="1.0" stroke-linejoin="round" stroke-linecap="butt" d="m52.256268 120.10169l0 3.6115112l0 0c0 0.2394638 -0.095127106 0.46912384 -0.2644539 0.6384506c-0.1693306 0.16932678 -0.39898682 0.2644577 -0.6384506 0.2644577l-20.041977 0c-2.4795532E-5 0 -4.5776367E-5 -2.2888184E-5 -4.5776367E-5 -4.5776367E-5l4.5776367E-5 -5.417282l0 0c0 -2.2888184E-5 1.9073486E-5 -4.5776367E-5 4.386902E-5 -4.5776367E-5l20.041933 4.5776367E-5l0 0c0.49866104 0 0.9029045 0.4042511 0.9029045 0.9029083z" fill-rule="evenodd"/><path fill="#f1c232" d="m39.057236 118.09326l0 0c0 -1.0582047 0.8578453 -1.9160538 1.9160461 -1.9160538l145.52223 0c0.50816345 0 0.9955292 0.20187378 1.3548584 0.561203c0.35932922 0.35932922 0.56118774 0.8466797 0.56118774 1.3548508l0 7.6639633c0 1.0582047 -0.85783386 1.9160461 -1.9160461 1.9160461l-145.52223 0c-1.0582008 0 -1.9160461 -0.8578415 -1.9160461 -1.9160461z" fill-rule="evenodd"/><path fill="#f1c232" d="m186.6219 116.22781l0 0c12.689499 0 22.97638 11.252808 22.97638 25.13385c0 13.881058 -10.2868805 25.133865 -22.97638 25.133865l0 -11.48819l0 0c6.344742 0 11.48819 -6.109375 11.48819 -13.645676c0 -7.5362854 -5.143448 -13.64566 -11.48819 -13.64566z" fill-rule="evenodd"/><path fill="#f1c232" d="m47.62382 117.008965l0 0c0 -1.3568192 1.0999184 -2.4567413 2.4567413 -2.4567413l11.905415 0c0.65156555 0 1.2764473 0.25883484 1.7371788 0.7195587c0.4607277 0.4607315 0.71956253 1.0856171 0.71956253 1.7371826l0 9.826675c0 1.3568192 -1.0999222 2.4567337 -2.4567413 2.4567337l-11.905415 0c-1.356823 0 -2.4567413 -1.0999146 -2.4567413 -2.4567337z" fill-rule="evenodd"/><path fill="#ff0000" d="m-448.7565 418.64566l0 0c-25.448578 0 -46.078735 -20.630157 -46.078735 -46.078735c0 -25.448578 20.630157 -46.078735 46.078735 -46.078735l0 23.039368c-12.724274 0 -23.039368 10.315094 -23.039368 23.039368c0 12.724304 10.315094 23.039368 23.039368 23.039368z" fill-rule="evenodd"/><path fill="#ff0000" d="m-231.94556 299.85754c3.87883 9.097565 3.4558105 69.958435 0 78.70343c-3.4558258 8.744965 -13.444885 -21.142609 -20.73491 -26.233612c-7.290024 -5.090973 -18.78389 -0.28826904 -23.005264 -4.312317c-4.221344 -4.0240784 -5.734009 -15.82547 -2.322815 -19.832031c3.4111938 -4.0065613 15.112854 0.5135498 22.790024 -4.207367c7.67717 -4.720886 19.394135 -33.215637 23.272964 -24.118103z" fill-rule="evenodd"/><path fill="#ff0000" d="m-451.69028 330.3747l0 0c0 -2.1221924 1.7203674 -3.8425903 3.8425903 -3.8425903l177.66913 0c1.0191345 0 1.9964905 0.4048462 2.7171326 1.1254578c0.7206116 0.7206421 1.1254578 1.6980286 1.1254578 2.7171326l0 15.369934c0 2.1221924 -1.7203674 3.8425903 -3.8425903 3.8425903l-177.66913 0l0 0c-2.122223 0 -3.8425903 -1.720398 -3.8425903 -3.8425903z" fill-rule="evenodd"/><defs><linearGradient id="p.1" gradientUnits="userSpaceOnUse" gradientTransform="matrix(9.744055871964097 0.0 0.0 9.744055871964097 0.0 0.0)" spreadMethod="pad" x1="9.457931000666385" y1="17.086592336041125" x2="19.20198687263048" y2="17.086592336041125"><stop offset="0.0" stop-color="#e0af1a"/><stop offset="1.0" stop-color="#f1c232"/></linearGradient></defs><path fill="url(#p.1)" d="m187.10522 155.06842l-94.016266 -3.0469055l-0.93035126 12.523804l94.94662 1.9473877z" fill-rule="evenodd"/></g></svg>