<svg version="1.1" viewBox="0.0 0.0 250.0 100.0" fill="none" stroke="none" stroke-linecap="square" stroke-miterlimit="10" xmlns:xlink="http://www.w3.org/1999/xlink" xmlns="http://www.w3.org/2000/svg"><clipPath id="p.0"><path d="m0 0l250.0 0l0 100.0l-250.0 0l0 -100.0z" clip-rule="nonzero"/></clipPath><g clip-path="url(#p.0)"><path fill="#000000" fill-opacity="0.0" d="m0 0l250.0 0l0 100.0l-250.0 0z" fill-rule="evenodd"/><path fill="#ff0000" d="m-438.2454 163.53346l0 0c-24.84848 0 -44.992126 -8.058868 -44.992126 -18.0c0 -9.941116 20.143646 -18.0 44.992126 -18.0l0 9.0l0 0c-19.8779 0 -35.992126 4.029434 -35.992126 9.0c0 4.970566 16.114227 9.0 35.992126 9.0z" fill-rule="evenodd"/><path fill="#ff0000" d="m-226.50754 117.13181c3.7880707 3.553505 3.3749542 27.325768 0 30.741554c-3.3749542 3.4157867 -13.130264 -8.258301 -20.24971 -10.246841c-7.119446 -1.9885406 -18.344345 -0.11260986 -22.466934 -1.6844025c-4.1225586 -1.5717926 -5.5998535 -6.181427 -2.2684631 -7.7463837c3.3313599 -1.5649643 14.759216 0.20059204 22.25673 -1.6433945c7.497528 -1.8439865 18.940323 -12.974037 22.728378 -9.420532z" fill-rule="evenodd"/><path fill="#ff0000" d="m-441.1038 129.05295l0 0c0 -0.8291626 0.6721802 -1.5013428 1.5013428 -1.5013428l178.00519 0c0.39816284 0 0.7800598 0.1581726 1.061615 0.4397354c0.28155518 0.28154755 0.43972778 0.66342926 0.43972778 1.0616074l0 6.005188c0 0.8291626 -0.6721802 1.5013428 -1.5013428 1.5013428l-178.00519 0l0 0c-0.8291626 0 -1.5013428 -0.6721802 -1.5013428 -1.5013428z" fill-rule="evenodd"/><path fill="#e0af1a" d="m90.561005 86.63069l0 0c-13.92453 0 -25.2126 -12.585388 -25.2126 -28.11024c0 -15.524853 11.288071 -28.110235 25.2126 -28.110235l0 12.606298l0 0c-6.962265 0 -12.6063 6.941349 -12.6063 15.503937c0 8.562588 5.6440353 15.503941 12.6063 15.503941z" fill-rule="evenodd"/><path fill="#e0af1a" d="m240.48723 7.795282c3.1247864 7.3289866 2.7840118 56.35852 0 63.403473c-2.7839966 7.044945 -10.831192 -17.032486 -16.70404 -21.13379c-5.8728333 -4.1012993 -15.00473 -0.26078033 -18.53302 -3.474018c-3.5282898 -3.213234 -5.3847656 -12.577721 -2.6367035 -15.805405c2.7480621 -3.227686 12.812775 0.2709999 19.125076 -3.560711c6.3122864 -3.831709 15.623917 -26.758535 18.748688 -19.429548z" fill-rule="evenodd"/><path fill="#e0af1a" d="m210.22226 29.262238l-119.994225 1.1840839l-0.1691513 12.525915l119.99423 5.076763z" fill-rule="evenodd"/><path fill="#cccccc" d="m113.18449 23.197037l0 0c0 -0.15945625 0.12926483 -0.28872108 0.28871918 -0.28872108l1.1548462 0l0 0c0.07657623 0 0.15000916 0.030418396 0.20415497 0.08456421c0.054145813 0.054145813 0.08456421 0.12758255 0.08456421 0.20415688l0 4.6194096c0 0.15945625 -0.12926483 0.28872108 -0.28871918 0.28872108l-1.1548462 0c-0.15945435 0 -0.28871918 -0.12926483 -0.28871918 -0.28872108z" fill-rule="evenodd"/><path stroke="#cccccc" stroke-width="1.0" stroke-linejoin="round" stroke-linecap="butt" d="m113.18449 23.197037l0 0c0 -0.15945625 0.12926483 -0.28872108 0.28871918 -0.28872108l1.1548462 0l0 0c0.07657623 0 0.15000916 0.030418396 0.20415497 0.08456421c0.054145813 0.054145813 0.08456421 0.12758255 0.08456421 0.20415688l0 4.6194096c0 0.15945625 -0.12926483 0.28872108 -0.28871918 0.28872108l-1.1548462 0c-0.15945435 0 -0.28871918 -0.12926483 -0.28871918 -0.28872108z" fill-rule="evenodd"/><path fill="#bf9000" d="m111.10184 93.64042l5.879204 0l0 0c0.38983154 0 0.76368713 -0.15485382 1.0393372 -0.43050385c0.27565002 -0.27565002 0.43051147 -0.64951324 0.43051147 -1.0393372l0 -60.640396c0 -4.005432E-5 -3.8146973E-5 -7.43866E-5 -7.6293945E-5 -7.43866E-5l-8.818825 7.43866E-5l0 0c-3.8146973E-5 0 -6.866455E-5 3.2424927E-5 -6.866455E-5 7.247925E-5l6.866455E-5 60.64032l0 0c0 0.8117676 0.6580734 1.469841 1.4698486 1.469841z" fill-rule="evenodd"/><path stroke="#bf9000" stroke-width="1.0" stroke-linejoin="round" stroke-linecap="butt" d="m111.10184 93.64042l5.879204 0l0 0c0.38983154 0 0.76368713 -0.15485382 1.0393372 -0.43050385c0.27565002 -0.27565002 0.43051147 -0.64951324 0.43051147 -1.0393372l0 -60.640396c0 -4.005432E-5 -3.8146973E-5 -7.43866E-5 -7.6293945E-5 -7.43866E-5l-8.818825 7.43866E-5l0 0c-3.8146973E-5 0 -6.866455E-5 3.2424927E-5 -6.866455E-5 7.247925E-5l6.866455E-5 60.64032l0 0c0 0.8117676 0.6580734 1.469841 1.4698486 1.469841z" fill-rule="evenodd"/><path fill="#7f6000" d="m108.66774 28.67387l0 0c0 -0.31601143 0.2561798 -0.57218933 0.57218933 -0.57218933l9.627274 0c0.15175629 0 0.29729462 0.06028366 0.40460205 0.1675911c0.107307434 0.10730553 0.16758728 0.25284386 0.16758728 0.40459824l0 2.2886925c0 0.31601143 -0.2561798 0.57218933 -0.57218933 0.57218933l-9.627274 0c-0.31600952 0 -0.57218933 -0.2561779 -0.57218933 -0.57218933z" fill-rule="evenodd"/><path stroke="#7f6000" stroke-width="1.0" stroke-linejoin="round" stroke-linecap="butt" d="m108.66774 28.67387l0 0c0 -0.31601143 0.2561798 -0.57218933 0.57218933 -0.57218933l9.627274 0c0.15175629 0 0.29729462 0.06028366 0.40460205 0.1675911c0.107307434 0.10730553 0.16758728 0.25284386 0.16758728 0.40459824l0 2.2886925c0 0.31601143 -0.2561798 0.57218933 -0.57218933 0.57218933l-9.627274 0c-0.31600952 0 -0.57218933 -0.2561779 -0.57218933 -0.57218933z" fill-rule="evenodd"/><path fill="#b7b7b7" d="m109.149864 20.08029l0 0c0 -0.31601143 0.2561798 -0.57218933 0.57218933 -0.57218933l8.682396 0c0.15174866 0 0.297287 0.06028366 0.40459442 0.1675911c0.107307434 0.10730553 0.16759491 0.25284386 0.16759491 0.40459824l0 2.2886925c0 0.31601143 -0.2561798 0.57218933 -0.57218933 0.57218933l-8.682396 0c-0.31600952 0 -0.57218933 -0.2561779 -0.57218933 -0.57218933z" fill-rule="evenodd"/><path stroke="#b7b7b7" stroke-width="1.0" stroke-linejoin="round" stroke-linecap="butt" d="m109.149864 20.08029l0 0c0 -0.31601143 0.2561798 -0.57218933 0.57218933 -0.57218933l8.682396 0c0.15174866 0 0.297287 0.06028366 0.40459442 0.1675911c0.107307434 0.10730553 0.16759491 0.25284386 0.16759491 0.40459824l0 2.2886925c0 0.31601143 -0.2561798 0.57218933 -0.57218933 0.57218933l-8.682396 0c-0.31600952 0 -0.57218933 -0.2561779 -0.57218933 -0.57218933z" fill-rule="evenodd"/><path fill="#cccccc" d="m126.07498 23.197037l0 0c0 -0.15945625 0.12926483 -0.28872108 0.28871918 -0.28872108l1.1548462 0l0 0c0.0765686 0 0.15000916 0.030418396 0.20415497 0.08456421c0.054145813 0.054145813 0.08456421 0.12758255 0.08456421 0.20415688l0 4.6194096c0 0.15945625 -0.12926483 0.28872108 -0.28871918 0.28872108l-1.1548462 0c-0.15945435 0 -0.28871918 -0.12926483 -0.28871918 -0.28872108z" fill-rule="evenodd"/><path stroke="#cccccc" stroke-width="1.0" stroke-linejoin="round" stroke-linecap="butt" d="m126.07498 23.197037l0 0c0 -0.15945625 0.12926483 -0.28872108 0.28871918 -0.28872108l1.1548462 0l0 0c0.0765686 0 0.15000916 0.030418396 0.20415497 0.08456421c0.054145813 0.054145813 0.08456421 0.12758255 0.08456421 0.20415688l0 4.6194096c0 0.15945625 -0.12926483 0.28872108 -0.28871918 0.28872108l-1.1548462 0c-0.15945435 0 -0.28871918 -0.12926483 -0.28871918 -0.28872108z" fill-rule="evenodd"/><path fill="#bf9000" d="m123.99233 93.64042l5.879204 0l0 0c0.38983154 0 0.76368713 -0.15485382 1.0393372 -0.43050385c0.27565002 -0.27565002 0.43051147 -0.64951324 0.43051147 -1.0393372l0 -60.640396c0 -4.005432E-5 -3.0517578E-5 -7.43866E-5 -7.6293945E-5 -7.43866E-5l-8.818825 7.43866E-5l0 0c-3.8146973E-5 0 -7.6293945E-5 3.2424927E-5 -7.6293945E-5 7.247925E-5l7.6293945E-5 60.64032l0 0c0 0.8117676 0.6580734 1.469841 1.4698486 1.469841z" fill-rule="evenodd"/><path stroke="#bf9000" stroke-width="1.0" stroke-linejoin="round" stroke-linecap="butt" d="m123.99233 93.64042l5.879204 0l0 0c0.38983154 0 0.76368713 -0.15485382 1.0393372 -0.43050385c0.27565002 -0.27565002 0.43051147 -0.64951324 0.43051147 -1.0393372l0 -60.640396c0 -4.005432E-5 -3.0517578E-5 -7.43866E-5 -7.6293945E-5 -7.43866E-5l-8.818825 7.43866E-5l0 0c-3.8146973E-5 0 -7.6293945E-5 3.2424927E-5 -7.6293945E-5 7.247925E-5l7.6293945E-5 60.64032l0 0c0 0.8117676 0.6580734 1.469841 1.4698486 1.469841z" fill-rule="evenodd"/><path fill="#7f6000" d="m121.558235 28.67387l0 0c0 -0.31601143 0.2561798 -0.57218933 0.57218933 -0.57218933l9.627281 0c0.15174866 0 0.297287 0.06028366 0.4045868 0.1675911c0.10731506 0.10730553 0.16760254 0.25284386 0.16760254 0.40459824l0 2.2886925c0 0.31601143 -0.2561798 0.57218933 -0.57218933 0.57218933l-9.627281 0c-0.31600952 0 -0.57218933 -0.2561779 -0.57218933 -0.57218933z" fill-rule="evenodd"/><path stroke="#7f6000" stroke-width="1.0" stroke-linejoin="round" stroke-linecap="butt" d="m121.558235 28.67387l0 0c0 -0.31601143 0.2561798 -0.57218933 0.57218933 -0.57218933l9.627281 0c0.15174866 0 0.297287 0.06028366 0.4045868 0.1675911c0.10731506 0.10730553 0.16760254 0.25284386 0.16760254 0.40459824l0 2.2886925c0 0.31601143 -0.2561798 0.57218933 -0.57218933 0.57218933l-9.627281 0c-0.31600952 0 -0.57218933 -0.2561779 -0.57218933 -0.57218933z" fill-rule="evenodd"/><path fill="#b7b7b7" d="m122.04036 20.08029l0 0c0 -0.31601143 0.2561798 -0.57218933 0.57218933 -0.57218933l8.682388 0c0.15176392 0 0.29730225 0.06028366 0.40460205 0.1675911c0.10731506 0.10730553 0.16758728 0.25284386 0.16758728 0.40459824l0 2.2886925c0 0.31601143 -0.2561798 0.57218933 -0.57218933 0.57218933l-8.682388 0c-0.31600952 0 -0.57218933 -0.2561779 -0.57218933 -0.57218933z" fill-rule="evenodd"/><path stroke="#b7b7b7" stroke-width="1.0" stroke-linejoin="round" stroke-linecap="butt" d="m122.04036 20.08029l0 0c0 -0.31601143 0.2561798 -0.57218933 0.57218933 -0.57218933l8.682388 0c0.15176392 0 0.29730225 0.06028366 0.40460205 0.1675911c0.10731506 0.10730553 0.16758728 0.25284386 0.16758728 0.40459824l0 2.2886925c0 0.31601143 -0.2561798 0.57218933 -0.57218933 0.57218933l-8.682388 0c-0.31600952 0 -0.57218933 -0.2561779 -0.57218933 -0.57218933z" fill-rule="evenodd"/><path fill="#cccccc" d="m138.96547 23.197037l0 0c0 -0.15945625 0.12927246 -0.28872108 0.2887268 -0.28872108l1.1548462 0l0 0c0.0765686 0 0.15000916 0.030418396 0.20414734 0.08456421c0.054153442 0.054145813 0.08456421 0.12758255 0.08456421 0.20415688l0 4.6194096c0 0.15945625 -0.1292572 0.28872108 -0.28871155 0.28872108l-1.1548462 0c-0.15945435 0 -0.2887268 -0.12926483 -0.2887268 -0.28872108z" fill-rule="evenodd"/><path stroke="#cccccc" stroke-width="1.0" stroke-linejoin="round" stroke-linecap="butt" d="m138.96547 23.197037l0 0c0 -0.15945625 0.12927246 -0.28872108 0.2887268 -0.28872108l1.1548462 0l0 0c0.0765686 0 0.15000916 0.030418396 0.20414734 0.08456421c0.054153442 0.054145813 0.08456421 0.12758255 0.08456421 0.20415688l0 4.6194096c0 0.15945625 -0.1292572 0.28872108 -0.28871155 0.28872108l-1.1548462 0c-0.15945435 0 -0.2887268 -0.12926483 -0.2887268 -0.28872108z" fill-rule="evenodd"/><path fill="#bf9000" d="m136.88283 93.64042l5.879196 0l0 0c0.38983154 0 0.76368713 -0.15485382 1.0393372 -0.43050385c0.27565002 -0.27565002 0.43051147 -0.64951324 0.43051147 -1.0393372l0 -60.640396c0 -4.005432E-5 -3.0517578E-5 -7.43866E-5 -7.6293945E-5 -7.43866E-5l-8.818817 7.43866E-5l0 0c-4.5776367E-5 0 -7.6293945E-5 3.2424927E-5 -7.6293945E-5 7.247925E-5l7.6293945E-5 60.64032l0 0c0 0.8117676 0.6580658 1.469841 1.4698486 1.469841z" fill-rule="evenodd"/><path stroke="#bf9000" stroke-width="1.0" stroke-linejoin="round" stroke-linecap="butt" d="m136.88283 93.64042l5.879196 0l0 0c0.38983154 0 0.76368713 -0.15485382 1.0393372 -0.43050385c0.27565002 -0.27565002 0.43051147 -0.64951324 0.43051147 -1.0393372l0 -60.640396c0 -4.005432E-5 -3.0517578E-5 -7.43866E-5 -7.6293945E-5 -7.43866E-5l-8.818817 7.43866E-5l0 0c-4.5776367E-5 0 -7.6293945E-5 3.2424927E-5 -7.6293945E-5 7.247925E-5l7.6293945E-5 60.64032l0 0c0 0.8117676 0.6580658 1.469841 1.4698486 1.469841z" fill-rule="evenodd"/><path fill="#7f6000" d="m134.44873 28.67387l0 0c0 -0.31601143 0.2561798 -0.57218933 0.57218933 -0.57218933l9.627274 0c0.15174866 0 0.297287 0.06028366 0.40460205 0.1675911c0.107299805 0.10730553 0.16758728 0.25284386 0.16758728 0.40459824l0 2.2886925c0 0.31601143 -0.2561798 0.57218933 -0.57218933 0.57218933l-9.627274 0c-0.31600952 0 -0.57218933 -0.2561779 -0.57218933 -0.57218933z" fill-rule="evenodd"/><path stroke="#7f6000" stroke-width="1.0" stroke-linejoin="round" stroke-linecap="butt" d="m134.44873 28.67387l0 0c0 -0.31601143 0.2561798 -0.57218933 0.57218933 -0.57218933l9.627274 0c0.15174866 0 0.297287 0.06028366 0.40460205 0.1675911c0.107299805 0.10730553 0.16758728 0.25284386 0.16758728 0.40459824l0 2.2886925c0 0.31601143 -0.2561798 0.57218933 -0.57218933 0.57218933l-9.627274 0c-0.31600952 0 -0.57218933 -0.2561779 -0.57218933 -0.57218933z" fill-rule="evenodd"/><path fill="#b7b7b7" d="m134.93085 20.08029l0 0c0 -0.31601143 0.2561798 -0.57218933 0.57218933 -0.57218933l8.682404 0c0.15174866 0 0.297287 0.06028366 0.40460205 0.1675911c0.107299805 0.10730553 0.16758728 0.25284386 0.16758728 0.40459824l0 2.2886925c0 0.31601143 -0.2561798 0.57218933 -0.57218933 0.57218933l-8.682404 0c-0.31600952 0 -0.57218933 -0.2561779 -0.57218933 -0.57218933z" fill-rule="evenodd"/><path stroke="#b7b7b7" stroke-width="1.0" stroke-linejoin="round" stroke-linecap="butt" d="m134.93085 20.08029l0 0c0 -0.31601143 0.2561798 -0.57218933 0.57218933 -0.57218933l8.682404 0c0.15174866 0 0.297287 0.06028366 0.40460205 0.1675911c0.107299805 0.10730553 0.16758728 0.25284386 0.16758728 0.40459824l0 2.2886925c0 0.31601143 -0.2561798 0.57218933 -0.57218933 0.57218933l-8.682404 0c-0.31600952 0 -0.57218933 -0.2561779 -0.57218933 -0.57218933z" fill-rule="evenodd"/><path fill="#b7b7b7" d="m7.2947216 33.51708l0 0c0 -0.5218544 0.4230466 -0.9449005 0.9449005 -0.9449005l3.7794905 0l0 0c0.25060272 0 0.490942 0.099552155 0.6681452 0.2767563c0.17720318 0.17720413 0.27675533 0.4175415 0.27675533 0.6681442l0 20.81886c0 0.5218544 -0.4230461 0.9449043 -0.9449005 0.9449043l-3.7794905 0c-0.5218539 0 -0.9449005 -0.42304993 -0.9449005 -0.9449043z" fill-rule="evenodd"/><path fill="#999999" d="m28.317526 41.430523l0 4.957737l0 0c0 1.3765869 -0.5468464 2.6967888 -1.5202408 3.670185c-0.9733925 0.9733925 -2.2935963 1.520237 -3.6701832 1.520237l-10.148159 0c-7.05719E-5 0 -1.2779236E-4 -5.722046E-5 -1.2779236E-4 -1.2588501E-4l1.2779236E-4 -15.338455l0 0c0 -7.247925E-5 5.722046E-5 -1.296997E-4 1.2779236E-4 -1.296997E-4l10.148031 1.296997E-4l0 0c2.8665924 0 5.190424 2.3238297 5.190424 5.190422z" fill-rule="evenodd"/><path fill="#999999" d="m49.256268 42.101692l0 3.6115112l0 0c0 0.23946762 -0.095127106 0.46912384 -0.2644539 0.6384506c-0.1693306 0.16932678 -0.39898682 0.2644539 -0.6384506 0.2644539l-20.041977 0c-2.4795532E-5 0 -4.5776367E-5 -1.9073486E-5 -4.5776367E-5 -4.196167E-5l4.5776367E-5 -5.4172783l0 0c0 -2.670288E-5 1.9073486E-5 -4.5776367E-5 4.386902E-5 -4.5776367E-5l20.041933 4.5776367E-5l0 0c0.49866104 0 0.9029045 0.40424347 0.9029045 0.9029045z" fill-rule="evenodd"/><path stroke="#999999" stroke-width="1.0" stroke-linejoin="round" stroke-linecap="butt" d="m49.256268 42.101692l0 3.6115112l0 0c0 0.23946762 -0.095127106 0.46912384 -0.2644539 0.6384506c-0.1693306 0.16932678 -0.39898682 0.2644539 -0.6384506 0.2644539l-20.041977 0c-2.4795532E-5 0 -4.5776367E-5 -1.9073486E-5 -4.5776367E-5 -4.196167E-5l4.5776367E-5 -5.4172783l0 0c0 -2.670288E-5 1.9073486E-5 -4.5776367E-5 4.386902E-5 -4.5776367E-5l20.041933 4.5776367E-5l0 0c0.49866104 0 0.9029045 0.40424347 0.9029045 0.9029045z" fill-rule="evenodd"/><path fill="#f1c232" d="m36.057236 40.093258l0 0c0 -1.0582047 0.8578453 -1.9160461 1.9160461 -1.9160461l145.52223 0c0.50816345 0 0.9955292 0.20186615 1.3548584 0.5611954c0.35932922 0.35932922 0.56118774 0.8466835 0.56118774 1.3548508l0 7.663967c0 1.0582047 -0.85783386 1.91605 -1.9160461 1.91605l-145.52223 0c-1.0582008 0 -1.9160461 -0.8578453 -1.9160461 -1.91605z" fill-rule="evenodd"/><path fill="#f1c232" d="m183.6219 38.22781l0 0c12.689499 0 22.97638 11.252815 22.97638 25.133862c0 13.8810425 -10.2868805 25.133858 -22.97638 25.133858l0 -11.48819l0 0c6.344742 0 11.48819 -6.109375 11.48819 -13.645668c0 -7.536297 -5.143448 -13.645672 -11.48819 -13.645672z" fill-rule="evenodd"/><path fill="#f1c232" d="m44.62382 39.008965l0 0c0 -1.356823 1.0999184 -2.4567413 2.4567413 -2.4567413l11.905415 0c0.65156555 0 1.2764473 0.25883484 1.7371788 0.71956253c0.4607277 0.4607277 0.71956253 1.0856094 0.71956253 1.7371788l0 9.826672c0 1.356823 -1.0999222 2.4567451 -2.4567413 2.4567451l-11.905415 0c-1.356823 0 -2.4567413 -1.0999222 -2.4567413 -2.4567451z" fill-rule="evenodd"/><defs><linearGradient id="p.1" gradientUnits="userSpaceOnUse" gradientTransform="matrix(9.744055871964097 0.0 0.0 9.744055871964097 0.0 0.0)" spreadMethod="pad" x1="9.150050992647166" y1="9.081712127541497" x2="18.894106864611267" y2="9.081712127541497"><stop offset="0.0" stop-color="#e0af1a"/><stop offset="1.0" stop-color="#f1c232"/></linearGradient></defs><path fill="url(#p.1)" d="m184.10522 77.06841l-94.016266 -3.046898l-0.93035126 12.523804l94.94662 1.9473953z" fill-rule="evenodd"/></g></svg>