<svg version="1.1" viewBox="0.0 0.0 900.0 450.0" fill="none" stroke="none" stroke-linecap="square" stroke-miterlimit="10" xmlns:xlink="http://www.w3.org/1999/xlink" xmlns="http://www.w3.org/2000/svg"><clipPath id="p.0"><path d="m0 0l900.0 0l0 450.0l-900.0 0l0 -450.0z" clip-rule="nonzero"/></clipPath><g clip-path="url(#p.0)"><path fill="#000000" fill-opacity="0.0" d="m0 0l900.0 0l0 450.0l-900.0 0z" fill-rule="evenodd"/><path fill="#323232" d="m351.19922 249.63516l29.35434 1.2598419l-0.34646606 7.653549l-29.35434 -1.2598572z" fill-rule="evenodd"/><path fill="#000000" d="m608.2945 153.99474l20.566956 53.637802l-19.811035 7.62204l-20.566956 -53.637787z" fill-rule="evenodd"/><path fill="#767373" d="m440.18866 352.81384l-4.4925537 -8.443207l-52.955414 -11.756439l-2.6389465 17.4534l55.087494 12.644531l2.4552307 -4.7210693z" fill-rule="evenodd"/><path fill="#323232" d="m291.35696 198.30446l77.79526 30.509186l-5.338562 54.916l32.03412 93.0499l46.524933 -97.62732l-17.543304 -86.18634l-25.168 10.67717l-132.71127 -29.745407z" fill-rule="evenodd"/><path fill="#1010d9" d="m566.69556 176.95013l-11.440979 -18.307083l-7.6272583 -8.388458l-28.22052 -8.391083l-55.677155 -0.7611542l-48.81363 35.084l-9.916016 19.068237l17.543304 25.931763z" fill-rule="evenodd"/><path fill="#000000" d="m583.47504 192.96588l-18.304443 -18.304459l-179.23883 50.338577l-4.5747986 51.102356l35.845123 77.03412z" fill-rule="evenodd"/><path fill="#414141" d="m154.06561 334.81628l0 0c0 -54.34134 44.05237 -98.39371 98.39371 -98.39371l0 0c26.095642 0 51.122467 10.36644 69.57486 28.818848c18.452393 18.452393 28.818848 43.479218 28.818848 69.57486l0 0c0 54.34134 -44.05237 98.39368 -98.39371 98.39368l0 0c-54.34134 0 -98.39371 -44.052338 -98.39371 -98.39368zm28.215378 0l0 0c0 38.758392 31.419907 70.178314 70.17833 70.178314c38.758423 0 70.178314 -31.419922 70.178314 -70.178314l0 0c0 -38.758423 -31.419891 -70.178345 -70.178314 -70.178345l0 0c-38.758423 0 -70.17833 31.419922 -70.17833 70.178345z" fill-rule="evenodd"/><path fill="#1010d9" d="m176.1916 334.81628l0 0c0 -42.12152 34.14621 -76.26773 76.267715 -76.26773l0 0c20.227448 0 39.626434 8.035339 53.929413 22.338287c14.3029785 14.3029785 22.338287 33.701965 22.338287 53.929443l0 0c0 42.12149 -34.14621 76.2677 -76.2677 76.2677l0 0c-42.121506 0 -76.267715 -34.14621 -76.267715 -76.2677zm9.708878 0l0 0c0 36.75943 29.799408 66.55884 66.55884 66.55884c36.75943 0 66.55884 -29.799408 66.55884 -66.55884l0 0c0 -36.75943 -29.799408 -66.55884 -66.55884 -66.55884l0 0c-36.75943 0 -66.55884 29.799408 -66.55884 66.55884z" fill-rule="evenodd"/><path fill="#323232" d="m171.59317 334.81628l0 0c0 -44.661133 36.205017 -80.86615 80.86615 -80.86615l0 0c21.447021 0 42.015656 8.519806 57.181 23.68515c15.165344 15.165344 23.68515 35.733948 23.68515 57.181l0 0c0 44.661133 -36.205017 80.86612 -80.86615 80.86612l0 0c-44.661133 0 -80.86615 -36.204987 -80.86615 -80.86612zm6.881714 0l0 0c0 40.860474 33.123962 73.984436 73.984436 73.984436c40.860474 0 73.984436 -33.123962 73.984436 -73.984436l0 0c0 -40.860474 -33.123962 -73.984436 -73.984436 -73.984436l0 0c-40.860474 0 -73.984436 33.123962 -73.984436 73.984436z" fill-rule="evenodd"/><path fill="#0f0fcf" d="m247.87665 263.88715l9.165344 0l0 73.22833l-9.165344 0z" fill-rule="evenodd"/><path fill="#0f0fcf" d="m317.51437 305.25812l2.8346252 8.724396l-69.63779 22.582703l-2.8346405 -8.724426z" fill-rule="evenodd"/><path fill="#0f0fcf" d="m298.04922 388.13986l-7.433075 5.354309l-42.740158 -59.46457l7.4330597 -5.354309z" fill-rule="evenodd"/><path fill="#0f0fcf" d="m213.89348 393.36615l-7.401581 -5.4172974l43.149597 -59.149628l7.401596 5.417328z" fill-rule="evenodd"/><path fill="#0f0fcf" d="m184.82025 313.36633l2.9606323 -8.661438l69.25986 23.748047l-2.9606323 8.661407z" fill-rule="evenodd"/><path fill="#717171" d="m203.45145 334.81628l0 0c0 -28.536163 21.941574 -51.66931 49.007874 -51.66931l0 0c12.997681 0 25.463043 5.4437256 34.65381 15.133606c9.190735 9.68985 14.354065 22.832153 14.354065 36.535706l0 0c0 28.536163 -21.94159 51.66928 -49.007874 51.66928l0 0c-27.0663 0 -49.007874 -23.133118 -49.007874 -51.66928zm20.023636 0l0 0c0 17.477386 12.976685 31.64563 28.984238 31.64563c16.007538 0 28.984222 -14.168243 28.984222 -31.64563c0 -17.477417 -12.976685 -31.64566 -28.984222 -31.64566l0 0c-16.007553 0 -28.984238 14.168243 -28.984238 31.64566z" fill-rule="evenodd"/><path fill="#414141" d="m562.09973 334.81628l0 0c0 -54.34134 44.05237 -98.39371 98.39368 -98.39371l0 0c26.095642 0 51.122498 10.36644 69.57489 28.818848c18.452393 18.452393 28.818848 43.479218 28.818848 69.57486l0 0c0 54.34134 -44.05237 98.39368 -98.39374 98.39368l0 0c-54.34131 0 -98.39368 -44.052338 -98.39368 -98.39368zm28.215393 0l0 0c0 38.758392 31.419922 70.178314 70.17828 70.178314c38.758423 0 70.178345 -31.419922 70.178345 -70.178314l0 0c0 -38.758423 -31.419922 -70.178345 -70.178345 -70.178345l0 0c-38.75836 0 -70.17828 31.419922 -70.17828 70.178345z" fill-rule="evenodd"/><path fill="#1010d9" d="m584.2257 334.81628l0 0c0 -42.12152 34.14624 -76.26773 76.2677 -76.26773l0 0c20.227478 0 39.626465 8.035339 53.929443 22.338287c14.3029785 14.3029785 22.338318 33.701965 22.338318 53.929443l0 0c0 42.12149 -34.14624 76.2677 -76.26776 76.2677l0 0c-42.12146 0 -76.2677 -34.14621 -76.2677 -76.2677zm9.708923 0l0 0c0 36.75943 29.799377 66.55884 66.55878 66.55884c36.75946 0 66.55884 -29.799408 66.55884 -66.55884l0 0c0 -36.75943 -29.799377 -66.55884 -66.55884 -66.55884l0 0c-36.7594 0 -66.55878 29.799408 -66.55878 66.55884z" fill-rule="evenodd"/><path fill="#323232" d="m579.6273 334.81628l0 0c0 -44.661133 36.204956 -80.86615 80.86609 -80.86615l0 0c21.447083 0 42.015686 8.519806 57.18103 23.68515c15.165344 15.165344 23.68512 35.733948 23.68512 57.181l0 0c0 44.661133 -36.204956 80.86612 -80.86615 80.86612l0 0c-44.661133 0 -80.86609 -36.204987 -80.86609 -80.86612zm6.881714 0l0 0c0 40.860474 33.1239 73.984436 73.984375 73.984436c40.860535 0 73.984436 -33.123962 73.984436 -73.984436l0 0c0 -40.860474 -33.1239 -73.984436 -73.984436 -73.984436l0 0c-40.860474 0 -73.984375 33.123962 -73.984375 73.984436z" fill-rule="evenodd"/><path fill="#0f0fcf" d="m655.91077 263.88715l9.165344 0l0 73.22833l-9.165344 0z" fill-rule="evenodd"/><path fill="#0f0fcf" d="m725.54846 305.25812l2.8346558 8.724396l-69.63776 22.582703l-2.8346558 -8.724426z" fill-rule="evenodd"/><path fill="#0f0fcf" d="m706.0833 388.13986l-7.4330444 5.354309l-42.740173 -59.46457l7.4331055 -5.354309z" fill-rule="evenodd"/><path fill="#0f0fcf" d="m621.9276 393.36615l-7.4016113 -5.4172974l43.149597 -59.149628l7.4016113 5.417328z" fill-rule="evenodd"/><path fill="#0f0fcf" d="m592.8544 313.36633l2.9606323 -8.661438l69.25983 23.748047l-2.9606323 8.661407z" fill-rule="evenodd"/><path fill="#717171" d="m611.48553 334.81628l0 0c0 -28.536163 21.94159 -51.66931 49.007874 -51.66931l0 0c12.997742 0 25.463074 5.4437256 34.65381 15.133606c9.190796 9.68985 14.354126 22.832153 14.354126 36.535706l0 0c0 28.536163 -21.94159 51.66928 -49.007935 51.66928l0 0c-27.066284 0 -49.007874 -23.133118 -49.007874 -51.66928zm16.17456 0l0 0c0 19.60318 14.700012 35.49472 32.833313 35.49472c18.133362 0 32.833374 -15.891541 32.833374 -35.49472c0 -19.60321 -14.700012 -35.49475 -32.833374 -35.49475l0 0c-18.1333 0 -32.833313 15.891541 -32.833313 35.49475z" fill-rule="evenodd"/><path fill="#0f0fcf" d="m638.3725 212.91614c14.182678 3.2671661 -40.472717 19.066391 -57.08075 37.44101c-16.608032 18.374603 -36.59021 52.004517 -42.567505 72.8067c-5.977356 20.802185 13.791443 67.40796 6.70343 52.006348c-7.0880737 -15.401611 -64.722595 -117.37366 -49.23178 -144.416c15.490814 -27.042343 127.99399 -21.10521 142.1766 -17.838058z" fill-rule="evenodd"/><path fill="#1010d9" d="m262.3727 153.30446l-3.8136597 -7.627289l-51.86351 -2.286087l35.847763 21.354324l22.118103 28.984253l49.5748 11.4409485l-36.608917 -22.120743z" fill-rule="evenodd"/><path fill="#000000" d="m262.3727 154.06824l15.254578 14.490814l129.66144 25.931763l10.677155 14.493439l-25.167969 1.5249329l-117.45932 -28.220474z" fill-rule="evenodd"/><path fill="#767373" d="m388.98425 380.59317l-51.102356 -130.42256l-87.71129 -28.984253l3.0498657 -15.254593l97.627304 31.27034l54.15222 134.23885z" fill-rule="evenodd"/><path fill="#767373" d="m257.04437 209.96278l-5.9443207 -11.019653l-53.491135 -2.0664825l0.7414398 26.169891l55.72313 2.7537231l1.4854431 -7.573929z" fill-rule="evenodd"/><path fill="#767373" d="m443.03806 363.9449l-4.3438416 -6.45932l-51.648285 -16.556427l8.08136 26.658783l42.98163 2.2651062l2.4199524 -2.8057861z" fill-rule="evenodd"/><path fill="#767373" d="m410.33026 290.58548l51.77954 51.77954l-5.795288 5.7952576l-51.77951 -51.77951z" fill-rule="evenodd"/><path fill="#767373" d="m424.72003 286.75345l51.77954 51.77954l-5.795288 5.795288l-51.77954 -51.77954z" fill-rule="evenodd"/><path fill="#0f0fcf" d="m705.5092 197.5433l-198.30713 80.84778l49.577454 122.79526l-194.49081 0l91.52493 -115.93173l-30.509186 -32.797913l110.59317 -39.6588l-8.388428 -11.4409485l107.54065 -32.797897l-12.202087 -44.236214z" fill-rule="evenodd"/><path fill="#323232" d="m413.37402 288.1076l0 0c0 -2.739685 2.2209473 -4.9606323 4.9606323 -4.9606323l0 0c1.3156433 0 2.5773926 0.52264404 3.5076904 1.4529419c0.93029785 0.93029785 1.4529419 2.192047 1.4529419 3.5076904l0 0c0 2.739685 -2.2209473 4.9606323 -4.9606323 4.9606323l0 0c-2.739685 0 -4.9606323 -2.2209473 -4.9606323 -4.9606323z" fill-rule="evenodd"/><path fill="#767373" d="m398.83597 291.8504l0 0c0 -8.949646 7.2550964 -16.204742 16.204712 -16.204742l0 0c4.29776 0 8.419495 1.7072754 11.458466 4.746277c3.038971 3.038971 4.7462463 7.1607056 4.7462463 11.458466l0 0c0 8.9496155 -7.2550964 16.204712 -16.204712 16.204712l0 0c-8.9496155 0 -16.204712 -7.2550964 -16.204712 -16.204712z" fill-rule="evenodd"/><path fill="#323232" d="m415.67242 288.1076l0 0c0 -2.739685 2.2209473 -4.9606323 4.9606323 -4.9606323l0 0c1.3156128 0 2.5773926 0.52264404 3.5076904 1.4529419c0.93029785 0.93029785 1.4529114 2.192047 1.4529114 3.5076904l0 0c0 2.739685 -2.2209473 4.9606323 -4.960602 4.9606323l0 0c-2.739685 0 -4.9606323 -2.2209473 -4.9606323 -4.9606323z" fill-rule="evenodd"/><path fill="#323232" d="m563.0105 163.68968l43.62207 -19.086609l5.1968384 11.905518l-43.62207 19.086609z" fill-rule="evenodd"/><path fill="#980000" d="m601.374 146.06299l0 0c0 -2.7396698 2.2209473 -4.9606323 4.9606323 -4.9606323l0 0c1.3156128 0 2.5773926 0.52264404 3.5076904 1.4529419c0.93029785 0.93029785 1.4529419 2.192047 1.4529419 3.5076904l0 0c0 2.739685 -2.2209473 4.9606323 -4.9606323 4.9606323l0 0c-2.739685 0 -4.9606323 -2.2209473 -4.9606323 -4.9606323z" fill-rule="evenodd"/><path fill="#9fc5e8" d="m617.1684 98.62657l60.393738 72.97638l-78.44098 -53.133858z" fill-rule="evenodd"/><path fill="#323232" d="m659.0263 146.73763l46.86615 50.4252l-55.24408 -41.102356z" fill-rule="evenodd"/><path fill="#1010d9" d="m597.32825 121.32042l3.9685059 -5.4803085l78.614136 56.97637l-3.9685059 5.480316z" fill-rule="evenodd"/><path fill="#1010d9" d="m671.2913 174.3414l4.7874146 -4.7873993l25.35431 25.354324l-4.7874146 4.7873993z" fill-rule="evenodd"/><path fill="#ffffff" d="m517.8819 166.06824l0 0c0 -5.261917 4.265625 -9.527557 9.527527 -9.527557l0 0c2.5269165 0 4.9502563 1.0037994 6.7369995 2.7905579c1.7868042 1.7867584 2.7905884 4.210144 2.7905884 6.7369995l0 0c0 5.2619324 -4.265625 9.527557 -9.527588 9.527557l0 0c-5.261902 0 -9.527527 -4.265625 -9.527527 -9.527557z" fill-rule="evenodd"/><path stroke="#000000" stroke-width="3.0" stroke-linejoin="round" stroke-linecap="butt" d="m517.8819 166.06824l0 0c0 -5.261917 4.265625 -9.527557 9.527527 -9.527557l0 0c2.5269165 0 4.9502563 1.0037994 6.7369995 2.7905579c1.7868042 1.7867584 2.7905884 4.210144 2.7905884 6.7369995l0 0c0 5.2619324 -4.265625 9.527557 -9.527588 9.527557l0 0c-5.261902 0 -9.527527 -4.265625 -9.527527 -9.527557z" fill-rule="evenodd"/><path fill="#ffffff" d="m546.8635 277.6273l-9.152222 16.015747l-53.38846 -20.59317z" fill-rule="evenodd"/><path stroke="#000000" stroke-width="3.0" stroke-linejoin="round" stroke-linecap="butt" d="m546.8635 277.6273l-9.152222 16.015747l-53.38846 -20.59317z" fill-rule="evenodd"/><path fill="#323232" d="m512.9055 402.6483l-9.916016 -32.03412l-82.37271 -0.7611389l-25.167969 32.795258z" fill-rule="evenodd"/><path stroke="#000000" stroke-width="3.0" stroke-linejoin="round" stroke-linecap="butt" d="m512.9055 402.6483l-9.916016 -32.03412l-82.37271 -0.7611389l-25.167969 32.795258z" fill-rule="evenodd"/><path fill="#ffd966" d="m651.0756 181.88266l7.352356 -9.3936615l32.23987 18.164047z" fill-rule="evenodd"/><path stroke="#000000" stroke-width="2.0" stroke-linejoin="round" stroke-linecap="butt" d="m651.0756 181.88266l7.352356 -9.3936615l32.23987 18.164047z" fill-rule="evenodd"/><path fill="#cc0000" d="m249.80914 149.61707l-3.7828674 10.219879l-24.632294 -12.078751z" fill-rule="evenodd"/><path stroke="#000000" stroke-width="2.0" stroke-linejoin="round" stroke-linecap="butt" d="m249.80914 149.61707l-3.7828674 10.219879l-24.632294 -12.078751z" fill-rule="evenodd"/><path fill="#000000" d="m489.8399 382.63623l-4.7244263 -1.228363l-5.6062927 20.724426l4.7244263 1.2283325z" fill-rule="evenodd"/><path fill="#000000" d="m472.70474 382.63623l-4.7244263 -1.228363l-5.6062927 20.724426l4.7243958 1.2283325z" fill-rule="evenodd"/><path fill="#000000" d="m455.8504 382.63623l-4.7244263 -1.228363l-5.6062927 20.724426l4.7244263 1.2283325z" fill-rule="evenodd"/><path fill="#000000" d="m439.42914 382.63623l-4.7243958 -1.228363l-5.6063232 20.724426l4.7244263 1.2283325z" fill-rule="evenodd"/><path fill="#ffffff" d="m532.1457 303.2293l-7.144226 12.501892l-41.67502 -16.075043z" fill-rule="evenodd"/><path stroke="#000000" stroke-width="3.0" stroke-linejoin="round" stroke-linecap="butt" d="m532.1457 303.2293l-7.144226 12.501892l-41.67502 -16.075043z" fill-rule="evenodd"/><path fill="#000000" d="m193.55984 197.15698l5.3543243 0.15748596l-0.9133911 25.51181l-5.3543243 -0.1574707z" fill-rule="evenodd"/><path stroke="#000000" stroke-width="1.0" stroke-linejoin="round" stroke-linecap="butt" d="m193.55984 197.15698l5.3543243 0.15748596l-0.9133911 25.51181l-5.3543243 -0.1574707z" fill-rule="evenodd"/><path fill="#434343" d="m203.72015 210.2901l0 0c0.14785767 -3.8616486 1.0432739 -6.9568787 2.0 -6.913391l0 0c0.45942688 0.020874023 0.8718262 0.77757263 1.1464844 2.1036224c0.27467346 1.3260498 0.38908386 3.1128082 0.31806946 4.9672394l0 0c-0.1478424 3.8616486 -1.0432739 6.9568787 -2.0 6.913391l0 0c-0.45942688 -0.020889282 -0.8718262 -0.7775879 -1.1464844 -2.1036224c-0.2746582 -1.3260498 -0.38908386 -3.1128235 -0.31806946 -4.9672394z" fill-rule="evenodd"/><path fill="#434343" d="m212.25821 210.66888l0 0c0.14785767 -3.8616486 1.0432892 -6.9568787 2.0 -6.913391l0 0c0.45942688 0.020889282 0.87184143 0.7775879 1.1464996 2.1036224c0.2746582 1.3260498 0.3890686 3.1128235 0.31806946 4.9672394l0 0c-0.14785767 3.8616486 -1.0432892 6.9568787 -2.0 6.913391l0 0c-0.45944214 -0.020889282 -0.87184143 -0.77757263 -1.1464996 -2.1036224c-0.2746582 -1.3260498 -0.3890686 -3.1128082 -0.31806946 -4.9672394z" fill-rule="evenodd"/><path fill="#434343" d="m220.79626 211.0491l0 0c0.14785767 -3.8616486 1.0432892 -6.9568787 2.0 -6.913391l0 0c0.45942688 0.020889282 0.87184143 0.7775879 1.1464996 2.1036224c0.2746582 1.3260498 0.3890686 3.1128235 0.31806946 4.9672394l0 0c-0.14785767 3.8616486 -1.0432892 6.9568787 -2.0 6.913391l0 0c-0.45942688 -0.020874023 -0.87184143 -0.77757263 -1.1464996 -2.1036224c-0.2746582 -1.3260498 -0.3890686 -3.1128082 -0.31806946 -4.9672394z" fill-rule="evenodd"/><path fill="#434343" d="m228.91174 211.80667l0 0c0.14785767 -3.8616333 1.0432892 -6.9568634 2.0 -6.913376l0 0c0.45944214 0.020874023 0.87184143 0.77757263 1.1464996 2.1036224c0.2746582 1.3260345 0.38908386 3.1128082 0.31806946 4.9672394l0 0c-0.14785767 3.8616486 -1.0432892 6.9568787 -2.0 6.913391l0 0c-0.45942688 -0.020889282 -0.8718262 -0.7775879 -1.1464996 -2.1036224c-0.2746582 -1.3260498 -0.3890686 -3.1128235 -0.31806946 -4.9672546z" fill-rule="evenodd"/><path fill="#434343" d="m237.44981 212.16507l0 0c0.1478424 -3.8616486 1.0432739 -6.9568787 2.0 -6.913391l0 0c0.45942688 0.020889282 0.8718262 0.77757263 1.1464844 2.1036224c0.2746582 1.3260498 0.38908386 3.1128082 0.31806946 4.9672394l0 0c-0.1478424 3.8616486 -1.0432739 6.9568787 -2.0 6.913391l0 0c-0.45942688 -0.020889282 -0.8718262 -0.7775879 -1.1464844 -2.1036224c-0.27467346 -1.3260498 -0.38908386 -3.1128235 -0.31806946 -4.9672394z" fill-rule="evenodd"/><path fill="#434343" d="m245.77658 212.92264l0 0c0.14785767 -3.8616486 1.0432892 -6.9568787 2.0 -6.913391l0 0c0.45942688 0.020889282 0.87184143 0.7775879 1.1464996 2.1036377c0.2746582 1.3260345 0.3890686 3.1128082 0.31806946 4.9672394l0 0c-0.14785767 3.8616333 -1.0432892 6.9568634 -2.0 6.913376l0 0c-0.45942688 -0.020874023 -0.87184143 -0.77757263 -1.1464996 -2.1036224c-0.2746582 -1.3260345 -0.3890686 -3.1128082 -0.31806946 -4.9672394z" fill-rule="evenodd"/></g></svg>