<svg version="1.1" viewBox="0.0 0.0 100.0 100.0" fill="none" stroke="none" stroke-linecap="square" stroke-miterlimit="10" xmlns:xlink="http://www.w3.org/1999/xlink" xmlns="http://www.w3.org/2000/svg"><clipPath id="p.0"><path d="m0 0l100.0 0l0 100.0l-100.0 0l0 -100.0z" clip-rule="nonzero"/></clipPath><g clip-path="url(#p.0)"><path fill="#000000" fill-opacity="0.0" d="m0 0l100.0 0l0 100.0l-100.0 0z" fill-rule="evenodd"/><path fill="#434343" d="m34.931473 48.287083l0 0c-0.49576187 -0.49576187 -0.49576187 -1.2995491 0 -1.795311l3.5905151 -3.5905151l0 0c0.23807144 -0.23807526 0.5609703 -0.37182236 0.8976555 -0.37182236c0.33668518 0 0.65958405 0.1337471 0.8976555 0.37182236l41.039337 41.039333c0.49575806 0.49575806 0.49575806 1.2995529 0 1.795311l-3.5905151 3.5905151c-0.4957657 0.49575806 -1.2995529 0.49575806 -1.795311 0z" fill-rule="evenodd"/><path stroke="#000000" stroke-width="1.0" stroke-linejoin="round" stroke-linecap="butt" d="m34.931473 48.287083l0 0c-0.49576187 -0.49576187 -0.49576187 -1.2995491 0 -1.795311l3.5905151 -3.5905151l0 0c0.23807144 -0.23807526 0.5609703 -0.37182236 0.8976555 -0.37182236c0.33668518 0 0.65958405 0.1337471 0.8976555 0.37182236l41.039337 41.039333c0.49575806 0.49575806 0.49575806 1.2995529 0 1.795311l-3.5905151 3.5905151c-0.4957657 0.49575806 -1.2995529 0.49575806 -1.795311 0z" fill-rule="evenodd"/><g filter="url(#shadowFilter-p.1)"><use xlink:href="#p.1" transform="matrix(1.0 0.0 0.0 1.0 0.0 2.0)"/></g><defs><filter id="shadowFilter-p.1" filterUnits="userSpaceOnUse"><feGaussianBlur in="SourceAlpha" stdDeviation="2.0" result="blur"/><feComponentTransfer in="blur" color-interpolation-filters="sRGB"><feFuncR type="linear" slope="0" intercept="0.0"/><feFuncG type="linear" slope="0" intercept="0.0"/><feFuncB type="linear" slope="0" intercept="0.0"/><feFuncA type="linear" slope="0.5" intercept="0"/></feComponentTransfer></filter></defs><g id="p.1"><path fill="#666666" d="m6.6100707 35.250065l0 0c2.675386 2.6753845 9.462379 0.22604752 15.159176 -5.470747c5.6967945 -5.6967945 8.1461315 -12.483789 5.470745 -15.159175l15.8863735 15.886373c2.6753845 2.6753883 0.22604752 9.462379 -5.470745 15.159176c-5.6967964 5.6967964 -12.483791 8.146133 -15.159176 5.470745z" fill-rule="evenodd"/><path fill="#a3a3a3" d="m6.6100707 35.250065l0 0c-2.6753862 -2.6753883 -0.2260499 -9.462381 5.4707456 -15.159176c5.6967945 -5.6967955 12.483789 -8.1461315 15.159176 -5.470746l0 0c2.6753864 2.6753855 0.22604942 9.46238 -5.470745 15.159175c-5.6967964 5.6967945 -12.48379 8.1461315 -15.159176 5.470747z" fill-rule="evenodd"/><path fill="#000000" fill-opacity="0.0" d="m27.239992 14.620143l0 0c2.6753864 2.6753855 0.22604942 9.46238 -5.470745 15.159175c-5.6967964 5.6967945 -12.48379 8.1461315 -15.159176 5.470747l0 0c-2.6753862 -2.6753883 -0.2260499 -9.462381 5.4707456 -15.159176c5.6967945 -5.6967955 12.483789 -8.1461315 15.159176 -5.470746l15.8863735 15.886373c2.6753845 2.6753883 0.22604752 9.462379 -5.470745 15.159176c-5.6967964 5.6967964 -12.483791 8.146133 -15.159176 5.470745l-15.8863735 -15.886372" fill-rule="evenodd"/><path stroke="#000000" stroke-width="1.0" stroke-linejoin="round" stroke-linecap="butt" d="m27.239992 14.620143l0 0c2.6753864 2.6753855 0.22604942 9.46238 -5.470745 15.159175c-5.6967964 5.6967945 -12.48379 8.1461315 -15.159176 5.470747l0 0c-2.6753862 -2.6753883 -0.2260499 -9.462381 5.4707456 -15.159176c5.6967945 -5.6967955 12.483789 -8.1461315 15.159176 -5.470746l15.8863735 15.886373c2.6753845 2.6753883 0.22604752 9.462379 -5.470745 15.159176c-5.6967964 5.6967964 -12.483791 8.146133 -15.159176 5.470745l-15.8863735 -15.886372" fill-rule="evenodd"/></g><path fill="#434343" d="m32.054405 43.239998l0 0c-0.88713646 -0.88713455 -0.88713646 -2.3254623 0 -3.212597l0 0c0.42601395 -0.42601776 1.0038185 -0.66535187 1.6062965 -0.66535187c0.60248184 0 1.1802826 0.2393341 1.6063004 0.66535187l0 0c0.88713455 0.88713455 0.88713455 2.3254623 0 3.212597l0 0c-0.88713455 0.88713455 -2.3254623 0.88713455 -3.212597 0z" fill-rule="evenodd"/><path stroke="#434343" stroke-width="1.0" stroke-linejoin="round" stroke-linecap="butt" d="m32.054405 43.239998l0 0c-0.88713646 -0.88713455 -0.88713646 -2.3254623 0 -3.212597l0 0c0.42601395 -0.42601776 1.0038185 -0.66535187 1.6062965 -0.66535187c0.60248184 0 1.1802826 0.2393341 1.6063004 0.66535187l0 0c0.88713455 0.88713455 0.88713455 2.3254623 0 3.212597l0 0c-0.88713455 0.88713455 -2.3254623 0.88713455 -3.212597 0z" fill-rule="evenodd"/><path fill="#434343" d="m23.504768 47.91602l0 0c-0.88713455 -0.88713455 -0.88713455 -2.3254662 0 -3.2126007l0 0c0.42601776 -0.42601395 1.0038204 -0.66534805 1.6063004 -0.66534805c0.602478 0 1.1802826 0.2393341 1.6062984 0.66534805l0 0c0.88713455 0.88713455 0.88713455 2.3254662 0 3.2126007l0 0c-0.88713455 0.88713455 -2.3254642 0.88713455 -3.2125988 0z" fill-rule="evenodd"/><path stroke="#434343" stroke-width="1.0" stroke-linejoin="round" stroke-linecap="butt" d="m23.504768 47.91602l0 0c-0.88713455 -0.88713455 -0.88713455 -2.3254662 0 -3.2126007l0 0c0.42601776 -0.42601395 1.0038204 -0.66534805 1.6063004 -0.66534805c0.602478 0 1.1802826 0.2393341 1.6062984 0.66534805l0 0c0.88713455 0.88713455 0.88713455 2.3254662 0 3.2126007l0 0c-0.88713455 0.88713455 -2.3254642 0.88713455 -3.2125988 0z" fill-rule="evenodd"/><path fill="#434343" d="m36.730545 34.690586l0 0c-0.88713455 -0.88713455 -0.88713455 -2.3254662 0 -3.2125988l0 0c0.42601776 -0.42601776 1.0038185 -0.66535187 1.6062965 -0.66535187c0.60248184 0 1.1802826 0.2393341 1.6063004 0.66535187l0 0c0.88713455 0.88713264 0.88713455 2.3254642 0 3.2125988l0 0c-0.88713455 0.88713455 -2.3254623 0.88713455 -3.212597 0z" fill-rule="evenodd"/><path stroke="#434343" stroke-width="1.0" stroke-linejoin="round" stroke-linecap="butt" d="m36.730545 34.690586l0 0c-0.88713455 -0.88713455 -0.88713455 -2.3254662 0 -3.2125988l0 0c0.42601776 -0.42601776 1.0038185 -0.66535187 1.6062965 -0.66535187c0.60248184 0 1.1802826 0.2393341 1.6063004 0.66535187l0 0c0.88713455 0.88713264 0.88713455 2.3254642 0 3.2125988l0 0c-0.88713455 0.88713455 -2.3254623 0.88713455 -3.212597 0z" fill-rule="evenodd"/><path fill="#434343" d="m59.722992 42.921402l0 0c0.49576187 -0.49576187 1.2995491 -0.49576187 1.795311 0l3.5905151 3.5905151l0 0c0.23807526 0.23807144 0.37181854 0.5609665 0.37181854 0.8976555c0 0.33668518 -0.13374329 0.65958023 -0.37181854 0.8976555l-41.039337 41.03933c-0.49576187 0.4957657 -1.2995491 0.4957657 -1.795311 0l-3.5905151 -3.5905151c-0.49576187 -0.49575806 -0.49576187 -1.2995453 0 -1.795311z" fill-rule="evenodd"/><path stroke="#000000" stroke-width="1.0" stroke-linejoin="round" stroke-linecap="butt" d="m59.722992 42.921402l0 0c0.49576187 -0.49576187 1.2995491 -0.49576187 1.795311 0l3.5905151 3.5905151l0 0c0.23807526 0.23807144 0.37181854 0.5609665 0.37181854 0.8976555c0 0.33668518 -0.13374329 0.65958023 -0.37181854 0.8976555l-41.039337 41.03933c-0.49576187 0.4957657 -1.2995491 0.4957657 -1.795311 0l-3.5905151 -3.5905151c-0.49576187 -0.49575806 -0.49576187 -1.2995453 0 -1.795311z" fill-rule="evenodd"/><g filter="url(#shadowFilter-p.2)"><use xlink:href="#p.2" transform="matrix(1.0 0.0 0.0 1.0 0.0 2.0)"/></g><defs><filter id="shadowFilter-p.2" filterUnits="userSpaceOnUse"><feGaussianBlur in="SourceAlpha" stdDeviation="2.0" result="blur"/><feComponentTransfer in="blur" color-interpolation-filters="sRGB"><feFuncR type="linear" slope="0" intercept="0.0"/><feFuncG type="linear" slope="0" intercept="0.0"/><feFuncB type="linear" slope="0" intercept="0.0"/><feFuncA type="linear" slope="0.5" intercept="0"/></feComponentTransfer></filter></defs><g id="p.2"><path fill="#666666" d="m72.76001 14.599998l0 0c-2.6753845 2.6753864 -0.22605133 9.462379 5.4707413 15.159176c5.6968 5.6967964 12.483795 8.14613 15.15918 5.470745l-15.886375 15.886372c-2.6753845 2.6753883 -9.462379 0.22605133 -15.159176 -5.470745c-5.6967926 -5.6967926 -8.14613 -12.483788 -5.470745 -15.159174z" fill-rule="evenodd"/><path fill="#a3a3a3" d="m72.76001 14.599998l0 0c2.6753845 -2.6753864 9.462379 -0.22605038 15.159172 5.470745c5.6968 5.6967964 8.146133 12.483791 5.470749 15.159176l0 0c-2.6753845 2.6753845 -9.462379 0.22605133 -15.15918 -5.470745c-5.6967926 -5.6967964 -8.146126 -12.483789 -5.4707413 -15.159176z" fill-rule="evenodd"/><path fill="#000000" fill-opacity="0.0" d="m93.38993 35.22992l0 0c-2.6753845 2.6753845 -9.462379 0.22605133 -15.15918 -5.470745c-5.6967926 -5.6967964 -8.146126 -12.483789 -5.4707413 -15.159176l0 0c2.6753845 -2.6753864 9.462379 -0.22605038 15.159172 5.470745c5.6968 5.6967964 8.146133 12.483791 5.470749 15.159176l-15.886375 15.886372c-2.6753845 2.6753883 -9.462379 0.22605133 -15.159176 -5.470745c-5.6967926 -5.6967926 -8.14613 -12.483788 -5.470745 -15.159174l15.886375 -15.8863735" fill-rule="evenodd"/><path stroke="#000000" stroke-width="1.0" stroke-linejoin="round" stroke-linecap="butt" d="m93.38993 35.22992l0 0c-2.6753845 2.6753845 -9.462379 0.22605133 -15.15918 -5.470745c-5.6967926 -5.6967964 -8.146126 -12.483789 -5.4707413 -15.159176l0 0c2.6753845 -2.6753864 9.462379 -0.22605038 15.159172 5.470745c5.6968 5.6967964 8.146133 12.483791 5.470749 15.159176l-15.886375 15.886372c-2.6753845 2.6753883 -9.462379 0.22605133 -15.159176 -5.470745c-5.6967926 -5.6967926 -8.14613 -12.483788 -5.470745 -15.159174l15.886375 -15.8863735" fill-rule="evenodd"/></g><path fill="#434343" d="m64.77007 40.04433l0 0c0.88713837 -0.88713455 2.3254623 -0.88713455 3.2126007 0l0 0c0.42601776 0.42601776 0.66535187 1.0038223 0.66535187 1.6063004c0 0.602478 -0.2393341 1.1802826 -0.66535187 1.6063004l0 0c-0.88713837 0.88713455 -2.3254623 0.88713455 -3.2126007 0l0 0c-0.88713455 -0.88713455 -0.88713455 -2.3254662 0 -3.2126007z" fill-rule="evenodd"/><path stroke="#434343" stroke-width="1.0" stroke-linejoin="round" stroke-linecap="butt" d="m64.77007 40.04433l0 0c0.88713837 -0.88713455 2.3254623 -0.88713455 3.2126007 0l0 0c0.42601776 0.42601776 0.66535187 1.0038223 0.66535187 1.6063004c0 0.602478 -0.2393341 1.1802826 -0.66535187 1.6063004l0 0c-0.88713837 0.88713455 -2.3254623 0.88713455 -3.2126007 0l0 0c-0.88713455 -0.88713455 -0.88713455 -2.3254662 0 -3.2126007z" fill-rule="evenodd"/><path fill="#434343" d="m60.094055 31.494698l0 0c0.88713455 -0.88713455 2.3254623 -0.88713455 3.212597 0l0 0c0.42601776 0.42601585 0.66535187 1.0038185 0.66535187 1.6063004c0 0.602478 -0.2393341 1.1802788 -0.66535187 1.6062965l0 0c-0.88713455 0.88713455 -2.3254623 0.88713455 -3.212597 0l0 0c-0.88713455 -0.88713455 -0.88713455 -2.3254623 0 -3.212597z" fill-rule="evenodd"/><path stroke="#434343" stroke-width="1.0" stroke-linejoin="round" stroke-linecap="butt" d="m60.094055 31.494698l0 0c0.88713455 -0.88713455 2.3254623 -0.88713455 3.212597 0l0 0c0.42601776 0.42601585 0.66535187 1.0038185 0.66535187 1.6063004c0 0.602478 -0.2393341 1.1802788 -0.66535187 1.6062965l0 0c-0.88713455 0.88713455 -2.3254623 0.88713455 -3.212597 0l0 0c-0.88713455 -0.88713455 -0.88713455 -2.3254623 0 -3.212597z" fill-rule="evenodd"/><path fill="#434343" d="m73.31949 44.72047l0 0c0.88713074 -0.88713455 2.3254623 -0.88713455 3.212593 0l0 0c0.42601776 0.42601776 0.66535187 1.0038223 0.66535187 1.6063004c0 0.602478 -0.2393341 1.1802826 -0.66535187 1.6063004l0 0c-0.88713074 0.88713455 -2.3254623 0.88713455 -3.212593 0l0 0c-0.88713837 -0.88713455 -0.88713837 -2.3254662 0 -3.2126007z" fill-rule="evenodd"/><path stroke="#434343" stroke-width="1.0" stroke-linejoin="round" stroke-linecap="butt" d="m73.31949 44.72047l0 0c0.88713074 -0.88713455 2.3254623 -0.88713455 3.212593 0l0 0c0.42601776 0.42601776 0.66535187 1.0038223 0.66535187 1.6063004c0 0.602478 -0.2393341 1.1802826 -0.66535187 1.6063004l0 0c-0.88713074 0.88713455 -2.3254623 0.88713455 -3.212593 0l0 0c-0.88713837 -0.88713455 -0.88713837 -2.3254662 0 -3.2126007z" fill-rule="evenodd"/></g></svg>