<svg version="1.1" viewBox="0.0 0.0 100.0 100.0" fill="none" stroke="none" stroke-linecap="square" stroke-miterlimit="10" xmlns:xlink="http://www.w3.org/1999/xlink" xmlns="http://www.w3.org/2000/svg"><clipPath id="p.0"><path d="m0 0l100.0 0l0 100.0l-100.0 0l0 -100.0z" clip-rule="nonzero"/></clipPath><g clip-path="url(#p.0)"><path fill="#000000" fill-opacity="0.0" d="m0 0l100.0 0l0 100.0l-100.0 0z" fill-rule="evenodd"/><path fill="#434343" d="m32.80861 46.15691l0 0c-0.49576187 -0.49576187 -0.49576187 -1.2995491 0 -1.795311l3.5905151 -3.5905151l0 0c0.23807526 -0.23807144 0.5609703 -0.37182236 0.8976593 -0.37182236c0.33668518 0 0.65958023 0.13375092 0.8976555 0.37182236l35.181065 35.181065c0.4957657 0.4957657 0.4957657 1.2995529 0 1.795311l-3.5905151 3.5905151c-0.49575806 0.4957657 -1.2995529 0.4957657 -1.795311 0z" fill-rule="evenodd"/><path stroke="#000000" stroke-width="1.0" stroke-linejoin="round" stroke-linecap="butt" d="m32.80861 46.15691l0 0c-0.49576187 -0.49576187 -0.49576187 -1.2995491 0 -1.795311l3.5905151 -3.5905151l0 0c0.23807526 -0.23807144 0.5609703 -0.37182236 0.8976593 -0.37182236c0.33668518 0 0.65958023 0.13375092 0.8976555 0.37182236l35.181065 35.181065c0.4957657 0.4957657 0.4957657 1.2995529 0 1.795311l-3.5905151 3.5905151c-0.49575806 0.4957657 -1.2995529 0.4957657 -1.795311 0z" fill-rule="evenodd"/><g filter="url(#shadowFilter-p.1)"><use xlink:href="#p.1" transform="matrix(1.0 0.0 0.0 1.0 0.0 2.0)"/></g><defs><filter id="shadowFilter-p.1" filterUnits="userSpaceOnUse"><feGaussianBlur in="SourceAlpha" stdDeviation="2.0" result="blur"/><feComponentTransfer in="blur" color-interpolation-filters="sRGB"><feFuncR type="linear" slope="0" intercept="0.0"/><feFuncG type="linear" slope="0" intercept="0.0"/><feFuncB type="linear" slope="0" intercept="0.0"/><feFuncA type="linear" slope="0.5" intercept="0"/></feComponentTransfer></filter></defs><g id="p.1"><path fill="#666666" d="m4.4874096 33.11905l0 0c2.675386 2.6753845 9.46238 0.22605133 15.159176 -5.470745c5.6967945 -5.6967964 8.1461315 -12.48379 5.470745 -15.159176l15.8863735 15.8863735c2.6753845 2.6753845 0.22605133 9.462381 -5.470745 15.159174c-5.6967964 5.6967964 -12.483789 8.146133 -15.159176 5.470745z" fill-rule="evenodd"/><path fill="#a3a3a3" d="m4.4874096 33.11905l0 0c-2.675386 -2.6753864 -0.2260499 -9.462379 5.470746 -15.159176c5.6967955 -5.6967955 12.4837885 -8.1461315 15.159175 -5.470745l0 0c2.6753864 2.6753855 0.22604942 9.462379 -5.470745 15.159176c-5.6967955 5.6967964 -12.483789 8.14613 -15.159176 5.470745z" fill-rule="evenodd"/><path fill="#000000" fill-opacity="0.0" d="m25.11733 12.489128l0 0c2.6753864 2.6753855 0.22604942 9.462379 -5.470745 15.159176c-5.6967955 5.6967964 -12.483789 8.14613 -15.159176 5.470745l0 0c-2.675386 -2.6753864 -0.2260499 -9.462379 5.470746 -15.159176c5.6967955 -5.6967955 12.4837885 -8.1461315 15.159175 -5.470745l15.8863735 15.8863735c2.6753845 2.6753845 0.22605133 9.462381 -5.470745 15.159174c-5.6967964 5.6967964 -12.483789 8.146133 -15.159176 5.470745l-15.8863735 -15.886372" fill-rule="evenodd"/><path stroke="#000000" stroke-width="1.0" stroke-linejoin="round" stroke-linecap="butt" d="m25.11733 12.489128l0 0c2.6753864 2.6753855 0.22604942 9.462379 -5.470745 15.159176c-5.6967955 5.6967964 -12.483789 8.14613 -15.159176 5.470745l0 0c-2.675386 -2.6753864 -0.2260499 -9.462379 5.470746 -15.159176c5.6967955 -5.6967955 12.4837885 -8.1461315 15.159175 -5.470745l15.8863735 15.8863735c2.6753845 2.6753845 0.22605133 9.462381 -5.470745 15.159174c-5.6967964 5.6967964 -12.483789 8.146133 -15.159176 5.470745l-15.8863735 -15.886372" fill-rule="evenodd"/></g><path fill="#434343" d="m29.931744 41.108986l0 0c-0.88713455 -0.88713455 -0.88713455 -2.3254662 0 -3.2126007l0 0c0.42601585 -0.42601776 1.0038185 -0.66535187 1.6062984 -0.66535187c0.60247993 0 1.1802807 0.2393341 1.6062984 0.66535187l0 0c0.88713455 0.88713455 0.88713455 2.3254662 0 3.2126007l0 0c-0.88713455 0.88713455 -2.3254623 0.88713455 -3.212597 0z" fill-rule="evenodd"/><path stroke="#434343" stroke-width="1.0" stroke-linejoin="round" stroke-linecap="butt" d="m29.931744 41.108986l0 0c-0.88713455 -0.88713455 -0.88713455 -2.3254662 0 -3.2126007l0 0c0.42601585 -0.42601776 1.0038185 -0.66535187 1.6062984 -0.66535187c0.60247993 0 1.1802807 0.2393341 1.6062984 0.66535187l0 0c0.88713455 0.88713455 0.88713455 2.3254662 0 3.2126007l0 0c-0.88713455 0.88713455 -2.3254623 0.88713455 -3.212597 0z" fill-rule="evenodd"/><path fill="#434343" d="m21.382109 45.785004l0 0c-0.88713455 -0.88713455 -0.88713455 -2.3254623 0 -3.212597l0 0c0.42601585 -0.42601776 1.0038204 -0.66535187 1.6062984 -0.66535187c0.60247993 0 1.1802826 0.2393341 1.6063004 0.66535187l0 0c0.88713455 0.88713455 0.88713455 2.3254623 0 3.212597l0 0c-0.88713455 0.88713455 -2.3254642 0.88713455 -3.2125988 0z" fill-rule="evenodd"/><path stroke="#434343" stroke-width="1.0" stroke-linejoin="round" stroke-linecap="butt" d="m21.382109 45.785004l0 0c-0.88713455 -0.88713455 -0.88713455 -2.3254623 0 -3.212597l0 0c0.42601585 -0.42601776 1.0038204 -0.66535187 1.6062984 -0.66535187c0.60247993 0 1.1802826 0.2393341 1.6063004 0.66535187l0 0c0.88713455 0.88713455 0.88713455 2.3254623 0 3.212597l0 0c-0.88713455 0.88713455 -2.3254642 0.88713455 -3.2125988 0z" fill-rule="evenodd"/><path fill="#434343" d="m34.607883 32.55957l0 0c-0.88713455 -0.88713455 -0.88713455 -2.3254642 0 -3.2125988l0 0c0.42601776 -0.42601585 1.0038185 -0.66534996 1.6063004 -0.66534996c0.602478 0 1.1802788 0.2393341 1.6062965 0.66534996l0 0c0.88713455 0.88713455 0.88713455 2.3254642 0 3.2125988l0 0c-0.88713455 0.88713455 -2.3254623 0.88713455 -3.212597 0z" fill-rule="evenodd"/><path stroke="#434343" stroke-width="1.0" stroke-linejoin="round" stroke-linecap="butt" d="m34.607883 32.55957l0 0c-0.88713455 -0.88713455 -0.88713455 -2.3254642 0 -3.2125988l0 0c0.42601776 -0.42601585 1.0038185 -0.66534996 1.6063004 -0.66534996c0.602478 0 1.1802788 0.2393341 1.6062965 0.66534996l0 0c0.88713455 0.88713455 0.88713455 2.3254642 0 3.2125988l0 0c-0.88713455 0.88713455 -2.3254623 0.88713455 -3.212597 0z" fill-rule="evenodd"/><path fill="#000000" fill-opacity="0.0" d="m71.17931 87.96107l0 0c-2.4265747 -2.4265747 -2.4265747 -6.3608246 0 -8.787399l0 0c1.1652756 -1.1652832 2.7457428 -1.819931 4.3936996 -1.819931c1.6479568 0 3.2284164 0.6546478 4.3936996 1.819931l0 0c2.4265747 2.4265747 2.4265747 6.3608246 0 8.787399l0 0c-2.4265747 2.4265747 -6.360832 2.4265747 -8.787399 0z" fill-rule="evenodd"/><path stroke="#000000" stroke-width="3.0" stroke-linejoin="round" stroke-linecap="butt" d="m71.17931 87.96107l0 0c-2.4265747 -2.4265747 -2.4265747 -6.3608246 0 -8.787399l0 0c1.1652756 -1.1652832 2.7457428 -1.819931 4.3936996 -1.819931c1.6479568 0 3.2284164 0.6546478 4.3936996 1.819931l0 0c2.4265747 2.4265747 2.4265747 6.3608246 0 8.787399l0 0c-2.4265747 2.4265747 -6.360832 2.4265747 -8.787399 0z" fill-rule="evenodd"/><path fill="#000000" fill-opacity="0.0" d="m8.968031 37.598003c9.284338 -1.6052551 19.854658 -11.259407 20.6661 -20.577015" fill-rule="evenodd"/><path stroke="#000000" stroke-width="1.0" stroke-linejoin="round" stroke-linecap="butt" d="m8.968031 37.598003c9.284338 -1.6052551 19.854658 -11.259407 20.6661 -20.577015" fill-rule="evenodd"/><path fill="#434343" d="m61.844807 40.80681l0 0c0.49576187 -0.49576187 1.2995491 -0.49576187 1.795311 0l3.590519 3.5905151l0 0c0.23806763 0.23807144 0.37181854 0.5609665 0.37181854 0.8976555c0 0.33668518 -0.13375092 0.65958023 -0.37181854 0.8976555l-35.18107 35.18107c-0.49576187 0.49575806 -1.299551 0.49575806 -1.7953129 0l-3.5905151 -3.5905151c-0.49576187 -0.4957657 -0.49576187 -1.2995529 0 -1.795311z" fill-rule="evenodd"/><path stroke="#000000" stroke-width="1.0" stroke-linejoin="round" stroke-linecap="butt" d="m61.844807 40.80681l0 0c0.49576187 -0.49576187 1.2995491 -0.49576187 1.795311 0l3.590519 3.5905151l0 0c0.23806763 0.23807144 0.37181854 0.5609665 0.37181854 0.8976555c0 0.33668518 -0.13375092 0.65958023 -0.37181854 0.8976555l-35.18107 35.18107c-0.49576187 0.49575806 -1.299551 0.49575806 -1.7953129 0l-3.5905151 -3.5905151c-0.49576187 -0.4957657 -0.49576187 -1.2995529 0 -1.795311z" fill-rule="evenodd"/><g filter="url(#shadowFilter-p.2)"><use xlink:href="#p.2" transform="matrix(1.0 0.0 0.0 1.0 0.0 2.0)"/></g><defs><filter id="shadowFilter-p.2" filterUnits="userSpaceOnUse"><feGaussianBlur in="SourceAlpha" stdDeviation="2.0" result="blur"/><feComponentTransfer in="blur" color-interpolation-filters="sRGB"><feFuncR type="linear" slope="0" intercept="0.0"/><feFuncG type="linear" slope="0" intercept="0.0"/><feFuncB type="linear" slope="0" intercept="0.0"/><feFuncA type="linear" slope="0.5" intercept="0"/></feComponentTransfer></filter></defs><g id="p.2"><path fill="#666666" d="m74.88267 12.485606l0 0c-2.6753845 2.6753855 -0.22605133 9.46238 5.470749 15.159175c5.6967926 5.6967945 12.483788 8.1461315 15.159172 5.470747l-15.886368 15.886372c-2.6753922 2.6753883 -9.462387 0.22605133 -15.15918 -5.470745c-5.6967964 -5.6967964 -8.14613 -12.483789 -5.470745 -15.159176z" fill-rule="evenodd"/><path fill="#a3a3a3" d="m74.88267 12.485606l0 0c2.6753845 -2.6753864 9.462379 -0.22605038 15.15918 5.470746c5.6967926 5.6967945 8.146126 12.483789 5.4707413 15.159176l0 0c-2.6753845 2.6753845 -9.462379 0.22604752 -15.159172 -5.470747c-5.6968 -5.6967945 -8.146133 -12.483789 -5.470749 -15.159175z" fill-rule="evenodd"/><path fill="#000000" fill-opacity="0.0" d="m95.51259 33.11553l0 0c-2.6753845 2.6753845 -9.462379 0.22604752 -15.159172 -5.470747c-5.6968 -5.6967945 -8.146133 -12.483789 -5.470749 -15.159175l0 0c2.6753845 -2.6753864 9.462379 -0.22605038 15.15918 5.470746c5.6967926 5.6967945 8.146126 12.483789 5.4707413 15.159176l-15.886368 15.886372c-2.6753922 2.6753883 -9.462387 0.22605133 -15.15918 -5.470745c-5.6967964 -5.6967964 -8.14613 -12.483789 -5.470745 -15.159176l15.886372 -15.886373" fill-rule="evenodd"/><path stroke="#000000" stroke-width="1.0" stroke-linejoin="round" stroke-linecap="butt" d="m95.51259 33.11553l0 0c-2.6753845 2.6753845 -9.462379 0.22604752 -15.159172 -5.470747c-5.6968 -5.6967945 -8.146133 -12.483789 -5.470749 -15.159175l0 0c2.6753845 -2.6753864 9.462379 -0.22605038 15.15918 5.470746c5.6967926 5.6967945 8.146126 12.483789 5.4707413 15.159176l-15.886368 15.886372c-2.6753922 2.6753883 -9.462387 0.22605133 -15.15918 -5.470745c-5.6967964 -5.6967964 -8.14613 -12.483789 -5.470745 -15.159176l15.886372 -15.886373" fill-rule="evenodd"/></g><path fill="#434343" d="m66.89273 37.92994l0 0c0.88713837 -0.88713455 2.32547 -0.88713455 3.2126007 0l0 0c0.42601776 0.42601776 0.66535187 1.0038185 0.66535187 1.6063004c0 0.602478 -0.2393341 1.1802788 -0.66535187 1.6062965l0 0c-0.88713074 0.88713455 -2.3254623 0.88713455 -3.2126007 0l0 0c-0.88713074 -0.88713455 -0.88713074 -2.3254623 0 -3.212597z" fill-rule="evenodd"/><path stroke="#434343" stroke-width="1.0" stroke-linejoin="round" stroke-linecap="butt" d="m66.89273 37.92994l0 0c0.88713837 -0.88713455 2.32547 -0.88713455 3.2126007 0l0 0c0.42601776 0.42601776 0.66535187 1.0038185 0.66535187 1.6063004c0 0.602478 -0.2393341 1.1802788 -0.66535187 1.6062965l0 0c-0.88713074 0.88713455 -2.3254623 0.88713455 -3.2126007 0l0 0c-0.88713074 -0.88713455 -0.88713074 -2.3254623 0 -3.212597z" fill-rule="evenodd"/><path fill="#434343" d="m62.216713 29.380304l0 0c0.88713455 -0.88713455 2.3254623 -0.88713455 3.2126007 0l0 0c0.42601776 0.42601776 0.66535187 1.0038204 0.66535187 1.6062984c0 0.60247993 -0.2393341 1.1802826 -0.66535187 1.6063004l0 0c-0.88713837 0.88713455 -2.3254662 0.88713455 -3.2126007 0l0 0c-0.88713455 -0.88713455 -0.88713455 -2.3254642 0 -3.2125988z" fill-rule="evenodd"/><path stroke="#434343" stroke-width="1.0" stroke-linejoin="round" stroke-linecap="butt" d="m62.216713 29.380304l0 0c0.88713455 -0.88713455 2.3254623 -0.88713455 3.2126007 0l0 0c0.42601776 0.42601776 0.66535187 1.0038204 0.66535187 1.6062984c0 0.60247993 -0.2393341 1.1802826 -0.66535187 1.6063004l0 0c-0.88713837 0.88713455 -2.3254662 0.88713455 -3.2126007 0l0 0c-0.88713455 -0.88713455 -0.88713455 -2.3254642 0 -3.2125988z" fill-rule="evenodd"/><path fill="#434343" d="m75.44215 42.60608l0 0c0.88713837 -0.88713455 2.3254623 -0.88713455 3.2126007 0l0 0c0.42601776 0.42601776 0.66535187 1.0038185 0.66535187 1.6063004c0 0.602478 -0.2393341 1.1802826 -0.66535187 1.6062965l0 0c-0.88713837 0.88713455 -2.3254623 0.88713455 -3.2126007 0l0 0c-0.88713074 -0.88713455 -0.88713074 -2.3254623 0 -3.212597z" fill-rule="evenodd"/><path stroke="#434343" stroke-width="1.0" stroke-linejoin="round" stroke-linecap="butt" d="m75.44215 42.60608l0 0c0.88713837 -0.88713455 2.3254623 -0.88713455 3.2126007 0l0 0c0.42601776 0.42601776 0.66535187 1.0038185 0.66535187 1.6063004c0 0.602478 -0.2393341 1.1802826 -0.66535187 1.6062965l0 0c-0.88713837 0.88713455 -2.3254623 0.88713455 -3.2126007 0l0 0c-0.88713074 -0.88713455 -0.88713074 -2.3254623 0 -3.212597z" fill-rule="evenodd"/><path fill="#000000" fill-opacity="0.0" d="m20.04065 79.177505l0 0c2.4265728 -2.4265747 6.3608265 -2.4265747 8.787401 0l0 0c1.1652813 1.1652832 1.8199291 2.7457428 1.8199291 4.3936996c0 1.6479568 -0.6546478 3.228424 -1.8199291 4.3936996l0 0c-2.4265747 2.4265747 -6.3608284 2.4265747 -8.787401 0l0 0c-2.4265747 -2.426567 -2.4265747 -6.3608246 0 -8.787399z" fill-rule="evenodd"/><path stroke="#000000" stroke-width="3.0" stroke-linejoin="round" stroke-linecap="butt" d="m20.04065 79.177505l0 0c2.4265728 -2.4265747 6.3608265 -2.4265747 8.787401 0l0 0c1.1652813 1.1652832 1.8199291 2.7457428 1.8199291 4.3936996c0 1.6479568 -0.6546478 3.228424 -1.8199291 4.3936996l0 0c-2.4265747 2.4265747 -6.3608284 2.4265747 -8.787401 0l0 0c-2.4265747 -2.426567 -2.4265747 -6.3608246 0 -8.787399z" fill-rule="evenodd"/><path fill="#000000" fill-opacity="0.0" d="m70.40372 16.966227c1.6052551 9.284338 11.259407 19.854658 20.577011 20.666101" fill-rule="evenodd"/><path stroke="#000000" stroke-width="1.0" stroke-linejoin="round" stroke-linecap="butt" d="m70.40372 16.966227c1.6052551 9.284338 11.259407 19.854658 20.577011 20.666101" fill-rule="evenodd"/></g></svg>