<svg version="1.1" viewBox="0.0 0.0 700.0 400.0" fill="none" stroke="none" stroke-linecap="square" stroke-miterlimit="10" xmlns:xlink="http://www.w3.org/1999/xlink" xmlns="http://www.w3.org/2000/svg"><clipPath id="p.0"><path d="m0 0l700.0 0l0 400.0l-700.0 0l0 -400.0z" clip-rule="nonzero"/></clipPath><g clip-path="url(#p.0)"><path fill="#000000" fill-opacity="0.0" d="m0 0l700.0 0l0 400.0l-700.0 0z" fill-rule="evenodd"/><path fill="#000000" fill-opacity="0.0" d="m289.6273 30.211838l133.88977 0l0 37.16535l-133.88977 0z" fill-rule="evenodd"/><path stroke="#cccccc" stroke-width="1.0" stroke-linejoin="round" stroke-linecap="butt" d="m289.6273 30.211838l133.88977 0l0 37.16535l-133.88977 0z" fill-rule="evenodd"/><path fill="#000000" d="m302.7523 53.29184l-4.0625 -10.484375l1.5 0l2.734375 7.609375q0.328125 0.921875 0.546875 1.71875q0.25 -0.859375 0.5625 -1.71875l2.84375 -7.609375l1.40625 0l-4.109375 10.484375l-1.421875 0zm10.483948 -0.9375q-0.71875 0.609375 -1.375 0.859375q-0.65625 0.25 -1.421875 0.25q-1.25 0 -1.921875 -0.609375q-0.671875 -0.609375 -0.671875 -1.5625q0 -0.5625 0.25 -1.015625q0.25 -0.46875 0.65625 -0.75q0.421875 -0.28125 0.9375 -0.421875q0.375 -0.09375 1.140625 -0.1875q1.5625 -0.1875 2.296875 -0.453125q0.015625 -0.265625 0.015625 -0.328125q0 -0.796875 -0.375 -1.109375q-0.484375 -0.4375 -1.453125 -0.4375q-0.921875 0 -1.359375 0.328125q-0.421875 0.3125 -0.625 1.109375l-1.265625 -0.171875q0.171875 -0.796875 0.5625 -1.296875q0.390625 -0.5 1.140625 -0.765625q0.75 -0.265625 1.71875 -0.265625q0.984375 0 1.59375 0.234375q0.609375 0.21875 0.890625 0.5625q0.28125 0.34375 0.40625 0.875q0.0625 0.328125 0.0625 1.1875l0 1.71875q0 1.796875 0.078125 2.28125q0.078125 0.46875 0.328125 0.90625l-1.34375 0q-0.203125 -0.40625 -0.265625 -0.9375zm-0.109375 -2.875q-0.703125 0.28125 -2.09375 0.484375q-0.796875 0.109375 -1.125 0.265625q-0.328125 0.140625 -0.515625 0.421875q-0.171875 0.265625 -0.171875 0.59375q0 0.515625 0.390625 0.859375q0.390625 0.34375 1.140625 0.34375q0.734375 0 1.3125 -0.3125q0.59375 -0.328125 0.859375 -0.890625q0.203125 -0.4375 0.203125 -1.296875l0 -0.46875zm8.229218 3.8125l0 -0.953125q-0.71875 1.125 -2.125 1.125q-0.90625 0 -1.671875 -0.5q-0.75 -0.5 -1.171875 -1.390625q-0.421875 -0.90625 -0.421875 -2.078125q0 -1.140625 0.375 -2.0625q0.390625 -0.921875 1.140625 -1.40625q0.765625 -0.5 1.703125 -0.5q0.6875 0 1.21875 0.296875q0.53125 0.28125 0.875 0.734375l0 -3.75l1.28125 0l0 10.484375l-1.203125 0zm-4.0625 -3.796875q0 1.46875 0.609375 2.1875q0.625 0.71875 1.453125 0.71875q0.84375 0 1.4375 -0.6875q0.59375 -0.6875 0.59375 -2.109375q0 -1.5625 -0.609375 -2.28125q-0.59375 -0.734375 -1.484375 -0.734375q-0.84375 0 -1.421875 0.703125q-0.578125 0.703125 -0.578125 2.203125zm7.291748 -5.21875l0 -1.46875l1.296875 0l0 1.46875l-1.296875 0zm0 9.015625l0 -7.59375l1.296875 0l0 7.59375l-1.296875 0zm3.256134 0l0 -7.59375l1.15625 0l0 1.0625q0.34375 -0.5625 0.9375 -0.890625q0.609375 -0.34375 1.359375 -0.34375q0.84375 0 1.375 0.34375q0.546875 0.34375 0.765625 0.984375q0.90625 -1.328125 2.359375 -1.328125q1.125 0 1.734375 0.625q0.609375 0.625 0.609375 1.921875l0 5.21875l-1.28125 0l0 -4.78125q0 -0.78125 -0.125 -1.109375q-0.125 -0.34375 -0.453125 -0.546875q-0.328125 -0.21875 -0.78125 -0.21875q-0.796875 0 -1.328125 0.53125q-0.53125 0.53125 -0.53125 1.703125l0 4.421875l-1.28125 0l0 -4.9375q0 -0.859375 -0.3125 -1.28125q-0.3125 -0.4375 -1.03125 -0.4375q-0.546875 0 -1.015625 0.296875q-0.453125 0.28125 -0.671875 0.828125q-0.203125 0.546875 -0.203125 1.59375l0 3.9375l-1.28125 0zm16.280762 -9.015625l0 -1.46875l1.296875 0l0 1.46875l-1.296875 0zm0 9.015625l0 -7.59375l1.296875 0l0 7.59375l-1.296875 0zm2.740509 -2.265625l1.265625 -0.203125q0.109375 0.765625 0.59375 1.171875q0.5 0.40625 1.375 0.40625q0.890625 0 1.3125 -0.359375q0.4375 -0.359375 0.4375 -0.84375q0 -0.4375 -0.375 -0.6875q-0.265625 -0.171875 -1.3125 -0.4375q-1.421875 -0.359375 -1.96875 -0.609375q-0.546875 -0.265625 -0.828125 -0.734375q-0.28125 -0.46875 -0.28125 -1.015625q0 -0.515625 0.21875 -0.9375q0.234375 -0.4375 0.640625 -0.734375q0.296875 -0.21875 0.8125 -0.359375q0.53125 -0.15625 1.125 -0.15625q0.890625 0 1.5625 0.265625q0.671875 0.25 1.0 0.6875q0.328125 0.4375 0.4375 1.171875l-1.25 0.171875q-0.09375 -0.578125 -0.5 -0.90625q-0.40625 -0.34375 -1.15625 -0.34375q-0.890625 0 -1.28125 0.296875q-0.375 0.296875 -0.375 0.6875q0 0.25 0.15625 0.453125q0.15625 0.203125 0.5 0.34375q0.1875 0.078125 1.140625 0.328125q1.359375 0.359375 1.890625 0.59375q0.546875 0.234375 0.859375 0.6875q0.3125 0.4375 0.3125 1.09375q0 0.640625 -0.375 1.21875q-0.375 0.5625 -1.09375 0.875q-0.703125 0.3125 -1.59375 0.3125q-1.484375 0 -2.265625 -0.609375q-0.765625 -0.625 -0.984375 -1.828125zm16.868866 1.328125q-0.71875 0.609375 -1.375 0.859375q-0.65625 0.25 -1.421875 0.25q-1.25 0 -1.921875 -0.609375q-0.671875 -0.609375 -0.671875 -1.5625q0 -0.5625 0.25 -1.015625q0.25 -0.46875 0.65625 -0.75q0.421875 -0.28125 0.9375 -0.421875q0.375 -0.09375 1.140625 -0.1875q1.5625 -0.1875 2.296875 -0.453125q0.015625 -0.265625 0.015625 -0.328125q0 -0.796875 -0.375 -1.109375q-0.484375 -0.4375 -1.453125 -0.4375q-0.921875 0 -1.359375 0.328125q-0.421875 0.3125 -0.625 1.109375l-1.265625 -0.171875q0.171875 -0.796875 0.5625 -1.296875q0.390625 -0.5 1.140625 -0.765625q0.75 -0.265625 1.71875 -0.265625q0.984375 0 1.59375 0.234375q0.609375 0.21875 0.890625 0.5625q0.28125 0.34375 0.40625 0.875q0.0625 0.328125 0.0625 1.1875l0 1.71875q0 1.796875 0.078125 2.28125q0.078125 0.46875 0.328125 0.90625l-1.34375 0q-0.203125 -0.40625 -0.265625 -0.9375zm-0.109375 -2.875q-0.703125 0.28125 -2.09375 0.484375q-0.796875 0.109375 -1.125 0.265625q-0.328125 0.140625 -0.515625 0.421875q-0.171875 0.265625 -0.171875 0.59375q0 0.515625 0.390625 0.859375q0.390625 0.34375 1.140625 0.34375q0.734375 0 1.3125 -0.3125q0.59375 -0.328125 0.859375 -0.890625q0.203125 -0.4375 0.203125 -1.296875l0 -0.46875zm7.3793335 3.8125l0 -7.59375l1.15625 0l0 1.078125q0.84375 -1.25 2.421875 -1.25q0.6875 0 1.265625 0.25q0.578125 0.234375 0.859375 0.640625q0.28125 0.40625 0.40625 0.953125q0.0625 0.359375 0.0625 1.25l0 4.671875l-1.28125 0l0 -4.625q0 -0.78125 -0.15625 -1.171875q-0.15625 -0.390625 -0.546875 -0.625q-0.375 -0.234375 -0.890625 -0.234375q-0.8125 0 -1.421875 0.53125q-0.59375 0.515625 -0.59375 1.96875l0 4.15625l-1.28125 0zm7.6667175 -3.796875q0 -2.109375 1.171875 -3.125q0.984375 -0.84375 2.390625 -0.84375q1.578125 0 2.5625 1.03125q1.0 1.015625 1.0 2.828125q0 1.46875 -0.4375 2.3125q-0.4375 0.828125 -1.28125 1.296875q-0.84375 0.46875 -1.84375 0.46875q-1.59375 0 -2.578125 -1.015625q-0.984375 -1.03125 -0.984375 -2.953125zm1.328125 0q0 1.453125 0.625 2.1875q0.640625 0.71875 1.609375 0.71875q0.96875 0 1.59375 -0.71875q0.640625 -0.734375 0.640625 -2.234375q0 -1.40625 -0.640625 -2.125q-0.640625 -0.734375 -1.59375 -0.734375q-0.96875 0 -1.609375 0.71875q-0.625 0.71875 -0.625 2.1875zm6.822998 0q0 -2.109375 1.171875 -3.125q0.984375 -0.84375 2.390625 -0.84375q1.578125 0 2.5625 1.03125q1.0 1.015625 1.0 2.828125q0 1.46875 -0.4375 2.3125q-0.4375 0.828125 -1.28125 1.296875q-0.84375 0.46875 -1.84375 0.46875q-1.59375 0 -2.578125 -1.015625q-0.984375 -1.03125 -0.984375 -2.953125zm1.328125 0q0 1.453125 0.625 2.1875q0.640625 0.71875 1.609375 0.71875q0.96875 0 1.59375 -0.71875q0.640625 -0.734375 0.640625 -2.234375q0 -1.40625 -0.640625 -2.125q-0.640625 -0.734375 -1.59375 -0.734375q-0.96875 0 -1.609375 0.71875q-0.625 0.71875 -0.625 2.1875zm8.494843 3.796875l-1.203125 0l0 -10.484375l1.296875 0l0 3.734375q0.8125 -1.015625 2.078125 -1.015625q0.703125 0 1.328125 0.28125q0.625 0.28125 1.03125 0.796875q0.40625 0.5 0.625 1.234375q0.234375 0.71875 0.234375 1.53125q0 1.96875 -0.96875 3.03125q-0.953125 1.0625 -2.3125 1.0625q-1.34375 0 -2.109375 -1.125l0 0.953125zm-0.015625 -3.859375q0 1.375 0.375 1.984375q0.609375 0.984375 1.640625 0.984375q0.84375 0 1.453125 -0.734375q0.625 -0.734375 0.625 -2.1875q0 -1.484375 -0.59375 -2.1875q-0.59375 -0.71875 -1.421875 -0.71875q-0.84375 0 -1.46875 0.734375q-0.609375 0.734375 -0.609375 2.125z" fill-rule="nonzero"/><path fill="#999999" d="m3.8267717 113.26713l346.17322 -105.10236l346.17322 105.10236z" fill-rule="evenodd"/><path fill="#d9d9d9" d="m3.8267717 112.24672l692.34644 0l0 287.71655l-692.34644 0z" fill-rule="evenodd"/><path stroke="#d9d9d9" stroke-width="1.0" stroke-linejoin="round" stroke-linecap="butt" d="m3.8267717 112.24672l692.34644 0l0 287.71655l-692.34644 0z" fill-rule="evenodd"/><path fill="#434343" d="m-324.91226 117.24681l0 0c0 -0.87189484 0.7068176 -1.5787048 1.5787048 -1.5787048l6.314636 0l0 0c0.41870117 0 0.82025146 0.16632843 1.1163025 0.4623947c0.29608154 0.29605865 0.46240234 0.69760895 0.46240234 1.1163101l0 6.314621c0 0.8718872 -0.7068176 1.5786972 -1.5787048 1.5786972l-6.314636 0c-0.8718872 0 -1.5787048 -0.70681 -1.5787048 -1.5786972z" fill-rule="evenodd"/><path fill="#434343" d="m-345.175 145.50279l0 0c0 -13.809891 11.195129 -25.005013 25.005005 -25.005013l0 0c6.6317444 0 12.991882 2.6344452 17.681244 7.323799c4.689331 4.6893463 7.3237915 11.049469 7.3237915 17.681213l0 0c0 13.809891 -11.195129 25.00502 -25.005035 25.00502l0 0c-13.8098755 0 -25.005005 -11.195129 -25.005005 -25.00502z" fill-rule="evenodd"/><path fill="#999999" d="m-336.248 145.50279l0 0c0 -8.879639 7.1983643 -16.078003 16.078003 -16.078003l0 0c4.26416 0 8.353668 1.693924 11.3688965 4.709137c3.0151978 3.015213 4.709137 7.104721 4.709137 11.368866l0 0c0 8.879639 -7.198395 16.078018 -16.078033 16.078018l0 0c-8.879639 0 -16.078003 -7.1983795 -16.078003 -16.078018z" fill-rule="evenodd"/><path fill="#434343" d="m-291.91367 140.76709l0 0c0.8718872 0 1.5787048 0.7068176 1.5787048 1.5787048l0 6.314621l0 0c0 0.41870117 -0.16635132 0.82025146 -0.46240234 1.1163177c-0.29605103 0.29606628 -0.6976013 0.46238708 -1.1163025 0.46238708l-6.314636 0c-0.8718872 0 -1.5787048 -0.7068176 -1.5787048 -1.5787048l0 -6.314621c0 -0.8718872 0.7068176 -1.5787048 1.5787048 -1.5787048z" fill-rule="evenodd"/><path fill="#434343" d="m-315.44022 173.75627l0 0c0 0.8718872 -0.7068176 1.5787048 -1.5787048 1.5787048l-6.314636 0l0 0c-0.41870117 0 -0.82022095 -0.16633606 -1.1163025 -0.46238708c-0.29605103 -0.29606628 -0.46240234 -0.6976166 -0.46240234 -1.1163177l0 -6.314621c0 -0.8718872 0.7068176 -1.5787048 1.5787048 -1.5787048l6.314636 0c0.8718872 0 1.5787048 0.7068176 1.5787048 1.5787048z" fill-rule="evenodd"/><path fill="#434343" d="m-348.4294 150.23912l0 0c-0.8718872 0 -1.5787048 -0.7068176 -1.5787048 -1.5787048l0 -6.314621l0 0c0 -0.41870117 0.16635132 -0.82025146 0.46240234 -1.1163025c0.29608154 -0.29606628 0.6976013 -0.46240234 1.1163025 -0.46240234l6.314636 0c0.8718872 0 1.5787048 0.7068176 1.5787048 1.5787048l0 6.314621c0 0.8718872 -0.7068176 1.5787048 -1.5787048 1.5787048z" fill-rule="evenodd"/><path fill="#434343" d="m-303.54184 122.164345l0 0c0.6158447 -0.61586 1.6143494 -0.61586 2.2302246 0l4.460327 4.460327l0 0c0.29574585 0.29574585 0.46188354 0.6968689 0.46188354 1.1151123c0 0.41825104 -0.1661377 0.8193741 -0.46188354 1.1151199l-4.460327 4.460327c-0.61587524 0.61586 -1.6143799 0.61586 -2.2302246 0l-4.460327 -4.460327c-0.61587524 -0.61586 -0.61587524 -1.6143723 0 -2.2302322z" fill-rule="evenodd"/><path fill="#434343" d="m-296.8397 162.1316l0 0c0.61587524 0.61586 0.61587524 1.6143646 0 2.2302246l-4.460327 4.460327l0 0c-0.29574585 0.29574585 -0.6968689 0.4618988 -1.1151123 0.4618988c-0.4182434 0 -0.81936646 -0.16615295 -1.1151123 -0.4618988l-4.460327 -4.460327c-0.61587524 -0.61586 -0.61587524 -1.6143646 0 -2.2302246l4.460327 -4.460327c0.6158447 -0.61586 1.6143799 -0.61586 2.2302246 0z" fill-rule="evenodd"/><path fill="#434343" d="m-336.80475 168.8227l0 0c-0.6158447 0.61586 -1.6143494 0.61586 -2.2302246 0l-4.460327 -4.460327l0 0c-0.29574585 -0.29574585 -0.46188354 -0.6968689 -0.46188354 -1.1151123c0 -0.4182434 0.1661377 -0.81936646 0.46188354 -1.1151123l4.460327 -4.460327c0.61587524 -0.61586 1.6143799 -0.61586 2.2302246 0l4.460327 4.460327c0.61587524 0.61586 0.61587524 1.6143646 0 2.2302246z" fill-rule="evenodd"/><path fill="#434343" d="m-343.50247 128.86429l0 0c-0.6158447 -0.61586 -0.6158447 -1.6143646 0 -2.2302246l4.460327 -4.460327l0 0c0.29574585 -0.29574585 0.6968689 -0.4618988 1.1151123 -0.4618988c0.4182434 0 0.81936646 0.16615295 1.1151123 0.4618988l4.460327 4.460327c0.61587524 0.61586 0.61587524 1.6143646 0 2.2302246l-4.460327 4.460327c-0.6158447 0.61586 -1.6143494 0.61586 -2.2302246 0z" fill-rule="evenodd"/><path fill="#434343" d="m-325.498 128.56967l1.4659119 -0.4134674l9.1901245 34.27971l-1.4659119 0.4134674z" fill-rule="evenodd"/><path fill="#434343" d="m-302.84775 149.36545l-0.375885 1.4659119l-34.279694 -9.1901245l0.375885 -1.4658966z" fill-rule="evenodd"/><path fill="#434343" d="m-303.22745 140.18974l0.41345215 1.4659119l-34.298492 9.1901245l-0.41345215 -1.4659119z" fill-rule="evenodd"/><path fill="#434343" d="m-324.02322 162.83998l-1.4659119 -0.37586975l9.1901245 -34.298508l1.4659119 0.375885z" fill-rule="evenodd"/><path fill="#434343" d="m554.6809 146.5119l0 0c0 -0.8718872 0.70684814 -1.5787048 1.5787354 -1.5787048l6.314636 0l0 0c0.41864014 0 0.8201904 0.16633606 1.116272 0.46238708c0.29608154 0.29606628 0.46240234 0.6976166 0.46240234 1.1163177l0 6.314621c0 0.8718872 -0.7067871 1.5787048 -1.5786743 1.5787048l-6.314636 0c-0.8718872 0 -1.5787354 -0.7068176 -1.5787354 -1.5787048z" fill-rule="evenodd"/><path fill="#434343" d="m534.4182 174.76788l0 0c0 -13.809891 11.195129 -25.00502 25.005005 -25.00502l0 0c6.631714 0 12.991882 2.6344604 17.681213 7.323807c4.689331 4.6893463 7.3237915 11.049469 7.3237915 17.681213l0 0c0 13.809891 -11.195129 25.00502 -25.005005 25.00502l0 0c-13.8098755 0 -25.005005 -11.195129 -25.005005 -25.00502z" fill-rule="evenodd"/><path fill="#999999" d="m543.3452 174.76788l0 0c0 -8.879639 7.1983643 -16.078003 16.078003 -16.078003l0 0c4.26416 0 8.353638 1.693924 11.368835 4.709137c3.0152588 3.015213 4.7091675 7.104721 4.7091675 11.368866l0 0c0 8.879639 -7.1983643 16.078018 -16.078003 16.078018l0 0c-8.879639 0 -16.078003 -7.1983795 -16.078003 -16.078018z" fill-rule="evenodd"/><path fill="#434343" d="m587.6795 170.03218l0 0c0.8718872 0 1.5786743 0.7068176 1.5786743 1.5787048l0 6.314621l0 0c0 0.41870117 -0.1663208 0.82025146 -0.4623413 1.1163177c-0.29608154 0.29606628 -0.69763184 0.46238708 -1.116333 0.46238708l-6.314636 0c-0.8718872 0 -1.5786743 -0.70680237 -1.5786743 -1.5787048l0 -6.314621c0 -0.8718872 0.7067871 -1.5787048 1.5786743 -1.5787048z" fill-rule="evenodd"/><path fill="#434343" d="m564.15295 203.02136l0 0c0 0.87190247 -0.7067871 1.5787048 -1.5786743 1.5787048l-6.314636 0l0 0c-0.41870117 0 -0.82025146 -0.1663208 -1.116333 -0.46238708c-0.29608154 -0.29606628 -0.46240234 -0.6976166 -0.46240234 -1.1163177l0 -6.314621c0 -0.8718872 0.70684814 -1.5787048 1.5787354 -1.5787048l6.314636 0c0.8718872 0 1.5786743 0.7068176 1.5786743 1.5787048z" fill-rule="evenodd"/><path fill="#434343" d="m531.16376 179.50421l0 0c-0.8718872 0 -1.5786743 -0.70680237 -1.5786743 -1.5787048l0 -6.314621l0 0c0 -0.41870117 0.1663208 -0.82025146 0.46240234 -1.1163025c0.2960205 -0.29606628 0.6975708 -0.46240234 1.116272 -0.46240234l6.314636 0c0.8718872 0 1.5786743 0.7068176 1.5786743 1.5787048l0 6.314621c0 0.87190247 -0.7067871 1.5787048 -1.5786743 1.5787048z" fill-rule="evenodd"/><path fill="#434343" d="m576.05133 151.42944l0 0c0.6158447 -0.61586 1.6143799 -0.61586 2.2302246 0l4.460327 4.460327l0 0c0.29577637 0.29574585 0.46191406 0.69685364 0.46191406 1.1151123c0 0.4182434 -0.1661377 0.81936646 -0.46191406 1.1151123l-4.460327 4.460327c-0.6158447 0.61586 -1.6143799 0.61586 -2.2302246 0l-4.460327 -4.460327c-0.6158447 -0.61586 -0.6158447 -1.6143646 0 -2.2302246z" fill-rule="evenodd"/><path fill="#434343" d="m582.7535 191.3967l0 0c0.6158447 0.61586 0.6158447 1.6143646 0 2.2302246l-4.460327 4.460327l0 0c-0.29571533 0.29574585 -0.6968384 0.4618988 -1.1151123 0.4618988c-0.41827393 0 -0.81933594 -0.16615295 -1.1151123 -0.4618988l-4.460327 -4.460327c-0.6158447 -0.61586 -0.6158447 -1.6143646 0 -2.2302246l4.460327 -4.460327c0.6158447 -0.61586 1.6143799 -0.61586 2.2302246 0z" fill-rule="evenodd"/><path fill="#434343" d="m542.78845 198.08778l0 0c-0.6158447 0.61586 -1.6143799 0.61586 -2.2302246 0l-4.460327 -4.460327l0 0c-0.29577637 -0.29574585 -0.46191406 -0.6968689 -0.46191406 -1.1151123c0 -0.4182434 0.1661377 -0.81936646 0.46191406 -1.1151123l4.460327 -4.460327c0.6158447 -0.61586 1.6143799 -0.61586 2.2302246 0l4.460327 4.460327c0.6158447 0.61586 0.6158447 1.6143646 0 2.2302246z" fill-rule="evenodd"/><path fill="#434343" d="m536.0907 158.12938l0 0c-0.6158447 -0.61586 -0.6158447 -1.6143646 0 -2.2302246l4.460327 -4.460327l0 0c0.29577637 -0.29574585 0.6968994 -0.4618988 1.1151123 -0.4618988c0.41827393 0 0.819397 0.16615295 1.1151123 0.4618988l4.460327 4.460327c0.61590576 0.61586 0.61590576 1.6143646 0 2.2302246l-4.460327 4.460327c-0.6158447 0.61586 -1.6143799 0.61586 -2.2302246 0z" fill-rule="evenodd"/><path fill="#434343" d="m554.0952 157.83476l1.4658813 -0.4134674l9.1901245 34.279724l-1.4658813 0.41345215z" fill-rule="evenodd"/><path fill="#434343" d="m576.7454 178.63054l-0.3758545 1.4659119l-34.279724 -9.190109l0.3758545 -1.4659119z" fill-rule="evenodd"/><path fill="#434343" d="m576.3657 169.45483l0.41345215 1.4659119l-34.298462 9.1901245l-0.41351318 -1.4659119z" fill-rule="evenodd"/><path fill="#434343" d="m555.56995 192.10507l-1.4658813 -0.37586975l9.190063 -34.298508l1.4659424 0.375885z" fill-rule="evenodd"/><path fill="#434343" d="m637.721 162.4669l0 0c0 -0.6185303 0.5014038 -1.1199341 1.1199341 -1.1199341l4.479553 0l0 0c0.2970581 0 0.5819092 0.11798096 0.79193115 0.3280182c0.21002197 0.21002197 0.32800293 0.4948883 0.32800293 0.7919159l0 4.481186c0 0.618515 -0.5014038 1.1199341 -1.1199341 1.1199341l-4.479553 0c-0.6185303 0 -1.1199341 -0.50141907 -1.1199341 -1.1199341z" fill-rule="evenodd"/><path fill="#434343" d="m623.34656 182.51674l0 0c0 -9.799072 7.9418335 -17.742783 17.738586 -17.742783l0 0c4.70459 0 9.216492 1.8693237 12.543091 5.1967316c3.3266602 3.327423 5.1955566 7.840378 5.1955566 12.546051l0 0c0 9.799072 -7.9418945 17.742798 -17.738647 17.742798l0 0c-9.796753 0 -17.738586 -7.9437256 -17.738586 -17.742798z" fill-rule="evenodd"/><path fill="#999999" d="m629.6794 182.51674l0 0c0 -6.30072 5.1065674 -11.408463 11.405762 -11.408463l0 0c3.0250244 0 5.9260864 1.2019653 8.0651245 3.3414612c2.138977 2.139511 3.3406372 5.0412903 3.3406372 8.067001l0 0c0 6.30072 -5.1065063 11.408463 -11.405762 11.408463l0 0c-6.2991943 0 -11.405762 -5.1077423 -11.405762 -11.408463z" fill-rule="evenodd"/><path fill="#434343" d="m661.13025 179.15643l0 0c0.61846924 0 1.1199341 0.50141907 1.1199341 1.1199341l0 4.481186l0 0c0 0.2970276 -0.11804199 0.5818939 -0.32806396 0.7919159c-0.21002197 0.21003723 -0.49487305 0.3280182 -0.7918701 0.3280182l-4.4796143 0c-0.6185303 0 -1.1199341 -0.5014038 -1.1199341 -1.1199341l0 -4.481186c0 -0.618515 0.5014038 -1.1199341 1.1199341 -1.1199341z" fill-rule="evenodd"/><path fill="#434343" d="m644.4404 202.5648l0 0c0 0.6185303 -0.5014038 1.1199341 -1.1199341 1.1199341l-4.479553 0l0 0c-0.2970581 0 -0.5819092 -0.117996216 -0.79193115 -0.3280182c-0.21002197 -0.21002197 -0.32800293 -0.4948883 -0.32800293 -0.7919159l0 -4.481186c0 -0.6185303 0.5014038 -1.1199341 1.1199341 -1.1199341l4.479553 0c0.6185303 0 1.1199341 0.5014038 1.1199341 1.1199341z" fill-rule="evenodd"/><path fill="#434343" d="m621.03784 185.87749l0 0c-0.61846924 0 -1.1199341 -0.5014038 -1.1199341 -1.1199341l0 -4.481186l0 0c0 -0.2970276 0.11804199 -0.58187866 0.32806396 -0.7919159c0.21002197 -0.21002197 0.49487305 -0.3280182 0.7918701 -0.3280182l4.4796143 0c0.6185303 0 1.1199341 0.50141907 1.1199341 1.1199341l0 4.481186c0 0.6185303 -0.5014038 1.1199341 -1.1199341 1.1199341z" fill-rule="evenodd"/><path fill="#434343" d="m652.88116 165.9565l0 0c0.43688965 -0.43699646 1.1452637 -0.43699646 1.5821533 0l3.1641235 3.1649017l0 0c0.20983887 0.20985413 0.32769775 0.49447632 0.32769775 0.79125977c0 0.2967682 -0.11785889 0.5813904 -0.32769775 0.7912445l-3.1641235 3.164917c-0.43688965 0.43699646 -1.1452637 0.43699646 -1.5821533 0l-3.1641235 -3.164917c-0.43695068 -0.43699646 -0.43695068 -1.1455078 0 -1.5825043z" fill-rule="evenodd"/><path fill="#434343" d="m657.6357 194.31604l0 0c0.43688965 0.43699646 0.43688965 1.1455078 0 1.5825043l-3.1641235 3.1649017l0 0c-0.20983887 0.20985413 -0.49438477 0.3277588 -0.79107666 0.3277588c-0.2966919 0 -0.5812988 -0.11790466 -0.79107666 -0.3277588l-3.1641846 -3.1649017c-0.43688965 -0.43699646 -0.43688965 -1.1455078 0 -1.5825043l3.1641846 -3.164917c0.43688965 -0.43699646 1.1452637 -0.43699646 1.5821533 0z" fill-rule="evenodd"/><path fill="#434343" d="m629.2844 199.06383l0 0c-0.43688965 0.43699646 -1.1452026 0.43699646 -1.5821533 0l-3.1641235 -3.164917l0 0c-0.20983887 -0.20985413 -0.32769775 -0.49447632 -0.32769775 -0.7912445c0 -0.29678345 0.11785889 -0.58140564 0.32769775 -0.79125977l3.1641235 -3.1649017c0.43695068 -0.43699646 1.1452637 -0.43699646 1.5821533 0l3.1641846 3.1649017c0.43688965 0.43699646 0.43688965 1.1455078 0 1.5825043z" fill-rule="evenodd"/><path fill="#434343" d="m624.533 170.71057l0 0c-0.43688965 -0.43699646 -0.43688965 -1.1455078 0 -1.5825043l3.1641846 -3.1649017l0 0c0.20983887 -0.20985413 0.49438477 -0.3277588 0.79107666 -0.3277588c0.2966919 0 0.5812378 0.11790466 0.79107666 0.3277588l3.1641235 3.1649017c0.43688965 0.43699646 0.43688965 1.1455078 0 1.5825043l-3.1641235 3.164917c-0.43688965 0.43699646 -1.1452637 0.43699646 -1.5821533 0z" fill-rule="evenodd"/><path fill="#434343" d="m637.3055 170.50151l1.039917 -0.29336548l6.51947 24.323822l-1.039917 0.29338074z" fill-rule="evenodd"/><path fill="#434343" d="m653.3736 185.25757l-0.2666626 1.0401611l-24.318115 -6.5210266l0.2666626 -1.0401611z" fill-rule="evenodd"/><path fill="#434343" d="m653.1042 178.74677l0.29333496 1.0401611l-24.33142 6.5210266l-0.29333496 -1.0401611z" fill-rule="evenodd"/><path fill="#434343" d="m638.3516 194.81868l-1.039917 -0.26670837l6.5195312 -24.337158l1.039917 0.26670837z" fill-rule="evenodd"/><path fill="#c0a414" fill-opacity="0.8" d="m45.39895 206.29137l0 0c0 -0.9335327 0.75678635 -1.6903229 1.6903229 -1.6903229l155.29651 0c0.44830322 0 0.8782501 0.17810059 1.1952362 0.49508667c0.31700134 0.31700134 0.49508667 0.746933 0.49508667 1.1952362l0 6.761093c0 0.9335327 -0.7567749 1.6903229 -1.6903229 1.6903229l-155.29651 0c-0.9335365 0 -1.6903229 -0.75679016 -1.6903229 -1.6903229z" fill-rule="evenodd"/><path fill="#000000" d="m115.81211 170.46112l0 0c-0.0318985 -1.1917877 0.9083786 -2.1837769 2.1001587 -2.2156677l0 0c0.5723114 -0.015319824 1.1272736 0.19734192 1.5427933 0.5912018c0.41551208 0.3938446 0.6575546 0.9366455 0.67287445 1.5089569l0 0c0.0318985 1.1917725 -0.9083786 2.1837616 -2.1001587 2.2156677l0 0c-1.1917801 0.03189087 -2.1837692 -0.90838623 -2.2156677 -2.1001587z" fill-rule="evenodd"/><path stroke="#000000" stroke-width="1.0" stroke-linejoin="round" stroke-linecap="butt" d="m115.81211 170.46112l0 0c-0.0318985 -1.1917877 0.9083786 -2.1837769 2.1001587 -2.2156677l0 0c0.5723114 -0.015319824 1.1272736 0.19734192 1.5427933 0.5912018c0.41551208 0.3938446 0.6575546 0.9366455 0.67287445 1.5089569l0 0c0.0318985 1.1917725 -0.9083786 2.1837616 -2.1001587 2.2156677l0 0c-1.1917801 0.03189087 -2.1837692 -0.90838623 -2.2156677 -2.1001587z" fill-rule="evenodd"/><path fill="#767373" d="m117.86739 171.33281l0 0c-0.17437744 -0.36660767 -0.01876831 -0.80563354 0.3475647 -0.9805908l2.6531754 -1.2670746l0 0c0.17591858 -0.08403015 0.3779068 -0.09466553 0.5615158 -0.029586792c0.18360901 0.065093994 0.33380127 0.20054626 0.4175415 0.37660217l6.960579 14.633591c0.17437744 0.36660767 0.01876831 0.80563354 -0.3475647 0.9805908l-2.6531754 1.2670746c-0.366333 0.17495728 -0.80467224 0.019577026 -0.9790573 -0.34703064z" fill-rule="evenodd"/><path stroke="#767373" stroke-width="1.0" stroke-linejoin="round" stroke-linecap="butt" d="m117.86739 171.33281l0 0c-0.17437744 -0.36660767 -0.01876831 -0.80563354 0.3475647 -0.9805908l2.6531754 -1.2670746l0 0c0.17591858 -0.08403015 0.3779068 -0.09466553 0.5615158 -0.029586792c0.18360901 0.065093994 0.33380127 0.20054626 0.4175415 0.37660217l6.960579 14.633591c0.17437744 0.36660767 0.01876831 0.80563354 -0.3475647 0.9805908l-2.6531754 1.2670746c-0.366333 0.17495728 -0.80467224 0.019577026 -0.9790573 -0.34703064z" fill-rule="evenodd"/><path fill="#767373" d="m121.16837 168.99431l-2.9592438 -0.70648193l0.1458435 3.4187012z" fill-rule="evenodd"/><path stroke="#767373" stroke-width="1.0" stroke-linejoin="round" stroke-linecap="butt" d="m121.16837 168.99431l-2.9592438 -0.70648193l0.1458435 3.4187012z" fill-rule="evenodd"/><path fill="#434343" d="m115.24762 169.71196l0 0c-0.0318985 -1.1917877 0.908371 -2.1837769 2.1001587 -2.2156677l0 0c0.5723114 -0.015319824 1.1272659 0.19734192 1.5427856 0.5912018c0.4155197 0.39385986 0.65756226 0.9366455 0.67287445 1.5089569l0 0c0.0318985 1.1917877 -0.908371 2.1837616 -2.100151 2.2156677l0 0c-1.1917877 0.03189087 -2.1837692 -0.908371 -2.2156677 -2.1001587z" fill-rule="evenodd"/><path stroke="#434343" stroke-width="1.0" stroke-linejoin="round" stroke-linecap="butt" d="m115.24762 169.71196l0 0c-0.0318985 -1.1917877 0.908371 -2.1837769 2.1001587 -2.2156677l0 0c0.5723114 -0.015319824 1.1272659 0.19734192 1.5427856 0.5912018c0.4155197 0.39385986 0.65756226 0.9366455 0.67287445 1.5089569l0 0c0.0318985 1.1917877 -0.908371 2.1837616 -2.100151 2.2156677l0 0c-1.1917877 0.03189087 -2.1837692 -0.908371 -2.2156677 -2.1001587z" fill-rule="evenodd"/><path fill="#cc0000" d="m118.325516 192.00699c1.3941193 1.0513153 5.6679535 -4.2049866 9.3246 -5.0734406c3.6566467 -0.868454 9.542892 -0.7762146 12.61525 -0.13729858c3.0723724 0.638916 4.3071594 3.7190857 5.818924 3.97081c1.5117645 0.25170898 4.541382 -0.5874634 3.251648 -2.4605103c-1.2897339 -1.8730621 -5.981613 -7.4976654 -10.990036 -8.777817c-5.008423 -1.2801666 -15.72377 -0.98283386 -19.060501 1.096878c-3.3367233 2.079712 -2.354004 10.330048 -0.95988464 11.381378z" fill-rule="evenodd"/><path stroke="#cc0000" stroke-width="1.0" stroke-linejoin="round" stroke-linecap="butt" d="m118.325516 192.00699c1.3941193 1.0513153 5.6679535 -4.2049866 9.3246 -5.0734406c3.6566467 -0.868454 9.542892 -0.7762146 12.61525 -0.13729858c3.0723724 0.638916 4.3071594 3.7190857 5.818924 3.97081c1.5117645 0.25170898 4.541382 -0.5874634 3.251648 -2.4605103c-1.2897339 -1.8730621 -5.981613 -7.4976654 -10.990036 -8.777817c-5.008423 -1.2801666 -15.72377 -0.98283386 -19.060501 1.096878c-3.3367233 2.079712 -2.354004 10.330048 -0.95988464 11.381378z" fill-rule="evenodd"/><path fill="#b7b7b7" d="m103.47665 197.44319l0 0c0 -1.2738495 1.0326614 -2.3065033 2.3065186 -2.3065033l2.528984 0l0 0c0.61172485 0 1.1983948 0.24299622 1.6309509 0.67555237c0.43255615 0.43255615 0.67556 1.0192261 0.67556 1.6309509l0 3.291092c0 1.2738495 -1.0326614 2.3065186 -2.306511 2.3065186l-2.528984 0c-1.2738571 0 -2.3065186 -1.0326691 -2.3065186 -2.3065186z" fill-rule="evenodd"/><path stroke="#b7b7b7" stroke-width="1.0" stroke-linejoin="round" stroke-linecap="butt" d="m103.47665 197.44319l0 0c0 -1.2738495 1.0326614 -2.3065033 2.3065186 -2.3065033l2.528984 0l0 0c0.61172485 0 1.1983948 0.24299622 1.6309509 0.67555237c0.43255615 0.43255615 0.67556 1.0192261 0.67556 1.6309509l0 3.291092c0 1.2738495 -1.0326614 2.3065186 -2.306511 2.3065186l-2.528984 0c-1.2738571 0 -2.3065186 -1.0326691 -2.3065186 -2.3065186z" fill-rule="evenodd"/><path fill="#999999" d="m105.33292 196.90283l0 0c0 -0.0945282 0.07663727 -0.1711731 0.17118073 -0.1711731l3.08712 0c0.045402527 0 0.08893585 0.018035889 0.121040344 0.05014038c0.032104492 0.032104492 0.05013275 0.07563782 0.05013275 0.121032715l0 0.6846771c0 0.09454346 -0.07663727 0.1711731 -0.1711731 0.1711731l-3.08712 0c-0.09454346 0 -0.17118073 -0.07662964 -0.17118073 -0.1711731z" fill-rule="evenodd"/><path stroke="#999999" stroke-width="1.0" stroke-linejoin="round" stroke-linecap="butt" d="m105.33292 196.90283l0 0c0 -0.0945282 0.07663727 -0.1711731 0.17118073 -0.1711731l3.08712 0c0.045402527 0 0.08893585 0.018035889 0.121040344 0.05014038c0.032104492 0.032104492 0.05013275 0.07563782 0.05013275 0.121032715l0 0.6846771c0 0.09454346 -0.07663727 0.1711731 -0.1711731 0.1711731l-3.08712 0c-0.09454346 0 -0.17118073 -0.07662964 -0.17118073 -0.1711731z" fill-rule="evenodd"/><path fill="#999999" d="m105.33292 198.7464l0 0c0 -0.0945282 0.07663727 -0.1711731 0.17118073 -0.1711731l3.08712 0c0.045402527 0 0.08893585 0.018035889 0.121040344 0.05014038c0.032104492 0.032104492 0.05013275 0.07563782 0.05013275 0.121032715l0 0.6846771c0 0.09454346 -0.07663727 0.1711731 -0.1711731 0.1711731l-3.08712 0c-0.09454346 0 -0.17118073 -0.07662964 -0.17118073 -0.1711731z" fill-rule="evenodd"/><path stroke="#999999" stroke-width="1.0" stroke-linejoin="round" stroke-linecap="butt" d="m105.33292 198.7464l0 0c0 -0.0945282 0.07663727 -0.1711731 0.17118073 -0.1711731l3.08712 0c0.045402527 0 0.08893585 0.018035889 0.121040344 0.05014038c0.032104492 0.032104492 0.05013275 0.07563782 0.05013275 0.121032715l0 0.6846771c0 0.09454346 -0.07663727 0.1711731 -0.1711731 0.1711731l-3.08712 0c-0.09454346 0 -0.17118073 -0.07662964 -0.17118073 -0.1711731z" fill-rule="evenodd"/><path fill="#999999" d="m105.33292 200.58997l0 0c0 -0.0945282 0.07663727 -0.1711731 0.17118073 -0.1711731l3.08712 0c0.045402527 0 0.08893585 0.018035889 0.121040344 0.05014038c0.032104492 0.032104492 0.05013275 0.07563782 0.05013275 0.121032715l0 0.6846771c0 0.09454346 -0.07663727 0.17118835 -0.1711731 0.17118835l-3.08712 0c-0.09454346 0 -0.17118073 -0.0766449 -0.17118073 -0.17118835z" fill-rule="evenodd"/><path stroke="#999999" stroke-width="1.0" stroke-linejoin="round" stroke-linecap="butt" d="m105.33292 200.58997l0 0c0 -0.0945282 0.07663727 -0.1711731 0.17118073 -0.1711731l3.08712 0c0.045402527 0 0.08893585 0.018035889 0.121040344 0.05014038c0.032104492 0.032104492 0.05013275 0.07563782 0.05013275 0.121032715l0 0.6846771c0 0.09454346 -0.07663727 0.17118835 -0.1711731 0.17118835l-3.08712 0c-0.09454346 0 -0.17118073 -0.0766449 -0.17118073 -0.17118835z" fill-rule="evenodd"/><defs><linearGradient id="p.1" gradientUnits="userSpaceOnUse" gradientTransform="matrix(3.198067213064512 0.0 0.0 3.198067213064512 0.0 0.0)" spreadMethod="pad" x1="20.898418893864804" y1="60.16964556467502" x2="24.096486106929316" y2="60.16964556467502"><stop offset="0.0" stop-color="#a4a4a4"/><stop offset="1.0" stop-color="#b7b7b7"/></linearGradient></defs><path fill="url(#p.1)" d="m76.20935 192.42657l-9.374802 -2.9059753l0.4264145 -2.4006348l9.801216 0.5053406z" fill-rule="evenodd"/><path stroke="#b7b7b7" stroke-width="1.0" stroke-linejoin="round" stroke-linecap="butt" d="m76.20935 192.42657l-9.374802 -2.9059753l0.4264145 -2.4006348l9.801216 0.5053406z" fill-rule="evenodd"/><path fill="#b7b7b7" d="m76.20437 192.42487l0.8528366 -4.8012695l17.942131 3.1935883l-0.852829 4.8012543z" fill-rule="evenodd"/><path stroke="#b7b7b7" stroke-width="1.0" stroke-linejoin="round" stroke-linecap="butt" d="m76.20437 192.42487l0.8528366 -4.8012695l17.942131 3.1935883l-0.852829 4.8012543z" fill-rule="evenodd"/><path fill="#cccccc" d="m88.97025 197.50873l0 0c0 -1.8680573 1.5143585 -3.3824158 3.3824158 -3.3824158l8.618805 0l0 0c0.89707184 0 1.7574005 0.35636902 2.3917313 0.99069214c0.6343231 0.6343231 0.9906845 1.4946594 0.9906845 2.3917236l0 3.7086792c0 1.8680573 -1.5143585 3.3824158 -3.3824158 3.3824158l-8.618805 0c-1.8680573 0 -3.3824158 -1.5143585 -3.3824158 -3.3824158z" fill-rule="evenodd"/><path stroke="#cccccc" stroke-width="1.0" stroke-linejoin="round" stroke-linecap="butt" d="m88.97025 197.50873l0 0c0 -1.8680573 1.5143585 -3.3824158 3.3824158 -3.3824158l8.618805 0l0 0c0.89707184 0 1.7574005 0.35636902 2.3917313 0.99069214c0.6343231 0.6343231 0.9906845 1.4946594 0.9906845 2.3917236l0 3.7086792c0 1.8680573 -1.5143585 3.3824158 -3.3824158 3.3824158l-8.618805 0c-1.8680573 0 -3.3824158 -1.5143585 -3.3824158 -3.3824158z" fill-rule="evenodd"/><path fill="#999999" d="m90.43035 199.36307l0 0c0 -1.4340668 1.1625366 -2.5966034 2.5966034 -2.5966034l0 0c0.68865967 0 1.3491135 0.27357483 1.8360748 0.76052856c0.48695374 0.48695374 0.76052094 1.1474152 0.76052094 1.8360748l0 0c0 1.4340668 -1.1625366 2.5966034 -2.5965958 2.5966034l0 0c-1.4340668 0 -2.5966034 -1.1625366 -2.5966034 -2.5966034z" fill-rule="evenodd"/><path stroke="#999999" stroke-width="1.0" stroke-linejoin="round" stroke-linecap="butt" d="m90.43035 199.36307l0 0c0 -1.4340668 1.1625366 -2.5966034 2.5966034 -2.5966034l0 0c0.68865967 0 1.3491135 0.27357483 1.8360748 0.76052856c0.48695374 0.48695374 0.76052094 1.1474152 0.76052094 1.8360748l0 0c0 1.4340668 -1.1625366 2.5966034 -2.5965958 2.5966034l0 0c-1.4340668 0 -2.5966034 -1.1625366 -2.5966034 -2.5966034z" fill-rule="evenodd"/><path fill="#cc0000" d="m57.720013 180.58727l-1.0971909 1.5084839l25.50542 4.662155l0.54829407 -7.4045258z" fill-rule="evenodd"/><path stroke="#cc0000" stroke-width="1.0" stroke-linejoin="round" stroke-linecap="butt" d="m57.720013 180.58727l-1.0971909 1.5084839l25.50542 4.662155l0.54829407 -7.4045258z" fill-rule="evenodd"/><path fill="#cc0000" d="m77.05335 184.56422l13.164162 10.009888l25.093819 2.4683838l6.3076324 -7.2675323l-0.27429962 -11.2443695l-39.080566 -1.2341919z" fill-rule="evenodd"/><path stroke="#cc0000" stroke-width="1.0" stroke-linejoin="round" stroke-linecap="butt" d="m77.05335 184.56422l13.164162 10.009888l25.093819 2.4683838l6.3076324 -7.2675323l-0.27429962 -11.2443695l-39.080566 -1.2341919z" fill-rule="evenodd"/><path fill="#434343" d="m82.927284 177.28975l18.084572 0.3668518l13.849449 -0.41160583l3.0169678 2.6053772l-16.729416 4.2508545l-16.729118 -3.1539764z" fill-rule="evenodd"/><path stroke="#434343" stroke-width="1.0" stroke-linejoin="round" stroke-linecap="butt" d="m82.927284 177.28975l18.084572 0.3668518l13.849449 -0.41160583l3.0169678 2.6053772l-16.729416 4.2508545l-16.729118 -3.1539764z" fill-rule="evenodd"/><path fill="#cc0000" d="m121.35441 178.53639l1.8290558 1.0224915l-1.9442749 0.64808655z" fill-rule="evenodd"/><path stroke="#cc0000" stroke-width="1.0" stroke-linejoin="round" stroke-linecap="butt" d="m121.35441 178.53639l1.8290558 1.0224915l-1.9442749 0.64808655z" fill-rule="evenodd"/><path fill="#c0a414" fill-opacity="0.8" d="m516.50134 206.29137l0 0c0 -0.9335327 0.7567749 -1.6903229 1.6903076 -1.6903229l155.29651 0c0.44830322 0 0.87823486 0.17810059 1.1952515 0.49508667c0.31695557 0.31700134 0.49505615 0.746933 0.49505615 1.1952362l0 6.761093c0 0.9335327 -0.7567749 1.6903229 -1.6903076 1.6903229l-155.29651 0c-0.9335327 0 -1.6903076 -0.75679016 -1.6903076 -1.6903229z" fill-rule="evenodd"/><path fill="#afafaf" d="m103.71654 98.101776l246.28346 -74.77165l246.28345 74.77165z" fill-rule="evenodd"/><path stroke="#afafaf" stroke-width="3.0" stroke-linejoin="round" stroke-linecap="butt" d="m103.71654 98.101776l246.28346 -74.77165l246.28345 74.77165z" fill-rule="evenodd"/><path fill="#999999" fill-opacity="0.6" d="m3.8267717 112.24672l692.34644 0l0 287.71655l-692.34644 0z" fill-rule="evenodd"/><path fill="#a4c2f4" fill-opacity="0.3" d="m3.8267717 155.04565l692.34644 0l0 20.283463l-692.34644 0z" fill-rule="evenodd"/><path fill="#a4c2f4" fill-opacity="0.3" d="m3.8267717 215.65778l692.34644 0l0 20.283463l-692.34644 0z" fill-rule="evenodd"/><path fill="#a4c2f4" fill-opacity="0.3" d="m3.8267717 276.2699l692.34644 0l0 20.283447l-692.34644 0z" fill-rule="evenodd"/><path fill="#a4c2f4" fill-opacity="0.3" d="m3.8267717 336.88202l692.34644 0l0 20.283447l-692.34644 0z" fill-rule="evenodd"/></g></svg>