<svg version="1.1" viewBox="0.0 0.0 100.0 100.0" fill="none" stroke="none" stroke-linecap="square" stroke-miterlimit="10" xmlns:xlink="http://www.w3.org/1999/xlink" xmlns="http://www.w3.org/2000/svg"><clipPath id="p.0"><path d="m0 0l100.0 0l0 100.0l-100.0 0l0 -100.0z" clip-rule="nonzero"/></clipPath><g clip-path="url(#p.0)"><path fill="#000000" fill-opacity="0.0" d="m0 0l100.0 0l0 100.0l-100.0 0z" fill-rule="evenodd"/><path fill="#666666" d="m14.141013 9.697762l6.110236 -6.1102366l13.952757 13.952757l-6.110237 6.110235z" fill-rule="evenodd"/><path fill="#cc0000" d="m24.756624 23.383808l0 0c0 -5.6244297 4.5595016 -10.183931 10.183931 -10.183931l40.7345 0l0 0c2.700943 0 5.2912674 1.0729465 7.201126 2.9828053c1.9098587 1.9098568 2.9828033 4.5001793 2.9828033 7.201126l0 62.844738c0 5.624428 -4.5595016 10.183929 -10.183929 10.183929l-40.7345 0c-5.6244297 0 -10.183931 -4.5595016 -10.183931 -10.183929z" fill-rule="evenodd"/><path fill="#000000" fill-opacity="0.0" d="m41.605324 40.70455l0 0c0 -2.519394 2.0423737 -4.5617714 4.5617714 -4.5617714l18.24654 0l0 0c1.2098541 0 2.3701553 0.48061752 3.2256546 1.336113c0.85549927 0.85549927 1.336113 2.0158043 1.336113 3.2256584l0 28.199295c0 2.519394 -2.0423737 4.5617676 -4.5617676 4.5617676l-18.24654 0c-2.5193977 0 -4.5617714 -2.0423737 -4.5617714 -4.5617676z" fill-rule="evenodd"/><path stroke="#990000" stroke-width="3.0" stroke-linejoin="round" stroke-linecap="butt" d="m41.605324 40.70455l0 0c0 -2.519394 2.0423737 -4.5617714 4.5617714 -4.5617714l18.24654 0l0 0c1.2098541 0 2.3701553 0.48061752 3.2256546 1.336113c0.85549927 0.85549927 1.336113 2.0158043 1.336113 3.2256584l0 28.199295c0 2.519394 -2.0423737 4.5617676 -4.5617676 4.5617676l-18.24654 0c-2.5193977 0 -4.5617714 -2.0423737 -4.5617714 -4.5617676z" fill-rule="evenodd"/><path fill="#990000" d="m77.35733 25.186447l0 0c0.22034454 -0.22033882 0.5775833 -0.22033882 0.7979202 0l1.595787 1.5957851l0 0c0.10580444 0.105810165 0.16525269 0.24931908 0.16525269 0.3989582c0 0.14963722 -0.059448242 0.29314804 -0.16525269 0.3989582l-10.729645 10.729643c-0.22033691 0.22033691 -0.5775757 0.22033691 -0.7979202 0l-1.5957794 -1.595787c-0.22034454 -0.22033691 -0.22034454 -0.5775757 0 -0.7979126z" fill-rule="evenodd"/><path fill="#990000" d="m41.590263 71.27961l0 0c0.22034073 -0.22033691 0.5775795 -0.22033691 0.7979164 0l1.595787 1.595787l0 0c0.10580826 0.10581207 0.16525269 0.24932098 0.16525269 0.3989563c0 0.14963531 -0.059444427 0.29314423 -0.16525269 0.3989563l-10.729645 10.729645c-0.22033691 0.22033691 -0.5775757 0.22033691 -0.7979164 0l-1.5957832 -1.595787c-0.22033882 -0.22033691 -0.22033882 -0.5775757 0 -0.7979126z" fill-rule="evenodd"/><path fill="#990000" d="m65.71304 73.67816l0 0c-0.22033691 -0.22034454 -0.22033691 -0.5775833 0 -0.7979202l1.595787 -1.595787l0 0c0.10580444 -0.10580444 0.24932098 -0.16525269 0.3989563 -0.16525269c0.14963531 0 0.29314423 0.059448242 0.3989563 0.16525269l10.729645 10.729645c0.22033691 0.22033691 0.22033691 0.5775757 0 0.7979202l-1.595787 1.5957794c-0.22033691 0.22034454 -0.5775757 0.22034454 -0.7979126 0z" fill-rule="evenodd"/><path fill="#990000" d="m30.837523 28.397663l0 0c-0.22033882 -0.22033882 -0.22033882 -0.5775795 0 -0.7979164l1.5957851 -1.5957851l0 0c0.10580826 -0.105810165 0.24931717 -0.1652546 0.3989563 -0.1652546c0.14963913 0 0.29314804 0.059444427 0.3989601 0.1652546l10.729641 10.729643c0.22034073 0.22033691 0.22034073 0.5775795 0 0.7979164l-1.5957832 1.5957832c-0.22034073 0.22034073 -0.5775795 0.22034073 -0.7979164 0z" fill-rule="evenodd"/><path fill="#434343" d="m14.961662 11.962073l7.5275593 -7.5275593l2.5826778 2.582677l-7.5275593 7.5275593z" fill-rule="evenodd"/></g></svg>