<svg version="1.1" viewBox="0.0 0.0 100.0 100.0" fill="none" stroke="none" stroke-linecap="square" stroke-miterlimit="10" xmlns:xlink="http://www.w3.org/1999/xlink" xmlns="http://www.w3.org/2000/svg"><clipPath id="p.0"><path d="m0 0l100.0 0l0 100.0l-100.0 0l0 -100.0z" clip-rule="nonzero"/></clipPath><g clip-path="url(#p.0)"><path fill="#000000" fill-opacity="0.0" d="m0 0l100.0 0l0 100.0l-100.0 0z" fill-rule="evenodd"/><path fill="#b7b7b7" d="m5.4840317 5.8216l0 0c0 -2.145401 1.739191 -3.884592 3.884592 -3.884592l15.537903 0l0 0c1.0302582 0 2.0183182 0.40926838 2.7468204 1.1377707c0.7285023 0.7285023 1.1377716 1.7165637 1.1377716 2.7468214l0 88.3568c0 2.145401 -1.739191 3.8845978 -3.884592 3.8845978l-15.537903 0c-2.145401 0 -3.884592 -1.7391968 -3.884592 -3.8845978z" fill-rule="evenodd"/><path fill="#b7b7b7" d="m71.208885 5.8216l0 0c0 -2.145401 1.7391891 -3.884592 3.8845901 -3.884592l15.537903 0l0 0c1.0302582 0 2.0183182 0.40926838 2.7468185 1.1377707c0.72850037 0.7285023 1.1377716 1.7165637 1.1377716 2.7468214l0 88.3568c0 2.145401 -1.7391891 3.8845978 -3.8845901 3.8845978l-15.537903 0c-2.145401 0 -3.8845901 -1.7391968 -3.8845901 -3.8845978z" fill-rule="evenodd"/></g></svg>