<svg version="1.1" viewBox="0.0 0.0 250.0 250.0" fill="none" stroke="none" stroke-linecap="square" stroke-miterlimit="10" xmlns:xlink="http://www.w3.org/1999/xlink" xmlns="http://www.w3.org/2000/svg"><clipPath id="p.0"><path d="m0 0l250.0 0l0 250.0l-250.0 0l0 -250.0z" clip-rule="nonzero"/></clipPath><g clip-path="url(#p.0)"><path fill="#000000" fill-opacity="0.0" d="m0 0l250.0 0l0 250.0l-250.0 0z" fill-rule="evenodd"/><path fill="#f3f3f3" d="m87.77708 48.232136l20.661415 5.511814l-5.5118103 20.661415l-20.661415 -5.5118103z" fill-rule="evenodd"/><path stroke="#f3f3f3" stroke-width="1.0" stroke-linejoin="round" stroke-linecap="butt" d="m87.77708 48.232136l20.661415 5.511814l-5.5118103 20.661415l-20.661415 -5.5118103z" fill-rule="evenodd"/><path fill="#666666" d="m82.24989 68.85947l20.661415 5.5118103l-5.5118103 20.661423l-20.661423 -5.5118103z" fill-rule="evenodd"/><path stroke="#666666" stroke-width="1.0" stroke-linejoin="round" stroke-linecap="butt" d="m82.24989 68.85947l20.661415 5.5118103l-5.5118103 20.661423l-20.661423 -5.5118103z" fill-rule="evenodd"/><path fill="#666666" d="m108.40457 53.75915l20.661423 5.5118103l-5.5118103 20.661419l-20.661423 -5.5118103z" fill-rule="evenodd"/><path stroke="#666666" stroke-width="1.0" stroke-linejoin="round" stroke-linecap="butt" d="m108.40457 53.75915l20.661423 5.5118103l-5.5118103 20.661419l-20.661423 -5.5118103z" fill-rule="evenodd"/><path fill="#f3f3f3" d="m102.87739 74.38648l20.661423 5.5118103l-5.511818 20.661423l-20.661415 -5.511818z" fill-rule="evenodd"/><path stroke="#f3f3f3" stroke-width="1.0" stroke-linejoin="round" stroke-linecap="butt" d="m102.87739 74.38648l20.661423 5.5118103l-5.511818 20.661423l-20.661415 -5.511818z" fill-rule="evenodd"/><path fill="#f3f3f3" d="m76.7227 89.4868l20.661423 5.5118103l-5.5118103 20.661415l-20.661423 -5.5118103z" fill-rule="evenodd"/><path stroke="#f3f3f3" stroke-width="1.0" stroke-linejoin="round" stroke-linecap="butt" d="m76.7227 89.4868l20.661423 5.5118103l-5.5118103 20.661415l-20.661423 -5.5118103z" fill-rule="evenodd"/><path fill="#666666" d="m71.19552 110.11413l20.661423 5.511818l-5.5118103 20.661407l-20.661423 -5.5118103z" fill-rule="evenodd"/><path stroke="#666666" stroke-width="1.0" stroke-linejoin="round" stroke-linecap="butt" d="m71.19552 110.11413l20.661423 5.511818l-5.5118103 20.661407l-20.661423 -5.5118103z" fill-rule="evenodd"/><path fill="#666666" d="m97.350204 95.01382l20.661415 5.5118103l-5.5118103 20.661415l-20.661415 -5.5118103z" fill-rule="evenodd"/><path stroke="#666666" stroke-width="1.0" stroke-linejoin="round" stroke-linecap="butt" d="m97.350204 95.01382l20.661415 5.5118103l-5.5118103 20.661415l-20.661415 -5.5118103z" fill-rule="evenodd"/><path fill="#f3f3f3" d="m91.82302 115.64114l20.661415 5.5118103l-5.5118103 20.661423l-20.661415 -5.5118103z" fill-rule="evenodd"/><path stroke="#f3f3f3" stroke-width="1.0" stroke-linejoin="round" stroke-linecap="butt" d="m91.82302 115.64114l20.661415 5.5118103l-5.5118103 20.661423l-20.661415 -5.5118103z" fill-rule="evenodd"/><path fill="#f3f3f3" d="m129.03207 59.286167l20.661423 5.511814l-5.5118103 20.661415l-20.661423 -5.5118103z" fill-rule="evenodd"/><path stroke="#f3f3f3" stroke-width="1.0" stroke-linejoin="round" stroke-linecap="butt" d="m129.03207 59.286167l20.661423 5.511814l-5.5118103 20.661415l-20.661423 -5.5118103z" fill-rule="evenodd"/><path fill="#666666" d="m123.50489 79.9135l20.661415 5.5118103l-5.5118103 20.661415l-20.661415 -5.5118103z" fill-rule="evenodd"/><path stroke="#666666" stroke-width="1.0" stroke-linejoin="round" stroke-linecap="butt" d="m123.50489 79.9135l20.661415 5.5118103l-5.5118103 20.661415l-20.661415 -5.5118103z" fill-rule="evenodd"/><path fill="#666666" d="m149.65958 64.81318l20.661423 5.5118103l-5.5118103 20.661423l-20.661423 -5.5118103z" fill-rule="evenodd"/><path stroke="#666666" stroke-width="1.0" stroke-linejoin="round" stroke-linecap="butt" d="m149.65958 64.81318l20.661423 5.5118103l-5.5118103 20.661423l-20.661423 -5.5118103z" fill-rule="evenodd"/><path fill="#f3f3f3" d="m144.13239 85.44051l20.661423 5.5118103l-5.5118103 20.661415l-20.661423 -5.5118103z" fill-rule="evenodd"/><path stroke="#f3f3f3" stroke-width="1.0" stroke-linejoin="round" stroke-linecap="butt" d="m144.13239 85.44051l20.661423 5.5118103l-5.5118103 20.661415l-20.661423 -5.5118103z" fill-rule="evenodd"/><path fill="#f3f3f3" d="m117.97771 100.54083l20.661423 5.5118103l-5.5118103 20.661415l-20.661423 -5.5118103z" fill-rule="evenodd"/><path stroke="#f3f3f3" stroke-width="1.0" stroke-linejoin="round" stroke-linecap="butt" d="m117.97771 100.54083l20.661423 5.5118103l-5.5118103 20.661415l-20.661423 -5.5118103z" fill-rule="evenodd"/><path fill="#666666" d="m112.45052 121.16816l20.661415 5.5118103l-5.5118103 20.661415l-20.661415 -5.5118103z" fill-rule="evenodd"/><path stroke="#666666" stroke-width="1.0" stroke-linejoin="round" stroke-linecap="butt" d="m112.45052 121.16816l20.661415 5.5118103l-5.5118103 20.661415l-20.661415 -5.5118103z" fill-rule="evenodd"/><path fill="#666666" d="m138.60521 106.06785l20.661423 5.5118103l-5.5118103 20.661415l-20.661423 -5.5118103z" fill-rule="evenodd"/><path stroke="#666666" stroke-width="1.0" stroke-linejoin="round" stroke-linecap="butt" d="m138.60521 106.06785l20.661423 5.5118103l-5.5118103 20.661415l-20.661423 -5.5118103z" fill-rule="evenodd"/><path fill="#f3f3f3" d="m133.07802 126.695175l20.661423 5.5118103l-5.5118103 20.661423l-20.661415 -5.5118103z" fill-rule="evenodd"/><path stroke="#f3f3f3" stroke-width="1.0" stroke-linejoin="round" stroke-linecap="butt" d="m133.07802 126.695175l20.661423 5.5118103l-5.5118103 20.661423l-20.661415 -5.5118103z" fill-rule="evenodd"/><path fill="#f3f3f3" d="m65.668335 130.74147l20.661423 5.5118103l-5.511818 20.661407l-20.661415 -5.5118103z" fill-rule="evenodd"/><path stroke="#f3f3f3" stroke-width="1.0" stroke-linejoin="round" stroke-linecap="butt" d="m65.668335 130.74147l20.661423 5.5118103l-5.511818 20.661407l-20.661415 -5.5118103z" fill-rule="evenodd"/><path fill="#666666" d="m86.29584 136.26848l20.661415 5.5118103l-5.5118103 20.661423l-20.661415 -5.5118103z" fill-rule="evenodd"/><path stroke="#666666" stroke-width="1.0" stroke-linejoin="round" stroke-linecap="butt" d="m86.29584 136.26848l20.661415 5.5118103l-5.5118103 20.661423l-20.661415 -5.5118103z" fill-rule="evenodd"/><path fill="#f3f3f3" d="m106.92334 141.79549l20.661415 5.5118103l-5.5118103 20.661423l-20.661415 -5.5118103z" fill-rule="evenodd"/><path stroke="#f3f3f3" stroke-width="1.0" stroke-linejoin="round" stroke-linecap="butt" d="m106.92334 141.79549l20.661415 5.5118103l-5.5118103 20.661423l-20.661415 -5.5118103z" fill-rule="evenodd"/><path fill="#666666" d="m127.55084 147.32251l20.661407 5.5118103l-5.5118103 20.661423l-20.661407 -5.5118103z" fill-rule="evenodd"/><path stroke="#666666" stroke-width="1.0" stroke-linejoin="round" stroke-linecap="butt" d="m127.55084 147.32251l20.661407 5.5118103l-5.5118103 20.661423l-20.661407 -5.5118103z" fill-rule="evenodd"/><path fill="#f3f3f3" d="m170.28708 70.340195l20.661423 5.5118103l-5.5118103 20.661423l-20.661423 -5.5118103z" fill-rule="evenodd"/><path stroke="#f3f3f3" stroke-width="1.0" stroke-linejoin="round" stroke-linecap="butt" d="m170.28708 70.340195l20.661423 5.5118103l-5.5118103 20.661423l-20.661423 -5.5118103z" fill-rule="evenodd"/><path fill="#666666" d="m164.75989 90.96753l20.661423 5.5118103l-5.5118103 20.661415l-20.661423 -5.5118103z" fill-rule="evenodd"/><path stroke="#666666" stroke-width="1.0" stroke-linejoin="round" stroke-linecap="butt" d="m164.75989 90.96753l20.661423 5.5118103l-5.5118103 20.661415l-20.661423 -5.5118103z" fill-rule="evenodd"/><path fill="#666666" d="m190.91458 75.86721l20.661407 5.5118103l-5.5118103 20.661423l-20.661407 -5.511818z" fill-rule="evenodd"/><path stroke="#666666" stroke-width="1.0" stroke-linejoin="round" stroke-linecap="butt" d="m190.91458 75.86721l20.661407 5.5118103l-5.5118103 20.661423l-20.661407 -5.511818z" fill-rule="evenodd"/><path fill="#f3f3f3" d="m185.38739 96.494545l20.661423 5.5118103l-5.5118103 20.661415l-20.661423 -5.5118103z" fill-rule="evenodd"/><path stroke="#f3f3f3" stroke-width="1.0" stroke-linejoin="round" stroke-linecap="butt" d="m185.38739 96.494545l20.661423 5.5118103l-5.5118103 20.661415l-20.661423 -5.5118103z" fill-rule="evenodd"/><path fill="#f3f3f3" d="m159.23271 111.59486l20.661407 5.511818l-5.5118103 20.661407l-20.661407 -5.5118103z" fill-rule="evenodd"/><path stroke="#f3f3f3" stroke-width="1.0" stroke-linejoin="round" stroke-linecap="butt" d="m159.23271 111.59486l20.661407 5.511818l-5.5118103 20.661407l-20.661407 -5.5118103z" fill-rule="evenodd"/><path fill="#666666" d="m153.70552 132.22218l20.661423 5.5118256l-5.5118103 20.661407l-20.661423 -5.5118103z" fill-rule="evenodd"/><path stroke="#666666" stroke-width="1.0" stroke-linejoin="round" stroke-linecap="butt" d="m153.70552 132.22218l20.661423 5.5118256l-5.5118103 20.661407l-20.661423 -5.5118103z" fill-rule="evenodd"/><path fill="#666666" d="m179.86021 117.12187l20.661407 5.5118103l-5.5118103 20.661423l-20.661407 -5.5118103z" fill-rule="evenodd"/><path stroke="#666666" stroke-width="1.0" stroke-linejoin="round" stroke-linecap="butt" d="m179.86021 117.12187l20.661407 5.5118103l-5.5118103 20.661423l-20.661407 -5.5118103z" fill-rule="evenodd"/><path fill="#f3f3f3" d="m174.33302 137.7492l20.661423 5.5118103l-5.5118103 20.661423l-20.661423 -5.5118103z" fill-rule="evenodd"/><path stroke="#f3f3f3" stroke-width="1.0" stroke-linejoin="round" stroke-linecap="butt" d="m174.33302 137.7492l20.661423 5.5118103l-5.5118103 20.661423l-20.661423 -5.5118103z" fill-rule="evenodd"/><path fill="#f3f3f3" d="m211.54208 81.394226l17.217773 4.593155l0 0c0.9133148 0.24364471 1.6924286 0.8401184 2.1659546 1.6582108c0.473526 0.8180847 0.6026764 1.7907715 0.3590393 2.7040863l-4.59317 17.217773l-20.661407 -5.5118103z" fill-rule="evenodd"/><path stroke="#f3f3f3" stroke-width="1.0" stroke-linejoin="round" stroke-linecap="butt" d="m211.54208 81.394226l17.217773 4.593155l0 0c0.9133148 0.24364471 1.6924286 0.8401184 2.1659546 1.6582108c0.473526 0.8180847 0.6026764 1.7907715 0.3590393 2.7040863l-4.59317 17.217773l-20.661407 -5.5118103z" fill-rule="evenodd"/><path fill="#666666" d="m206.0149 102.02156l20.661423 5.5118103l-5.5118103 20.661423l-20.661423 -5.511818z" fill-rule="evenodd"/><path stroke="#666666" stroke-width="1.0" stroke-linejoin="round" stroke-linecap="butt" d="m206.0149 102.02156l20.661423 5.5118103l-5.5118103 20.661423l-20.661423 -5.511818z" fill-rule="evenodd"/><path fill="#f3f3f3" d="m200.48772 122.64889l20.661407 5.511818l-5.5118103 20.661407l-20.661407 -5.5118103z" fill-rule="evenodd"/><path stroke="#f3f3f3" stroke-width="1.0" stroke-linejoin="round" stroke-linecap="butt" d="m200.48772 122.64889l20.661407 5.511818l-5.5118103 20.661407l-20.661407 -5.5118103z" fill-rule="evenodd"/><path fill="#666666" d="m194.96053 143.27621l20.661423 5.5118103l-5.5118103 20.661423l-20.661423 -5.5118103z" fill-rule="evenodd"/><path stroke="#666666" stroke-width="1.0" stroke-linejoin="round" stroke-linecap="butt" d="m194.96053 143.27621l20.661423 5.5118103l-5.5118103 20.661423l-20.661423 -5.5118103z" fill-rule="evenodd"/><path fill="#f3f3f3" d="m148.17834 152.84952l20.661407 5.5118103l-5.5118103 20.661423l-20.661407 -5.5118103z" fill-rule="evenodd"/><path stroke="#f3f3f3" stroke-width="1.0" stroke-linejoin="round" stroke-linecap="butt" d="m148.17834 152.84952l20.661407 5.5118103l-5.5118103 20.661423l-20.661407 -5.5118103z" fill-rule="evenodd"/><path fill="#666666" d="m168.80585 158.37654l20.661407 5.5118103l-5.5118103 20.661407l-20.661407 -5.5118103z" fill-rule="evenodd"/><path stroke="#666666" stroke-width="1.0" stroke-linejoin="round" stroke-linecap="butt" d="m168.80585 158.37654l20.661407 5.5118103l-5.5118103 20.661407l-20.661407 -5.5118103z" fill-rule="evenodd"/><path fill="#f3f3f3" d="m210.06084 169.43057l-4.593155 17.217773l0 0c-0.24363708 0.9133148 -0.8401184 1.6924286 -1.6582031 2.1659546c-0.8180847 0.473526 -1.7907715 0.6026764 -2.7040863 0.35902405l-17.217773 -4.593155l5.5118103 -20.661407z" fill-rule="evenodd"/><path stroke="#f3f3f3" stroke-width="1.0" stroke-linejoin="round" stroke-linecap="butt" d="m210.06084 169.43057l-4.593155 17.217773l0 0c-0.24363708 0.9133148 -0.8401184 1.6924286 -1.6582031 2.1659546c-0.8180847 0.473526 -1.7907715 0.6026764 -2.7040863 0.35902405l-17.217773 -4.593155l5.5118103 -20.661407z" fill-rule="evenodd"/><path fill="#977406" d="m67.43541 31.250944l0 0c0.57341003 -2.1389942 2.7727509 -3.4099903 4.9123535 -2.83885l15.495903 4.1364403l0 0c1.0274734 0.27427292 1.9034805 0.9453583 2.4353027 1.8656235c0.5318222 0.9202652 0.6758957 2.014328 0.40053558 3.0415115l-48.600647 181.29338c-0.57341385 2.1389923 -2.7727509 3.4099884 -4.9123535 2.838852l-15.495907 -4.136444c-2.1396027 -0.5711365 -3.4092484 -2.7681427 -2.8358326 -4.907135z" fill-rule="evenodd"/><path stroke="#977406" stroke-width="1.0" stroke-linejoin="round" stroke-linecap="butt" d="m67.43541 31.250944l0 0c0.57341003 -2.1389942 2.7727509 -3.4099903 4.9123535 -2.83885l15.495903 4.1364403l0 0c1.0274734 0.27427292 1.9034805 0.9453583 2.4353027 1.8656235c0.5318222 0.9202652 0.6758957 2.014328 0.40053558 3.0415115l-48.600647 181.29338c-0.57341385 2.1389923 -2.7727509 3.4099884 -4.9123535 2.838852l-15.495907 -4.136444c-2.1396027 -0.5711365 -3.4092484 -2.7681427 -2.8358326 -4.907135z" fill-rule="evenodd"/></g></svg>