<svg version="1.1" viewBox="0.0 0.0 100.0 100.0" fill="none" stroke="none" stroke-linecap="square" stroke-miterlimit="10" xmlns:xlink="http://www.w3.org/1999/xlink" xmlns="http://www.w3.org/2000/svg"><clipPath id="p.0"><path d="m0 0l100.0 0l0 100.0l-100.0 0l0 -100.0z" clip-rule="nonzero"/></clipPath><g clip-path="url(#p.0)"><path fill="#000000" fill-opacity="0.0" d="m0 0l100.0 0l0 100.0l-100.0 0z" fill-rule="evenodd"/><path fill="#000000" d="m143.57442 43.3896l0 0c-0.018051147 -0.64984894 0.49412537 -1.1912918 1.1439819 -1.209343l0 0c0.31207275 -0.008670807 0.6148071 0.106987 0.8415985 0.32152176c0.22679138 0.21453857 0.35908508 0.5103836 0.36775208 0.82245255l0 0c0.018051147 0.64985275 -0.49412537 1.1912956 -1.1439819 1.2093468l0 0c-0.64985657 0.018051147 -1.1912994 -0.49412537 -1.2093506 -1.1439781z" fill-rule="evenodd"/><path stroke="#000000" stroke-width="1.0" stroke-linejoin="round" stroke-linecap="butt" d="m143.57442 43.3896l0 0c-0.018051147 -0.64984894 0.49412537 -1.1912918 1.1439819 -1.209343l0 0c0.31207275 -0.008670807 0.6148071 0.106987 0.8415985 0.32152176c0.22679138 0.21453857 0.35908508 0.5103836 0.36775208 0.82245255l0 0c0.018051147 0.64985275 -0.49412537 1.1912956 -1.1439819 1.2093468l0 0c-0.64985657 0.018051147 -1.1912994 -0.49412537 -1.2093506 -1.1439781z" fill-rule="evenodd"/><path fill="#767373" d="m144.69473 43.865726l0 0c-0.095077515 -0.19976425 -0.01020813 -0.43878174 0.18955994 -0.53385544l1.4468536 -0.6885567l0 0c0.09593201 -0.045654297 0.20606995 -0.05133438 0.30619812 -0.015781403c0.100112915 0.035549164 0.1820221 0.10941696 0.22767639 0.20534897l3.8001404 7.9838715c0.095077515 0.19976807 0.01020813 0.43878174 -0.18955994 0.53385544l-1.4468384 0.6885567c-0.19978333 0.0950737 -0.43881226 0.0102005005 -0.5338898 -0.18956757z" fill-rule="evenodd"/><path stroke="#767373" stroke-width="1.0" stroke-linejoin="round" stroke-linecap="butt" d="m144.69473 43.865726l0 0c-0.095077515 -0.19976425 -0.01020813 -0.43878174 0.18955994 -0.53385544l1.4468536 -0.6885567l0 0c0.09593201 -0.045654297 0.20606995 -0.05133438 0.30619812 -0.015781403c0.100112915 0.035549164 0.1820221 0.10941696 0.22767639 0.20534897l3.8001404 7.9838715c0.095077515 0.19976807 0.01020813 0.43878174 -0.18955994 0.53385544l-1.4468384 0.6885567c-0.19978333 0.0950737 -0.43881226 0.0102005005 -0.5338898 -0.18956757z" fill-rule="evenodd"/><path fill="#767373" d="m146.49628 42.590263l-1.6148987 -0.3857193l0.07939148 1.8656769z" fill-rule="evenodd"/><path stroke="#767373" stroke-width="1.0" stroke-linejoin="round" stroke-linecap="butt" d="m146.49628 42.590263l-1.6148987 -0.3857193l0.07939148 1.8656769z" fill-rule="evenodd"/><path fill="#434343" d="m143.26636 42.980766l0 0c-0.018051147 -0.64985275 0.49412537 -1.1912956 1.1439819 -1.2093468l0 0c0.31207275 -0.008670807 0.61479187 0.106987 0.8415985 0.32152557c0.22679138 0.21453476 0.35906982 0.5103798 0.36775208 0.82244873l0 0c0.018051147 0.64985275 -0.49412537 1.1912956 -1.1439819 1.2093468l0 0c-0.64985657 0.018051147 -1.1912994 -0.49412155 -1.2093506 -1.1439743z" fill-rule="evenodd"/><path stroke="#434343" stroke-width="1.0" stroke-linejoin="round" stroke-linecap="butt" d="m143.26636 42.980766l0 0c-0.018051147 -0.64985275 0.49412537 -1.1912956 1.1439819 -1.2093468l0 0c0.31207275 -0.008670807 0.61479187 0.106987 0.8415985 0.32152557c0.22679138 0.21453476 0.35906982 0.5103798 0.36775208 0.82244873l0 0c0.018051147 0.64985275 -0.49412537 1.1912956 -1.1439819 1.2093468l0 0c-0.64985657 0.018051147 -1.1912994 -0.49412155 -1.2093506 -1.1439743z" fill-rule="evenodd"/><path fill="#cc0000" d="m144.94498 55.14957c0.7608948 0.57380295 3.0935059 -2.2950401 5.089279 -2.7690353c1.995758 -0.4739952 5.20842 -0.42365265 6.8852844 -0.07493591c1.6768646 0.34871292 2.3507996 2.0298462 3.1759033 2.1672287c0.82510376 0.13738632 2.478653 -0.32062912 1.7747192 -1.3429222c-0.70391846 -1.0222969 -3.2647095 -4.0921555 -5.9982605 -4.7908516c-2.7335358 -0.69869614 -8.581879 -0.5364151 -10.40303 0.59867096c-1.8211517 1.135086 -1.28479 5.6380463 -0.52389526 6.2118454z" fill-rule="evenodd"/><path stroke="#cc0000" stroke-width="1.0" stroke-linejoin="round" stroke-linecap="butt" d="m144.94498 55.14957c0.7608948 0.57380295 3.0935059 -2.2950401 5.089279 -2.7690353c1.995758 -0.4739952 5.20842 -0.42365265 6.8852844 -0.07493591c1.6768646 0.34871292 2.3507996 2.0298462 3.1759033 2.1672287c0.82510376 0.13738632 2.478653 -0.32062912 1.7747192 -1.3429222c-0.70391846 -1.0222969 -3.2647095 -4.0921555 -5.9982605 -4.7908516c-2.7335358 -0.69869614 -8.581879 -0.5364151 -10.40303 0.59867096c-1.8211517 1.135086 -1.28479 5.6380463 -0.52389526 6.2118454z" fill-rule="evenodd"/><path fill="#b7b7b7" d="m136.8448 58.11874l0 0c0 -0.6952553 0.5636139 -1.258873 1.2588654 -1.258873l1.38031 0l0 0c0.3338623 0 0.654068 0.1326294 0.890152 0.36871338c0.23608398 0.23608398 0.36871338 0.55628586 0.36871338 0.8901596l0 1.7962456c0 0.6952591 -0.5636139 1.258873 -1.2588654 1.258873l-1.38031 0c-0.69525146 0 -1.2588654 -0.5636139 -1.2588654 -1.258873z" fill-rule="evenodd"/><path stroke="#b7b7b7" stroke-width="1.0" stroke-linejoin="round" stroke-linecap="butt" d="m136.8448 58.11874l0 0c0 -0.6952553 0.5636139 -1.258873 1.2588654 -1.258873l1.38031 0l0 0c0.3338623 0 0.654068 0.1326294 0.890152 0.36871338c0.23608398 0.23608398 0.36871338 0.55628586 0.36871338 0.8901596l0 1.7962456c0 0.6952591 -0.5636139 1.258873 -1.2588654 1.258873l-1.38031 0c-0.69525146 0 -1.2588654 -0.5636139 -1.2588654 -1.258873z" fill-rule="evenodd"/><path fill="#999999" d="m137.85794 57.823814l0 0c0 -0.051597595 0.04182434 -0.09342575 0.093429565 -0.09342575l1.6849213 0c0.024765015 0 0.048538208 0.009845734 0.0660553 0.027366638c0.01751709 0.01751709 0.027359009 0.041282654 0.027359009 0.06605911l0 0.37369156c0 0.051597595 -0.04182434 0.09342575 -0.09341431 0.09342575l-1.6849213 0c-0.051605225 0 -0.093429565 -0.041828156 -0.093429565 -0.09342575z" fill-rule="evenodd"/><path stroke="#999999" stroke-width="1.0" stroke-linejoin="round" stroke-linecap="butt" d="m137.85794 57.823814l0 0c0 -0.051597595 0.04182434 -0.09342575 0.093429565 -0.09342575l1.6849213 0c0.024765015 0 0.048538208 0.009845734 0.0660553 0.027366638c0.01751709 0.01751709 0.027359009 0.041282654 0.027359009 0.06605911l0 0.37369156c0 0.051597595 -0.04182434 0.09342575 -0.09341431 0.09342575l-1.6849213 0c-0.051605225 0 -0.093429565 -0.041828156 -0.093429565 -0.09342575z" fill-rule="evenodd"/><path fill="#999999" d="m137.85794 58.830017l0 0c0 -0.051597595 0.04182434 -0.09342575 0.093429565 -0.09342575l1.6849213 0c0.024765015 0 0.048538208 0.009845734 0.0660553 0.027362823c0.01751709 0.017520905 0.027359009 0.04128647 0.027359009 0.06606293l0 0.37369156c0 0.051597595 -0.04182434 0.09342575 -0.09341431 0.09342575l-1.6849213 0c-0.051605225 0 -0.093429565 -0.041828156 -0.093429565 -0.09342575z" fill-rule="evenodd"/><path stroke="#999999" stroke-width="1.0" stroke-linejoin="round" stroke-linecap="butt" d="m137.85794 58.830017l0 0c0 -0.051597595 0.04182434 -0.09342575 0.093429565 -0.09342575l1.6849213 0c0.024765015 0 0.048538208 0.009845734 0.0660553 0.027362823c0.01751709 0.017520905 0.027359009 0.04128647 0.027359009 0.06606293l0 0.37369156c0 0.051597595 -0.04182434 0.09342575 -0.09341431 0.09342575l-1.6849213 0c-0.051605225 0 -0.093429565 -0.041828156 -0.093429565 -0.09342575z" fill-rule="evenodd"/><path fill="#999999" d="m137.85794 59.83622l0 0c0 -0.051597595 0.04182434 -0.09342575 0.093429565 -0.09342575l1.6849213 0c0.024765015 0 0.048538208 0.009841919 0.0660553 0.027362823c0.01751709 0.017520905 0.027359009 0.04128647 0.027359009 0.06606293l0 0.37369156c0 0.051597595 -0.04182434 0.09342575 -0.09341431 0.09342575l-1.6849213 0c-0.051605225 0 -0.093429565 -0.041828156 -0.093429565 -0.09342575z" fill-rule="evenodd"/><path stroke="#999999" stroke-width="1.0" stroke-linejoin="round" stroke-linecap="butt" d="m137.85794 59.83622l0 0c0 -0.051597595 0.04182434 -0.09342575 0.093429565 -0.09342575l1.6849213 0c0.024765015 0 0.048538208 0.009841919 0.0660553 0.027362823c0.01751709 0.017520905 0.027359009 0.04128647 0.027359009 0.06606293l0 0.37369156c0 0.051597595 -0.04182434 0.09342575 -0.09341431 0.09342575l-1.6849213 0c-0.051605225 0 -0.093429565 -0.041828156 -0.093429565 -0.09342575z" fill-rule="evenodd"/><path fill="#b7b7b7" d="m121.962616 55.380695l-5.1166763 -1.5860558l0.23272705 -1.3102417l5.3494186 0.27581406z" fill-rule="evenodd"/><path stroke="#b7b7b7" stroke-width="1.0" stroke-linejoin="round" stroke-linecap="butt" d="m121.962616 55.380695l-5.1166763 -1.5860558l0.23272705 -1.3102417l5.3494186 0.27581406z" fill-rule="evenodd"/><path fill="#b7b7b7" d="m121.9599 55.37976l0.46546173 -2.6204834l9.792656 1.7430267l-0.46546936 2.6204834z" fill-rule="evenodd"/><path stroke="#b7b7b7" stroke-width="1.0" stroke-linejoin="round" stroke-linecap="butt" d="m121.9599 55.37976l0.46546173 -2.6204834l9.792656 1.7430267l-0.46546936 2.6204834z" fill-rule="evenodd"/><path fill="#cccccc" d="m128.9274 58.15449l0 0c0 -1.0195656 0.8265228 -1.8460922 1.8460846 -1.8460922l4.704071 0l0 0c0.48960876 0 0.9591675 0.19449997 1.3053741 0.54071045c0.34620667 0.34620667 0.54071045 0.8157692 0.54071045 1.3053818l0 2.0241585c0 1.0195656 -0.8265228 1.8460884 -1.8460846 1.8460884l-4.704071 0c-1.0195618 0 -1.8460846 -0.8265228 -1.8460846 -1.8460884z" fill-rule="evenodd"/><path stroke="#cccccc" stroke-width="1.0" stroke-linejoin="round" stroke-linecap="butt" d="m128.9274 58.15449l0 0c0 -1.0195656 0.8265228 -1.8460922 1.8460846 -1.8460922l4.704071 0l0 0c0.48960876 0 0.9591675 0.19449997 1.3053741 0.54071045c0.34620667 0.34620667 0.54071045 0.8157692 0.54071045 1.3053818l0 2.0241585c0 1.0195656 -0.8265228 1.8460884 -1.8460846 1.8460884l-4.704071 0c-1.0195618 0 -1.8460846 -0.8265228 -1.8460846 -1.8460884z" fill-rule="evenodd"/><path fill="#999999" d="m129.7243 59.16657l0 0c0 -0.7826958 0.6345062 -1.4171982 1.4172058 -1.4171982l0 0c0.3758545 0 0.7363281 0.14931107 1.0021057 0.41508865c0.2657776 0.2657776 0.41508484 0.6262474 0.41508484 1.0021095l0 0c0 0.7826996 -0.6345062 1.417202 -1.4171906 1.417202l0 0c-0.7826996 0 -1.4172058 -0.6345024 -1.4172058 -1.417202z" fill-rule="evenodd"/><path stroke="#999999" stroke-width="1.0" stroke-linejoin="round" stroke-linecap="butt" d="m129.7243 59.16657l0 0c0 -0.7826958 0.6345062 -1.4171982 1.4172058 -1.4171982l0 0c0.3758545 0 0.7363281 0.14931107 1.0021057 0.41508865c0.2657776 0.2657776 0.41508484 0.6262474 0.41508484 1.0021095l0 0c0 0.7826996 -0.6345062 1.417202 -1.4171906 1.417202l0 0c-0.7826996 0 -1.4172058 -0.6345024 -1.4172058 -1.417202z" fill-rule="evenodd"/><path fill="#cc0000" d="m111.87066 48.91676l-0.5988312 0.82331467l13.920616 2.5445557l0.29925537 -4.041313z" fill-rule="evenodd"/><path stroke="#cc0000" stroke-width="1.0" stroke-linejoin="round" stroke-linecap="butt" d="m111.87066 48.91676l-0.5988312 0.82331467l13.920616 2.5445557l0.29925537 -4.041313z" fill-rule="evenodd"/><path fill="#cc0000" d="m122.4214 51.08748l7.1848755 5.4633026l13.695969 1.3472137l3.4426422 -3.9665413l-0.14970398 -6.1370773l-21.329811 -0.6736069z" fill-rule="evenodd"/><path stroke="#cc0000" stroke-width="1.0" stroke-linejoin="round" stroke-linecap="butt" d="m122.4214 51.08748l7.1848755 5.4633026l13.695969 1.3472137l3.4426422 -3.9665413l-0.14970398 -6.1370773l-21.329811 -0.6736069z" fill-rule="evenodd"/><path fill="#434343" d="m125.62698 47.11714l9.870392 0.2002182l7.558899 -0.22464752l1.646637 1.4219894l-9.130768 2.320076l-9.130592 -1.721405z" fill-rule="evenodd"/><path stroke="#434343" stroke-width="1.0" stroke-linejoin="round" stroke-linecap="butt" d="m125.62698 47.11714l9.870392 0.2002182l7.558899 -0.22464752l1.646637 1.4219894l-9.130768 2.320076l-9.130592 -1.721405z" fill-rule="evenodd"/><path fill="#cc0000" d="m146.59787 47.797462l0.99827576 0.5580635l-1.0611725 0.35372543z" fill-rule="evenodd"/><path stroke="#cc0000" stroke-width="1.0" stroke-linejoin="round" stroke-linecap="butt" d="m146.59787 47.797462l0.99827576 0.5580635l-1.0611725 0.35372543z" fill-rule="evenodd"/><path fill="#999999" d="m69.25984 10.205799l-19.259842 20.125984l-19.259842 -20.125984z" fill-rule="evenodd"/><path fill="#434343" d="m117.9885 56.704872l0 0c0 -0.21961594 0.17803955 -0.39765167 0.39765167 -0.39765167l1.5905609 0l0 0c0.10546112 0 0.20661163 0.04189682 0.28118134 0.11647034c0.07457733 0.07457352 0.11647034 0.17572021 0.11647034 0.28118134l0 1.5905609c0 0.21961975 -0.17803192 0.39765167 -0.39765167 0.39765167l-1.5905609 0c-0.21961212 0 -0.39765167 -0.17803192 -0.39765167 -0.39765167z" fill-rule="evenodd"/><path fill="#434343" d="m112.88461 63.822144l0 0c0 -3.4785118 2.819893 -6.298397 6.298401 -6.298397l0 0c1.6704407 0 3.272461 0.66357803 4.453636 1.8447571c1.1811829 1.181179 1.8447647 2.7831993 1.8447647 4.45364l0 0c0 3.478508 -2.819893 6.298401 -6.298401 6.298401l0 0c-3.478508 0 -6.298401 -2.819893 -6.298401 -6.298401z" fill-rule="evenodd"/><path fill="#999999" d="m115.1332 63.822144l0 0c0 -2.2366524 1.8131638 -4.049816 4.0498123 -4.049816l0 0c1.0740814 0 2.1041641 0.4266739 2.863655 1.1861649c0.75948334 0.75948715 1.1861572 1.7895737 1.1861572 2.8636513l0 0c0 2.2366486 -1.8131638 4.0498123 -4.0498123 4.0498123l0 0c-2.2366486 0 -4.0498123 -1.8131638 -4.0498123 -4.0498123z" fill-rule="evenodd"/><path fill="#434343" d="m126.30036 62.629288l0 0c0.21961975 0 0.39765167 0.17803574 0.39765167 0.39765167l0 1.5905609l0 0c0 0.10546875 -0.041893005 0.20661163 -0.11647034 0.28118134c-0.0745697 0.07457733 -0.17572021 0.11647034 -0.28118134 0.11647034l-1.5905609 0c-0.21961975 0 -0.39765167 -0.17803192 -0.39765167 -0.39765167l0 -1.5905609c0 -0.21961594 0.17803192 -0.39765167 0.39765167 -0.39765167z" fill-rule="evenodd"/><path fill="#434343" d="m120.37437 70.93878l0 0c0 0.21961212 -0.17803192 0.39765167 -0.39765167 0.39765167l-1.5905609 0l0 0c-0.10546112 0 -0.206604 -0.041893005 -0.28118134 -0.11647034c-0.07457733 -0.07457733 -0.11647034 -0.17572021 -0.11647034 -0.28118134l0 -1.5905609c0 -0.21961975 0.17803955 -0.39765167 0.39765167 -0.39765167l1.5905609 0c0.21961975 0 0.39765167 0.17803192 0.39765167 0.39765167z" fill-rule="evenodd"/><path fill="#434343" d="m112.06488 65.01515l0 0c-0.21961975 0 -0.3976593 -0.17803192 -0.3976593 -0.39765167l0 -1.5905609l0 0c0 -0.10546112 0.041900635 -0.20660782 0.11647034 -0.28118134c0.07457733 -0.07457352 0.17572021 -0.11647034 0.28118896 -0.11647034l1.5905533 0c0.21961975 0 0.3976593 0.17803574 0.3976593 0.39765167l0 1.5905609c0 0.21961975 -0.17803955 0.39765167 -0.3976593 0.39765167z" fill-rule="evenodd"/><path fill="#434343" d="m123.37139 57.943527l0 0c0.15512848 -0.15512466 0.4066391 -0.15512466 0.5617676 0l1.1234894 1.1234932l0 0c0.07449341 0.07449341 0.11634064 0.17552948 0.11634064 0.28087997c0 0.105350494 -0.04184723 0.20638657 -0.11634064 0.28087997l-1.1234894 1.1234932c-0.15512848 0.15512466 -0.4066391 0.15512466 -0.5617676 0l-1.1234894 -1.1234932c-0.15512848 -0.15512466 -0.15512848 -0.40663528 0 -0.56175995z" fill-rule="evenodd"/><path fill="#434343" d="m125.05957 68.0107l0 0c0.15512848 0.15512848 0.15512848 0.4066391 0 0.56175995l-1.1234894 1.123497l0 0c-0.07449341 0.07449341 -0.17552948 0.11634064 -0.2808838 0.11634064c-0.10534668 0 -0.20638275 -0.04184723 -0.2808838 -0.11634064l-1.1234894 -1.123497c-0.15512085 -0.15512085 -0.15512085 -0.40663147 0 -0.56175995l1.1234894 -1.1234894c0.15512848 -0.15512848 0.4066391 -0.15512848 0.5617676 0z" fill-rule="evenodd"/><path fill="#434343" d="m114.99296 69.69608l0 0c-0.15512085 0.15512848 -0.40663147 0.15512848 -0.56175995 0l-1.1234894 -1.1234894l0 0c-0.07449341 -0.07449341 -0.11634827 -0.17552948 -0.11634827 -0.2808838c0 -0.10534668 0.04185486 -0.20638275 0.11634827 -0.28087616l1.1234894 -1.123497c0.15512848 -0.15512085 0.4066391 -0.15512085 0.56175995 0l1.1234894 1.123497c0.15512848 0.15512085 0.15512848 0.40663147 0 0.56175995z" fill-rule="evenodd"/><path fill="#434343" d="m113.3059 59.63115l0 0c-0.15512848 -0.15512848 -0.15512848 -0.4066391 0 -0.56176376l1.1234894 -1.1234932l0 0c0.07449341 -0.07449341 0.17552948 -0.11634445 0.2808838 -0.11634445c0.10534668 0 0.20638275 0.041851044 0.28087616 0.11634445l1.123497 1.1234932c0.15512085 0.15512466 0.15512085 0.40663528 0 0.56176376l-1.123497 1.1234894c-0.15512085 0.15512466 -0.40663147 0.15512466 -0.56175995 0z" fill-rule="evenodd"/><path fill="#434343" d="m117.840965 59.55694l0.3692398 -0.10414505l2.3148575 8.634556l-0.3692398 0.104148865z" fill-rule="evenodd"/><path fill="#434343" d="m123.54623 64.79509l-0.09467316 0.3692398l-8.63456 -2.3148537l0.094680786 -0.36924362z" fill-rule="evenodd"/><path fill="#434343" d="m123.450584 62.483864l0.104148865 0.3692398l-8.63929 2.3148575l-0.104148865 -0.3692398z" fill-rule="evenodd"/><path fill="#434343" d="m118.21243 68.189125l-0.3692398 -0.09467316l2.3148575 -8.639294l0.3692398 0.09467697z" fill-rule="evenodd"/><path fill="#848484" fill-opacity="0.95" d="m118.12973 63.822144l0 0c0 -0.58171463 0.47157288 -1.0532837 1.0532837 -1.0532837l0 0c0.27935028 0 0.54725647 0.11096954 0.7447815 0.30849838c0.19753265 0.19752884 0.3085022 0.46543503 0.3085022 0.7447853l0 0c0 0.5817108 -0.47157288 1.0532837 -1.0532837 1.0532837l0 0c-0.5817108 0 -1.0532837 -0.47157288 -1.0532837 -1.0532837z" fill-rule="evenodd"/><path fill="#434343" d="m152.09615 56.704872l0 0c0 -0.21961594 0.17803955 -0.39765167 0.3976593 -0.39765167l1.5905457 0l0 0c0.10546875 0 0.20661926 0.04189682 0.28118896 0.11647034c0.0745697 0.07457352 0.11647034 0.17572021 0.11647034 0.28118134l0 1.5905609c0 0.21961975 -0.17803955 0.39765167 -0.3976593 0.39765167l-1.5905457 0c-0.21961975 0 -0.3976593 -0.17803192 -0.3976593 -0.39765167z" fill-rule="evenodd"/><path fill="#434343" d="m146.99226 63.822144l0 0c0 -3.4785118 2.8198853 -6.298397 6.2983856 -6.298397l0 0c1.6704407 0 3.272461 0.66357803 4.453644 1.8447571c1.1811829 1.181179 1.8447571 2.7831993 1.8447571 4.45364l0 0c0 3.478508 -2.8198853 6.298401 -6.298401 6.298401l0 0c-3.4785004 0 -6.2983856 -2.819893 -6.2983856 -6.298401z" fill-rule="evenodd"/><path fill="#999999" d="m149.24084 63.822144l0 0c0 -2.2366524 1.8131561 -4.049816 4.0498047 -4.049816l0 0c1.0740814 0 2.1041718 0.4266739 2.8636627 1.1861649c0.75949097 0.75948715 1.1861572 1.7895737 1.1861572 2.8636513l0 0c0 2.2366486 -1.8131561 4.0498123 -4.04982 4.0498123l0 0c-2.2366486 0 -4.0498047 -1.8131638 -4.0498047 -4.0498123z" fill-rule="evenodd"/><path fill="#434343" d="m160.408 62.629288l0 0c0.21961975 0 0.39764404 0.17803574 0.39764404 0.39765167l0 1.5905609l0 0c0 0.10546875 -0.041885376 0.20661163 -0.11647034 0.28118134c-0.0745697 0.07457733 -0.17570496 0.11647034 -0.2811737 0.11647034l-1.5905609 0c-0.21961975 0 -0.3976593 -0.17803192 -0.3976593 -0.39765167l0 -1.5905609c0 -0.21961594 0.17803955 -0.39765167 0.3976593 -0.39765167z" fill-rule="evenodd"/><path fill="#434343" d="m154.48201 70.93878l0 0c0 0.21961212 -0.17803955 0.39765167 -0.3976593 0.39765167l-1.5905457 0l0 0c-0.10546875 0 -0.20661926 -0.041893005 -0.28118896 -0.11647034c-0.0745697 -0.07457733 -0.11647034 -0.17572021 -0.11647034 -0.28118134l0 -1.5905609c0 -0.21961975 0.17803955 -0.39765167 0.3976593 -0.39765167l1.5905457 0c0.21961975 0 0.3976593 0.17803192 0.3976593 0.39765167z" fill-rule="evenodd"/><path fill="#434343" d="m146.17252 65.01515l0 0c-0.21961975 0 -0.39764404 -0.17803192 -0.39764404 -0.39765167l0 -1.5905609l0 0c0 -0.10546112 0.041885376 -0.20660782 0.11647034 -0.28118134c0.0745697 -0.07457352 0.17572021 -0.11647034 0.2811737 -0.11647034l1.5905609 0c0.21961975 0 0.3976593 0.17803574 0.3976593 0.39765167l0 1.5905609c0 0.21961975 -0.17803955 0.39765167 -0.3976593 0.39765167z" fill-rule="evenodd"/><path fill="#434343" d="m157.47903 57.943527l0 0c0.15512085 -0.15512466 0.40663147 -0.15512466 0.5617676 0l1.1234894 1.1234932l0 0c0.07449341 0.07449341 0.11634827 0.17552948 0.11634827 0.28087997c0 0.105350494 -0.04185486 0.20638657 -0.11634827 0.28087997l-1.1234894 1.1234932c-0.15513611 0.15512466 -0.40664673 0.15512466 -0.5617676 0l-1.1234894 -1.1234932c-0.15512085 -0.15512466 -0.15512085 -0.40663528 0 -0.56175995z" fill-rule="evenodd"/><path fill="#434343" d="m159.1672 68.0107l0 0c0.15513611 0.15512848 0.15513611 0.4066391 0 0.56175995l-1.1234894 1.123497l0 0c-0.07449341 0.07449341 -0.17552185 0.11634064 -0.2808838 0.11634064c-0.10534668 0 -0.20637512 -0.04184723 -0.28086853 -0.11634064l-1.1234894 -1.123497c-0.15513611 -0.15512085 -0.15513611 -0.40663147 0 -0.56175995l1.1234894 -1.1234894c0.15512085 -0.15512848 0.40663147 -0.15512848 0.5617523 0z" fill-rule="evenodd"/><path fill="#434343" d="m149.1006 69.69608l0 0c-0.15512085 0.15512848 -0.40663147 0.15512848 -0.5617676 0l-1.1234894 -1.1234894l0 0c-0.07449341 -0.07449341 -0.11633301 -0.17552948 -0.11633301 -0.2808838c0 -0.10534668 0.0418396 -0.20638275 0.11633301 -0.28087616l1.1234894 -1.123497c0.15513611 -0.15512085 0.40664673 -0.15512085 0.5617676 0l1.1234894 1.123497c0.15513611 0.15512085 0.15513611 0.40663147 0 0.56175995z" fill-rule="evenodd"/><path fill="#434343" d="m147.41354 59.63115l0 0c-0.15513611 -0.15512848 -0.15513611 -0.4066391 0 -0.56176376l1.1234894 -1.1234932l0 0c0.07449341 -0.07449341 0.17552185 -0.11634445 0.2808838 -0.11634445c0.10534668 0 0.20639038 0.041851044 0.2808838 0.11634445l1.1234894 1.1234932c0.15512085 0.15512466 0.15512085 0.40663528 0 0.56176376l-1.1234894 1.1234894c-0.15513611 0.15512466 -0.40664673 0.15512466 -0.5617676 0z" fill-rule="evenodd"/><path fill="#434343" d="m151.94861 59.55694l0.36923218 -0.10414505l2.314865 8.634556l-0.36924744 0.104148865z" fill-rule="evenodd"/><path fill="#434343" d="m157.65387 64.79509l-0.094680786 0.3692398l-8.634552 -2.3148537l0.094680786 -0.36924362z" fill-rule="evenodd"/><path fill="#434343" d="m157.55823 62.483864l0.104141235 0.3692398l-8.639282 2.3148575l-0.104156494 -0.3692398z" fill-rule="evenodd"/><path fill="#434343" d="m152.32007 68.189125l-0.36923218 -0.09467316l2.3148499 -8.639294l0.36924744 0.09467697z" fill-rule="evenodd"/><path fill="#848484" fill-opacity="0.95" d="m152.23737 63.822144l0 0c0 -0.58171463 0.47157288 -1.0532837 1.0532837 -1.0532837l0 0c0.2793579 0 0.54725647 0.11096954 0.74479675 0.30849838c0.19752502 0.19752884 0.30848694 0.46543503 0.30848694 0.7447853l0 0c0 0.5817108 -0.47155762 1.0532837 -1.0532837 1.0532837l0 0c-0.5817108 0 -1.0532837 -0.47157288 -1.0532837 -1.0532837z" fill-rule="evenodd"/><path fill="#f1c232" d="m29.259842 69.05405l0 0c0 -11.454475 9.2856865 -20.740162 20.740158 -20.740162c11.454472 0 20.740158 9.2856865 20.740158 20.740162c0 11.454468 -9.2856865 20.74015 -20.740158 20.74015c-11.454472 0 -20.740158 -9.285683 -20.740158 -20.74015z" fill-rule="evenodd"/><path fill="#c09b27" d="m41.195034 62.8512c0 -1.1931763 0.96725845 -2.1604347 2.1604347 -2.1604347c1.1931725 0 2.160431 0.96725845 2.160431 2.1604347c0 1.1931725 -0.96725845 2.1604347 -2.160431 2.1604347c-1.1931763 0 -2.1604347 -0.96726227 -2.1604347 -2.1604347m13.289066 0c0 -1.1931763 0.96725845 -2.1604347 2.160431 -2.1604347c1.1931763 0 2.1604347 0.96725845 2.1604347 2.1604347c0 1.1931725 -0.96725845 2.1604347 -2.1604347 2.1604347c-1.1931725 0 -2.160431 -0.96726227 -2.160431 -2.1604347" fill-rule="evenodd"/><path fill="#000000" fill-opacity="0.0" d="m38.758698 78.09896q11.2413025 7.7203217 22.456352 0" fill-rule="evenodd"/><path fill="#000000" fill-opacity="0.0" d="m29.259842 69.05405l0 0c0 -11.454475 9.2856865 -20.740162 20.740158 -20.740162c11.454472 0 20.740158 9.2856865 20.740158 20.740162c0 11.454468 -9.2856865 20.74015 -20.740158 20.74015c-11.454472 0 -20.740158 -9.285683 -20.740158 -20.74015z" fill-rule="evenodd"/><path fill="#000000" fill-opacity="0.0" d="m38.986877 76.846695c4.8605385 4.414299 15.234196 6.9364624 19.593174 2.026245" fill-rule="evenodd"/><path stroke="#bf9000" stroke-width="1.0" stroke-linejoin="round" stroke-linecap="butt" d="m38.986877 76.846695c4.8605385 4.414299 15.234196 6.9364624 19.593174 2.026245" fill-rule="evenodd"/></g></svg>