<svg version="1.1" viewBox="0.0 0.0 100.0 100.0" fill="none" stroke="none" stroke-linecap="square" stroke-miterlimit="10" xmlns:xlink="http://www.w3.org/1999/xlink" xmlns="http://www.w3.org/2000/svg"><clipPath id="p.0"><path d="m0 0l100.0 0l0 100.0l-100.0 0l0 -100.0z" clip-rule="nonzero"/></clipPath><g clip-path="url(#p.0)"><path fill="#000000" fill-opacity="0.0" d="m0 0l100.0 0l0 100.0l-100.0 0z" fill-rule="evenodd"/><path fill="#7f6000" d="m22.969166 12.010926l0 0c0.12603188 -0.47008228 0.6089401 -0.7477484 1.0786095 -0.62018394l3.4015408 0.92387486l0 0c0.22554398 0.06125927 0.41780663 0.20968437 0.5344944 0.4126234c0.116687775 0.20293999 0.14824104 0.44377136 0.08771896 0.66951275l-22.283762 83.11658c-0.12603045 0.47008514 -0.6089401 0.7477493 -1.078609 0.62018585l-3.4015408 -0.9238739c-0.4696688 -0.12756348 -0.74824286 -0.6120529 -0.62221247 -1.0821381z" fill-rule="evenodd"/><path stroke="#000000" stroke-width="1.0" stroke-linejoin="round" stroke-linecap="butt" d="m22.969166 12.010926l0 0c0.12603188 -0.47008228 0.6089401 -0.7477484 1.0786095 -0.62018394l3.4015408 0.92387486l0 0c0.22554398 0.06125927 0.41780663 0.20968437 0.5344944 0.4126234c0.116687775 0.20293999 0.14824104 0.44377136 0.08771896 0.66951275l-22.283762 83.11658c-0.12603045 0.47008514 -0.6089401 0.7477493 -1.078609 0.62018585l-3.4015408 -0.9238739c-0.4696688 -0.12756348 -0.74824286 -0.6120529 -0.62221247 -1.0821381z" fill-rule="evenodd"/><path fill="#7f6000" d="m135.28346 6.969834l0 0c0 -0.4841647 0.39250183 -0.87665796 0.8766632 -0.87665796l3.5065308 0l0 0c0.23249817 0 0.45547485 0.09236193 0.6198883 0.25676727c0.1643982 0.16440535 0.25675964 0.38738632 0.25675964 0.6198907l0 86.05771c0 0.48416138 -0.39248657 0.8766556 -0.87664795 0.8766556l-3.5065308 0c-0.48416138 0 -0.8766632 -0.3924942 -0.8766632 -0.8766556z" fill-rule="evenodd"/><path stroke="#000000" stroke-width="1.0" stroke-linejoin="round" stroke-linecap="butt" d="m135.28346 6.969834l0 0c0 -0.4841647 0.39250183 -0.87665796 0.8766632 -0.87665796l3.5065308 0l0 0c0.23249817 0 0.45547485 0.09236193 0.6198883 0.25676727c0.1643982 0.16440535 0.25675964 0.38738632 0.25675964 0.6198907l0 86.05771c0 0.48416138 -0.39248657 0.8766556 -0.87664795 0.8766556l-3.5065308 0c-0.48416138 0 -0.8766632 -0.3924942 -0.8766632 -0.8766556z" fill-rule="evenodd"/><path fill="#cc0000" d="m28.042671 13.398017c26.971127 -9.351706 41.501312 27.71391 68.47244 18.362206l-7.464569 27.850393c-26.97113 9.351704 -41.501312 -27.71391 -68.47244 -18.362206z" fill-rule="evenodd"/><path stroke="#000000" stroke-width="1.0" stroke-linejoin="round" stroke-linecap="butt" d="m28.042671 13.398017c26.971127 -9.351706 41.501312 27.71391 68.47244 18.362206l-7.464569 27.850393c-26.97113 9.351704 -41.501312 -27.71391 -68.47244 -18.362206z" fill-rule="evenodd"/><path fill="#000000" fill-opacity="0.0" d="m35.00736 2.6355095l64.53543 29.385826l-17.41732 38.236217l-64.53544 -29.385822z" fill-rule="evenodd"/><path fill="#000000" d="m37.76297 33.675694q-1.0807343 -0.4921074 -1.8909912 -1.2387619q-0.7895584 -0.75439835 -1.220787 -1.654665q-0.42474747 -0.91448784 -0.39556885 -1.8454742q-0.026878357 -0.3556118 0.2319107 -0.54680824q0.25878906 -0.19119453 0.6389389 -0.12110901q0.28834915 0.045455933 0.48601913 0.28997993q0.19766617 0.24452591 0.18836212 0.5664921q0.035743713 0.6000061 0.3443451 1.2040787q0.3086052 0.6040726 0.8797951 1.1216908q0.57767105 0.5033989 1.3597832 0.8595257q0.881649 0.40145874 1.7079811 0.43434906q0.8263321 0.032894135 1.4848518 -0.3196602q0.6649933 -0.3667717 1.0212364 -1.1488323q0.4469223 -0.9811287 0.03006363 -2.0637093q-0.40263748 -1.0761051 -1.9537582 -2.0055904q-1.9156342 -1.1469688 -2.614071 -2.6667976q-0.6777382 -1.5275745 -0.0041160583 -3.0063782q0.47930908 -1.0522251 1.3978844 -1.56106q0.93927 -0.5165825 2.1225204 -0.47568512q1.1974716 0.047372818 2.46307 0.6236553q0.96697235 0.4403057 1.5988426 1.0885639q0.6383476 0.6340389 0.9804535 1.3907166q0.34210968 0.7566776 0.4333191 1.5364571q0.06306076 0.38925743 -0.123363495 0.6477413q-0.1799469 0.2442646 -0.5071564 0.28412628q-0.33495712 0.019165039 -0.59471893 -0.20212746q-0.25328445 -0.23550987 -0.27241898 -0.57042694q-0.06812668 -0.5289097 -0.29661942 -1.0450001q-0.2220192 -0.53030777 -0.68592453 -0.9819069q-0.4432106 -0.45934105 -1.1761856 -0.8102646q-1.308258 -0.59570694 -2.3933792 -0.43740463q-1.0709038 0.16477585 -1.5631638 1.2454395q-0.2461319 0.5403328 -0.16773224 1.1597633q0.07840347 0.61943245 0.61973953 1.2779732q0.55555725 0.6650162 1.7007713 1.3925037q1.9815216 1.2284775 2.5739403 2.7172012q0.5988922 1.4745045 -0.13949966 3.095499q-0.42749405 0.93847084 -1.1068535 1.4875584q-0.66514206 0.55556107 -1.511055 0.75411224q-0.8459091 0.19855118 -1.7872696 0.078941345q-0.9348831 -0.13382721 -1.8591957 -0.5547066zm10.7283745 4.679077q-0.88165283 -0.40145493 -1.3841286 -1.1453094q-0.50247574 -0.74385834 -0.5638275 -1.6645622q-0.054878235 -0.93492126 0.36613464 -1.8591728l3.7632217 -8.261391q0.13601685 -0.29860306 0.41156006 -0.41349792q0.29624176 -0.122636795 0.6233063 0.026288986q0.31284332 0.14245224 0.41476822 0.44639206q0.10840225 0.28972054 -0.027618408 0.5883255l-3.763218 8.261389q-0.3627205 0.7962799 -0.13310623 1.536068q0.22961044 0.73979187 0.9406204 1.0635452l0.51192856 0.23310089q0.27018356 0.1230278 0.36436462 0.4062729q0.094184875 0.2832451 -0.04831314 0.59606934q-0.14897537 0.32704544 -0.46717834 0.42251205q-0.31172562 0.08124924 -0.6672287 -0.08062744l-0.3412857 -0.15540314zm-0.57058716 -9.565186q-0.28440475 -0.12950134 -0.39154053 -0.38430786q-0.10065842 -0.2690277 0.015930176 -0.5249729q0.12306595 -0.2701664 0.38565445 -0.3566208q0.26906586 -0.10067558 0.5534668 0.02882576l4.1949577 1.9101505q0.29862595 0.13597679 0.39928436 0.4050026q0.10713577 0.25480652 -0.015930176 0.5249729q-0.11658478 0.2559471 -0.38565063 0.3566208q-0.2625885 0.08645439 -0.56121445 -0.0495224l-4.1949577 -1.9101486zm7.826515 12.972141q-1.2798157 -0.58275604 -2.025154 -1.660389q-0.73885727 -1.0918541 -0.8503227 -2.430252q-0.09076309 -1.3461418 0.5180893 -2.6827507q0.6153259 -1.3508301 1.7125816 -2.1388474q1.1179504 -0.7957573 2.4629822 -0.9215565q1.3515091 -0.14001656 2.702427 0.47511864q1.3224792 0.6021805 2.089779 1.7069855q0.7879982 1.0970573 0.9072037 2.45615q0.13990402 1.3513489 -0.44698715 2.715126l-0.7125702 0.018909454q-0.5764656 1.2655144 -1.6051483 2.0160751q-1.0222092 0.7363472 -2.2689667 0.8725548q-1.2325363 0.14268494 -2.4839134 -0.42712402zm0.80272293 -1.1968231q0.952755 0.43383026 1.8929977 0.3297348q0.9467163 -0.11830902 1.7295647 -0.7061157q0.78284836 -0.5878067 1.2232971 -1.554718q0.4469223 -0.9811287 0.37007904 -1.943222q-0.07036209 -0.97631073 -0.6025429 -1.7680321q-0.5321808 -0.7917175 -1.4849358 -1.2255516q-0.9385338 -0.4273529 -1.8994713 -0.31551743q-0.9609375 0.111839294 -1.758007 0.69316864q-0.7905922 0.56711197 -1.2375145 1.5482407q-0.44044495 0.9669113 -0.35586166 1.9496956q0.08458328 0.9827881 0.63098526 1.780983q0.55287933 0.7839775 1.4914093 1.2113342zm3.4168777 3.0151825q-0.29862213 -0.13597488 -0.42772293 -0.4179535q-0.12262344 -0.29619598 0.026351929 -0.6232376l1.2759972 -2.8011932l1.0006866 -1.329876l0.9756851 0.87348557l-1.7876892 3.9245148q-0.14897537 0.32704544 -0.45295715 0.4289894q-0.28328705 0.09419632 -0.61035156 -0.05472946zm6.5358505 -3.9772148q0.5012741 -1.0250549 1.3681793 -1.6089249q0.87338257 -0.5980911 1.9118958 -0.69177246q1.0449905 -0.10789871 2.0404053 0.345356q0.8532181 0.38850784 1.1916733 0.85165405q0.3384552 0.46315002 0.009681702 0.8456726q-0.14629364 0.20808029 -0.36875153 0.24413681q-0.20176697 0.028308868 -0.41506958 -0.06882095q-0.21330261 -0.09712601 -0.4640503 -0.26280975q-0.9435959 -0.567009 -1.8423004 -0.66719055q-0.87799835 -0.10792923 -1.5856552 0.23942184q-0.70765686 0.34734726 -1.0638962 1.129406l-0.7821121 -0.3561287zm-2.537918 5.7976494q-0.3412857 -0.15540314 -0.4561653 -0.4309044q-0.10065842 -0.2690277 0.054790497 -0.6102867l3.5818634 -7.8632507q0.15544891 -0.34126282 0.42451477 -0.4419365q0.28328705 -0.094200134 0.6245651 0.061203003q0.3270645 0.14892578 0.42772675 0.4179535q0.10066223 0.2690277 -0.05479431 0.6102867l-3.5818558 7.8632507q-0.15544891 0.34126282 -0.42451477 0.4419365q-0.26906586 0.100673676 -0.5961304 -0.048252106zm10.758965 4.8990326q-0.88165283 -0.40145493 -1.3841248 -1.1453133q-0.50247955 -0.74385834 -0.56383514 -1.6645622q-0.054870605 -0.93492126 0.36614227 -1.8591728l3.763214 -8.261387q0.13602448 -0.29860687 0.4115677 -0.41349792q0.29624176 -0.1226387 0.62329865 0.026287079q0.31285095 0.14245224 0.41477203 0.44639206q0.10840607 0.28972244 -0.027618408 0.5883255l-3.763214 8.261387q-0.3627243 0.7962799 -0.13311005 1.5360718q0.22961426 0.73978806 0.9406204 1.0635414l0.5119324 0.2331047q0.27017975 0.12302399 0.36436462 0.4062729q0.094177246 0.2832451 -0.048316956 0.59606934q-0.14897156 0.32704163 -0.46717834 0.42250824q-0.3117218 0.08124924 -0.6672287 -0.08062744l-0.3412857 -0.15539932zm-0.57058716 -9.565186q-0.28440094 -0.12950516 -0.39154053 -0.38431168q-0.1006546 -0.2690239 0.015930176 -0.524971q0.12306976 -0.2701683 0.38565826 -0.3566208q0.26905823 -0.100673676 0.5534668 0.028827667l4.194954 1.9101486q0.29862976 0.13597488 0.39928436 0.4050026q0.10713959 0.25480652 -0.015930176 0.524971q-0.11658478 0.2559471 -0.38565063 0.3566208q-0.2625885 0.0864563 -0.56121063 -0.049518585l-4.1949615 -1.9101486z" fill-rule="nonzero"/></g></svg>