<svg version="1.1" viewBox="0.0 0.0 100.0 100.0" fill="none" stroke="none" stroke-linecap="square" stroke-miterlimit="10" xmlns:xlink="http://www.w3.org/1999/xlink" xmlns="http://www.w3.org/2000/svg"><clipPath id="p.0"><path d="m0 0l100.0 0l0 100.0l-100.0 0l0 -100.0z" clip-rule="nonzero"/></clipPath><g clip-path="url(#p.0)"><path fill="#000000" fill-opacity="0.0" d="m0 0l100.0 0l0 100.0l-100.0 0z" fill-rule="evenodd"/><path fill="#7f6000" d="m9.286089 8.919965l0 0c0 -0.48416424 0.39249325 -0.8766575 0.87665844 -0.8766575l3.506526 0l0 0c0.23250484 0 0.4554863 0.09236145 0.61989117 0.25676727c0.16440487 0.16440487 0.25676727 0.38738632 0.25676727 0.6198902l0 86.05771c0 0.48416138 -0.39249325 0.8766556 -0.87665844 0.8766556l-3.506526 0c-0.4841652 0 -0.87665844 -0.3924942 -0.87665844 -0.8766556z" fill-rule="evenodd"/><path stroke="#000000" stroke-width="1.0" stroke-linejoin="round" stroke-linecap="butt" d="m9.286089 8.919965l0 0c0 -0.48416424 0.39249325 -0.8766575 0.87665844 -0.8766575l3.506526 0l0 0c0.23250484 0 0.4554863 0.09236145 0.61989117 0.25676727c0.16440487 0.16440487 0.25676727 0.38738632 0.25676727 0.6198902l0 86.05771c0 0.48416138 -0.39249325 0.8766556 -0.87665844 0.8766556l-3.506526 0c-0.4841652 0 -0.87665844 -0.3924942 -0.87665844 -0.8766556z" fill-rule="evenodd"/><path fill="#7f6000" d="m85.45407 8.919965l0 0c0 -0.48416424 0.39248657 -0.8766575 0.8766556 -0.8766575l3.5065231 0l0 0c0.2325058 0 0.4554901 0.09236145 0.61989594 0.25676727c0.16440582 0.16440487 0.25676727 0.38738632 0.25676727 0.6198902l0 86.05771c0 0.48416138 -0.3924942 0.8766556 -0.8766632 0.8766556l-3.5065231 0c-0.484169 0 -0.8766556 -0.3924942 -0.8766556 -0.8766556z" fill-rule="evenodd"/><path stroke="#000000" stroke-width="1.0" stroke-linejoin="round" stroke-linecap="butt" d="m85.45407 8.919965l0 0c0 -0.48416424 0.39248657 -0.8766575 0.8766556 -0.8766575l3.5065231 0l0 0c0.2325058 0 0.4554901 0.09236145 0.61989594 0.25676727c0.16440582 0.16440487 0.25676727 0.38738632 0.25676727 0.6198902l0 86.05771c0 0.48416138 -0.3924942 0.8766556 -0.8766632 0.8766556l-3.5065231 0c-0.484169 0 -0.8766556 -0.3924942 -0.8766556 -0.8766556z" fill-rule="evenodd"/><path fill="#cc0000" d="m14.545932 8.952756c23.632545 -16.023623 47.26509 16.02362 70.897644 0l0 28.842522c-23.63255 16.02362 -47.265095 -16.023623 -70.897644 0z" fill-rule="evenodd"/><path stroke="#000000" stroke-width="1.0" stroke-linejoin="round" stroke-linecap="butt" d="m14.545932 8.952756c23.632545 -16.023623 47.26509 16.02362 70.897644 0l0 28.842522c-23.63255 16.02362 -47.265095 -16.023623 -70.897644 0z" fill-rule="evenodd"/><path fill="#000000" fill-opacity="0.0" d="m18.487429 -3.2471445l69.95276 11.6850395l-6.929138 41.448822l-69.95275 -11.6850395z" fill-rule="evenodd"/><path fill="#000000" d="m29.182688 26.0225q-1.1712704 -0.19565201 -2.1471596 -0.70718q-0.957901 -0.52436256 -1.6074333 -1.2823639q-0.6469574 -0.7734108 -0.85972214 -1.6802349q-0.11800003 -0.33654022 0.08248901 -0.5881958q0.20048904 -0.2516575 0.58582115 -0.2823391q0.29028893 -0.03071785 0.544508 0.15431976q0.25421906 0.18503952 0.32856178 0.4984455q0.1898098 0.5703182 0.6442394 1.073946q0.45442963 0.5036297 1.1401234 0.8557911q0.68827057 0.33675194 1.5359001 0.47834206q0.9555111 0.15960884 1.7621994 -0.022470474q0.8066883 -0.18207741 1.3515205 -0.69304466q0.54740906 -0.52637863 0.6891098 -1.373991q0.1777649 -1.0633678 -0.50507355 -2.0011883q-0.66742706 -0.9352455 -2.406252 -1.4316425q-2.1472073 -0.61213684 -3.2151928 -1.8994408q-1.0499992 -1.3001385 -0.7820606 -2.902897q0.19064903 -1.1404238 0.94622993 -1.8696508q0.7735672 -0.7420645 1.927084 -1.0087824q1.1689281 -0.264143 2.5405483 -0.035024643q1.0479813 0.17505646 1.8260956 0.6377058q0.78069305 0.44723797 1.3069801 1.0896025q0.5262871 0.64236355 0.8162041 1.3719759q0.16165543 0.3596754 0.048484802 0.6576004q-0.1105957 0.28251457 -0.4163437 0.40569878q-0.31858063 0.10519791 -0.6267624 -0.041330338q-0.30560684 -0.16193962 -0.41077042 -0.4804945q-0.20269394 -0.49326134 -0.5569725 -0.93263626q-0.35169983 -0.4547863 -0.9166794 -0.7709427q-0.54698944 -0.32899284 -1.3458099 -0.47827053q-1.4178562 -0.2368412 -2.4250336 0.19689465q-0.99176407 0.43631077 -1.1875668 1.6075573q-0.09790039 0.5856228 0.13814545 1.1636629q0.23604584 0.5780401 0.9293766 1.0740519q0.70874023 0.49858475 2.00321 0.90491295q2.231947 0.6738167 3.189478 1.9585114q0.9601059 1.2692814 0.6664009 3.0261517q-0.17003632 1.0171356 -0.68413925 1.7233334q-0.49869156 0.70877075 -1.2643929 1.1194782q-0.7656975 0.41070747 -1.7059364 0.5387955q-0.93766403 0.11267471 -1.9394093 -0.054656982zm11.573805 1.7432117q-0.955513 -0.15961075 -1.6333847 -0.74808884q-0.6778717 -0.5884781 -0.9754219 -1.4619389q-0.29497528 -0.88887215 -0.12751389 -1.8905964l1.4968452 -8.953871q0.05410385 -0.32363415 0.2905197 -0.5059233q0.25440598 -0.19512558 0.60887146 -0.13591576q0.3390503 0.056635857 0.5161667 0.32384396q0.17969131 0.25179672 0.12559128 0.57543087l-1.4968491 8.953872q-0.14427567 0.86302376 0.26897812 1.5181885q0.41325378 0.6551666 1.1838303 0.78388405l0.5548096 0.09267807q0.29281998 0.04891205 0.4570999 0.29813385q0.16427994 0.24922371 0.107601166 0.5882683q-0.059253693 0.35445595 -0.3419075 0.5290222q-0.28007507 0.15915489 -0.6653633 0.094797134l-0.36987305 -0.061784744zm-3.026722 -9.091679q-0.30822754 -0.05148697 -0.47766113 -0.26988792q-0.16685867 -0.23381042 -0.1204834 -0.5112114q0.048950195 -0.29281235 0.28021622 -0.44427872q0.23384094 -0.16687775 0.5420685 -0.11539078l4.546383 0.75943565q0.32364273 0.05406189 0.4904976 0.28787422q0.1694336 0.21839905 0.1204834 0.5112114q-0.046375275 0.27740097 -0.28021622 0.44427872q-0.2312622 0.15146637 -0.55490494 0.09740448l-4.546383 -0.75943565zm10.917164 10.504761q-1.3870316 -0.23169136 -2.3858757 -1.0797253q-0.9962654 -0.8634434 -1.4503212 -2.1274014q-0.4360695 -1.2767963 -0.19389725 -2.725443q0.24475098 -1.4640579 1.1006699 -2.5091953q0.8739052 -1.0579758 2.1405487 -1.5275764q1.2692184 -0.48501396 2.733307 -0.2404499q1.4332657 0.23941612 2.4603577 1.1080093q1.0450783 0.85575485 1.5119705 2.1376991q0.48487854 1.2691078 0.27095032 2.7383137l-0.6833954 0.20267487q-0.22929382 1.3715916 -1.0286713 2.3628063q-0.7968025 0.9758053 -1.9658241 1.4300327q-1.1536102 0.45679855 -2.509819 0.23025513zm0.46561813 -1.3637981q1.0325699 0.17248344 1.9138298 -0.17139626q0.88383865 -0.35928917 1.4878807 -1.1296711q0.60404205 -0.7703819 0.77923584 -1.8183384q0.1777649 -1.0633698 -0.14545822 -1.9728012q-0.32064438 -0.92484283 -1.0395966 -1.5518665q-0.718956 -0.6270237 -1.7515221 -0.79950523q-1.0171585 -0.16990852 -1.9164085 0.18680763q-0.89925003 0.35671425 -1.5187035 1.1245232q-0.6168785 0.75239563 -0.7946434 1.8157635q-0.17518997 1.0479584 0.16086578 1.9753761q0.33605576 0.92741776 1.0704231 1.5570145q0.7369423 0.61418724 1.754097 0.78409386zm4.0808105 2.0281944q-0.32363892 -0.05406189 -0.52132034 -0.29302216q-0.19510269 -0.25437164 -0.13584518 -0.6088276l0.507534 -3.0359936l0.6224022 -1.5435486l1.1685104 0.5912266l-0.7110672 4.253475q-0.059257507 0.35445595 -0.32649612 0.53159523q-0.24925232 0.16430473 -0.6037178 0.10509491zm5.2837944 -5.53319q0.21889496 -1.1198654 0.90514755 -1.9081974q0.6888275 -0.80374336 1.6677132 -1.1629982q0.9814606 -0.3746643 2.0602608 -0.19445992q0.92468643 0.1544609 1.371479 0.5142422q0.44680023 0.35977936 0.22822571 0.81435585q-0.08745575 0.23885536 -0.29299927 0.33125114q-0.18756104 0.07956123 -0.4187355 0.040945053q-0.23117065 -0.03861618 -0.51626205 -0.13376236q-1.0581894 -0.3034935 -1.9521942 -0.16768265q-0.8760185 0.122974396 -1.4696617 0.64162827q-0.5936432 0.5186558 -0.7353401 1.3662682l-0.84763336 -0.14159012zm-0.950943 6.256956q-0.36987686 -0.061784744 -0.5521431 -0.2981701q-0.16685867 -0.23381233 -0.105026245 -0.60367966l1.4247093 -8.522358q0.061832428 -0.36986732 0.29567337 -0.5367451q0.24925232 -0.16430473 0.6191292 -0.10251999q0.35446548 0.059209824 0.52132034 0.29302216q0.16685867 0.23381233 0.105026245 0.60367966l-1.4247131 8.522358q-0.061828613 0.36986732 -0.29567337 0.5367451q-0.23384094 0.16687775 -0.5883026 0.10766792zm11.660278 1.9477539q-0.955513 -0.15961075 -1.6333847 -0.7480869q-0.6778717 -0.5884781 -0.9754257 -1.4619389q-0.29497528 -0.88887215 -0.12751007 -1.8905964l1.4968491 -8.953871q0.054100037 -0.3236332 0.2905197 -0.5059223q0.25440216 -0.19512749 0.60887146 -0.13591576q0.3390503 0.056634903 0.5161667 0.323843q0.1796875 0.25179672 0.12558746 0.5754318l-1.4968491 8.953871q-0.14427185 0.86302376 0.26898193 1.5181885q0.41325378 0.6551666 1.1838226 0.78388405l0.5548172 0.09267807q0.29281616 0.04891205 0.4570999 0.29813385q0.16427612 0.24922371 0.10759735 0.5882683q-0.059257507 0.35445595 -0.3419037 0.5290241q-0.28007507 0.15915298 -0.6653671 0.09479523l-0.36987305 -0.06178665zm-3.0267181 -9.091677q-0.30822754 -0.05148697 -0.47766113 -0.26988792q-0.16686249 -0.23381042 -0.1204834 -0.5112114q0.048950195 -0.29281235 0.2802124 -0.44427872q0.23384094 -0.16687775 0.5420685 -0.11539078l4.5463867 0.75943565q0.32363892 0.05406189 0.49049377 0.28787422q0.1694336 0.21839905 0.1204834 0.5112114q-0.04637146 0.27740097 -0.2802124 0.44427872q-0.23126984 0.15146637 -0.55490875 0.09740448l-4.546379 -0.75943565z" fill-rule="nonzero"/></g></svg>