<svg version="1.1" viewBox="0.0 0.0 1000.0 100.0" fill="none" stroke="none" stroke-linecap="square" stroke-miterlimit="10" xmlns:xlink="http://www.w3.org/1999/xlink" xmlns="http://www.w3.org/2000/svg"><clipPath id="p.0"><path d="m0 0l1000.0 0l0 100.0l-1000.0 0l0 -100.0z" clip-rule="nonzero"/></clipPath><g clip-path="url(#p.0)"><path fill="#000000" fill-opacity="0.0" d="m0 0l1000.0 0l0 100.0l-1000.0 0z" fill-rule="evenodd"/><path fill="#ffffff" d="m7.538058E-4 -0.14173229l50.14173 0l0 50.14173l-50.14173 0z" fill-rule="evenodd"/><path fill="#000000" d="m49.860737 -0.14173229l50.141735 0l0 50.14173l-50.141735 0z" fill-rule="evenodd"/><path fill="#000000" d="m1.4724409E-4 49.999706l50.14173 0l0 50.141727l-50.14173 0z" fill-rule="evenodd"/><path fill="#ffffff" d="m49.86013 49.999706l50.14173 0l0 50.141727l-50.14173 0z" fill-rule="evenodd"/><path fill="#ffffff" d="m100.00338 -0.14173229l50.14173 0l0 50.14173l-50.14173 0z" fill-rule="evenodd"/><path fill="#000000" d="m149.86336 -0.14173229l50.14174 0l0 50.14173l-50.14174 0z" fill-rule="evenodd"/><path fill="#000000" d="m100.00277 49.999706l50.14173 0l0 50.141727l-50.14173 0z" fill-rule="evenodd"/><path fill="#ffffff" d="m149.86275 49.999706l50.14174 0l0 50.141727l-50.14174 0z" fill-rule="evenodd"/><path fill="#ffffff" d="m200.006 -0.14173229l50.14174 0l0 50.14173l-50.14174 0z" fill-rule="evenodd"/><path fill="#000000" d="m249.86598 -0.14173229l50.14174 0l0 50.14173l-50.14174 0z" fill-rule="evenodd"/><path fill="#000000" d="m200.0054 49.999706l50.141724 0l0 50.141727l-50.141724 0z" fill-rule="evenodd"/><path fill="#ffffff" d="m249.86537 49.999706l50.14174 0l0 50.141727l-50.14174 0z" fill-rule="evenodd"/><path fill="#ffffff" d="m300.00864 -0.14173229l50.141724 0l0 50.14173l-50.141724 0z" fill-rule="evenodd"/><path fill="#000000" d="m349.86862 -0.14173229l50.141724 0l0 50.14173l-50.141724 0z" fill-rule="evenodd"/><path fill="#000000" d="m300.00803 49.999706l50.141724 0l0 50.141727l-50.141724 0z" fill-rule="evenodd"/><path fill="#ffffff" d="m349.868 49.999706l50.141724 0l0 50.141727l-50.141724 0z" fill-rule="evenodd"/><path fill="#ffffff" d="m400.01126 -0.14173229l50.141724 0l0 50.14173l-50.141724 0z" fill-rule="evenodd"/><path fill="#000000" d="m449.87125 -0.14173229l50.141724 0l0 50.14173l-50.141724 0z" fill-rule="evenodd"/><path fill="#000000" d="m400.01065 49.999706l50.141724 0l0 50.141727l-50.141724 0z" fill-rule="evenodd"/><path fill="#ffffff" d="m449.87064 49.999706l50.141724 0l0 50.141727l-50.141724 0z" fill-rule="evenodd"/><path fill="#ffffff" d="m500.0139 -0.14173229l50.141754 0l0 50.14173l-50.141754 0z" fill-rule="evenodd"/><path fill="#000000" d="m549.87384 -0.14173229l50.141724 0l0 50.14173l-50.141724 0z" fill-rule="evenodd"/><path fill="#000000" d="m500.01328 49.999706l50.141754 0l0 50.141727l-50.141754 0z" fill-rule="evenodd"/><path fill="#ffffff" d="m549.8732 49.999706l50.141785 0l0 50.141727l-50.141785 0z" fill-rule="evenodd"/><path fill="#ffffff" d="m600.0165 -0.14173229l50.141785 0l0 50.14173l-50.141785 0z" fill-rule="evenodd"/><path fill="#000000" d="m649.87646 -0.14173229l50.141724 0l0 50.14173l-50.141724 0z" fill-rule="evenodd"/><path fill="#000000" d="m600.01587 49.999706l50.141785 0l0 50.141727l-50.141785 0z" fill-rule="evenodd"/><path fill="#ffffff" d="m649.87585 49.999706l50.141785 0l0 50.141727l-50.141785 0z" fill-rule="evenodd"/><path fill="#ffffff" d="m700.0191 -0.14173229l50.141785 0l0 50.14173l-50.141785 0z" fill-rule="evenodd"/><path fill="#000000" d="m749.8791 -0.14173229l50.141724 0l0 50.14173l-50.141724 0z" fill-rule="evenodd"/><path fill="#000000" d="m700.0185 49.999706l50.141785 0l0 50.141727l-50.141785 0z" fill-rule="evenodd"/><path fill="#ffffff" d="m749.8785 49.999706l50.141785 0l0 50.141727l-50.141785 0z" fill-rule="evenodd"/><path fill="#ffffff" d="m800.0217 -0.14173229l50.141785 0l0 50.14173l-50.141785 0z" fill-rule="evenodd"/><path fill="#000000" d="m849.8817 -0.14173229l50.141724 0l0 50.14173l-50.141724 0z" fill-rule="evenodd"/><path fill="#000000" d="m800.0211 49.999706l50.141785 0l0 50.141727l-50.141785 0z" fill-rule="evenodd"/><path fill="#ffffff" d="m849.8811 49.999706l50.141785 0l0 50.141727l-50.141785 0z" fill-rule="evenodd"/><path fill="#ffffff" d="m900.02435 -0.14173229l50.141785 0l0 50.14173l-50.141785 0z" fill-rule="evenodd"/><path fill="#000000" d="m949.88434 -0.14173229l50.141724 0l0 50.14173l-50.141724 0z" fill-rule="evenodd"/><path fill="#000000" d="m900.02374 49.999706l50.141785 0l0 50.141727l-50.141785 0z" fill-rule="evenodd"/><path fill="#ffffff" d="m949.8837 49.999706l50.141785 0l0 50.141727l-50.141785 0z" fill-rule="evenodd"/></g></svg>