<svg version="1.1" viewBox="0.0 0.0 100.0 100.0" fill="none" stroke="none" stroke-linecap="square" stroke-miterlimit="10" xmlns:xlink="http://www.w3.org/1999/xlink" xmlns="http://www.w3.org/2000/svg"><clipPath id="p.0"><path d="m0 0l100.0 0l0 100.0l-100.0 0l0 -100.0z" clip-rule="nonzero"/></clipPath><g clip-path="url(#p.0)"><path fill="#000000" fill-opacity="0.0" d="m0 0l100.0 0l0 100.0l-100.0 0z" fill-rule="evenodd"/><path fill="#434343" d="m4.7532806 17.77655l0 0c0 -7.1986895 5.8356915 -13.034382 13.034382 -13.034382l52.13596 0l0 0c3.456932 0 6.772278 1.3732615 9.216698 3.8176818c2.4444275 2.4444208 3.817688 5.7597666 3.817688 9.2167l0 64.45092c0 7.1986923 -5.8356934 13.034386 -13.034386 13.034386l-52.13596 0c-7.1986904 0 -13.034382 -5.8356934 -13.034382 -13.034386z" fill-rule="evenodd"/><path stroke="#434343" stroke-width="1.0" stroke-linejoin="round" stroke-linecap="butt" d="m4.7532806 17.77655l0 0c0 -7.1986895 5.8356915 -13.034382 13.034382 -13.034382l52.13596 0l0 0c3.456932 0 6.772278 1.3732615 9.216698 3.8176818c2.4444275 2.4444208 3.817688 5.7597666 3.817688 9.2167l0 64.45092c0 7.1986923 -5.8356934 13.034386 -13.034386 13.034386l-52.13596 0c-7.1986904 0 -13.034382 -5.8356934 -13.034382 -13.034386z" fill-rule="evenodd"/><path fill="#434343" d="m78.682915 21.168362l0 -13.03937l13.039368 13.03937z" fill-rule="evenodd"/><path stroke="#434343" stroke-width="1.0" stroke-linejoin="round" stroke-linecap="butt" d="m78.682915 21.168362l0 -13.03937l13.039368 13.03937z" fill-rule="evenodd"/><path fill="#434343" d="m82.225464 17.028912l0 0c7.1986847 0 13.034378 5.8356915 13.034378 13.03438l0 52.135963l0 0c0 3.456932 -1.3732605 6.772278 -3.8176804 9.216698c-2.4444199 2.4444199 -5.7597656 3.8176804 -9.216698 3.8176804l-64.45093 0c-7.1986895 0 -13.03438 -5.8356934 -13.03438 -13.034378l0 -52.135963c0 -7.1986885 5.835691 -13.03438 13.03438 -13.03438z" fill-rule="evenodd"/><path stroke="#434343" stroke-width="1.0" stroke-linejoin="round" stroke-linecap="butt" d="m82.225464 17.028912l0 0c7.1986847 0 13.034378 5.8356915 13.034378 13.03438l0 52.135963l0 0c0 3.456932 -1.3732605 6.772278 -3.8176804 9.216698c-2.4444199 2.4444199 -5.7597656 3.8176804 -9.216698 3.8176804l-64.45093 0c-7.1986895 0 -13.03438 -5.8356934 -13.03438 -13.034378l0 -52.135963c0 -7.1986885 5.835691 -13.03438 13.03438 -13.03438z" fill-rule="evenodd"/><path fill="#d9d9d9" d="m17.96297 61.86475l0 0c0 -2.745533 2.2256947 -4.9712257 4.9712276 -4.9712257l54.15203 0c1.3184509 0 2.5829086 0.5237503 3.5151901 1.4560394c0.9322891 0.9322853 1.4560394 2.1967354 1.4560394 3.5151863l0 19.88432c0 2.7455292 -2.2256927 4.971222 -4.9712296 4.971222l-54.15203 0c-2.745533 0 -4.9712276 -2.2256927 -4.9712276 -4.971222z" fill-rule="evenodd"/><path stroke="#d9d9d9" stroke-width="1.0" stroke-linejoin="round" stroke-linecap="butt" d="m17.96297 61.86475l0 0c0 -2.745533 2.2256947 -4.9712257 4.9712276 -4.9712257l54.15203 0c1.3184509 0 2.5829086 0.5237503 3.5151901 1.4560394c0.9322891 0.9322853 1.4560394 2.1967354 1.4560394 3.5151863l0 19.88432c0 2.7455292 -2.2256927 4.971222 -4.9712296 4.971222l-54.15203 0c-2.745533 0 -4.9712276 -2.2256927 -4.9712276 -4.971222z" fill-rule="evenodd"/><path fill="#d9d9d9" d="m26.4962 34.56492l37.238644 0c1.3184547 0 2.5829048 -0.5237541 3.515194 -1.4560394c0.9322815 -0.9322853 1.4560394 -2.1967373 1.4560394 -3.5151901l0 -24.855543c0 -2.169609E-4 -1.8310547E-4 -3.9291382E-4 -3.9672852E-4 -3.9291382E-4l-47.18071 3.9291382E-4l0 0c-2.1743774E-4 0 -3.9291382E-4 1.7595291E-4 -3.9291382E-4 3.9339066E-4l3.9291382E-4 24.85515l0 0c0 2.745533 2.2256947 4.9712296 4.9712296 4.9712296z" fill-rule="evenodd"/><path stroke="#d9d9d9" stroke-width="1.0" stroke-linejoin="round" stroke-linecap="butt" d="m26.4962 34.56492l37.238644 0c1.3184547 0 2.5829048 -0.5237541 3.515194 -1.4560394c0.9322815 -0.9322853 1.4560394 -2.1967373 1.4560394 -3.5151901l0 -24.855543c0 -2.169609E-4 -1.8310547E-4 -3.9291382E-4 -3.9672852E-4 -3.9291382E-4l-47.18071 3.9291382E-4l0 0c-2.1743774E-4 0 -3.9291382E-4 1.7595291E-4 -3.9291382E-4 3.9339066E-4l3.9291382E-4 24.85515l0 0c0 2.745533 2.2256947 4.9712296 4.9712296 4.9712296z" fill-rule="evenodd"/><path fill="#b7b7b7" d="m20.039602 63.424015l0 0c0 -1.5133476 1.2268105 -2.740158 2.740158 -2.740158l54.456688 0c0.726738 0 1.423706 0.2886963 1.9375839 0.80257416c0.5138855 0.51387787 0.80257416 1.2108498 0.80257416 1.9375839l0 0l0 0c0 1.5133476 -1.2268066 2.7401543 -2.740158 2.7401543l-54.456688 0c-1.5133476 0 -2.740158 -1.2268066 -2.740158 -2.7401543z" fill-rule="evenodd"/><path fill="#b7b7b7" d="m20.039602 71.80534l0 0c0 -1.5133514 1.2268105 -2.740158 2.740158 -2.740158l54.456688 0c0.726738 0 1.423706 0.2886963 1.9375839 0.80257416c0.5138855 0.51387787 0.80257416 1.210846 0.80257416 1.9375839l0 0l0 0c0 1.5133438 -1.2268066 2.740158 -2.740158 2.740158l-54.456688 0c-1.5133476 0 -2.740158 -1.2268143 -2.740158 -2.740158z" fill-rule="evenodd"/><path fill="#b7b7b7" d="m20.039602 80.18667l0 0c0 -1.5133438 1.2268105 -2.740158 2.740158 -2.740158l54.456688 0c0.726738 0 1.423706 0.2886963 1.9375839 0.80257416c0.5138855 0.51387787 0.80257416 1.2108536 0.80257416 1.9375839l0 0l0 0c0 1.5133514 -1.2268066 2.740158 -2.740158 2.740158l-54.456688 0c-1.5133476 0 -2.740158 -1.2268066 -2.740158 -2.740158z" fill-rule="evenodd"/><path fill="#cccccc" d="m51.376347 27.714914l5.9212 0l0 0c0.39261246 0 0.76914215 -0.1559639 1.0467606 -0.4335823c0.2776184 -0.2776184 0.4335823 -0.65415 0.4335823 -1.0467625l0 -21.480286c0 -4.053116E-5 -3.0517578E-5 -7.390976E-5 -7.247925E-5 -7.390976E-5l-8.881817 7.390976E-5l0 0c-4.196167E-5 0 -7.247925E-5 3.33786E-5 -7.247925E-5 7.43866E-5l7.247925E-5 21.48021l0 0c0 0.81757164 0.66277313 1.4803448 1.4803467 1.4803448z" fill-rule="evenodd"/><path stroke="#cccccc" stroke-width="1.0" stroke-linejoin="round" stroke-linecap="butt" d="m51.376347 27.714914l5.9212 0l0 0c0.39261246 0 0.76914215 -0.1559639 1.0467606 -0.4335823c0.2776184 -0.2776184 0.4335823 -0.65415 0.4335823 -1.0467625l0 -21.480286c0 -4.053116E-5 -3.0517578E-5 -7.390976E-5 -7.247925E-5 -7.390976E-5l-8.881817 7.390976E-5l0 0c-4.196167E-5 0 -7.247925E-5 3.33786E-5 -7.247925E-5 7.43866E-5l7.247925E-5 21.48021l0 0c0 0.81757164 0.66277313 1.4803448 1.4803467 1.4803448z" fill-rule="evenodd"/></g></svg>