<svg version="1.1" viewBox="0.0 0.0 250.0 250.0" fill="none" stroke="none" stroke-linecap="square" stroke-miterlimit="10" xmlns:xlink="http://www.w3.org/1999/xlink" xmlns="http://www.w3.org/2000/svg"><clipPath id="p.0"><path d="m0 0l250.0 0l0 250.0l-250.0 0l0 -250.0z" clip-rule="nonzero"/></clipPath><g clip-path="url(#p.0)"><path fill="#000000" fill-opacity="0.0" d="m0 0l250.0 0l0 250.0l-250.0 0z" fill-rule="evenodd"/><path fill="#999999" d="m100.85594 55.98819l6.5403976 -48.31496l35.23417 0l6.54039 48.31496z" fill-rule="evenodd"/><path stroke="#999999" stroke-width="1.0" stroke-linejoin="round" stroke-linecap="butt" d="m100.85594 55.98819l6.5403976 -48.31496l35.23417 0l6.54039 48.31496z" fill-rule="evenodd"/><path fill="#999999" d="m149.1709 194.01181l-6.54039 48.314957l-35.23417 0l-6.5403976 -48.314957z" fill-rule="evenodd"/><path stroke="#999999" stroke-width="1.0" stroke-linejoin="round" stroke-linecap="butt" d="m149.1709 194.01181l-6.54039 48.314957l-35.23417 0l-6.5403976 -48.314957z" fill-rule="evenodd"/><path fill="#999999" d="m194.01181 100.84252l48.314957 6.5403976l0 35.23416l-48.314957 6.5404053z" fill-rule="evenodd"/><path stroke="#999999" stroke-width="1.0" stroke-linejoin="round" stroke-linecap="butt" d="m194.01181 100.84252l48.314957 6.5403976l0 35.23416l-48.314957 6.5404053z" fill-rule="evenodd"/><path fill="#999999" d="m55.98819 149.15749l-48.31496 -6.5404053l0 -35.23416l48.31496 -6.5403976z" fill-rule="evenodd"/><path stroke="#999999" stroke-width="1.0" stroke-linejoin="round" stroke-linecap="butt" d="m55.98819 149.15749l-48.31496 -6.5404053l0 -35.23416l48.31496 -6.5403976z" fill-rule="evenodd"/><path fill="#999999" d="m156.70746 59.138195l38.799255 -29.547197l24.921173 24.921167l-29.547195 38.79926z" fill-rule="evenodd"/><path stroke="#999999" stroke-width="1.0" stroke-linejoin="round" stroke-linecap="butt" d="m156.70746 59.138195l38.799255 -29.547197l24.921173 24.921167l-29.547195 38.79926z" fill-rule="evenodd"/><path fill="#999999" d="m93.29264 190.88069l-38.79926 29.547195l-24.921167 -24.921173l29.547197 -38.799255z" fill-rule="evenodd"/><path stroke="#999999" stroke-width="1.0" stroke-linejoin="round" stroke-linecap="butt" d="m93.29264 190.88069l-38.79926 29.547195l-24.921167 -24.921173l29.547197 -38.799255z" fill-rule="evenodd"/><path fill="#999999" d="m190.8618 156.70735l29.547195 38.79927l-24.921158 24.921158l-38.79927 -29.547195z" fill-rule="evenodd"/><path stroke="#999999" stroke-width="1.0" stroke-linejoin="round" stroke-linecap="butt" d="m190.8618 156.70735l29.547195 38.79927l-24.921158 24.921158l-38.79927 -29.547195z" fill-rule="evenodd"/><path fill="#999999" d="m59.119312 93.29254l-29.5472 -38.79926l24.92117 -24.92117l38.79926 29.5472z" fill-rule="evenodd"/><path stroke="#999999" stroke-width="1.0" stroke-linejoin="round" stroke-linecap="butt" d="m59.119312 93.29254l-29.5472 -38.79926l24.92117 -24.92117l38.79926 29.5472z" fill-rule="evenodd"/><path fill="#898989" d="m35.20225 125.0l0 0c0 -49.601257 40.209766 -89.81102 89.81102 -89.81102l0 0c23.819366 0 46.663147 9.462204 63.50598 26.305038c16.842834 16.842838 26.305038 39.68662 26.305038 63.505985l0 0c0 49.601257 -40.209763 89.81102 -89.81102 89.81102l0 0c-49.601257 0 -89.81102 -40.209763 -89.81102 -89.81102zm48.54465 0c0 22.790787 18.475586 41.266373 41.266373 41.266373c22.790787 0 41.266373 -18.475586 41.266373 -41.266373c0 -22.790787 -18.475586 -41.266373 -41.266373 -41.266373l0 0c-22.790787 0 -41.266373 18.475586 -41.266373 41.266373z" fill-rule="evenodd"/><path stroke="#898989" stroke-width="8.0" stroke-linejoin="round" stroke-linecap="butt" d="m35.20225 125.0l0 0c0 -49.601257 40.209766 -89.81102 89.81102 -89.81102l0 0c23.819366 0 46.663147 9.462204 63.50598 26.305038c16.842834 16.842838 26.305038 39.68662 26.305038 63.505985l0 0c0 49.601257 -40.209763 89.81102 -89.81102 89.81102l0 0c-49.601257 0 -89.81102 -40.209763 -89.81102 -89.81102zm48.54465 0c0 22.790787 18.475586 41.266373 41.266373 41.266373c22.790787 0 41.266373 -18.475586 41.266373 -41.266373c0 -22.790787 -18.475586 -41.266373 -41.266373 -41.266373l0 0c-22.790787 0 -41.266373 18.475586 -41.266373 41.266373z" fill-rule="evenodd"/></g></svg>