<svg version="1.1" viewBox="0.0 0.0 100.0 100.0" fill="none" stroke="none" stroke-linecap="square" stroke-miterlimit="10" xmlns:xlink="http://www.w3.org/1999/xlink" xmlns="http://www.w3.org/2000/svg"><clipPath id="p.0"><path d="m0 0l100.0 0l0 100.0l-100.0 0l0 -100.0z" clip-rule="nonzero"/></clipPath><g clip-path="url(#p.0)"><path fill="#000000" fill-opacity="0.0" d="m0 0l100.0 0l0 100.0l-100.0 0z" fill-rule="evenodd"/><path fill="#b7b7b7" d="m77.354774 4.649493l0 0c0.9912567 -1.3502085 2.8891068 -1.6408105 4.238968 -0.6490774l2.8282623 2.0779085l0 0c0.6482239 0.47624683 1.0808029 1.1905613 1.2025757 1.9858017c0.12176514 0.7952404 -0.07724762 1.606266 -0.55326843 2.2546587l-62.42609 85.03172c-0.9912567 1.3502045 -2.8891048 1.6408081 -4.238964 0.64907837l-2.8282642 -2.0779114c-1.3498583 -0.99173737 -1.640563 -2.8902512 -0.6493063 -4.2404633z" fill-rule="evenodd"/><path fill="#e06666" d="m52.18123 25.100073l0 0c0.06088257 -0.66101456 0.64419174 -1.1299725 1.3028526 -1.0474434l24.26044 3.0397224c0.31629944 0.039632797 0.6080322 0.20373917 0.8110199 0.45622063c0.20298004 0.25247955 0.30059052 0.5726528 0.27135468 0.8900833l-0.44094086 4.7873535c-0.06088257 0.66101456 -0.6441879 1.1299744 -1.3028488 1.0474472l-24.26044 -3.0397263c-0.6586647 -0.08252716 -1.143261 -0.6852875 -1.0823784 -1.346302z" fill-rule="evenodd"/><path fill="#e06666" d="m44.58099 35.456146l0 0c0.06088257 -0.66101456 0.64419174 -1.1299706 1.3028526 -1.0474434l24.260437 3.0397224c0.31630707 0.03963089 0.6080322 0.20373917 0.8110199 0.45621872c0.20298767 0.25247955 0.30059814 0.5726547 0.2713623 0.8900833l-0.44094086 4.7873573c-0.06088257 0.66101456 -0.64419556 1.1299706 -1.3028564 1.0474434l-24.260437 -3.0397224c-0.6586647 -0.082530975 -1.143261 -0.6852913 -1.0823784 -1.3463058z" fill-rule="evenodd"/><path fill="#e06666" d="m36.98075 45.81222l0 0c0.06088257 -0.6610184 0.6441879 -1.1299744 1.3028526 -1.0474472l24.260437 3.0397263c0.31630325 0.03963089 0.60803604 0.20373535 0.8110199 0.45621872c0.20298386 0.25247955 0.30059433 0.5726509 0.2713585 0.8900833l-0.44094086 4.7873535c-0.06088257 0.66101456 -0.64419174 1.1299744 -1.3028526 1.0474434l-24.26044 -3.0397224c-0.6586609 -0.08252716 -1.1432571 -0.6852875 -1.0823746 -1.346302z" fill-rule="evenodd"/><path fill="#e06666" d="m29.38051 56.168293l0 0c0.06088257 -0.66101456 0.64418983 -1.1299744 1.3028545 -1.0474434l24.260437 3.0397224c0.31630325 0.03963089 0.6080322 0.20373917 0.8110199 0.45621872c0.20298386 0.25247955 0.30059433 0.5726547 0.2713585 0.8900833l-0.44094086 4.7873535c-0.06088257 0.6610184 -0.64419174 1.1299744 -1.3028526 1.0474472l-24.260439 -3.0397263c-0.6586647 -0.08252716 -1.143261 -0.6852875 -1.0823784 -1.346302z" fill-rule="evenodd"/><path fill="#e06666" d="m21.780272 66.52437l0 0c0.06088257 -0.6610184 0.64418983 -1.1299744 1.3028526 -1.0474472l24.260439 3.0397263c0.31629944 0.039627075 0.6080322 0.20373535 0.8110199 0.4562149c0.20298386 0.25247955 0.30059433 0.5726547 0.2713585 0.8900833l-0.44094086 4.7873535c-0.06088257 0.6610184 -0.64419174 1.1299744 -1.3028564 1.0474472l-24.260437 -3.0397263c-0.6586628 -0.08252716 -1.143259 -0.6852875 -1.0823765 -1.3462982z" fill-rule="evenodd"/><path fill="#cccccc" d="m66.7447 9.147908l17.201355 12.602685c0.18735504 0.13726425 0.31282806 0.3435707 0.34883118 0.573534c0.036003113 0.2299614 -0.02042389 0.46474457 -0.15686798 0.6526966l-2.5721664 3.543293c-6.1035156E-5 8.583069E-5 -1.8310547E-4 1.04904175E-4 -2.670288E-4 4.196167E-5l-18.613907 -13.637837l0 0c-8.392334E-5 -6.198883E-5 -1.02996826E-4 -1.8310547E-4 -4.196167E-5 -2.6893616E-4l2.5722084 -3.543023l0 0c0.28412628 -0.3913908 0.830719 -0.47695923 1.2208557 -0.1911211z" fill-rule="evenodd"/><path fill="#cccccc" d="m33.415596 90.62144l-17.201355 -12.602684c-0.18735123 -0.13726807 -0.31282902 -0.34357452 -0.34882927 -0.5735321c-0.03600025 -0.22996521 0.02042675 -0.46474457 0.15686607 -0.65270233l2.5721684 -3.5432892c6.2942505E-5 -8.392334E-5 1.8310547E-4 -1.0681152E-4 2.670288E-4 -4.5776367E-5l18.613905 13.63784l0 0c8.773804E-5 6.1035156E-5 1.0681152E-4 1.8310547E-4 4.196167E-5 2.670288E-4l-2.5722084 3.5430222l0 0c-0.28412247 0.39139557 -0.8307152 0.47695923 -1.2208557 0.19112396z" fill-rule="evenodd"/><path fill="#666666" d="m76.71389 7.9071827l0 0c1.095871 -1.4872551 3.189911 -1.8045335 4.67717 -0.70866156l0 0c0.7142029 0.52625656 1.1901016 1.3146758 1.322998 2.191814c0.13290405 0.8771391 -0.08808136 1.7711468 -0.61434174 2.4853516l0 0c-1.095871 1.4872551 -3.189911 1.804534 -4.677162 0.7086611l0 0c-1.4872589 -1.0958719 -1.8045349 -3.18991 -0.70866394 -4.677165z" fill-rule="evenodd"/></g></svg>