<svg version="1.1" viewBox="0.0 0.0 250.0 250.0" fill="none" stroke="none" stroke-linecap="square" stroke-miterlimit="10" xmlns:xlink="http://www.w3.org/1999/xlink" xmlns="http://www.w3.org/2000/svg"><clipPath id="p.0"><path d="m0 0l250.0 0l0 250.0l-250.0 0l0 -250.0z" clip-rule="nonzero"/></clipPath><g clip-path="url(#p.0)"><path fill="#000000" fill-opacity="0.0" d="m0 0l250.0 0l0 250.0l-250.0 0z" fill-rule="evenodd"/><path fill="#999999" d="m134.02861 87.30221l0 0c-6.1341476 -5.9004593 -7.0147324 -16.218689 -2.307541 -27.038479c4.707184 -10.81979 14.280548 -20.482494 25.086594 -25.32071c10.806046 -4.838217 21.188217 -4.110256 27.206055 1.907589l-25.102356 25.118107z" fill-rule="evenodd"/><path stroke="#999999" stroke-width="1.0" stroke-linejoin="round" stroke-linecap="butt" d="m134.02861 87.30221l0 0c-6.1341476 -5.9004593 -7.0147324 -16.218689 -2.307541 -27.038479c4.707184 -10.81979 14.280548 -20.482494 25.086594 -25.32071c10.806046 -4.838217 21.188217 -4.110256 27.206055 1.907589l-25.102356 25.118107z" fill-rule="evenodd"/><path fill="#999999" d="m162.7222 116.01211l0 0c5.9004974 6.1286316 16.21576 7.0010605 27.0307 2.2861633c10.814941 -4.714897 20.471664 -14.294327 25.305008 -25.102493c4.8333282 -10.808159 4.102356 -21.188179 -1.9154968 -27.200386l-25.102371 25.11811z" fill-rule="evenodd"/><path stroke="#999999" stroke-width="1.0" stroke-linejoin="round" stroke-linecap="butt" d="m162.7222 116.01211l0 0c5.9004974 6.1286316 16.21576 7.0010605 27.0307 2.2861633c10.814941 -4.714897 20.471664 -14.294327 25.305008 -25.102493c4.8333282 -10.808159 4.102356 -21.188179 -1.9154968 -27.200386l-25.102371 25.11811z" fill-rule="evenodd"/><path fill="#999999" d="m136.63997 52.47007l0 0c-8.686256 8.451164 -10.914169 22.14708 -5.839081 35.89541c5.0750732 13.748329 16.676193 25.444313 30.405182 30.653831c13.728989 5.209511 27.48404 3.1350174 36.05043 -5.437004l-30.440948 -30.425201z" fill-rule="evenodd"/><path stroke="#999999" stroke-width="1.0" stroke-linejoin="round" stroke-linecap="butt" d="m136.63997 52.47007l0 0c-8.686256 8.451164 -10.914169 22.14708 -5.839081 35.89541c5.0750732 13.748329 16.676193 25.444313 30.405182 30.653831c13.728989 5.209511 27.48404 3.1350174 36.05043 -5.437004l-30.440948 -30.425201z" fill-rule="evenodd"/><path fill="#999999" d="m145.61606 87.28856l0 0c1.572815 -1.572815 4.1216736 -1.57164 5.693039 0.0026245117l11.380463 11.401459l0 0c0.7545929 0.7559891 1.1782379 1.7810516 1.1777496 2.8496857c-4.8828125E-4 1.068634 -0.4250946 2.0932999 -1.1803741 2.8485947l-122.682304 122.68229c-1.5728111 1.572815 -4.121666 1.57164 -5.6930275 -0.002609253l-11.380463 -11.401474c-1.5713615 -1.5742493 -1.5701866 -4.125458 0.002626419 -5.6982727z" fill-rule="evenodd"/><path stroke="#999999" stroke-width="1.0" stroke-linejoin="round" stroke-linecap="butt" d="m145.61606 87.28856l0 0c1.572815 -1.572815 4.1216736 -1.57164 5.693039 0.0026245117l11.380463 11.401459l0 0c0.7545929 0.7559891 1.1782379 1.7810516 1.1777496 2.8496857c-4.8828125E-4 1.068634 -0.4250946 2.0932999 -1.1803741 2.8485947l-122.682304 122.68229c-1.5728111 1.572815 -4.121666 1.57164 -5.6930275 -0.002609253l-11.380463 -11.401474c-1.5713615 -1.5742493 -1.5701866 -4.125458 0.002626419 -5.6982727z" fill-rule="evenodd"/></g></svg>