<svg version="1.1" viewBox="0.0 0.0 800.0 500.0" fill="none" stroke="none" stroke-linecap="square" stroke-miterlimit="10" xmlns:xlink="http://www.w3.org/1999/xlink" xmlns="http://www.w3.org/2000/svg"><clipPath id="p.0"><path d="m0 0l800.0 0l0 500.0l-800.0 0l0 -500.0z" clip-rule="nonzero"/></clipPath><g clip-path="url(#p.0)"><path fill="#000000" fill-opacity="0.0" d="m0 0l800.0 0l0 500.0l-800.0 0z" fill-rule="evenodd"/><path fill="#efefef" d="m168.86613 58.241703l0 0c0 -6.401413 5.189377 -11.590786 11.59079 -11.590786l439.08618 0c3.0740356 0 6.022217 1.2211685 8.195923 3.3948631c2.173706 2.1736946 3.3948364 5.121853 3.3948364 8.195923l0 46.361736c0 6.401413 -5.189392 11.59079 -11.590759 11.59079l-439.08618 0c-6.401413 0 -11.59079 -5.189377 -11.59079 -11.59079z" fill-rule="evenodd"/><path stroke="#434343" stroke-width="16.0" stroke-linejoin="round" stroke-linecap="butt" d="m168.86613 58.241703l0 0c0 -6.401413 5.189377 -11.590786 11.59079 -11.590786l439.08618 0c3.0740356 0 6.022217 1.2211685 8.195923 3.3948631c2.173706 2.1736946 3.3948364 5.121853 3.3948364 8.195923l0 46.361736c0 6.401413 -5.189392 11.59079 -11.590759 11.59079l-439.08618 0c-6.401413 0 -11.59079 -5.189377 -11.59079 -11.59079z" fill-rule="evenodd"/><path fill="#000000" d="m210.07144 100.81132q-1.671875 0 -2.71875 -0.796875q-1.03125 -0.8125 -1.65625 -2.484375l-10.5 -29.53125q-0.671875 -1.96875 0.28125 -3.375q0.96875 -1.40625 3.359375 -1.40625q1.671875 0 2.578125 0.78125q0.90625 0.78125 1.484375 2.4375l8.578125 25.53125l-2.234375 0l9.046875 -25.484375q0.625 -1.65625 1.53125 -2.453125q0.90625 -0.8125 2.421875 -0.8125q1.453125 0 2.328125 0.8125q0.890625 0.796875 1.515625 2.515625l8.625 25.421875l-1.921875 0l8.734375 -25.53125q0.53125 -1.609375 1.453125 -2.40625q0.9375 -0.8125 2.5625 -0.8125q2.015625 0 2.953125 1.40625q0.9375 1.40625 0.21875 3.375l-10.609375 29.59375q-0.578125 1.609375 -1.5625 2.421875q-0.984375 0.796875 -2.703125 0.796875q-1.671875 0 -2.65625 -0.796875q-0.984375 -0.8125 -1.609375 -2.484375l-8.21875 -23.234375l1.25 0l-8.328125 23.296875q-0.609375 1.609375 -1.578125 2.421875q-0.96875 0.796875 -2.625 0.796875zm50.387177 0q-1.921875 0 -2.9375 -1.03125q-1.015625 -1.046875 -1.015625 -2.96875l0 -29.59375q0 -1.96875 1.015625 -2.984375q1.015625 -1.015625 2.9375 -1.015625q1.875 0 2.890625 1.015625q1.015625 1.015625 1.015625 2.984375l0 12.375l-0.734375 0q1.203125 -2.546875 3.5625 -3.921875q2.359375 -1.375 5.375 -1.375q3.078125 0 5.046875 1.171875q1.984375 1.15625 2.96875 3.53125q0.984375 2.359375 0.984375 6.0l0 11.8125q0 1.921875 -1.015625 2.96875q-1.015625 1.03125 -2.9375 1.03125q-1.875 0 -2.890625 -1.03125q-1.0 -1.046875 -1.0 -2.96875l0 -11.4375q0 -2.65625 -0.96875 -3.828125q-0.96875 -1.171875 -2.9375 -1.171875q-2.5 0 -3.984375 1.5625q-1.46875 1.5625 -1.46875 4.15625l0 10.71875q0 4.0 -3.90625 4.0zm40.252533 0.109375q-4.53125 0 -7.78125 -1.640625q-3.25 -1.640625 -5.0 -4.625q-1.734375 -3.0 -1.734375 -7.046875q0 -3.953125 1.65625 -6.9375q1.671875 -3.0 4.65625 -4.6875q3.0 -1.6875 6.796875 -1.6875q2.75 0 4.984375 0.90625q2.234375 0.90625 3.84375 2.59375q1.625 1.6875 2.453125 4.109375q0.828125 2.421875 0.828125 5.390625q0 0.984375 -0.625 1.484375q-0.625 0.484375 -1.8125 0.484375l-16.328125 0l0 -4.046875l13.09375 0l-0.828125 0.71875q0 -2.125 -0.625 -3.546875q-0.625 -1.4375 -1.796875 -2.171875q-1.15625 -0.734375 -2.875 -0.734375q-1.921875 0 -3.28125 0.890625q-1.34375 0.890625 -2.078125 2.5625q-0.734375 1.65625 -0.734375 3.984375l0 0.421875q0 3.953125 1.84375 5.828125q1.859375 1.875 5.5 1.875q1.25 0 2.859375 -0.3125q1.609375 -0.3125 3.015625 -1.0q1.1875 -0.5625 2.125 -0.375q0.9375 0.171875 1.453125 0.859375q0.53125 0.671875 0.609375 1.5625q0.078125 0.875 -0.390625 1.734375q-0.46875 0.859375 -1.5625 1.421875q-1.765625 0.984375 -3.984375 1.484375q-2.203125 0.5 -4.28125 0.5zm28.548004 0q-4.53125 0 -7.78125 -1.640625q-3.25 -1.640625 -5.0 -4.625q-1.734375 -3.0 -1.734375 -7.046875q0 -3.953125 1.65625 -6.9375q1.671875 -3.0 4.65625 -4.6875q3.0 -1.6875 6.796875 -1.6875q2.75 0 4.984375 0.90625q2.234375 0.90625 3.84375 2.59375q1.625 1.6875 2.453125 4.109375q0.828125 2.421875 0.828125 5.390625q0 0.984375 -0.625 1.484375q-0.625 0.484375 -1.8125 0.484375l-16.328125 0l0 -4.046875l13.09375 0l-0.828125 0.71875q0 -2.125 -0.625 -3.546875q-0.625 -1.4375 -1.796875 -2.171875q-1.15625 -0.734375 -2.875 -0.734375q-1.921875 0 -3.28125 0.890625q-1.34375 0.890625 -2.078125 2.5625q-0.734375 1.65625 -0.734375 3.984375l0 0.421875q0 3.953125 1.84375 5.828125q1.859375 1.875 5.5 1.875q1.25 0 2.859375 -0.3125q1.609375 -0.3125 3.015625 -1.0q1.1875 -0.5625 2.125 -0.375q0.9375 0.171875 1.453125 0.859375q0.53125 0.671875 0.609375 1.5625q0.078125 0.875 -0.390625 1.734375q-0.46875 0.859375 -1.5625 1.421875q-1.765625 0.984375 -3.984375 1.484375q-2.203125 0.5 -4.28125 0.5zm24.485535 0q-4.625 0 -6.921875 -2.578125q-2.28125 -2.578125 -2.28125 -7.671875l0 -23.453125q0 -1.96875 1.015625 -2.984375q1.015625 -1.015625 2.9375 -1.015625q1.875 0 2.890625 1.015625q1.015625 1.015625 1.015625 2.984375l0 23.140625q0 2.125 0.90625 3.140625q0.90625 1.015625 2.421875 1.015625q0.40625 0 0.765625 -0.046875q0.375 -0.046875 0.78125 -0.046875q0.84375 -0.109375 1.171875 0.484375q0.34375 0.59375 0.34375 2.375q0 1.546875 -0.625 2.359375q-0.625 0.8125 -1.921875 1.0625q-0.515625 0.0625 -1.203125 0.140625q-0.671875 0.078125 -1.296875 0.078125zm12.0660095 -0.15625q-1.921875 0 -2.9375 -1.109375q-1.015625 -1.125 -1.015625 -3.15625l0 -17.78125q0 -2.09375 1.015625 -3.203125q1.015625 -1.125 2.9375 -1.125q1.875 0 2.890625 1.125q1.015625 1.109375 1.015625 3.203125l0 17.78125q0 2.03125 -1.0 3.15625q-0.984375 1.109375 -2.90625 1.109375zm0 -30.640625q-2.1875 0 -3.359375 -1.0q-1.171875 -1.015625 -1.171875 -2.890625q0 -1.921875 1.171875 -2.9375q1.171875 -1.015625 3.359375 -1.015625q2.1875 0 3.328125 1.015625q1.140625 1.015625 1.140625 2.9375q0 1.875 -1.140625 2.890625q-1.140625 1.0 -3.328125 1.0zm23.248505 30.796875q-4.53125 0 -7.78125 -1.640625q-3.25 -1.640625 -5.0 -4.625q-1.734375 -3.0 -1.734375 -7.046875q0 -3.953125 1.65625 -6.9375q1.671875 -3.0 4.65625 -4.6875q3.0 -1.6875 6.796875 -1.6875q2.75 0 4.984375 0.90625q2.234375 0.90625 3.84375 2.59375q1.625 1.6875 2.453125 4.109375q0.828125 2.421875 0.828125 5.390625q0 0.984375 -0.625 1.484375q-0.625 0.484375 -1.8125 0.484375l-16.328125 0l0 -4.046875l13.09375 0l-0.828125 0.71875q0 -2.125 -0.625 -3.546875q-0.625 -1.4375 -1.796875 -2.171875q-1.15625 -0.734375 -2.875 -0.734375q-1.921875 0 -3.28125 0.890625q-1.34375 0.890625 -2.078125 2.5625q-0.734375 1.65625 -0.734375 3.984375l0 0.421875q0 3.953125 1.84375 5.828125q1.859375 1.875 5.5 1.875q1.25 0 2.859375 -0.3125q1.609375 -0.3125 3.015625 -1.0q1.1875 -0.5625 2.125 -0.375q0.9375 0.171875 1.453125 0.859375q0.53125 0.671875 0.609375 1.5625q0.078125 0.875 -0.390625 1.734375q-0.46875 0.859375 -1.5625 1.421875q-1.765625 0.984375 -3.984375 1.484375q-2.203125 0.5 -4.28125 0.5zm44.040405 -0.109375q-1.671875 0 -2.71875 -0.796875q-1.03125 -0.8125 -1.65625 -2.484375l-10.5 -29.53125q-0.671875 -1.96875 0.28125 -3.375q0.96875 -1.40625 3.359375 -1.40625q1.671875 0 2.578125 0.78125q0.90625 0.78125 1.484375 2.4375l8.578125 25.53125l-2.234375 0l9.046875 -25.484375q0.625 -1.65625 1.53125 -2.453125q0.90625 -0.8125 2.421875 -0.8125q1.453125 0 2.328125 0.8125q0.890625 0.796875 1.515625 2.515625l8.625 25.421875l-1.921875 0l8.734375 -25.53125q0.53125 -1.609375 1.453125 -2.40625q0.9375 -0.8125 2.5625 -0.8125q2.015625 0 2.953125 1.40625q0.9375 1.40625 0.21875 3.375l-10.609375 29.59375q-0.578125 1.609375 -1.5625 2.421875q-0.984375 0.796875 -2.703125 0.796875q-1.671875 0 -2.65625 -0.796875q-0.984375 -0.8125 -1.609375 -2.484375l-8.21875 -23.234375l1.25 0l-8.328125 23.296875q-0.609375 1.609375 -1.578125 2.421875q-0.96875 0.796875 -2.625 0.796875zm50.387177 0q-1.921875 0 -2.9375 -1.03125q-1.015625 -1.046875 -1.015625 -2.96875l0 -29.59375q0 -1.96875 1.015625 -2.984375q1.015625 -1.015625 2.9375 -1.015625q1.875 0 2.890625 1.015625q1.015625 1.015625 1.015625 2.984375l0 12.375l-0.734375 0q1.203125 -2.546875 3.5625 -3.921875q2.359375 -1.375 5.375 -1.375q3.078125 0 5.046875 1.171875q1.984375 1.15625 2.96875 3.53125q0.984375 2.359375 0.984375 6.0l0 11.8125q0 1.921875 -1.015625 2.96875q-1.015625 1.03125 -2.9375 1.03125q-1.875 0 -2.890625 -1.03125q-1.0 -1.046875 -1.0 -2.96875l0 -11.4375q0 -2.65625 -0.96875 -3.828125q-0.96875 -1.171875 -2.9375 -1.171875q-2.5 0 -3.984375 1.5625q-1.46875 1.5625 -1.46875 4.15625l0 10.71875q0 4.0 -3.90625 4.0zm40.252533 0.109375q-4.53125 0 -7.78125 -1.640625q-3.25 -1.640625 -5.0000305 -4.625q-1.734375 -3.0 -1.734375 -7.046875q0 -3.953125 1.65625 -6.9375q1.6719055 -3.0 4.6562805 -4.6875q3.0 -1.6875 6.796875 -1.6875q2.75 0 4.984375 0.90625q2.234375 0.90625 3.84375 2.59375q1.625 1.6875 2.453125 4.109375q0.828125 2.421875 0.828125 5.390625q0 0.984375 -0.625 1.484375q-0.625 0.484375 -1.8125 0.484375l-16.328125 0l0 -4.046875l13.09375 0l-0.828125 0.71875q0 -2.125 -0.625 -3.546875q-0.625 -1.4375 -1.796875 -2.171875q-1.15625 -0.734375 -2.875 -0.734375q-1.921875 0 -3.28125 0.890625q-1.34375 0.890625 -2.078125 2.5625q-0.734375 1.65625 -0.734375 3.984375l0 0.421875q0 3.953125 1.84375 5.828125q1.859375 1.875 5.5 1.875q1.25 0 2.859375 -0.3125q1.609375 -0.3125 3.015625 -1.0q1.1875 -0.5625 2.125 -0.375q0.9375 0.171875 1.453125 0.859375q0.53125 0.671875 0.609375 1.5625q0.078125 0.875 -0.390625 1.734375q-0.46875 0.859375 -1.5625 1.421875q-1.765625 0.984375 -3.984375 1.484375q-2.203125 0.5 -4.28125 0.5zm28.548035 0q-4.53125 0 -7.78125 -1.640625q-3.25 -1.640625 -5.0 -4.625q-1.734375 -3.0 -1.734375 -7.046875q0 -3.953125 1.65625 -6.9375q1.671875 -3.0 4.65625 -4.6875q3.0 -1.6875 6.796875 -1.6875q2.75 0 4.984375 0.90625q2.234375 0.90625 3.84375 2.59375q1.625 1.6875 2.453125 4.109375q0.828125 2.421875 0.828125 5.390625q0 0.984375 -0.625 1.484375q-0.625 0.484375 -1.8125 0.484375l-16.328125 0l0 -4.046875l13.09375 0l-0.828125 0.71875q0 -2.125 -0.625 -3.546875q-0.625 -1.4375 -1.796875 -2.171875q-1.15625 -0.734375 -2.875 -0.734375q-1.921875 0 -3.28125 0.890625q-1.34375 0.890625 -2.078125 2.5625q-0.734375 1.65625 -0.734375 3.984375l0 0.421875q0 3.953125 1.84375 5.828125q1.859375 1.875 5.5 1.875q1.25 0 2.859375 -0.3125q1.609375 -0.3125 3.015625 -1.0q1.1875 -0.5625 2.125 -0.375q0.9375 0.171875 1.453125 0.859375q0.53125 0.671875 0.609375 1.5625q0.078125 0.875 -0.390625 1.734375q-0.46875 0.859375 -1.5625 1.421875q-1.765625 0.984375 -3.984375 1.484375q-2.203125 0.5 -4.28125 0.5zm24.485535 0q-4.625 0 -6.921875 -2.578125q-2.28125 -2.578125 -2.28125 -7.671875l0 -23.453125q0 -1.96875 1.015625 -2.984375q1.015625 -1.015625 2.9375 -1.015625q1.875 0 2.890625 1.015625q1.015625 1.015625 1.015625 2.984375l0 23.140625q0 2.125 0.90625 3.140625q0.90625 1.015625 2.421875 1.015625q0.40625 0 0.765625 -0.046875q0.375 -0.046875 0.78125 -0.046875q0.84375 -0.109375 1.171875 0.484375q0.34375 0.59375 0.34375 2.375q0 1.546875 -0.625 2.359375q-0.625 0.8125 -1.921875 1.0625q-0.515625 0.0625 -1.203125 0.140625q-0.671875 0.078125 -1.296875 0.078125zm17.634155 0q-2.296875 0 -4.71875 -0.421875q-2.40625 -0.421875 -4.390625 -1.40625q-1.03125 -0.515625 -1.484375 -1.3125q-0.4375 -0.8125 -0.390625 -1.640625q0.0625 -0.84375 0.546875 -1.515625q0.5 -0.671875 1.296875 -0.90625q0.8125 -0.234375 1.796875 0.171875q2.140625 0.890625 3.90625 1.25q1.765625 0.359375 3.484375 0.359375q2.234375 0 3.25 -0.6875q1.015625 -0.703125 1.015625 -1.859375q0 -1.03125 -0.6875 -1.546875q-0.671875 -0.53125 -1.96875 -0.734375l-5.453125 -0.984375q-3.234375 -0.578125 -4.984375 -2.359375q-1.734375 -1.796875 -1.734375 -4.609375q0 -2.609375 1.453125 -4.5q1.46875 -1.90625 4.03125 -2.90625q2.578125 -1.015625 5.859375 -1.015625q2.34375 0 4.3125 0.421875q1.984375 0.40625 3.796875 1.34375q0.9375 0.46875 1.328125 1.25q0.390625 0.78125 0.25 1.609375q-0.125 0.828125 -0.640625 1.515625q-0.515625 0.671875 -1.328125 0.875q-0.796875 0.203125 -1.84375 -0.203125q-1.65625 -0.78125 -3.0625 -1.125q-1.40625 -0.34375 -2.703125 -0.34375q-2.34375 0 -3.390625 0.765625q-1.03125 0.75 -1.03125 1.890625q0 0.890625 0.59375 1.484375q0.59375 0.59375 1.84375 0.8125l5.46875 0.984375q3.375 0.5625 5.140625 2.265625q1.765625 1.6875 1.765625 4.59375q0 3.953125 -3.09375 6.21875q-3.09375 2.265625 -8.234375 2.265625z" fill-rule="nonzero"/><path fill="#434343" d="m202.94756 118.86618l0 0c0 -1.4669876 1.1892395 -2.6562195 2.6562195 -2.6562195l10.624573 0l0 0c0.7044678 0 1.3800964 0.27985382 1.8782349 0.77799225c0.49813843 0.49813843 0.7779846 1.1737595 0.7779846 1.8782272l0 49.018265c0 1.4669952 -1.1892242 2.6562195 -2.6562195 2.6562195l-10.624573 0c-1.46698 0 -2.6562195 -1.1892242 -2.6562195 -2.6562195z" fill-rule="evenodd"/><path stroke="#434343" stroke-width="1.0" stroke-linejoin="round" stroke-linecap="butt" d="m202.94756 118.86618l0 0c0 -1.4669876 1.1892395 -2.6562195 2.6562195 -2.6562195l10.624573 0l0 0c0.7044678 0 1.3800964 0.27985382 1.8782349 0.77799225c0.49813843 0.49813843 0.7779846 1.1737595 0.7779846 1.8782272l0 49.018265c0 1.4669952 -1.1892242 2.6562195 -2.6562195 2.6562195l-10.624573 0c-1.46698 0 -2.6562195 -1.1892242 -2.6562195 -2.6562195z" fill-rule="evenodd"/><path fill="#6aa84f" d="m121.40157 170.54068l557.1969 0l0 329.44882l-557.1969 0z" fill-rule="evenodd"/><path stroke="#000000" stroke-width="4.0" stroke-linejoin="round" stroke-linecap="butt" d="m121.40157 170.54068l557.1969 0l0 329.44882l-557.1969 0z" fill-rule="evenodd"/><path fill="#6fa8dc" fill-opacity="0.8428" d="m563.1392 322.8819l83.49603 0l0 177.10236l-83.49603 0z" fill-rule="evenodd"/><path stroke="#434343" stroke-width="4.0" stroke-linejoin="round" stroke-linecap="butt" d="m563.1392 322.8819l83.49603 0l0 177.10236l-83.49603 0z" fill-rule="evenodd"/><path fill="#6fa8dc" fill-opacity="0.8428" d="m479.6614 322.8819l83.49606 0l0 177.10236l-83.49606 0z" fill-rule="evenodd"/><path stroke="#434343" stroke-width="4.0" stroke-linejoin="round" stroke-linecap="butt" d="m479.6614 322.8819l83.49606 0l0 177.10236l-83.49606 0z" fill-rule="evenodd"/><path fill="#434343" d="m578.92035 118.86618l0 0c0 -1.4669876 1.189209 -2.6562195 2.656189 -2.6562195l10.624573 0l0 0c0.7044678 0 1.380127 0.27985382 1.8782349 0.77799225c0.49816895 0.49813843 0.77801514 1.1737595 0.77801514 1.8782272l0 49.018265c0 1.4669952 -1.189209 2.6562195 -2.65625 2.6562195l-10.624573 0c-1.46698 0 -2.656189 -1.1892242 -2.656189 -2.6562195z" fill-rule="evenodd"/><path stroke="#434343" stroke-width="1.0" stroke-linejoin="round" stroke-linecap="butt" d="m578.92035 118.86618l0 0c0 -1.4669876 1.189209 -2.6562195 2.656189 -2.6562195l10.624573 0l0 0c0.7044678 0 1.380127 0.27985382 1.8782349 0.77799225c0.49816895 0.49813843 0.77801514 1.1737595 0.77801514 1.8782272l0 49.018265c0 1.4669952 -1.189209 2.6562195 -2.65625 2.6562195l-10.624573 0c-1.46698 0 -2.656189 -1.1892242 -2.656189 -2.6562195z" fill-rule="evenodd"/><path fill="#916f06" d="m190.04987 283.91602l156.78741 0l0 177.95276l-156.78741 0z" fill-rule="evenodd"/><path stroke="#916f06" stroke-width="1.0" stroke-linejoin="round" stroke-linecap="butt" d="m190.04987 283.91602l156.78741 0l0 177.95276l-156.78741 0z" fill-rule="evenodd"/><path fill="#7f6000" d="m190.04987 317.87405l0 0c0 -1.4379883 1.1657257 -2.6036987 2.6037292 -2.6036987l151.57996 0c0.69055176 0 1.3528137 0.274292 1.841095 0.76260376c0.48831177 0.48828125 0.7626343 1.1505432 0.7626343 1.841095l0 10.414612c0 1.4379883 -1.165741 2.6037292 -2.6037292 2.6037292l-151.57996 0l0 0c-1.4380035 0 -2.6037292 -1.165741 -2.6037292 -2.6037292z" fill-rule="evenodd"/><path stroke="#7f6000" stroke-width="1.0" stroke-linejoin="round" stroke-linecap="butt" d="m190.04987 317.87405l0 0c0 -1.4379883 1.1657257 -2.6036987 2.6037292 -2.6036987l151.57996 0c0.69055176 0 1.3528137 0.274292 1.841095 0.76260376c0.48831177 0.48828125 0.7626343 1.1505432 0.7626343 1.841095l0 10.414612c0 1.4379883 -1.165741 2.6037292 -2.6037292 2.6037292l-151.57996 0l0 0c-1.4380035 0 -2.6037292 -1.165741 -2.6037292 -2.6037292z" fill-rule="evenodd"/><path fill="#7f6000" d="m190.04987 366.92657l0 0c0 -1.4380188 1.1657257 -2.6037292 2.6037292 -2.6037292l151.57996 0c0.69055176 0 1.3528137 0.2743225 1.841095 0.76260376c0.48831177 0.48828125 0.7626343 1.1505737 0.7626343 1.8411255l0 10.414581c0 1.4379883 -1.165741 2.6037292 -2.6037292 2.6037292l-151.57996 0l0 0c-1.4380035 0 -2.6037292 -1.165741 -2.6037292 -2.6037292z" fill-rule="evenodd"/><path stroke="#7f6000" stroke-width="1.0" stroke-linejoin="round" stroke-linecap="butt" d="m190.04987 366.92657l0 0c0 -1.4380188 1.1657257 -2.6037292 2.6037292 -2.6037292l151.57996 0c0.69055176 0 1.3528137 0.2743225 1.841095 0.76260376c0.48831177 0.48828125 0.7626343 1.1505737 0.7626343 1.8411255l0 10.414581c0 1.4379883 -1.165741 2.6037292 -2.6037292 2.6037292l-151.57996 0l0 0c-1.4380035 0 -2.6037292 -1.165741 -2.6037292 -2.6037292z" fill-rule="evenodd"/><path fill="#7f6000" d="m190.04987 415.97906l0 0c0 -1.4380188 1.1657257 -2.6037292 2.6037292 -2.6037292l151.57996 0c0.69055176 0 1.3528137 0.2743225 1.841095 0.76260376c0.48831177 0.48828125 0.7626343 1.1505737 0.7626343 1.8411255l0 10.414581c0 1.4379883 -1.165741 2.6037292 -2.6037292 2.6037292l-151.57996 0l0 0c-1.4380035 0 -2.6037292 -1.165741 -2.6037292 -2.6037292z" fill-rule="evenodd"/><path stroke="#7f6000" stroke-width="1.0" stroke-linejoin="round" stroke-linecap="butt" d="m190.04987 415.97906l0 0c0 -1.4380188 1.1657257 -2.6037292 2.6037292 -2.6037292l151.57996 0c0.69055176 0 1.3528137 0.2743225 1.841095 0.76260376c0.48831177 0.48828125 0.7626343 1.1505737 0.7626343 1.8411255l0 10.414581c0 1.4379883 -1.165741 2.6037292 -2.6037292 2.6037292l-151.57996 0l0 0c-1.4380035 0 -2.6037292 -1.165741 -2.6037292 -2.6037292z" fill-rule="evenodd"/><path fill="#434343" d="m219.34938 277.31915l0 0c0 -0.57006836 0.46211243 -1.0321655 1.0321655 -1.0321655l4.1285095 0l0 0c0.27374268 0 0.53627014 0.10873413 0.72984314 0.30230713c0.193573 0.193573 0.30230713 0.45611572 0.30230713 0.7298584l0 4.1285095c0 0.57003784 -0.46211243 1.0321655 -1.0321503 1.0321655l-4.1285095 0c-0.5700531 0 -1.0321655 -0.4621277 -1.0321655 -1.0321655z" fill-rule="evenodd"/><path fill="#434343" d="m206.10924 295.78375l0 0c0 -9.024872 7.316086 -16.340942 16.340942 -16.340942l0 0c4.3338776 0 8.490265 1.7216187 11.554779 4.786133c3.0645294 3.0645447 4.786148 7.2209167 4.786148 11.55481l0 0c0 9.024841 -7.316086 16.340942 -16.340927 16.340942l0 0c-9.024857 0 -16.340942 -7.316101 -16.340942 -16.340942z" fill-rule="evenodd"/><path fill="#999999" d="m211.94235 295.78564l0 0c0 -5.804352 4.705368 -10.509735 10.509735 -10.509735l0 0c2.7873535 0 5.460541 1.1072693 7.4315033 3.078247c1.9709473 1.9709473 3.0782166 4.6441345 3.0782166 7.431488l0 0c0 5.8043823 -4.705368 10.509735 -10.50972 10.509735l0 0c-5.804367 0 -10.509735 -4.705353 -10.509735 -10.509735z" fill-rule="evenodd"/><path fill="#434343" d="m240.91081 292.68726l0 0c0.5700531 0 1.0321655 0.46209717 1.0321655 1.032135l0 4.12854l0 0c0 0.27374268 -0.10874939 0.5362549 -0.30230713 0.7298279c-0.193573 0.193573 -0.45610046 0.30230713 -0.7298584 0.30230713l-4.1285095 0c-0.57003784 0 -1.0321503 -0.46209717 -1.0321503 -1.032135l0 -4.12854c0 -0.57003784 0.46211243 -1.032135 1.0321503 -1.032135z" fill-rule="evenodd"/><path fill="#434343" d="m225.53862 314.24255l0 0c0 0.57003784 -0.46211243 1.032135 -1.0321503 1.032135l-4.128525 0l0 0c-0.27374268 0 -0.53627014 -0.10873413 -0.72984314 -0.30230713c-0.193573 -0.193573 -0.30230713 -0.4560852 -0.30230713 -0.7298279l0 -4.12854c0 -0.57003784 0.46211243 -1.032135 1.0321503 -1.032135l4.128525 0c0.57003784 0 1.0321503 0.46209717 1.0321503 1.032135z" fill-rule="evenodd"/><path fill="#434343" d="m203.98332 298.8765l0 0c-0.57003784 0 -1.0321503 -0.4621277 -1.0321503 -1.0321655l0 -4.1285095l0 0c0 -0.27374268 0.10873413 -0.5362854 0.30230713 -0.7298584c0.193573 -0.193573 0.45610046 -0.30230713 0.72984314 -0.30230713l4.1285095 0c0.5700531 0 1.0321655 0.4621277 1.0321655 1.0321655l0 4.1285095c0 0.57003784 -0.46211243 1.0321655 -1.0321655 1.0321655z" fill-rule="evenodd"/><path fill="#434343" d="m233.31491 280.53018l0 0c0.40151978 -0.4015503 1.052536 -0.4015503 1.4540558 0l2.9080353 2.90802l0 0c0.19282532 0.19284058 0.30114746 0.4543457 0.30114746 0.7270508c0 0.27267456 -0.10832214 0.5342102 -0.30114746 0.72702026l-2.9080353 2.9080505c-0.40151978 0.40151978 -1.052536 0.40151978 -1.4540558 0l-2.9080505 -2.9080505c-0.40151978 -0.40151978 -0.40151978 -1.0525513 0 -1.454071z" fill-rule="evenodd"/><path fill="#434343" d="m237.69426 306.64893l0 0c0.40151978 0.40151978 0.40151978 1.0525208 0 1.454071l-2.9080505 2.90802l0 0c-0.19281006 0.19284058 -0.45433044 0.30114746 -0.72702026 0.30114746c-0.27268982 0 -0.53422546 -0.108306885 -0.7270355 -0.30114746l-2.9080505 -2.90802c-0.40151978 -0.4015503 -0.40151978 -1.0525513 0 -1.454071l2.9080505 -2.9080505c0.40151978 -0.40151978 1.052536 -0.40151978 1.4540558 0z" fill-rule="evenodd"/><path fill="#434343" d="m211.57695 311.02103l0 0c-0.40153503 0.4015503 -1.052536 0.4015503 -1.454071 0l-2.9080353 -2.90802l0 0c-0.19282532 -0.19284058 -0.30114746 -0.4543457 -0.30114746 -0.7270508c0 -0.27267456 0.10832214 -0.5342102 0.30114746 -0.72702026l2.9080353 -2.9080505c0.40153503 -0.40151978 1.052536 -0.40151978 1.454071 0l2.9080353 2.9080505c0.40151978 0.40151978 0.40151978 1.0525208 0 1.454071z" fill-rule="evenodd"/><path fill="#434343" d="m207.20049 284.90808l0 0c-0.40151978 -0.4015503 -0.40151978 -1.0525513 0 -1.454071l2.9080505 -2.9080505l0 0c0.19281006 -0.19281006 0.45433044 -0.30114746 0.72702026 -0.30114746c0.27268982 0 0.5342102 0.1083374 0.7270355 0.30114746l2.9080353 2.9080505c0.40153503 0.40151978 0.40153503 1.0525208 0 1.454071l-2.9080353 2.90802c-0.40151978 0.4015503 -1.052536 0.4015503 -1.4540558 0z" fill-rule="evenodd"/><path fill="#434343" d="m218.96664 284.71716l0.9492645 -0.27120972l6.012024 22.398163l-0.9492645 0.27120972z" fill-rule="evenodd"/><path fill="#434343" d="m233.76685 298.3056l-0.24862671 0.9492798l-22.398163 -6.012024l0.24862671 -0.9492798z" fill-rule="evenodd"/><path fill="#434343" d="m233.51874 292.31l0.27120972 0.94924927l-22.420761 6.012024l-0.27120972 -0.94924927z" fill-rule="evenodd"/><path fill="#434343" d="m219.93028 307.1102l-0.9492645 -0.24862671l6.012024 -22.420776l0.9492645 0.24862671z" fill-rule="evenodd"/><path fill="#434343" d="m213.22705 330.6376l0 0c0 -0.48876953 0.39624023 -0.88500977 0.88500977 -0.88500977l3.5399628 0l0 0c0.23472595 0 0.4598236 0.0932312 0.6258087 0.2592163c0.16596985 0.16595459 0.2592163 0.39108276 0.2592163 0.62579346l0 3.5399475c0 0.48880005 -0.39624023 0.8850403 -0.885025 0.8850403l-3.5399628 0c-0.48876953 0 -0.88500977 -0.39624023 -0.88500977 -0.8850403z" fill-rule="evenodd"/><path fill="#434343" d="m201.8744 346.4699l0 0c0 -7.7382812 6.273117 -14.011383 14.011398 -14.011383l0 0c3.7160492 0 7.279907 1.4761963 9.907547 4.1038513c2.627655 2.6276245 4.1038513 6.191498 4.1038513 9.907532l0 0c0 7.7382812 -6.273117 14.011414 -14.011398 14.011414l0 0c-7.7382812 0 -14.011398 -6.2731323 -14.011398 -14.011414z" fill-rule="evenodd"/><path fill="#666666" d="m206.87596 346.47156l0 0c0 -4.976898 4.0345764 -9.011475 9.011475 -9.011475l0 0c2.3899994 0 4.6820984 0.94940186 6.3720856 2.6394043c1.6899719 1.6899719 2.639389 3.9820862 2.639389 6.3720703l0 0c0 4.976898 -4.0345764 9.011475 -9.011475 9.011475l0 0c-4.976898 0 -9.011475 -4.0345764 -9.011475 -9.011475z" fill-rule="evenodd"/><path fill="#434343" d="m231.71472 343.81485l0 0c0.4887848 0 0.88500977 0.39624023 0.88500977 0.88500977l0 3.539978l0 0c0 0.2347107 -0.0932312 0.45980835 -0.2592163 0.62579346c-0.16596985 0.1659851 -0.3910675 0.2592163 -0.62579346 0.2592163l-3.5399628 0c-0.4887848 0 -0.88500977 -0.39624023 -0.88500977 -0.88500977l0 -3.539978c0 -0.48876953 0.39622498 -0.88500977 0.88500977 -0.88500977z" fill-rule="evenodd"/><path fill="#434343" d="m218.53397 362.29727l0 0c0 0.48876953 -0.39624023 0.88500977 -0.885025 0.88500977l-3.5399475 0l0 0c-0.23472595 0 -0.45983887 -0.09326172 -0.6258087 -0.2592163c-0.16596985 -0.1659851 -0.2592163 -0.39108276 -0.2592163 -0.62579346l0 -3.539978c0 -0.48876953 0.39624023 -0.88500977 0.885025 -0.88500977l3.5399475 0c0.4887848 0 0.885025 0.39624023 0.885025 0.88500977z" fill-rule="evenodd"/><path fill="#434343" d="m200.05156 349.12177l0 0c-0.4887848 0 -0.885025 -0.39624023 -0.885025 -0.88500977l0 -3.539978l0 0c0 -0.2347107 0.09324646 -0.45980835 0.2592163 -0.62579346c0.1659851 -0.16595459 0.39108276 -0.2592163 0.6258087 -0.2592163l3.5399628 0c0.48876953 0 0.88500977 0.39624023 0.88500977 0.88500977l0 3.539978c0 0.48876953 -0.39624023 0.88500977 -0.88500977 0.88500977z" fill-rule="evenodd"/><path fill="#434343" d="m225.20168 333.39087l0 0c0.34428406 -0.34429932 0.9024811 -0.34429932 1.2467651 0l2.4934845 2.4934692l0 0c0.16532898 0.16534424 0.25820923 0.3895874 0.25820923 0.62338257c0 0.23382568 -0.09288025 0.45806885 -0.25820923 0.6234131l-2.4934845 2.4934692c-0.34428406 0.3442688 -0.9024811 0.3442688 -1.2467651 0l-2.4934845 -2.4934692c-0.34428406 -0.34429932 -0.34428406 -0.90249634 0 -1.2467957z" fill-rule="evenodd"/><path fill="#434343" d="m228.95671 355.78616l0 0c0.34428406 0.34429932 0.34428406 0.90249634 0 1.2467957l-2.4934845 2.4934692l0 0c-0.16532898 0.16534424 -0.38957214 0.25820923 -0.62338257 0.25820923c-0.23381042 0 -0.4580536 -0.09286499 -0.62338257 -0.25820923l-2.4934845 -2.4934692c-0.34428406 -0.34429932 -0.34428406 -0.90249634 0 -1.2467957l2.4934845 -2.4934692c0.34428406 -0.3442688 0.9024811 -0.3442688 1.2467651 0z" fill-rule="evenodd"/><path fill="#434343" d="m206.56264 359.535l0 0c-0.34428406 0.34429932 -0.9024811 0.34429932 -1.2467651 0l-2.4934845 -2.4934692l0 0c-0.16532898 -0.16534424 -0.25820923 -0.3895874 -0.25820923 -0.62338257c0 -0.23382568 0.09288025 -0.45806885 0.25820923 -0.62338257l2.4934845 -2.4934998c0.34428406 -0.3442688 0.9024811 -0.3442688 1.2467651 0l2.4934845 2.4934998c0.34428406 0.3442688 0.34428406 0.9024658 0 1.2467651z" fill-rule="evenodd"/><path fill="#434343" d="m202.81009 337.14465l0 0c-0.34428406 -0.3442688 -0.34428406 -0.9024658 0 -1.2467651l2.4934692 -2.4934692l0 0c0.16532898 -0.16534424 0.38957214 -0.25820923 0.6233978 -0.25820923c0.23381042 0 0.4580536 0.09286499 0.62338257 0.25820923l2.4934692 2.4934692c0.34428406 0.34429932 0.34428406 0.90249634 0 1.2467651l-2.4934692 2.4934998c-0.34428406 0.3442688 -0.90249634 0.3442688 -1.2467804 0z" fill-rule="evenodd"/><path fill="#434343" d="m212.89888 336.981l0.8139343 -0.23257446l5.154953 19.205109l-0.8139343 0.23257446z" fill-rule="evenodd"/><path fill="#434343" d="m225.58917 348.63226l-0.21316528 0.81396484l-19.205124 -5.1549683l0.21318054 -0.8139343z" fill-rule="evenodd"/><path fill="#434343" d="m225.37643 343.4914l0.2325592 0.8139343l-19.224487 5.1549377l-0.2325592 -0.8139343z" fill-rule="evenodd"/><path fill="#434343" d="m213.72514 356.18167l-0.8139343 -0.21316528l5.154953 -19.224487l0.8139343 0.21316528z" fill-rule="evenodd"/><path fill="#434343" d="m213.08888 378.58804l0 0c0 -0.5131836 0.4159851 -0.9291687 0.92915344 -0.9291687l3.7164917 0l0 0c0.24642944 0 0.48275757 0.09790039 0.65701294 0.27215576c0.17424011 0.17422485 0.2721405 0.4105835 0.2721405 0.65701294l0 3.7164917c0 0.5131531 -0.41600037 0.9291382 -0.92915344 0.9291382l-3.7164917 0c-0.51316833 0 -0.92915344 -0.4159851 -0.92915344 -0.9291382z" fill-rule="evenodd"/><path fill="#434343" d="m232.54066 392.45236l0 0c0.5131531 0 0.92915344 0.4159851 0.92915344 0.9291382l0 3.7165222l0 0c0 0.24639893 -0.09790039 0.48275757 -0.2721405 0.6569824c-0.17425537 0.17425537 -0.4105835 0.27215576 -0.65701294 0.27215576l-3.7164917 0c-0.51316833 0 -0.92915344 -0.4159851 -0.92915344 -0.9291382l0 -3.7165222c0 -0.5131531 0.4159851 -0.9291382 0.92915344 -0.9291382z" fill-rule="evenodd"/><path fill="#434343" d="m218.67198 411.8977l0 0c0 0.5131531 -0.4159851 0.9291382 -0.92915344 0.9291382l-3.7164917 0l0 0c-0.24642944 0 -0.48275757 -0.09786987 -0.65701294 -0.27212524c-0.17424011 -0.17425537 -0.2721405 -0.4105835 -0.2721405 -0.65701294l0 -3.7164917c0 -0.5131531 0.41600037 -0.9291687 0.92915344 -0.9291687l3.7164917 0c0.51316833 0 0.92915344 0.41601562 0.92915344 0.9291687z" fill-rule="evenodd"/><path fill="#434343" d="m199.22574 398.03522l0 0c-0.5131531 0 -0.92915344 -0.4159851 -0.92915344 -0.9291382l0 -3.7165222l0 0c0 -0.24639893 0.09790039 -0.48275757 0.2721405 -0.6569824c0.17425537 -0.17425537 0.4105835 -0.27215576 0.65701294 -0.27215576l3.716507 0c0.5131531 0 0.9291382 0.4159851 0.9291382 0.9291382l0 3.7165222c0 0.5131531 -0.4159851 0.9291382 -0.9291382 0.9291382z" fill-rule="evenodd"/><path fill="#434343" d="m225.68637 381.48672l0 0c0.36239624 -0.36239624 0.94996643 -0.36239624 1.3123627 0l2.6246338 2.6246338l0 0c0.17404175 0.17404175 0.2718048 0.4100647 0.2718048 0.65618896c0 0.24612427 -0.09776306 0.48214722 -0.2718048 0.65618896l-2.6246338 2.6246338c-0.36239624 0.36239624 -0.94996643 0.36239624 -1.3123627 0l-2.624649 -2.6246338c-0.36239624 -0.36239624 -0.36239624 -0.9499817 0 -1.3123779z" fill-rule="evenodd"/><path fill="#434343" d="m229.63684 405.0458l0 0c0.36239624 0.36239624 0.36239624 0.9499512 0 1.3123474l-2.624649 2.6246338l0 0c-0.17404175 0.17404175 -0.4100647 0.27182007 -0.65618896 0.27182007c-0.24610901 0 -0.48214722 -0.09777832 -0.6561737 -0.27182007l-2.624649 -2.6246338c-0.36239624 -0.36239624 -0.36239624 -0.9499512 0 -1.3123474l2.624649 -2.6246643c0.36239624 -0.36239624 0.94996643 -0.36239624 1.3123627 0z" fill-rule="evenodd"/><path fill="#434343" d="m206.07797 408.98956l0 0c-0.3624115 0.36239624 -0.94996643 0.36239624 -1.3123627 0l-2.624649 -2.6246643l0 0c-0.17402649 -0.17401123 -0.2718048 -0.4100647 -0.2718048 -0.65615845c0 -0.24612427 0.09777832 -0.48214722 0.2718048 -0.65618896l2.624649 -2.6246338c0.36239624 -0.36242676 0.9499512 -0.36242676 1.3123627 0l2.6246338 2.6246338c0.3624115 0.36239624 0.3624115 0.9499512 0 1.3123474z" fill-rule="evenodd"/><path fill="#434343" d="m202.13011 385.4357l0 0c-0.36239624 -0.36239624 -0.36239624 -0.9499512 0 -1.3123474l2.624649 -2.6246643l0 0c0.17402649 -0.17401123 0.4100647 -0.27178955 0.6561737 -0.27178955c0.24612427 0 0.48216248 0.09777832 0.65618896 0.27178955l2.624649 2.6246643c0.36239624 0.36239624 0.36239624 0.9499512 0 1.3123474l-2.624649 2.6246643c-0.36239624 0.36239624 -0.94996643 0.36239624 -1.3123627 0z" fill-rule="evenodd"/><path fill="#434343" d="m201.19153 395.24826l0 0c0 -8.114655 6.578247 -14.692902 14.692917 -14.692902l0 0c3.8968048 0 7.6340027 1.5480042 10.389465 4.303467c2.7554474 2.7554321 4.3034515 6.4926453 4.3034515 10.389435l0 0c0 8.114685 -6.578247 14.692932 -14.692917 14.692932l0 0c-8.11467 0 -14.692917 -6.578247 -14.692917 -14.692932zm7.346466 0l0 0c0 4.0573425 3.2891235 7.346466 7.346451 7.346466c4.0573425 0 7.346466 -3.2891235 7.346466 -7.346466c0 -4.057312 -3.2891235 -7.3464355 -7.346466 -7.3464355l0 0c-4.0573273 0 -7.346451 3.2891235 -7.346451 7.3464355z" fill-rule="evenodd"/><path fill="#434343" d="m304.3766 345.35013l0 0c0 -0.28564453 0.23156738 -0.5172119 0.5172119 -0.5172119l2.0687866 0l0 0c0.13717651 0 0.2687378 0.054504395 0.36572266 0.15148926c0.09698486 0.09701538 0.15148926 0.22854614 0.15148926 0.36572266l0 2.0687866c0 0.28567505 -0.23156738 0.5172119 -0.5172119 0.5172119l-2.0687866 0c-0.28564453 0 -0.5172119 -0.23153687 -0.5172119 -0.5172119z" fill-rule="evenodd"/><path fill="#434343" d="m297.758 354.58167l0 0c0 -4.5128174 3.6583557 -8.171173 8.171173 -8.171173l0 0c2.1671448 0 4.245514 0.86087036 5.777893 2.39328c1.5324097 1.5323792 2.39328 3.6107483 2.39328 5.777893l0 0c0 4.5128174 -3.6583557 8.171173 -8.171173 8.171173l0 0c-4.5128174 0 -8.171173 -3.6583557 -8.171173 -8.171173z" fill-rule="evenodd"/><path fill="#666666" d="m300.6739 354.57797l0 0c0 -2.90036 2.3512268 -5.251587 5.251587 -5.251587l0 0c1.3928223 0 2.7285767 0.5532837 3.71344 1.538147c0.9848633 0.9848633 1.5381775 2.3206482 1.5381775 3.71344l0 0c0 2.9003906 -2.3512268 5.251587 -5.2516174 5.251587l0 0c-2.90036 0 -5.251587 -2.3511963 -5.251587 -5.251587z" fill-rule="evenodd"/><path fill="#434343" d="m315.15366 353.03122l0 0c0.28564453 0 0.5172119 0.23156738 0.5172119 0.5172119l0 2.0687866l0 0c0 0.13717651 -0.054504395 0.2687378 -0.15148926 0.36572266c-0.09698486 0.09701538 -0.22854614 0.15148926 -0.36572266 0.15148926l-2.0687866 0c-0.28564453 0 -0.5172119 -0.23156738 -0.5172119 -0.5172119l0 -2.0687866c0 -0.28564453 0.23156738 -0.5172119 0.5172119 -0.5172119z" fill-rule="evenodd"/><path fill="#434343" d="m307.47052 363.8052l0 0c0 0.28567505 -0.23156738 0.5172119 -0.5172119 0.5172119l-2.0687866 0l0 0c-0.13717651 0 -0.2687378 -0.054473877 -0.36572266 -0.15145874c-0.09701538 -0.09701538 -0.15148926 -0.22857666 -0.15148926 -0.36575317l0 -2.0687866c0 -0.28564453 0.23156738 -0.5172119 0.5172119 -0.5172119l2.0687866 0c0.28564453 0 0.5172119 0.23156738 0.5172119 0.5172119z" fill-rule="evenodd"/><path fill="#434343" d="m296.69653 356.12515l0 0c-0.28564453 0 -0.5172119 -0.23156738 -0.5172119 -0.5172119l0 -2.0687866l0 0c0 -0.13717651 0.054473877 -0.2687378 0.15148926 -0.36572266c0.09698486 -0.09698486 0.22854614 -0.15148926 0.36572266 -0.15148926l2.0687866 0c0.28564453 0 0.5172119 0.23156738 0.5172119 0.5172119l0 2.0687866c0 0.28564453 -0.23156738 0.5172119 -0.5172119 0.5172119z" fill-rule="evenodd"/><path fill="#434343" d="m311.35703 346.9548l0 0c0.20114136 -0.20114136 0.5272522 -0.20114136 0.72839355 0l1.4567261 1.4567261l0 0c0.096588135 0.096588135 0.15084839 0.22756958 0.15084839 0.36419678c0 0.13659668 -0.054260254 0.26757812 -0.15084839 0.36416626l-1.4567261 1.4567261c-0.20114136 0.20114136 -0.5272522 0.20114136 -0.72839355 0l-1.4567261 -1.4567261c-0.20111084 -0.20114136 -0.20111084 -0.5272217 0 -0.72836304z" fill-rule="evenodd"/><path fill="#434343" d="m313.54623 360.00977l0 0c0.20111084 0.20111084 0.20111084 0.5272217 0 0.72836304l-1.4567261 1.4567261l0 0c-0.096588135 0.096588135 -0.2276001 0.15084839 -0.36419678 0.15084839c-0.13659668 0 -0.26760864 -0.054260254 -0.36419678 -0.15084839l-1.4567261 -1.4567261c-0.20114136 -0.20114136 -0.20114136 -0.5272522 0 -0.72836304l1.4567261 -1.4567261c0.20114136 -0.20114136 0.5272522 -0.20114136 0.72839355 0z" fill-rule="evenodd"/><path fill="#434343" d="m300.492 362.1953l0 0c-0.20114136 0.20114136 -0.5272522 0.20114136 -0.72839355 0l-1.4567261 -1.4567261l0 0c-0.096588135 -0.096588135 -0.15084839 -0.22756958 -0.15084839 -0.36416626c0 -0.13659668 0.054260254 -0.26760864 0.15084839 -0.36419678l1.4567261 -1.4567261c0.20114136 -0.20114136 0.5272522 -0.20114136 0.72839355 0l1.4566956 1.4567261c0.20114136 0.20114136 0.20114136 0.5272522 0 0.72836304z" fill-rule="evenodd"/><path fill="#434343" d="m298.30426 349.14325l0 0c-0.20114136 -0.20111084 -0.20114136 -0.5272217 0 -0.72836304l1.4567261 -1.4567261l0 0c0.096588135 -0.096588135 0.22756958 -0.15084839 0.36416626 -0.15084839c0.13659668 0 0.26760864 0.054260254 0.36419678 0.15084839l1.4567261 1.4567261c0.20114136 0.20114136 0.20114136 0.5272522 0 0.72836304l-1.4567261 1.4567261c-0.20114136 0.20114136 -0.5272522 0.20114136 -0.72836304 0z" fill-rule="evenodd"/><path fill="#434343" d="m304.18527 349.0471l0.477417 -0.12854004l3.011383 11.200928l-0.477417 0.12854004z" fill-rule="evenodd"/><path fill="#434343" d="m311.5837 355.83978l-0.12854004 0.477417l-11.200928 -3.0114136l0.12850952 -0.477417z" fill-rule="evenodd"/><path fill="#434343" d="m311.4597 352.84265l0.12854004 0.477417l-11.200958 3.011383l-0.12854004 -0.477417z" fill-rule="evenodd"/><path fill="#434343" d="m304.66696 360.2411l-0.477417 -0.12854004l3.0114136 -11.200958l0.477417 0.12854004z" fill-rule="evenodd"/><path fill="#434343" d="m261.7336 330.63974l0 0c0 -0.48995972 0.39718628 -0.887146 0.887146 -0.887146l3.548523 0l0 0c0.23529053 0 0.4609375 0.09347534 0.62731934 0.25982666c0.16638184 0.16638184 0.25985718 0.3920288 0.25985718 0.62731934l0 3.548523c0 0.48995972 -0.3972168 0.8871765 -0.8871765 0.8871765l-3.548523 0c-0.48995972 0 -0.887146 -0.3972168 -0.887146 -0.8871765z" fill-rule="evenodd"/><path fill="#434343" d="m250.38097 346.47427l0 0c0 -7.740692 6.27507 -14.015747 14.015732 -14.015747l0 0c3.7172241 0 7.2821655 1.476654 9.910645 4.1051025c2.6284485 2.628479 4.1051025 6.1934204 4.1051025 9.910645l0 0c0 7.740692 -6.275055 14.015747 -14.015747 14.015747l0 0c-7.7406616 0 -14.015732 -6.275055 -14.015732 -14.015747z" fill-rule="evenodd"/><path fill="#666666" d="m255.38252 346.46796l0 0c0 -4.9749146 4.0329437 -9.007874 9.007858 -9.007874l0 0c2.389038 0 4.680237 0.94903564 6.3695374 2.6383362c1.6893005 1.6893005 2.6383362 3.9804993 2.6383362 6.3695374l0 0c0 4.9749146 -4.032959 9.007874 -9.007874 9.007874l0 0c-4.9749146 0 -9.007858 -4.032959 -9.007858 -9.007874z" fill-rule="evenodd"/><path fill="#434343" d="m280.21915 343.81485l0 0c0.48995972 0 0.887146 0.39718628 0.887146 0.8871765l0 3.5484924l0 0c0 0.23529053 -0.09347534 0.46096802 -0.25982666 0.62731934c-0.16638184 0.16638184 -0.3920288 0.25985718 -0.62731934 0.25985718l-3.548523 0c-0.48995972 0 -0.887146 -0.39718628 -0.887146 -0.8871765l0 -3.5484924c0 -0.48999023 0.39718628 -0.8871765 0.887146 -0.8871765z" fill-rule="evenodd"/><path fill="#434343" d="m267.04053 362.2951l0 0c0 0.48999023 -0.39718628 0.8871765 -0.887146 0.8871765l-3.548523 0l0 0c-0.23529053 0 -0.4609375 -0.09347534 -0.62731934 -0.25985718c-0.16638184 -0.16635132 -0.25985718 -0.3920288 -0.25985718 -0.62731934l0 -3.5484924c0 -0.48999023 0.39718628 -0.8871765 0.8871765 -0.8871765l3.548523 0c0.48995972 0 0.887146 0.39718628 0.887146 0.8871765z" fill-rule="evenodd"/><path fill="#434343" d="m248.56026 349.12177l0 0c-0.48995972 0 -0.887146 -0.39718628 -0.887146 -0.887146l0 -3.548523l0 0c0 -0.23529053 0.09346008 -0.4609375 0.25984192 -0.62731934c0.16636658 -0.16638184 0.39201355 -0.25985718 0.6273041 -0.25985718l3.548523 0c0.48995972 0 0.88716125 0.3972168 0.88716125 0.8871765l0 3.548523c0 0.48995972 -0.39720154 0.887146 -0.88716125 0.887146z" fill-rule="evenodd"/><path fill="#434343" d="m273.70694 333.39218l0 0c0.34500122 -0.34503174 0.9043579 -0.34503174 1.2493591 0l2.4986572 2.4986572l0 0c0.16567993 0.16567993 0.25875854 0.39038086 0.25875854 0.6246643c0 0.23431396 -0.09307861 0.4590149 -0.25875854 0.6246948l-2.4986572 2.4986572c-0.34500122 0.34500122 -0.9043579 0.34500122 -1.2493591 0l-2.4986572 -2.4986572c-0.34500122 -0.34500122 -0.34500122 -0.9043579 0 -1.2493591z" fill-rule="evenodd"/><path fill="#434343" d="m277.46198 355.78488l0 0c0.34500122 0.34500122 0.34500122 0.9043579 0 1.2493591l-2.4986572 2.4986572l0 0c-0.16567993 0.16567993 -0.39038086 0.25875854 -0.6246948 0.25875854c-0.23431396 0 -0.4590149 -0.09307861 -0.6246948 -0.25875854l-2.4986572 -2.4986572c-0.34500122 -0.34500122 -0.34500122 -0.9043579 0 -1.2493591l2.4986572 -2.4986572c0.34500122 -0.34500122 0.9043884 -0.34500122 1.2493896 0z" fill-rule="evenodd"/><path fill="#434343" d="m255.0705 359.53372l0 0c-0.34500122 0.34500122 -0.9043579 0.34500122 -1.2493591 0l-2.4986725 -2.4986877l0 0c-0.16567993 -0.16564941 -0.2587433 -0.39038086 -0.2587433 -0.6246643c0 -0.23431396 0.093063354 -0.4590149 0.2587433 -0.6246948l2.4986725 -2.4986572c0.34500122 -0.34500122 0.9043579 -0.34500122 1.2493591 0l2.4986572 2.4986572c0.34500122 0.34500122 0.34500122 0.9043579 0 1.2493591z" fill-rule="evenodd"/><path fill="#434343" d="m251.31795 337.14597l0 0c-0.34500122 -0.34500122 -0.34500122 -0.9043579 0 -1.2493591l2.4986572 -2.4986877l0 0c0.16567993 -0.16564941 0.39038086 -0.25872803 0.6246948 -0.25872803c0.2342987 0 0.45899963 0.09307861 0.62467957 0.25872803l2.4986572 2.4986877c0.34500122 0.34500122 0.34500122 0.9043579 0 1.2493591l-2.4986572 2.4986572c-0.34500122 0.34500122 -0.90437317 0.34500122 -1.2493744 0z" fill-rule="evenodd"/><path fill="#434343" d="m261.40543 336.981l0.8189087 -0.2204895l5.165344 19.212616l-0.8188782 0.22045898z" fill-rule="evenodd"/><path fill="#434343" d="m274.09573 348.63226l-0.22045898 0.8189087l-19.2126 -5.165344l0.22045898 -0.8189087z" fill-rule="evenodd"/><path fill="#434343" d="m273.883 343.4914l0.2204895 0.8188782l-19.212616 5.1653748l-0.22045898 -0.8189087z" fill-rule="evenodd"/><path fill="#434343" d="m262.2317 356.18167l-0.8188782 -0.22045898l5.165344 -19.212616l0.8189087 0.2204895z" fill-rule="evenodd"/><path fill="#434343" d="m264.17535 287.0903l0 0c0 -0.4232483 0.34310913 -0.7663574 0.7663574 -0.7663574l3.0653076 0l0 0c0.20324707 0 0.39816284 0.08074951 0.54190063 0.22445679c0.14370728 0.1437378 0.22445679 0.33865356 0.22445679 0.54190063l0 3.0653076c0 0.4232483 -0.34310913 0.7663574 -0.7663574 0.7663574l-3.0653076 0c-0.4232483 0 -0.7663574 -0.34310913 -0.7663574 -0.7663574z" fill-rule="evenodd"/><path fill="#434343" d="m254.34486 300.7998l0 0c0 -6.7007446 5.432022 -12.132751 12.132736 -12.132751l0 0c3.217804 0 6.303833 1.2782898 8.579163 3.5536194c2.2753296 2.2753296 3.5535889 5.361328 3.5535889 8.579132l0 0c0 6.700714 -5.432007 12.132721 -12.132751 12.132721l0 0c-6.700714 0 -12.132736 -5.432007 -12.132736 -12.132721z" fill-rule="evenodd"/><path fill="#999999" d="m258.6758 300.8012l0 0c0 -4.309601 3.4936218 -7.803192 7.8032227 -7.803192l0 0c2.069519 0 4.0543213 0.82211304 5.5177 2.285492c1.4633789 1.4633789 2.285492 3.4481812 2.285492 5.5177l0 0c0 4.309601 -3.4936218 7.8032227 -7.803192 7.8032227l0 0c-4.309601 0 -7.8032227 -3.4936218 -7.8032227 -7.8032227z" fill-rule="evenodd"/><path fill="#434343" d="m280.18417 298.50073l0 0c0.4232483 0 0.7663574 0.34310913 0.7663574 0.7663574l0 3.0653076l0 0c0 0.20324707 -0.08074951 0.39816284 -0.22445679 0.54190063c-0.1437378 0.14370728 -0.33865356 0.22445679 -0.54190063 0.22445679l-3.0653076 0c-0.4232483 0 -0.7663574 -0.34310913 -0.7663574 -0.7663574l0 -3.0653076c0 -0.4232483 0.34310913 -0.7663574 0.7663574 -0.7663574z" fill-rule="evenodd"/><path fill="#434343" d="m268.7707 314.505l0 0c0 0.4232483 -0.34310913 0.7663574 -0.7663269 0.7663574l-3.0653381 0l0 0c-0.20324707 0 -0.39816284 -0.08074951 -0.54190063 -0.2244873c-0.14370728 -0.14370728 -0.22445679 -0.33862305 -0.22445679 -0.5418701l0 -3.0653381c0 -0.4232483 0.34310913 -0.7663269 0.7663574 -0.7663269l3.0653381 0c0.42321777 0 0.7663269 0.3430786 0.7663269 0.7663269z" fill-rule="evenodd"/><path fill="#434343" d="m252.76643 303.0961l0 0c-0.4232483 0 -0.7663574 -0.34310913 -0.7663574 -0.7663574l0 -3.0653381l0 0c0 -0.20324707 0.08074951 -0.39816284 0.22447205 -0.5418701c0.14370728 -0.1437378 0.3386383 -0.22445679 0.5418854 -0.22445679l3.0653229 0c0.4232483 0 0.7663574 0.3430786 0.7663574 0.7663269l0 3.0653381c0 0.4232483 -0.34310913 0.7663574 -0.7663574 0.7663574z" fill-rule="evenodd"/><path fill="#434343" d="m274.5444 289.4744l0 0c0.29812622 -0.29812622 0.7814636 -0.29812622 1.0795898 0l2.1591492 2.1591492l0 0c0.14315796 0.14315796 0.2236023 0.3373413 0.2236023 0.5397949c0 0.20248413 -0.080444336 0.39663696 -0.2236023 0.53982544l-2.1591492 2.1591492c-0.29812622 0.29812622 -0.7814636 0.29812622 -1.0795898 0l-2.1591492 -2.1591492c-0.29812622 -0.29812622 -0.29812622 -0.78149414 0 -1.0796204z" fill-rule="evenodd"/><path fill="#434343" d="m277.79596 308.8669l0 0c0.29812622 0.29812622 0.29812622 0.78149414 0 1.0796204l-2.1591492 2.1591492l0 0c-0.14315796 0.14315796 -0.3373413 0.2236023 -0.5397949 0.2236023c-0.20248413 0 -0.39663696 -0.080444336 -0.53982544 -0.2236023l-2.1591492 -2.1591492c-0.29812622 -0.29812622 -0.29812622 -0.78149414 0 -1.0796204l2.1591492 -2.1591492c0.29812622 -0.2980957 0.78149414 -0.2980957 1.0796204 0z" fill-rule="evenodd"/><path fill="#434343" d="m258.4045 312.1131l0 0c-0.29812622 0.29812622 -0.78149414 0.29812622 -1.0796204 0l-2.159134 -2.1591492l0 0c-0.14317322 -0.14315796 -0.2236023 -0.3373108 -0.2236023 -0.5397949c0 -0.20245361 0.08042908 -0.39663696 0.2236023 -0.5397949l2.159134 -2.1591492c0.29812622 -0.29812622 0.78149414 -0.29812622 1.0796204 0l2.1591492 2.1591492c0.29812622 0.29812622 0.29812622 0.7814636 0 1.0795898z" fill-rule="evenodd"/><path fill="#434343" d="m255.1551 292.72488l0 0c-0.29812622 -0.29812622 -0.29812622 -0.78149414 0 -1.0795898l2.159134 -2.1591492l0 0c0.14315796 -0.14318848 0.3373413 -0.2236023 0.5397949 -0.2236023c0.20248413 0 0.39666748 0.08041382 0.53982544 0.2236023l2.1591492 2.1591492c0.29812622 0.2980957 0.29812622 0.7814636 0 1.0795898l-2.1591492 2.1591492c-0.29812622 0.29812622 -0.78149414 0.29812622 -1.0796204 0z" fill-rule="evenodd"/><path fill="#434343" d="m263.89117 292.58316l0.70480347 -0.2013855l4.4637756 16.630066l-0.70480347 0.2013855z" fill-rule="evenodd"/><path fill="#434343" d="m274.87994 302.67224l-0.18460083 0.70480347l-16.630066 -4.4637756l0.18460083 -0.70480347z" fill-rule="evenodd"/><path fill="#434343" d="m274.69574 298.22064l0.20135498 0.70480347l-16.64685 4.4637756l-0.20135498 -0.704834z" fill-rule="evenodd"/><path fill="#434343" d="m264.60666 309.2094l-0.70480347 -0.18460083l4.4637756 -16.64685l0.70480347 0.18460083z" fill-rule="evenodd"/><path fill="#434343" d="m258.42972 390.74554l0 0c0 -0.33084106 0.268219 -0.59902954 0.59902954 -0.59902954l2.3960266 0l0 0c0.15887451 0 0.31124878 0.06311035 0.42358398 0.17544556c0.112335205 0.112335205 0.17544556 0.26470947 0.17544556 0.42358398l0 2.3960266c0 0.33084106 -0.26818848 0.59902954 -0.59902954 0.59902954l-2.3960266 0c-0.33081055 0 -0.59902954 -0.26818848 -0.59902954 -0.59902954z" fill-rule="evenodd"/><path fill="#434343" d="m270.9703 399.68387l0 0c0.33081055 0 0.59902954 0.26818848 0.59902954 0.59902954l0 2.3960266l0 0c0 0.15887451 -0.06311035 0.31124878 -0.17547607 0.42358398c-0.112335205 0.112335205 -0.26467896 0.17544556 -0.42355347 0.17544556l-2.3960266 0c-0.33084106 0 -0.59902954 -0.26818848 -0.59902954 -0.59902954l0 -2.3960266c0 -0.33084106 0.26818848 -0.59902954 0.59902954 -0.59902954z" fill-rule="evenodd"/><path fill="#434343" d="m262.02917 412.2203l0 0c0 0.33081055 -0.268219 0.598999 -0.59902954 0.598999l-2.3960266 0l0 0c-0.15887451 0 -0.31124878 -0.06311035 -0.42358398 -0.17544556c-0.112335205 -0.112335205 -0.17544556 -0.26470947 -0.17544556 -0.42355347l0 -2.3960266c0 -0.33084106 0.26818848 -0.59902954 0.59902954 -0.59902954l2.3960266 0c0.33081055 0 0.59902954 0.26818848 0.59902954 0.59902954z" fill-rule="evenodd"/><path fill="#434343" d="m249.49217 403.28314l0 0c-0.33084106 0 -0.59902954 -0.26818848 -0.59902954 -0.59902954l0 -2.3960266l0 0c0 -0.158844 0.06311035 -0.31121826 0.17544556 -0.42355347c0.112350464 -0.112335205 0.26470947 -0.17544556 0.42358398 -0.17544556l2.3960266 0c0.3308258 0 0.5990143 0.26818848 0.5990143 0.598999l0 2.3960266c0 0.33084106 -0.26818848 0.59902954 -0.5990143 0.59902954z" fill-rule="evenodd"/><path fill="#434343" d="m266.55133 392.61432l0 0c0.23364258 -0.23361206 0.6124573 -0.23361206 0.84606934 0l1.6921082 1.6921082l0 0c0.112213135 0.112213135 0.17523193 0.26437378 0.17523193 0.4230652c0 0.15866089 -0.0630188 0.31082153 -0.17523193 0.42303467l-1.6921082 1.6921082c-0.23361206 0.23364258 -0.61242676 0.23364258 -0.84606934 0l-1.6921082 -1.6921082c-0.23364258 -0.23364258 -0.23364258 -0.6124573 0 -0.84609985z" fill-rule="evenodd"/><path fill="#434343" d="m269.0982 407.80286l0 0c0.23364258 0.23364258 0.23364258 0.6124573 0 0.84609985l-1.6921082 1.6921082l0 0c-0.112213135 0.11218262 -0.26437378 0.17523193 -0.42303467 0.17523193c-0.1586914 0 -0.31085205 -0.06304932 -0.4230652 -0.17523193l-1.6921082 -1.6921082c-0.23361206 -0.23364258 -0.23361206 -0.6124573 0 -0.84609985l1.6921082 -1.6921082c0.23364258 -0.23364258 0.6124573 -0.23364258 0.84609985 0z" fill-rule="evenodd"/><path fill="#434343" d="m253.9098 410.3454l0 0c-0.23364258 0.23364258 -0.612442 0.23364258 -0.8460846 0l-1.6921082 -1.6921082l0 0c-0.112197876 -0.11218262 -0.17523193 -0.26434326 -0.17523193 -0.42303467c0 -0.15866089 0.06303406 -0.31082153 0.17523193 -0.42303467l1.6921082 -1.6921082c0.23364258 -0.23364258 0.612442 -0.23364258 0.8460846 0l1.6921082 1.6921082c0.23362732 0.23364258 0.23362732 0.6124573 0 0.84606934z" fill-rule="evenodd"/><path fill="#434343" d="m251.36461 395.16025l0 0c-0.23362732 -0.23364258 -0.23362732 -0.6124573 0 -0.84606934l1.6921082 -1.6921082l0 0c0.112197876 -0.112213135 0.26437378 -0.17523193 0.42304993 -0.17523193c0.15866089 0 0.3108368 0.0630188 0.42303467 0.17523193l1.6921082 1.6921082c0.23364258 0.23361206 0.23364258 0.61242676 0 0.84606934l-1.6921082 1.6921082c-0.23364258 0.23364258 -0.612442 0.23364258 -0.8460846 0z" fill-rule="evenodd"/><path fill="#434343" d="m250.75952 401.4864l0 0c0 -5.2315063 4.240982 -9.472504 9.472504 -9.472504l0 0c2.512268 0 4.9216614 0.99798584 6.6980896 2.7744446c1.7764587 1.7764282 2.7744446 4.185791 2.7744446 6.698059l0 0c0 5.231537 -4.2409973 9.472534 -9.472534 9.472534l0 0c-5.2315216 0 -9.472504 -4.2409973 -9.472504 -9.472534zm4.736252 0l0 0c0 2.6157837 2.1204987 4.736267 4.736252 4.736267c2.6157837 0 4.736267 -2.1204834 4.736267 -4.736267c0 -2.6157532 -2.1204834 -4.7362366 -4.736267 -4.7362366l0 0c-2.6157532 0 -4.736252 2.1204834 -4.736252 4.7362366z" fill-rule="evenodd"/><path fill="#434343" d="m304.12396 390.74554l0 0c0 -0.33084106 0.26818848 -0.59902954 0.59902954 -0.59902954l2.3960266 0l0 0c0.15887451 0 0.31121826 0.06311035 0.42355347 0.17544556c0.112335205 0.112335205 0.17544556 0.26470947 0.17544556 0.42358398l0 2.3960266c0 0.33084106 -0.26818848 0.59902954 -0.598999 0.59902954l-2.3960266 0c-0.33084106 0 -0.59902954 -0.26818848 -0.59902954 -0.59902954z" fill-rule="evenodd"/><path fill="#434343" d="m316.66452 399.68387l0 0c0.33084106 0 0.59902954 0.26818848 0.59902954 0.59902954l0 2.3960266l0 0c0 0.15887451 -0.06311035 0.31124878 -0.17544556 0.42358398c-0.112335205 0.112335205 -0.26470947 0.17544556 -0.42358398 0.17544556l-2.3960266 0c-0.33084106 0 -0.59902954 -0.26818848 -0.59902954 -0.59902954l0 -2.3960266c0 -0.33084106 0.26818848 -0.59902954 0.59902954 -0.59902954z" fill-rule="evenodd"/><path fill="#434343" d="m307.7234 412.2203l0 0c0 0.33081055 -0.26818848 0.598999 -0.59902954 0.598999l-2.3960266 0l0 0c-0.15887451 0 -0.31121826 -0.06311035 -0.42358398 -0.17544556c-0.112335205 -0.112335205 -0.17544556 -0.26470947 -0.17544556 -0.42355347l0 -2.3960266c0 -0.33084106 0.26818848 -0.59902954 0.59902954 -0.59902954l2.3960266 0c0.33084106 0 0.59902954 0.26818848 0.59902954 0.59902954z" fill-rule="evenodd"/><path fill="#434343" d="m295.1864 403.28314l0 0c-0.33084106 0 -0.59902954 -0.26818848 -0.59902954 -0.59902954l0 -2.3960266l0 0c0 -0.158844 0.06311035 -0.31121826 0.17544556 -0.42355347c0.112335205 -0.112335205 0.26470947 -0.17544556 0.42358398 -0.17544556l2.3960266 0c0.33081055 0 0.59902954 0.26818848 0.59902954 0.598999l0 2.3960266c0 0.33084106 -0.268219 0.59902954 -0.59902954 0.59902954z" fill-rule="evenodd"/><path fill="#434343" d="m312.24554 392.61432l0 0c0.23364258 -0.23361206 0.6124573 -0.23361206 0.84609985 0l1.6921082 1.6921082l0 0c0.11218262 0.112213135 0.17523193 0.26437378 0.17523193 0.4230652c0 0.15866089 -0.06304932 0.31082153 -0.17523193 0.42303467l-1.6921082 1.6921082c-0.23364258 0.23364258 -0.6124573 0.23364258 -0.84609985 0l-1.6921082 -1.6921082c-0.23361206 -0.23364258 -0.23361206 -0.6124573 0 -0.84609985z" fill-rule="evenodd"/><path fill="#434343" d="m314.79242 407.80286l0 0c0.23364258 0.23364258 0.23364258 0.6124573 0 0.84609985l-1.6921082 1.6921082l0 0c-0.11218262 0.11218262 -0.26437378 0.17523193 -0.42303467 0.17523193c-0.15866089 0 -0.31085205 -0.06304932 -0.42303467 -0.17523193l-1.6921082 -1.6921082c-0.23364258 -0.23364258 -0.23364258 -0.6124573 0 -0.84609985l1.6921082 -1.6921082c0.23364258 -0.23364258 0.61242676 -0.23364258 0.84606934 0z" fill-rule="evenodd"/><path fill="#434343" d="m299.60403 410.3454l0 0c-0.23364258 0.23364258 -0.6124573 0.23364258 -0.84609985 0l-1.6921082 -1.6921082l0 0c-0.11218262 -0.11218262 -0.17523193 -0.26434326 -0.17523193 -0.42303467c0 -0.15866089 0.06304932 -0.31082153 0.17523193 -0.42303467l1.6921082 -1.6921082c0.23364258 -0.23364258 0.6124573 -0.23364258 0.84609985 0l1.6921082 1.6921082c0.23364258 0.23364258 0.23364258 0.6124573 0 0.84606934z" fill-rule="evenodd"/><path fill="#434343" d="m297.05884 395.16025l0 0c-0.23364258 -0.23364258 -0.23364258 -0.6124573 0 -0.84606934l1.6921082 -1.6921082l0 0c0.112213135 -0.112213135 0.26437378 -0.17523193 0.42303467 -0.17523193c0.1586914 0 0.31085205 0.0630188 0.42303467 0.17523193l1.6921387 1.6921082c0.23361206 0.23361206 0.23361206 0.61242676 0 0.84606934l-1.6921387 1.6921082c-0.23361206 0.23364258 -0.61242676 0.23364258 -0.84606934 0z" fill-rule="evenodd"/><path fill="#434343" d="m296.45374 401.4864l0 0c0 -5.2315063 4.2409973 -9.472504 9.472534 -9.472504l0 0c2.512268 0 4.921631 0.99798584 6.6980896 2.7744446c1.7764282 1.7764282 2.774414 4.185791 2.774414 6.698059l0 0c0 5.231537 -4.2409973 9.472534 -9.472504 9.472534l0 0c-5.231537 0 -9.472534 -4.2409973 -9.472534 -9.472534zm4.736267 0l0 0c0 2.6157837 2.1204834 4.736267 4.736267 4.736267c2.6157532 0 4.736267 -2.1204834 4.736267 -4.736267c0 -2.6157532 -2.120514 -4.7362366 -4.736267 -4.7362366l0 0c-2.6157837 0 -4.736267 2.1204834 -4.736267 4.7362366z" fill-rule="evenodd"/><path fill="#434343" d="m308.35382 287.0903l0 0c0 -0.4232483 0.34310913 -0.7663574 0.7663574 -0.7663574l3.0653076 0l0 0c0.20324707 0 0.39819336 0.08074951 0.54190063 0.22445679c0.14370728 0.1437378 0.22445679 0.33865356 0.22445679 0.54190063l0 3.0653076c0 0.4232483 -0.34310913 0.7663574 -0.7663574 0.7663574l-3.0653076 0c-0.4232483 0 -0.7663574 -0.34310913 -0.7663574 -0.7663574z" fill-rule="evenodd"/><path fill="#434343" d="m298.52335 300.7998l0 0c0 -6.7007446 5.432007 -12.132751 12.132751 -12.132751l0 0c3.217804 0 6.3038025 1.2782898 8.579132 3.5536194c2.2753296 2.2753296 3.5535889 5.361328 3.5535889 8.579132l0 0c0 6.700714 -5.432007 12.132721 -12.132721 12.132721l0 0c-6.7007446 0 -12.132751 -5.432007 -12.132751 -12.132721z" fill-rule="evenodd"/><path fill="#999999" d="m302.85428 300.8012l0 0c0 -4.309601 3.4936218 -7.803192 7.8032227 -7.803192l0 0c2.0695496 0 4.0543213 0.82211304 5.5177 2.285492c1.4633789 1.4633789 2.2855225 3.4481812 2.2855225 5.5177l0 0c0 4.309601 -3.4936218 7.8032227 -7.8032227 7.8032227l0 0c-4.309601 0 -7.8032227 -3.4936218 -7.8032227 -7.8032227z" fill-rule="evenodd"/><path fill="#434343" d="m324.36264 298.50073l0 0c0.4232483 0 0.7663574 0.34310913 0.7663574 0.7663574l0 3.0653076l0 0c0 0.20324707 -0.08074951 0.39816284 -0.22445679 0.54190063c-0.14370728 0.14370728 -0.33865356 0.22445679 -0.54190063 0.22445679l-3.0653076 0c-0.4232483 0 -0.7663574 -0.34310913 -0.7663574 -0.7663574l0 -3.0653076c0 -0.4232483 0.34310913 -0.7663574 0.7663574 -0.7663574z" fill-rule="evenodd"/><path fill="#434343" d="m312.9492 314.505l0 0c0 0.4232483 -0.34310913 0.7663574 -0.7663574 0.7663574l-3.0653076 0l0 0c-0.20324707 0 -0.39819336 -0.08074951 -0.54190063 -0.2244873c-0.1437378 -0.14370728 -0.22445679 -0.33862305 -0.22445679 -0.5418701l0 -3.0653381c0 -0.4232483 0.34310913 -0.7663269 0.7663574 -0.7663269l3.0653076 0c0.4232483 0 0.7663574 0.3430786 0.7663574 0.7663269z" fill-rule="evenodd"/><path fill="#434343" d="m296.94492 303.0961l0 0c-0.4232483 0 -0.7663574 -0.34310913 -0.7663574 -0.7663574l0 -3.0653381l0 0c0 -0.20324707 0.08074951 -0.39816284 0.22445679 -0.5418701c0.1437378 -0.1437378 0.33865356 -0.22445679 0.54190063 -0.22445679l3.0653076 0c0.4232483 0 0.7663574 0.3430786 0.7663574 0.7663269l0 3.0653381c0 0.4232483 -0.34310913 0.7663574 -0.7663574 0.7663574z" fill-rule="evenodd"/><path fill="#434343" d="m318.72287 289.4744l0 0c0.29812622 -0.29812622 0.78149414 -0.29812622 1.0796204 0l2.1591492 2.1591492l0 0c0.14315796 0.14315796 0.22357178 0.3373413 0.22357178 0.5397949c0 0.20248413 -0.08041382 0.39663696 -0.22357178 0.53982544l-2.1591492 2.1591492c-0.29812622 0.29812622 -0.78149414 0.29812622 -1.0796204 0l-2.1591492 -2.1591492c-0.29812622 -0.29812622 -0.29812622 -0.78149414 0 -1.0796204z" fill-rule="evenodd"/><path fill="#434343" d="m321.97443 308.8669l0 0c0.29812622 0.29812622 0.29812622 0.78149414 0 1.0796204l-2.1591492 2.1591492l0 0c-0.14315796 0.14315796 -0.3373413 0.2236023 -0.5397949 0.2236023c-0.20245361 0 -0.39663696 -0.080444336 -0.5397949 -0.2236023l-2.1591492 -2.1591492c-0.29812622 -0.29812622 -0.29812622 -0.78149414 0 -1.0796204l2.1591492 -2.1591492c0.29812622 -0.2980957 0.7814636 -0.2980957 1.0795898 0z" fill-rule="evenodd"/><path fill="#434343" d="m302.58298 312.1131l0 0c-0.29812622 0.29812622 -0.7814636 0.29812622 -1.0795898 0l-2.1591492 -2.1591492l0 0c-0.14315796 -0.14315796 -0.2236023 -0.3373108 -0.2236023 -0.5397949c0 -0.20245361 0.080444336 -0.39663696 0.2236023 -0.5397949l2.1591492 -2.1591492c0.29812622 -0.29812622 0.7814636 -0.29812622 1.0795898 0l2.1591492 2.1591492c0.29812622 0.29812622 0.29812622 0.7814636 0 1.0795898z" fill-rule="evenodd"/><path fill="#434343" d="m299.3336 292.72488l0 0c-0.29812622 -0.29812622 -0.29812622 -0.78149414 0 -1.0795898l2.1591492 -2.1591492l0 0c0.14315796 -0.14318848 0.3373108 -0.2236023 0.5397949 -0.2236023c0.20245361 0 0.39663696 0.08041382 0.5397949 0.2236023l2.1591492 2.1591492c0.29812622 0.2980957 0.29812622 0.7814636 0 1.0795898l-2.1591492 2.1591492c-0.29812622 0.29812622 -0.7814636 0.29812622 -1.0795898 0z" fill-rule="evenodd"/><path fill="#434343" d="m308.06964 292.58316l0.704834 -0.2013855l4.463745 16.630066l-0.70480347 0.2013855z" fill-rule="evenodd"/><path fill="#434343" d="m319.0584 302.67224l-0.18457031 0.70480347l-16.630066 -4.4637756l0.18457031 -0.70480347z" fill-rule="evenodd"/><path fill="#434343" d="m318.8742 298.22064l0.2013855 0.70480347l-16.64685 4.4637756l-0.2013855 -0.704834z" fill-rule="evenodd"/><path fill="#434343" d="m308.78513 309.2094l-0.70480347 -0.18460083l4.4637756 -16.64685l0.70480347 0.18460083z" fill-rule="evenodd"/><path fill="#6fa8dc" fill-opacity="0.5346" d="m164.62993 215.2546l284.5354 0l0 246.61418l-284.5354 0z" fill-rule="evenodd"/><path stroke="#434343" stroke-width="8.0" stroke-linejoin="round" stroke-linecap="butt" d="m164.62993 215.2546l284.5354 0l0 246.61418l-284.5354 0z" fill-rule="evenodd"/><path fill="#434343" fill-opacity="0.85" d="m568.17303 411.43307l0 0c0 -4.400879 3.567566 -7.968506 7.968445 -7.968506l0 0c2.1134033 0 4.140259 0.8395386 5.6346436 2.3339233c1.4943237 1.4943848 2.3338623 3.5212097 2.3338623 5.6345825l0 0c0 4.400879 -3.567566 7.968506 -7.968506 7.968506l0 0c-4.400879 0 -7.968445 -3.567627 -7.968445 -7.968506z" fill-rule="evenodd"/><path fill="#434343" fill-opacity="0.85" d="m542.1866 411.43307l0 0c0 -4.400879 3.567627 -7.968506 7.968506 -7.968506l0 0c2.1133423 0 4.1401978 0.8395386 5.6345825 2.3339233c1.4943848 1.4943848 2.3339233 3.5212097 2.3339233 5.6345825l0 0c0 4.400879 -3.567627 7.968506 -7.968506 7.968506l0 0c-4.400879 0 -7.968506 -3.567627 -7.968506 -7.968506z" fill-rule="evenodd"/></g></svg>